M48
; DRILL file {KiCad 8.0.4+dfsg-1} date 2025-03-15T13:21:45+0100
; FORMAT={-:-/ absolute / inch / decimal}
; #@! TF.CreationDate,2025-03-15T13:21:45+01:00
; #@! TF.GenerationSoftware,Kicad,Pcbnew,8.0.4+dfsg-1
; #@! TF.FileFunction,Plated,1,4,PTH
FMAT,2
INCH
; #@! TA.AperFunction,Plated,PTH,ViaDrill
T1C0.0157
; #@! TA.AperFunction,Plated,PTH,ComponentDrill
T2C0.0394
; #@! TA.AperFunction,Plated,PTH,ComponentDrill
T3C0.0472
; #@! TA.AperFunction,Plated,PTH,ComponentDrill
T4C0.0551
%
G90
G05
T1
X5.3445Y-3.4199
X5.3445Y-3.477
X5.3445Y-3.5837
X5.3543Y-3.1199
X5.3543Y-3.177
X5.3543Y-3.2199
X5.3543Y-3.2776
X5.3642Y-3.6417
X5.3937Y-2.313
X5.4035Y-2.6378
X5.4035Y-3.1199
X5.4035Y-3.877
X5.4429Y-3.1199
X5.4429Y-3.6713
X5.4528Y-2.1063
X5.4724Y-2.9921
X5.4724Y-3.5138
X5.4921Y-2.5984
X5.5118Y-2.9921
X5.5118Y-3.3957
X5.5217Y-1.811
X5.5217Y-1.9488
X5.5512Y-2.9921
X5.561Y-2.5984
X5.5709Y-1.7421
X5.5709Y-1.8799
X5.6102Y-3.3071
X5.6693Y-2.2441
X5.6693Y-2.5787
X5.7776Y-2.0472
X5.7832Y-3.8024
X5.7884Y-3.0193
X5.7884Y-3.177
X5.7884Y-3.3343
X5.7884Y-3.4917
X5.7884Y-3.6492
X5.7896Y-1.9093
X5.7972Y-1.6732
X5.8169Y-2.6378
X5.8465Y-2.3307
X5.8465Y-2.6969
X5.8563Y-2.5295
X5.8563Y-3.2972
X5.8957Y-1.8396
X5.8957Y-1.9094
X5.9154Y-2.7953
X5.9547Y-2.5492
X5.9622Y-3.0193
X5.9622Y-3.177
X5.9622Y-3.413
X5.9622Y-3.4917
X5.9622Y-3.6492
X5.9622Y-3.878
X5.9646Y-2.0177
X6.0039Y-3.5335
X6.0236Y-1.7028
X6.063Y-1.7913
X6.1122Y-3.098
X6.1122Y-3.2555
X6.1122Y-3.413
X6.1122Y-3.4917
X6.1122Y-3.6492
X6.1122Y-3.8067
X6.1132Y-1.8307
X6.1417Y-1.9094
X6.1516Y-2.2244
X6.1516Y-2.5492
X6.1614Y-3.1791
X6.1614Y-3.2972
X6.1614Y-3.5335
X6.3583Y-2.3819
X6.4272Y-1.7126
X6.4272Y-1.9685
X6.5551Y-2.3425
X6.7028Y-1.8209
X6.7126Y-3.0217
X6.8209Y-2.7657
X6.9193Y-1.752
X6.9193Y-3.9665
X6.939Y-4.1929
X7.1457Y-1.624
T2
X5.128Y-2.2484
X5.128Y-2.3484
X5.128Y-2.4484
X5.128Y-2.5484
X5.128Y-2.6484
X5.128Y-2.7484
X5.128Y-2.8484
X5.128Y-2.9484
X5.128Y-3.0484
X5.128Y-3.1484
X5.128Y-3.2484
X5.128Y-3.3484
X5.128Y-3.4484
X5.128Y-3.5484
X5.128Y-3.6484
X5.128Y-3.7484
X5.128Y-3.8484
X5.228Y-2.2484
X5.228Y-2.3484
X5.228Y-2.4484
X5.228Y-2.5484
X5.228Y-2.6484
X5.228Y-2.7484
X5.228Y-2.8484
X5.228Y-2.9484
X5.228Y-3.0484
X5.228Y-3.1484
X5.228Y-3.2484
X5.228Y-3.3484
X5.228Y-3.4484
X5.228Y-3.5484
X5.228Y-3.6484
X5.228Y-3.7484
X5.228Y-3.8484
X6.9094Y-2.8642
X6.9094Y-2.9642
X6.9094Y-3.0642
T3
X7.2185Y-2.8467
X7.2185Y-2.9967
X7.2185Y-3.1467
X7.2185Y-3.2967
X7.2185Y-3.4467
X7.2185Y-3.5967
X7.2185Y-3.7467
X7.2185Y-3.8967
X7.2185Y-4.0467
X7.2185Y-4.1967
X7.2185Y-4.3467
X7.4114Y-2.9217
X7.4114Y-3.0717
X7.4114Y-3.2217
X7.4114Y-3.3717
X7.4114Y-3.5217
X7.4114Y-3.6717
X7.4114Y-3.8217
X7.4114Y-3.9717
X7.4114Y-4.1217
X7.4114Y-4.2717
T4
X7.1358Y-1.8898
X7.2343Y-1.6929
X7.2343Y-2.0866
X7.3327Y-1.5945
X7.3327Y-1.8898
X7.3327Y-2.185
X7.7264Y-1.6929
X7.7264Y-2.0866
M30
