G04 #@! TF.GenerationSoftware,KiCad,Pcbnew,8.0.4+dfsg-1*
G04 #@! TF.CreationDate,2025-03-15T13:20:51+01:00*
G04 #@! TF.ProjectId,olimex-ice40-scart-header,6f6c696d-6578-42d6-9963-6534302d7363,rev?*
G04 #@! TF.SameCoordinates,Original*
G04 #@! TF.FileFunction,Legend,Top*
G04 #@! TF.FilePolarity,Positive*
%FSLAX46Y46*%
G04 Gerber Fmt 4.6, Leading zero omitted, Abs format (unit mm)*
G04 Created by KiCad (PCBNEW 8.0.4+dfsg-1) date 2025-03-15 13:20:51*
%MOMM*%
%LPD*%
G01*
G04 APERTURE LIST*
G04 Aperture macros list*
%AMRoundRect*
0 Rectangle with rounded corners*
0 $1 Rounding radius*
0 $2 $3 $4 $5 $6 $7 $8 $9 X,Y pos of 4 corners*
0 Add a 4 corners polygon primitive as box body*
4,1,4,$2,$3,$4,$5,$6,$7,$8,$9,$2,$3,0*
0 Add four circle primitives for the rounded corners*
1,1,$1+$1,$2,$3*
1,1,$1+$1,$4,$5*
1,1,$1+$1,$6,$7*
1,1,$1+$1,$8,$9*
0 Add four rect primitives between the rounded corners*
20,1,$1+$1,$2,$3,$4,$5,0*
20,1,$1+$1,$4,$5,$6,$7,0*
20,1,$1+$1,$6,$7,$8,$9,0*
20,1,$1+$1,$8,$9,$2,$3,0*%
G04 Aperture macros list end*
%ADD10C,0.150000*%
%ADD11C,0.300000*%
%ADD12C,0.120000*%
%ADD13RoundRect,0.237500X0.250000X0.237500X-0.250000X0.237500X-0.250000X-0.237500X0.250000X-0.237500X0*%
%ADD14RoundRect,0.237500X0.300000X0.237500X-0.300000X0.237500X-0.300000X-0.237500X0.300000X-0.237500X0*%
%ADD15RoundRect,0.237500X-0.250000X-0.237500X0.250000X-0.237500X0.250000X0.237500X-0.250000X0.237500X0*%
%ADD16RoundRect,0.237500X0.237500X-0.300000X0.237500X0.300000X-0.237500X0.300000X-0.237500X-0.300000X0*%
%ADD17RoundRect,0.237500X-0.300000X-0.237500X0.300000X-0.237500X0.300000X0.237500X-0.300000X0.237500X0*%
%ADD18RoundRect,0.100000X-0.650000X-0.100000X0.650000X-0.100000X0.650000X0.100000X-0.650000X0.100000X0*%
%ADD19R,1.700000X1.700000*%
%ADD20O,1.700000X1.700000*%
%ADD21C,2.500000*%
%ADD22RoundRect,0.237500X-0.237500X0.300000X-0.237500X-0.300000X0.237500X-0.300000X0.237500X0.300000X0*%
%ADD23R,2.400000X2.400000*%
%ADD24C,2.400000*%
%ADD25RoundRect,0.100000X-0.225000X-0.100000X0.225000X-0.100000X0.225000X0.100000X-0.225000X0.100000X0*%
%ADD26R,1.500000X1.500000*%
%ADD27RoundRect,0.150000X0.150000X-0.512500X0.150000X0.512500X-0.150000X0.512500X-0.150000X-0.512500X0*%
%ADD28RoundRect,0.250000X0.600000X0.600000X-0.600000X0.600000X-0.600000X-0.600000X0.600000X-0.600000X0*%
%ADD29C,1.700000*%
%ADD30RoundRect,0.100000X-0.637500X-0.100000X0.637500X-0.100000X0.637500X0.100000X-0.637500X0.100000X0*%
G04 APERTURE END LIST*
D10*
X178158207Y-73119819D02*
X177824874Y-72643628D01*
X177586779Y-73119819D02*
X177586779Y-72119819D01*
X177586779Y-72119819D02*
X177967731Y-72119819D01*
X177967731Y-72119819D02*
X178062969Y-72167438D01*
X178062969Y-72167438D02*
X178110588Y-72215057D01*
X178110588Y-72215057D02*
X178158207Y-72310295D01*
X178158207Y-72310295D02*
X178158207Y-72453152D01*
X178158207Y-72453152D02*
X178110588Y-72548390D01*
X178110588Y-72548390D02*
X178062969Y-72596009D01*
X178062969Y-72596009D02*
X177967731Y-72643628D01*
X177967731Y-72643628D02*
X177586779Y-72643628D01*
X178062969Y-75619819D02*
X177586779Y-75619819D01*
X177586779Y-75619819D02*
X177586779Y-74619819D01*
X173789160Y-70334104D02*
X174265350Y-70334104D01*
X173693922Y-70619819D02*
X174027255Y-69619819D01*
X174027255Y-69619819D02*
X174360588Y-70619819D01*
X175122493Y-69953152D02*
X175122493Y-70619819D01*
X174693922Y-69953152D02*
X174693922Y-70476961D01*
X174693922Y-70476961D02*
X174741541Y-70572200D01*
X174741541Y-70572200D02*
X174836779Y-70619819D01*
X174836779Y-70619819D02*
X174979636Y-70619819D01*
X174979636Y-70619819D02*
X175074874Y-70572200D01*
X175074874Y-70572200D02*
X175122493Y-70524580D01*
X176027255Y-70619819D02*
X176027255Y-69619819D01*
X176027255Y-70572200D02*
X175932017Y-70619819D01*
X175932017Y-70619819D02*
X175741541Y-70619819D01*
X175741541Y-70619819D02*
X175646303Y-70572200D01*
X175646303Y-70572200D02*
X175598684Y-70524580D01*
X175598684Y-70524580D02*
X175551065Y-70429342D01*
X175551065Y-70429342D02*
X175551065Y-70143628D01*
X175551065Y-70143628D02*
X175598684Y-70048390D01*
X175598684Y-70048390D02*
X175646303Y-70000771D01*
X175646303Y-70000771D02*
X175741541Y-69953152D01*
X175741541Y-69953152D02*
X175932017Y-69953152D01*
X175932017Y-69953152D02*
X176027255Y-70000771D01*
X176503446Y-70619819D02*
X176503446Y-69953152D01*
X176503446Y-69619819D02*
X176455827Y-69667438D01*
X176455827Y-69667438D02*
X176503446Y-69715057D01*
X176503446Y-69715057D02*
X176551065Y-69667438D01*
X176551065Y-69667438D02*
X176503446Y-69619819D01*
X176503446Y-69619819D02*
X176503446Y-69715057D01*
X177122493Y-70619819D02*
X177027255Y-70572200D01*
X177027255Y-70572200D02*
X176979636Y-70524580D01*
X176979636Y-70524580D02*
X176932017Y-70429342D01*
X176932017Y-70429342D02*
X176932017Y-70143628D01*
X176932017Y-70143628D02*
X176979636Y-70048390D01*
X176979636Y-70048390D02*
X177027255Y-70000771D01*
X177027255Y-70000771D02*
X177122493Y-69953152D01*
X177122493Y-69953152D02*
X177265350Y-69953152D01*
X177265350Y-69953152D02*
X177360588Y-70000771D01*
X177360588Y-70000771D02*
X177408207Y-70048390D01*
X177408207Y-70048390D02*
X177455826Y-70143628D01*
X177455826Y-70143628D02*
X177455826Y-70429342D01*
X177455826Y-70429342D02*
X177408207Y-70524580D01*
X177408207Y-70524580D02*
X177360588Y-70572200D01*
X177360588Y-70572200D02*
X177265350Y-70619819D01*
X177265350Y-70619819D02*
X177122493Y-70619819D01*
X124836779Y-42649931D02*
X124836779Y-41649931D01*
X125884397Y-42554692D02*
X125836778Y-42602312D01*
X125836778Y-42602312D02*
X125693921Y-42649931D01*
X125693921Y-42649931D02*
X125598683Y-42649931D01*
X125598683Y-42649931D02*
X125455826Y-42602312D01*
X125455826Y-42602312D02*
X125360588Y-42507073D01*
X125360588Y-42507073D02*
X125312969Y-42411835D01*
X125312969Y-42411835D02*
X125265350Y-42221359D01*
X125265350Y-42221359D02*
X125265350Y-42078502D01*
X125265350Y-42078502D02*
X125312969Y-41888026D01*
X125312969Y-41888026D02*
X125360588Y-41792788D01*
X125360588Y-41792788D02*
X125455826Y-41697550D01*
X125455826Y-41697550D02*
X125598683Y-41649931D01*
X125598683Y-41649931D02*
X125693921Y-41649931D01*
X125693921Y-41649931D02*
X125836778Y-41697550D01*
X125836778Y-41697550D02*
X125884397Y-41745169D01*
X126312969Y-42126121D02*
X126646302Y-42126121D01*
X126789159Y-42649931D02*
X126312969Y-42649931D01*
X126312969Y-42649931D02*
X126312969Y-41649931D01*
X126312969Y-41649931D02*
X126789159Y-41649931D01*
X127646302Y-41983264D02*
X127646302Y-42649931D01*
X127408207Y-41602312D02*
X127170112Y-42316597D01*
X127170112Y-42316597D02*
X127789159Y-42316597D01*
X128360588Y-41649931D02*
X128455826Y-41649931D01*
X128455826Y-41649931D02*
X128551064Y-41697550D01*
X128551064Y-41697550D02*
X128598683Y-41745169D01*
X128598683Y-41745169D02*
X128646302Y-41840407D01*
X128646302Y-41840407D02*
X128693921Y-42030883D01*
X128693921Y-42030883D02*
X128693921Y-42268978D01*
X128693921Y-42268978D02*
X128646302Y-42459454D01*
X128646302Y-42459454D02*
X128598683Y-42554692D01*
X128598683Y-42554692D02*
X128551064Y-42602312D01*
X128551064Y-42602312D02*
X128455826Y-42649931D01*
X128455826Y-42649931D02*
X128360588Y-42649931D01*
X128360588Y-42649931D02*
X128265350Y-42602312D01*
X128265350Y-42602312D02*
X128217731Y-42554692D01*
X128217731Y-42554692D02*
X128170112Y-42459454D01*
X128170112Y-42459454D02*
X128122493Y-42268978D01*
X128122493Y-42268978D02*
X128122493Y-42030883D01*
X128122493Y-42030883D02*
X128170112Y-41840407D01*
X128170112Y-41840407D02*
X128217731Y-41745169D01*
X128217731Y-41745169D02*
X128265350Y-41697550D01*
X128265350Y-41697550D02*
X128360588Y-41649931D01*
X129122493Y-42649931D02*
X129122493Y-41649931D01*
X129122493Y-42126121D02*
X129693921Y-42126121D01*
X129693921Y-42649931D02*
X129693921Y-41649931D01*
X130074874Y-41649931D02*
X130741540Y-42649931D01*
X130741540Y-41649931D02*
X130074874Y-42649931D01*
X131265350Y-42078502D02*
X131170112Y-42030883D01*
X131170112Y-42030883D02*
X131122493Y-41983264D01*
X131122493Y-41983264D02*
X131074874Y-41888026D01*
X131074874Y-41888026D02*
X131074874Y-41840407D01*
X131074874Y-41840407D02*
X131122493Y-41745169D01*
X131122493Y-41745169D02*
X131170112Y-41697550D01*
X131170112Y-41697550D02*
X131265350Y-41649931D01*
X131265350Y-41649931D02*
X131455826Y-41649931D01*
X131455826Y-41649931D02*
X131551064Y-41697550D01*
X131551064Y-41697550D02*
X131598683Y-41745169D01*
X131598683Y-41745169D02*
X131646302Y-41840407D01*
X131646302Y-41840407D02*
X131646302Y-41888026D01*
X131646302Y-41888026D02*
X131598683Y-41983264D01*
X131598683Y-41983264D02*
X131551064Y-42030883D01*
X131551064Y-42030883D02*
X131455826Y-42078502D01*
X131455826Y-42078502D02*
X131265350Y-42078502D01*
X131265350Y-42078502D02*
X131170112Y-42126121D01*
X131170112Y-42126121D02*
X131122493Y-42173740D01*
X131122493Y-42173740D02*
X131074874Y-42268978D01*
X131074874Y-42268978D02*
X131074874Y-42459454D01*
X131074874Y-42459454D02*
X131122493Y-42554692D01*
X131122493Y-42554692D02*
X131170112Y-42602312D01*
X131170112Y-42602312D02*
X131265350Y-42649931D01*
X131265350Y-42649931D02*
X131455826Y-42649931D01*
X131455826Y-42649931D02*
X131551064Y-42602312D01*
X131551064Y-42602312D02*
X131598683Y-42554692D01*
X131598683Y-42554692D02*
X131646302Y-42459454D01*
X131646302Y-42459454D02*
X131646302Y-42268978D01*
X131646302Y-42268978D02*
X131598683Y-42173740D01*
X131598683Y-42173740D02*
X131551064Y-42126121D01*
X131551064Y-42126121D02*
X131455826Y-42078502D01*
X132074874Y-42649931D02*
X132074874Y-41649931D01*
X132646302Y-42649931D02*
X132217731Y-42078502D01*
X132646302Y-41649931D02*
X132074874Y-42221359D01*
X124789160Y-44212256D02*
X124932017Y-44259875D01*
X124932017Y-44259875D02*
X125170112Y-44259875D01*
X125170112Y-44259875D02*
X125265350Y-44212256D01*
X125265350Y-44212256D02*
X125312969Y-44164636D01*
X125312969Y-44164636D02*
X125360588Y-44069398D01*
X125360588Y-44069398D02*
X125360588Y-43974160D01*
X125360588Y-43974160D02*
X125312969Y-43878922D01*
X125312969Y-43878922D02*
X125265350Y-43831303D01*
X125265350Y-43831303D02*
X125170112Y-43783684D01*
X125170112Y-43783684D02*
X124979636Y-43736065D01*
X124979636Y-43736065D02*
X124884398Y-43688446D01*
X124884398Y-43688446D02*
X124836779Y-43640827D01*
X124836779Y-43640827D02*
X124789160Y-43545589D01*
X124789160Y-43545589D02*
X124789160Y-43450351D01*
X124789160Y-43450351D02*
X124836779Y-43355113D01*
X124836779Y-43355113D02*
X124884398Y-43307494D01*
X124884398Y-43307494D02*
X124979636Y-43259875D01*
X124979636Y-43259875D02*
X125217731Y-43259875D01*
X125217731Y-43259875D02*
X125360588Y-43307494D01*
X126360588Y-44164636D02*
X126312969Y-44212256D01*
X126312969Y-44212256D02*
X126170112Y-44259875D01*
X126170112Y-44259875D02*
X126074874Y-44259875D01*
X126074874Y-44259875D02*
X125932017Y-44212256D01*
X125932017Y-44212256D02*
X125836779Y-44117017D01*
X125836779Y-44117017D02*
X125789160Y-44021779D01*
X125789160Y-44021779D02*
X125741541Y-43831303D01*
X125741541Y-43831303D02*
X125741541Y-43688446D01*
X125741541Y-43688446D02*
X125789160Y-43497970D01*
X125789160Y-43497970D02*
X125836779Y-43402732D01*
X125836779Y-43402732D02*
X125932017Y-43307494D01*
X125932017Y-43307494D02*
X126074874Y-43259875D01*
X126074874Y-43259875D02*
X126170112Y-43259875D01*
X126170112Y-43259875D02*
X126312969Y-43307494D01*
X126312969Y-43307494D02*
X126360588Y-43355113D01*
X126741541Y-43974160D02*
X127217731Y-43974160D01*
X126646303Y-44259875D02*
X126979636Y-43259875D01*
X126979636Y-43259875D02*
X127312969Y-44259875D01*
X128217731Y-44259875D02*
X127884398Y-43783684D01*
X127646303Y-44259875D02*
X127646303Y-43259875D01*
X127646303Y-43259875D02*
X128027255Y-43259875D01*
X128027255Y-43259875D02*
X128122493Y-43307494D01*
X128122493Y-43307494D02*
X128170112Y-43355113D01*
X128170112Y-43355113D02*
X128217731Y-43450351D01*
X128217731Y-43450351D02*
X128217731Y-43593208D01*
X128217731Y-43593208D02*
X128170112Y-43688446D01*
X128170112Y-43688446D02*
X128122493Y-43736065D01*
X128122493Y-43736065D02*
X128027255Y-43783684D01*
X128027255Y-43783684D02*
X127646303Y-43783684D01*
X128503446Y-43259875D02*
X129074874Y-43259875D01*
X128789160Y-44259875D02*
X128789160Y-43259875D01*
X130312970Y-44259875D02*
X130217732Y-44212256D01*
X130217732Y-44212256D02*
X130170113Y-44164636D01*
X130170113Y-44164636D02*
X130122494Y-44069398D01*
X130122494Y-44069398D02*
X130122494Y-43783684D01*
X130122494Y-43783684D02*
X130170113Y-43688446D01*
X130170113Y-43688446D02*
X130217732Y-43640827D01*
X130217732Y-43640827D02*
X130312970Y-43593208D01*
X130312970Y-43593208D02*
X130455827Y-43593208D01*
X130455827Y-43593208D02*
X130551065Y-43640827D01*
X130551065Y-43640827D02*
X130598684Y-43688446D01*
X130598684Y-43688446D02*
X130646303Y-43783684D01*
X130646303Y-43783684D02*
X130646303Y-44069398D01*
X130646303Y-44069398D02*
X130598684Y-44164636D01*
X130598684Y-44164636D02*
X130551065Y-44212256D01*
X130551065Y-44212256D02*
X130455827Y-44259875D01*
X130455827Y-44259875D02*
X130312970Y-44259875D01*
X131503446Y-43593208D02*
X131503446Y-44259875D01*
X131074875Y-43593208D02*
X131074875Y-44117017D01*
X131074875Y-44117017D02*
X131122494Y-44212256D01*
X131122494Y-44212256D02*
X131217732Y-44259875D01*
X131217732Y-44259875D02*
X131360589Y-44259875D01*
X131360589Y-44259875D02*
X131455827Y-44212256D01*
X131455827Y-44212256D02*
X131503446Y-44164636D01*
X131836780Y-43593208D02*
X132217732Y-43593208D01*
X131979637Y-43259875D02*
X131979637Y-44117017D01*
X131979637Y-44117017D02*
X132027256Y-44212256D01*
X132027256Y-44212256D02*
X132122494Y-44259875D01*
X132122494Y-44259875D02*
X132217732Y-44259875D01*
X132551066Y-43593208D02*
X132551066Y-44593208D01*
X132551066Y-43640827D02*
X132646304Y-43593208D01*
X132646304Y-43593208D02*
X132836780Y-43593208D01*
X132836780Y-43593208D02*
X132932018Y-43640827D01*
X132932018Y-43640827D02*
X132979637Y-43688446D01*
X132979637Y-43688446D02*
X133027256Y-43783684D01*
X133027256Y-43783684D02*
X133027256Y-44069398D01*
X133027256Y-44069398D02*
X132979637Y-44164636D01*
X132979637Y-44164636D02*
X132932018Y-44212256D01*
X132932018Y-44212256D02*
X132836780Y-44259875D01*
X132836780Y-44259875D02*
X132646304Y-44259875D01*
X132646304Y-44259875D02*
X132551066Y-44212256D01*
X133884399Y-43593208D02*
X133884399Y-44259875D01*
X133455828Y-43593208D02*
X133455828Y-44117017D01*
X133455828Y-44117017D02*
X133503447Y-44212256D01*
X133503447Y-44212256D02*
X133598685Y-44259875D01*
X133598685Y-44259875D02*
X133741542Y-44259875D01*
X133741542Y-44259875D02*
X133836780Y-44212256D01*
X133836780Y-44212256D02*
X133884399Y-44164636D01*
X134217733Y-43593208D02*
X134598685Y-43593208D01*
X134360590Y-43259875D02*
X134360590Y-44117017D01*
X134360590Y-44117017D02*
X134408209Y-44212256D01*
X134408209Y-44212256D02*
X134503447Y-44259875D01*
X134503447Y-44259875D02*
X134598685Y-44259875D01*
X125408207Y-45869819D02*
X125074874Y-45393628D01*
X124836779Y-45869819D02*
X124836779Y-44869819D01*
X124836779Y-44869819D02*
X125217731Y-44869819D01*
X125217731Y-44869819D02*
X125312969Y-44917438D01*
X125312969Y-44917438D02*
X125360588Y-44965057D01*
X125360588Y-44965057D02*
X125408207Y-45060295D01*
X125408207Y-45060295D02*
X125408207Y-45203152D01*
X125408207Y-45203152D02*
X125360588Y-45298390D01*
X125360588Y-45298390D02*
X125312969Y-45346009D01*
X125312969Y-45346009D02*
X125217731Y-45393628D01*
X125217731Y-45393628D02*
X124836779Y-45393628D01*
X126360588Y-44917438D02*
X126265350Y-44869819D01*
X126265350Y-44869819D02*
X126122493Y-44869819D01*
X126122493Y-44869819D02*
X125979636Y-44917438D01*
X125979636Y-44917438D02*
X125884398Y-45012676D01*
X125884398Y-45012676D02*
X125836779Y-45107914D01*
X125836779Y-45107914D02*
X125789160Y-45298390D01*
X125789160Y-45298390D02*
X125789160Y-45441247D01*
X125789160Y-45441247D02*
X125836779Y-45631723D01*
X125836779Y-45631723D02*
X125884398Y-45726961D01*
X125884398Y-45726961D02*
X125979636Y-45822200D01*
X125979636Y-45822200D02*
X126122493Y-45869819D01*
X126122493Y-45869819D02*
X126217731Y-45869819D01*
X126217731Y-45869819D02*
X126360588Y-45822200D01*
X126360588Y-45822200D02*
X126408207Y-45774580D01*
X126408207Y-45774580D02*
X126408207Y-45441247D01*
X126408207Y-45441247D02*
X126217731Y-45441247D01*
X127170112Y-45346009D02*
X127312969Y-45393628D01*
X127312969Y-45393628D02*
X127360588Y-45441247D01*
X127360588Y-45441247D02*
X127408207Y-45536485D01*
X127408207Y-45536485D02*
X127408207Y-45679342D01*
X127408207Y-45679342D02*
X127360588Y-45774580D01*
X127360588Y-45774580D02*
X127312969Y-45822200D01*
X127312969Y-45822200D02*
X127217731Y-45869819D01*
X127217731Y-45869819D02*
X126836779Y-45869819D01*
X126836779Y-45869819D02*
X126836779Y-44869819D01*
X126836779Y-44869819D02*
X127170112Y-44869819D01*
X127170112Y-44869819D02*
X127265350Y-44917438D01*
X127265350Y-44917438D02*
X127312969Y-44965057D01*
X127312969Y-44965057D02*
X127360588Y-45060295D01*
X127360588Y-45060295D02*
X127360588Y-45155533D01*
X127360588Y-45155533D02*
X127312969Y-45250771D01*
X127312969Y-45250771D02*
X127265350Y-45298390D01*
X127265350Y-45298390D02*
X127170112Y-45346009D01*
X127170112Y-45346009D02*
X126836779Y-45346009D01*
X128455827Y-44869819D02*
X129027255Y-44869819D01*
X128741541Y-45869819D02*
X128741541Y-44869819D01*
X129217732Y-44869819D02*
X129789160Y-44869819D01*
X129503446Y-45869819D02*
X129503446Y-44869819D01*
X130598684Y-45869819D02*
X130122494Y-45869819D01*
X130122494Y-45869819D02*
X130122494Y-44869819D01*
X131693923Y-45869819D02*
X131693923Y-45203152D01*
X131693923Y-44869819D02*
X131646304Y-44917438D01*
X131646304Y-44917438D02*
X131693923Y-44965057D01*
X131693923Y-44965057D02*
X131741542Y-44917438D01*
X131741542Y-44917438D02*
X131693923Y-44869819D01*
X131693923Y-44869819D02*
X131693923Y-44965057D01*
X132170113Y-45203152D02*
X132170113Y-45869819D01*
X132170113Y-45298390D02*
X132217732Y-45250771D01*
X132217732Y-45250771D02*
X132312970Y-45203152D01*
X132312970Y-45203152D02*
X132455827Y-45203152D01*
X132455827Y-45203152D02*
X132551065Y-45250771D01*
X132551065Y-45250771D02*
X132598684Y-45346009D01*
X132598684Y-45346009D02*
X132598684Y-45869819D01*
X133074875Y-45203152D02*
X133074875Y-46203152D01*
X133074875Y-45250771D02*
X133170113Y-45203152D01*
X133170113Y-45203152D02*
X133360589Y-45203152D01*
X133360589Y-45203152D02*
X133455827Y-45250771D01*
X133455827Y-45250771D02*
X133503446Y-45298390D01*
X133503446Y-45298390D02*
X133551065Y-45393628D01*
X133551065Y-45393628D02*
X133551065Y-45679342D01*
X133551065Y-45679342D02*
X133503446Y-45774580D01*
X133503446Y-45774580D02*
X133455827Y-45822200D01*
X133455827Y-45822200D02*
X133360589Y-45869819D01*
X133360589Y-45869819D02*
X133170113Y-45869819D01*
X133170113Y-45869819D02*
X133074875Y-45822200D01*
X134408208Y-45203152D02*
X134408208Y-45869819D01*
X133979637Y-45203152D02*
X133979637Y-45726961D01*
X133979637Y-45726961D02*
X134027256Y-45822200D01*
X134027256Y-45822200D02*
X134122494Y-45869819D01*
X134122494Y-45869819D02*
X134265351Y-45869819D01*
X134265351Y-45869819D02*
X134360589Y-45822200D01*
X134360589Y-45822200D02*
X134408208Y-45774580D01*
X134741542Y-45203152D02*
X135122494Y-45203152D01*
X134884399Y-44869819D02*
X134884399Y-45726961D01*
X134884399Y-45726961D02*
X134932018Y-45822200D01*
X134932018Y-45822200D02*
X135027256Y-45869819D01*
X135027256Y-45869819D02*
X135122494Y-45869819D01*
D11*
X122173558Y-112769750D02*
X122173558Y-110769750D01*
X122173558Y-110769750D02*
X122649748Y-110769750D01*
X122649748Y-110769750D02*
X122935463Y-110864988D01*
X122935463Y-110864988D02*
X123125939Y-111055464D01*
X123125939Y-111055464D02*
X123221177Y-111245940D01*
X123221177Y-111245940D02*
X123316415Y-111626892D01*
X123316415Y-111626892D02*
X123316415Y-111912607D01*
X123316415Y-111912607D02*
X123221177Y-112293559D01*
X123221177Y-112293559D02*
X123125939Y-112484035D01*
X123125939Y-112484035D02*
X122935463Y-112674512D01*
X122935463Y-112674512D02*
X122649748Y-112769750D01*
X122649748Y-112769750D02*
X122173558Y-112769750D01*
X124459272Y-112769750D02*
X124268796Y-112674512D01*
X124268796Y-112674512D02*
X124173558Y-112579273D01*
X124173558Y-112579273D02*
X124078320Y-112388797D01*
X124078320Y-112388797D02*
X124078320Y-111817369D01*
X124078320Y-111817369D02*
X124173558Y-111626892D01*
X124173558Y-111626892D02*
X124268796Y-111531654D01*
X124268796Y-111531654D02*
X124459272Y-111436416D01*
X124459272Y-111436416D02*
X124744987Y-111436416D01*
X124744987Y-111436416D02*
X124935463Y-111531654D01*
X124935463Y-111531654D02*
X125030701Y-111626892D01*
X125030701Y-111626892D02*
X125125939Y-111817369D01*
X125125939Y-111817369D02*
X125125939Y-112388797D01*
X125125939Y-112388797D02*
X125030701Y-112579273D01*
X125030701Y-112579273D02*
X124935463Y-112674512D01*
X124935463Y-112674512D02*
X124744987Y-112769750D01*
X124744987Y-112769750D02*
X124459272Y-112769750D01*
X125983082Y-112769750D02*
X125983082Y-111436416D01*
X125983082Y-111626892D02*
X126078320Y-111531654D01*
X126078320Y-111531654D02*
X126268796Y-111436416D01*
X126268796Y-111436416D02*
X126554511Y-111436416D01*
X126554511Y-111436416D02*
X126744987Y-111531654D01*
X126744987Y-111531654D02*
X126840225Y-111722131D01*
X126840225Y-111722131D02*
X126840225Y-112769750D01*
X126840225Y-111722131D02*
X126935463Y-111531654D01*
X126935463Y-111531654D02*
X127125939Y-111436416D01*
X127125939Y-111436416D02*
X127411653Y-111436416D01*
X127411653Y-111436416D02*
X127602130Y-111531654D01*
X127602130Y-111531654D02*
X127697368Y-111722131D01*
X127697368Y-111722131D02*
X127697368Y-112769750D01*
X129411654Y-112674512D02*
X129221178Y-112769750D01*
X129221178Y-112769750D02*
X128840225Y-112769750D01*
X128840225Y-112769750D02*
X128649749Y-112674512D01*
X128649749Y-112674512D02*
X128554511Y-112484035D01*
X128554511Y-112484035D02*
X128554511Y-111722131D01*
X128554511Y-111722131D02*
X128649749Y-111531654D01*
X128649749Y-111531654D02*
X128840225Y-111436416D01*
X128840225Y-111436416D02*
X129221178Y-111436416D01*
X129221178Y-111436416D02*
X129411654Y-111531654D01*
X129411654Y-111531654D02*
X129506892Y-111722131D01*
X129506892Y-111722131D02*
X129506892Y-111912607D01*
X129506892Y-111912607D02*
X128554511Y-112103083D01*
X130268797Y-112674512D02*
X130459273Y-112769750D01*
X130459273Y-112769750D02*
X130840225Y-112769750D01*
X130840225Y-112769750D02*
X131030702Y-112674512D01*
X131030702Y-112674512D02*
X131125940Y-112484035D01*
X131125940Y-112484035D02*
X131125940Y-112388797D01*
X131125940Y-112388797D02*
X131030702Y-112198321D01*
X131030702Y-112198321D02*
X130840225Y-112103083D01*
X130840225Y-112103083D02*
X130554511Y-112103083D01*
X130554511Y-112103083D02*
X130364035Y-112007845D01*
X130364035Y-112007845D02*
X130268797Y-111817369D01*
X130268797Y-111817369D02*
X130268797Y-111722131D01*
X130268797Y-111722131D02*
X130364035Y-111531654D01*
X130364035Y-111531654D02*
X130554511Y-111436416D01*
X130554511Y-111436416D02*
X130840225Y-111436416D01*
X130840225Y-111436416D02*
X131030702Y-111531654D01*
X132840226Y-112769750D02*
X132840226Y-110769750D01*
X132840226Y-112674512D02*
X132649750Y-112769750D01*
X132649750Y-112769750D02*
X132268797Y-112769750D01*
X132268797Y-112769750D02*
X132078321Y-112674512D01*
X132078321Y-112674512D02*
X131983083Y-112579273D01*
X131983083Y-112579273D02*
X131887845Y-112388797D01*
X131887845Y-112388797D02*
X131887845Y-111817369D01*
X131887845Y-111817369D02*
X131983083Y-111626892D01*
X131983083Y-111626892D02*
X132078321Y-111531654D01*
X132078321Y-111531654D02*
X132268797Y-111436416D01*
X132268797Y-111436416D02*
X132649750Y-111436416D01*
X132649750Y-111436416D02*
X132840226Y-111531654D01*
X134649750Y-112769750D02*
X134649750Y-111722131D01*
X134649750Y-111722131D02*
X134554512Y-111531654D01*
X134554512Y-111531654D02*
X134364036Y-111436416D01*
X134364036Y-111436416D02*
X133983083Y-111436416D01*
X133983083Y-111436416D02*
X133792607Y-111531654D01*
X134649750Y-112674512D02*
X134459274Y-112769750D01*
X134459274Y-112769750D02*
X133983083Y-112769750D01*
X133983083Y-112769750D02*
X133792607Y-112674512D01*
X133792607Y-112674512D02*
X133697369Y-112484035D01*
X133697369Y-112484035D02*
X133697369Y-112293559D01*
X133697369Y-112293559D02*
X133792607Y-112103083D01*
X133792607Y-112103083D02*
X133983083Y-112007845D01*
X133983083Y-112007845D02*
X134459274Y-112007845D01*
X134459274Y-112007845D02*
X134649750Y-111912607D01*
X135411655Y-111436416D02*
X135887845Y-112769750D01*
X136364036Y-111436416D02*
X135887845Y-112769750D01*
X135887845Y-112769750D02*
X135697369Y-113245940D01*
X135697369Y-113245940D02*
X135602131Y-113341178D01*
X135602131Y-113341178D02*
X135411655Y-113436416D01*
X137411655Y-111626892D02*
X137221179Y-111531654D01*
X137221179Y-111531654D02*
X137125941Y-111436416D01*
X137125941Y-111436416D02*
X137030703Y-111245940D01*
X137030703Y-111245940D02*
X137030703Y-111150702D01*
X137030703Y-111150702D02*
X137125941Y-110960226D01*
X137125941Y-110960226D02*
X137221179Y-110864988D01*
X137221179Y-110864988D02*
X137411655Y-110769750D01*
X137411655Y-110769750D02*
X137792608Y-110769750D01*
X137792608Y-110769750D02*
X137983084Y-110864988D01*
X137983084Y-110864988D02*
X138078322Y-110960226D01*
X138078322Y-110960226D02*
X138173560Y-111150702D01*
X138173560Y-111150702D02*
X138173560Y-111245940D01*
X138173560Y-111245940D02*
X138078322Y-111436416D01*
X138078322Y-111436416D02*
X137983084Y-111531654D01*
X137983084Y-111531654D02*
X137792608Y-111626892D01*
X137792608Y-111626892D02*
X137411655Y-111626892D01*
X137411655Y-111626892D02*
X137221179Y-111722131D01*
X137221179Y-111722131D02*
X137125941Y-111817369D01*
X137125941Y-111817369D02*
X137030703Y-112007845D01*
X137030703Y-112007845D02*
X137030703Y-112388797D01*
X137030703Y-112388797D02*
X137125941Y-112579273D01*
X137125941Y-112579273D02*
X137221179Y-112674512D01*
X137221179Y-112674512D02*
X137411655Y-112769750D01*
X137411655Y-112769750D02*
X137792608Y-112769750D01*
X137792608Y-112769750D02*
X137983084Y-112674512D01*
X137983084Y-112674512D02*
X138078322Y-112579273D01*
X138078322Y-112579273D02*
X138173560Y-112388797D01*
X138173560Y-112388797D02*
X138173560Y-112007845D01*
X138173560Y-112007845D02*
X138078322Y-111817369D01*
X138078322Y-111817369D02*
X137983084Y-111722131D01*
X137983084Y-111722131D02*
X137792608Y-111626892D01*
X139887846Y-110769750D02*
X139506893Y-110769750D01*
X139506893Y-110769750D02*
X139316417Y-110864988D01*
X139316417Y-110864988D02*
X139221179Y-110960226D01*
X139221179Y-110960226D02*
X139030703Y-111245940D01*
X139030703Y-111245940D02*
X138935465Y-111626892D01*
X138935465Y-111626892D02*
X138935465Y-112388797D01*
X138935465Y-112388797D02*
X139030703Y-112579273D01*
X139030703Y-112579273D02*
X139125941Y-112674512D01*
X139125941Y-112674512D02*
X139316417Y-112769750D01*
X139316417Y-112769750D02*
X139697370Y-112769750D01*
X139697370Y-112769750D02*
X139887846Y-112674512D01*
X139887846Y-112674512D02*
X139983084Y-112579273D01*
X139983084Y-112579273D02*
X140078322Y-112388797D01*
X140078322Y-112388797D02*
X140078322Y-111912607D01*
X140078322Y-111912607D02*
X139983084Y-111722131D01*
X139983084Y-111722131D02*
X139887846Y-111626892D01*
X139887846Y-111626892D02*
X139697370Y-111531654D01*
X139697370Y-111531654D02*
X139316417Y-111531654D01*
X139316417Y-111531654D02*
X139125941Y-111626892D01*
X139125941Y-111626892D02*
X139030703Y-111722131D01*
X139030703Y-111722131D02*
X138935465Y-111912607D01*
X123316415Y-115989638D02*
X122649748Y-115037257D01*
X122173558Y-115989638D02*
X122173558Y-113989638D01*
X122173558Y-113989638D02*
X122935463Y-113989638D01*
X122935463Y-113989638D02*
X123125939Y-114084876D01*
X123125939Y-114084876D02*
X123221177Y-114180114D01*
X123221177Y-114180114D02*
X123316415Y-114370590D01*
X123316415Y-114370590D02*
X123316415Y-114656304D01*
X123316415Y-114656304D02*
X123221177Y-114846780D01*
X123221177Y-114846780D02*
X123125939Y-114942019D01*
X123125939Y-114942019D02*
X122935463Y-115037257D01*
X122935463Y-115037257D02*
X122173558Y-115037257D01*
X124935463Y-115894400D02*
X124744987Y-115989638D01*
X124744987Y-115989638D02*
X124364034Y-115989638D01*
X124364034Y-115989638D02*
X124173558Y-115894400D01*
X124173558Y-115894400D02*
X124078320Y-115703923D01*
X124078320Y-115703923D02*
X124078320Y-114942019D01*
X124078320Y-114942019D02*
X124173558Y-114751542D01*
X124173558Y-114751542D02*
X124364034Y-114656304D01*
X124364034Y-114656304D02*
X124744987Y-114656304D01*
X124744987Y-114656304D02*
X124935463Y-114751542D01*
X124935463Y-114751542D02*
X125030701Y-114942019D01*
X125030701Y-114942019D02*
X125030701Y-115132495D01*
X125030701Y-115132495D02*
X124078320Y-115322971D01*
X126744987Y-115894400D02*
X126554511Y-115989638D01*
X126554511Y-115989638D02*
X126173558Y-115989638D01*
X126173558Y-115989638D02*
X125983082Y-115894400D01*
X125983082Y-115894400D02*
X125887844Y-115799161D01*
X125887844Y-115799161D02*
X125792606Y-115608685D01*
X125792606Y-115608685D02*
X125792606Y-115037257D01*
X125792606Y-115037257D02*
X125887844Y-114846780D01*
X125887844Y-114846780D02*
X125983082Y-114751542D01*
X125983082Y-114751542D02*
X126173558Y-114656304D01*
X126173558Y-114656304D02*
X126554511Y-114656304D01*
X126554511Y-114656304D02*
X126744987Y-114751542D01*
X127602130Y-115989638D02*
X127602130Y-114656304D01*
X127602130Y-115037257D02*
X127697368Y-114846780D01*
X127697368Y-114846780D02*
X127792606Y-114751542D01*
X127792606Y-114751542D02*
X127983082Y-114656304D01*
X127983082Y-114656304D02*
X128173559Y-114656304D01*
X129602130Y-115894400D02*
X129411654Y-115989638D01*
X129411654Y-115989638D02*
X129030701Y-115989638D01*
X129030701Y-115989638D02*
X128840225Y-115894400D01*
X128840225Y-115894400D02*
X128744987Y-115703923D01*
X128744987Y-115703923D02*
X128744987Y-114942019D01*
X128744987Y-114942019D02*
X128840225Y-114751542D01*
X128840225Y-114751542D02*
X129030701Y-114656304D01*
X129030701Y-114656304D02*
X129411654Y-114656304D01*
X129411654Y-114656304D02*
X129602130Y-114751542D01*
X129602130Y-114751542D02*
X129697368Y-114942019D01*
X129697368Y-114942019D02*
X129697368Y-115132495D01*
X129697368Y-115132495D02*
X128744987Y-115322971D01*
X131411654Y-115989638D02*
X131411654Y-114942019D01*
X131411654Y-114942019D02*
X131316416Y-114751542D01*
X131316416Y-114751542D02*
X131125940Y-114656304D01*
X131125940Y-114656304D02*
X130744987Y-114656304D01*
X130744987Y-114656304D02*
X130554511Y-114751542D01*
X131411654Y-115894400D02*
X131221178Y-115989638D01*
X131221178Y-115989638D02*
X130744987Y-115989638D01*
X130744987Y-115989638D02*
X130554511Y-115894400D01*
X130554511Y-115894400D02*
X130459273Y-115703923D01*
X130459273Y-115703923D02*
X130459273Y-115513447D01*
X130459273Y-115513447D02*
X130554511Y-115322971D01*
X130554511Y-115322971D02*
X130744987Y-115227733D01*
X130744987Y-115227733D02*
X131221178Y-115227733D01*
X131221178Y-115227733D02*
X131411654Y-115132495D01*
X132078321Y-114656304D02*
X132840225Y-114656304D01*
X132364035Y-113989638D02*
X132364035Y-115703923D01*
X132364035Y-115703923D02*
X132459273Y-115894400D01*
X132459273Y-115894400D02*
X132649749Y-115989638D01*
X132649749Y-115989638D02*
X132840225Y-115989638D01*
X133506892Y-115989638D02*
X133506892Y-114656304D01*
X133506892Y-113989638D02*
X133411654Y-114084876D01*
X133411654Y-114084876D02*
X133506892Y-114180114D01*
X133506892Y-114180114D02*
X133602130Y-114084876D01*
X133602130Y-114084876D02*
X133506892Y-113989638D01*
X133506892Y-113989638D02*
X133506892Y-114180114D01*
X134459273Y-114656304D02*
X134459273Y-115989638D01*
X134459273Y-114846780D02*
X134554511Y-114751542D01*
X134554511Y-114751542D02*
X134744987Y-114656304D01*
X134744987Y-114656304D02*
X135030702Y-114656304D01*
X135030702Y-114656304D02*
X135221178Y-114751542D01*
X135221178Y-114751542D02*
X135316416Y-114942019D01*
X135316416Y-114942019D02*
X135316416Y-115989638D01*
X137125940Y-114656304D02*
X137125940Y-116275352D01*
X137125940Y-116275352D02*
X137030702Y-116465828D01*
X137030702Y-116465828D02*
X136935464Y-116561066D01*
X136935464Y-116561066D02*
X136744987Y-116656304D01*
X136744987Y-116656304D02*
X136459273Y-116656304D01*
X136459273Y-116656304D02*
X136268797Y-116561066D01*
X137125940Y-115894400D02*
X136935464Y-115989638D01*
X136935464Y-115989638D02*
X136554511Y-115989638D01*
X136554511Y-115989638D02*
X136364035Y-115894400D01*
X136364035Y-115894400D02*
X136268797Y-115799161D01*
X136268797Y-115799161D02*
X136173559Y-115608685D01*
X136173559Y-115608685D02*
X136173559Y-115037257D01*
X136173559Y-115037257D02*
X136268797Y-114846780D01*
X136268797Y-114846780D02*
X136364035Y-114751542D01*
X136364035Y-114751542D02*
X136554511Y-114656304D01*
X136554511Y-114656304D02*
X136935464Y-114656304D01*
X136935464Y-114656304D02*
X137125940Y-114751542D01*
X139316417Y-114656304D02*
X140078321Y-114656304D01*
X139602131Y-113989638D02*
X139602131Y-115703923D01*
X139602131Y-115703923D02*
X139697369Y-115894400D01*
X139697369Y-115894400D02*
X139887845Y-115989638D01*
X139887845Y-115989638D02*
X140078321Y-115989638D01*
X140744988Y-115989638D02*
X140744988Y-113989638D01*
X141602131Y-115989638D02*
X141602131Y-114942019D01*
X141602131Y-114942019D02*
X141506893Y-114751542D01*
X141506893Y-114751542D02*
X141316417Y-114656304D01*
X141316417Y-114656304D02*
X141030702Y-114656304D01*
X141030702Y-114656304D02*
X140840226Y-114751542D01*
X140840226Y-114751542D02*
X140744988Y-114846780D01*
X143316417Y-115894400D02*
X143125941Y-115989638D01*
X143125941Y-115989638D02*
X142744988Y-115989638D01*
X142744988Y-115989638D02*
X142554512Y-115894400D01*
X142554512Y-115894400D02*
X142459274Y-115703923D01*
X142459274Y-115703923D02*
X142459274Y-114942019D01*
X142459274Y-114942019D02*
X142554512Y-114751542D01*
X142554512Y-114751542D02*
X142744988Y-114656304D01*
X142744988Y-114656304D02*
X143125941Y-114656304D01*
X143125941Y-114656304D02*
X143316417Y-114751542D01*
X143316417Y-114751542D02*
X143411655Y-114942019D01*
X143411655Y-114942019D02*
X143411655Y-115132495D01*
X143411655Y-115132495D02*
X142459274Y-115322971D01*
X145792608Y-115989638D02*
X145792608Y-113989638D01*
X145792608Y-113989638D02*
X146268798Y-113989638D01*
X146268798Y-113989638D02*
X146554513Y-114084876D01*
X146554513Y-114084876D02*
X146744989Y-114275352D01*
X146744989Y-114275352D02*
X146840227Y-114465828D01*
X146840227Y-114465828D02*
X146935465Y-114846780D01*
X146935465Y-114846780D02*
X146935465Y-115132495D01*
X146935465Y-115132495D02*
X146840227Y-115513447D01*
X146840227Y-115513447D02*
X146744989Y-115703923D01*
X146744989Y-115703923D02*
X146554513Y-115894400D01*
X146554513Y-115894400D02*
X146268798Y-115989638D01*
X146268798Y-115989638D02*
X145792608Y-115989638D01*
X148078322Y-115989638D02*
X147887846Y-115894400D01*
X147887846Y-115894400D02*
X147792608Y-115799161D01*
X147792608Y-115799161D02*
X147697370Y-115608685D01*
X147697370Y-115608685D02*
X147697370Y-115037257D01*
X147697370Y-115037257D02*
X147792608Y-114846780D01*
X147792608Y-114846780D02*
X147887846Y-114751542D01*
X147887846Y-114751542D02*
X148078322Y-114656304D01*
X148078322Y-114656304D02*
X148364037Y-114656304D01*
X148364037Y-114656304D02*
X148554513Y-114751542D01*
X148554513Y-114751542D02*
X148649751Y-114846780D01*
X148649751Y-114846780D02*
X148744989Y-115037257D01*
X148744989Y-115037257D02*
X148744989Y-115608685D01*
X148744989Y-115608685D02*
X148649751Y-115799161D01*
X148649751Y-115799161D02*
X148554513Y-115894400D01*
X148554513Y-115894400D02*
X148364037Y-115989638D01*
X148364037Y-115989638D02*
X148078322Y-115989638D01*
X149602132Y-115989638D02*
X149602132Y-114656304D01*
X149602132Y-114846780D02*
X149697370Y-114751542D01*
X149697370Y-114751542D02*
X149887846Y-114656304D01*
X149887846Y-114656304D02*
X150173561Y-114656304D01*
X150173561Y-114656304D02*
X150364037Y-114751542D01*
X150364037Y-114751542D02*
X150459275Y-114942019D01*
X150459275Y-114942019D02*
X150459275Y-115989638D01*
X150459275Y-114942019D02*
X150554513Y-114751542D01*
X150554513Y-114751542D02*
X150744989Y-114656304D01*
X150744989Y-114656304D02*
X151030703Y-114656304D01*
X151030703Y-114656304D02*
X151221180Y-114751542D01*
X151221180Y-114751542D02*
X151316418Y-114942019D01*
X151316418Y-114942019D02*
X151316418Y-115989638D01*
X153030704Y-115894400D02*
X152840228Y-115989638D01*
X152840228Y-115989638D02*
X152459275Y-115989638D01*
X152459275Y-115989638D02*
X152268799Y-115894400D01*
X152268799Y-115894400D02*
X152173561Y-115703923D01*
X152173561Y-115703923D02*
X152173561Y-114942019D01*
X152173561Y-114942019D02*
X152268799Y-114751542D01*
X152268799Y-114751542D02*
X152459275Y-114656304D01*
X152459275Y-114656304D02*
X152840228Y-114656304D01*
X152840228Y-114656304D02*
X153030704Y-114751542D01*
X153030704Y-114751542D02*
X153125942Y-114942019D01*
X153125942Y-114942019D02*
X153125942Y-115132495D01*
X153125942Y-115132495D02*
X152173561Y-115322971D01*
X153887847Y-115894400D02*
X154078323Y-115989638D01*
X154078323Y-115989638D02*
X154459275Y-115989638D01*
X154459275Y-115989638D02*
X154649752Y-115894400D01*
X154649752Y-115894400D02*
X154744990Y-115703923D01*
X154744990Y-115703923D02*
X154744990Y-115608685D01*
X154744990Y-115608685D02*
X154649752Y-115418209D01*
X154649752Y-115418209D02*
X154459275Y-115322971D01*
X154459275Y-115322971D02*
X154173561Y-115322971D01*
X154173561Y-115322971D02*
X153983085Y-115227733D01*
X153983085Y-115227733D02*
X153887847Y-115037257D01*
X153887847Y-115037257D02*
X153887847Y-114942019D01*
X153887847Y-114942019D02*
X153983085Y-114751542D01*
X153983085Y-114751542D02*
X154173561Y-114656304D01*
X154173561Y-114656304D02*
X154459275Y-114656304D01*
X154459275Y-114656304D02*
X154649752Y-114751542D01*
X156459276Y-115989638D02*
X156459276Y-113989638D01*
X156459276Y-115894400D02*
X156268800Y-115989638D01*
X156268800Y-115989638D02*
X155887847Y-115989638D01*
X155887847Y-115989638D02*
X155697371Y-115894400D01*
X155697371Y-115894400D02*
X155602133Y-115799161D01*
X155602133Y-115799161D02*
X155506895Y-115608685D01*
X155506895Y-115608685D02*
X155506895Y-115037257D01*
X155506895Y-115037257D02*
X155602133Y-114846780D01*
X155602133Y-114846780D02*
X155697371Y-114751542D01*
X155697371Y-114751542D02*
X155887847Y-114656304D01*
X155887847Y-114656304D02*
X156268800Y-114656304D01*
X156268800Y-114656304D02*
X156459276Y-114751542D01*
X158268800Y-115989638D02*
X158268800Y-114942019D01*
X158268800Y-114942019D02*
X158173562Y-114751542D01*
X158173562Y-114751542D02*
X157983086Y-114656304D01*
X157983086Y-114656304D02*
X157602133Y-114656304D01*
X157602133Y-114656304D02*
X157411657Y-114751542D01*
X158268800Y-115894400D02*
X158078324Y-115989638D01*
X158078324Y-115989638D02*
X157602133Y-115989638D01*
X157602133Y-115989638D02*
X157411657Y-115894400D01*
X157411657Y-115894400D02*
X157316419Y-115703923D01*
X157316419Y-115703923D02*
X157316419Y-115513447D01*
X157316419Y-115513447D02*
X157411657Y-115322971D01*
X157411657Y-115322971D02*
X157602133Y-115227733D01*
X157602133Y-115227733D02*
X158078324Y-115227733D01*
X158078324Y-115227733D02*
X158268800Y-115132495D01*
X159030705Y-114656304D02*
X159506895Y-115989638D01*
X159983086Y-114656304D02*
X159506895Y-115989638D01*
X159506895Y-115989638D02*
X159316419Y-116465828D01*
X159316419Y-116465828D02*
X159221181Y-116561066D01*
X159221181Y-116561066D02*
X159030705Y-116656304D01*
X162268801Y-114942019D02*
X162935468Y-114942019D01*
X163221182Y-115989638D02*
X162268801Y-115989638D01*
X162268801Y-115989638D02*
X162268801Y-113989638D01*
X162268801Y-113989638D02*
X163221182Y-113989638D01*
X163887849Y-115989638D02*
X164935468Y-114656304D01*
X163887849Y-114656304D02*
X164935468Y-115989638D01*
X165697373Y-114656304D02*
X165697373Y-116656304D01*
X165697373Y-114751542D02*
X165887849Y-114656304D01*
X165887849Y-114656304D02*
X166268802Y-114656304D01*
X166268802Y-114656304D02*
X166459278Y-114751542D01*
X166459278Y-114751542D02*
X166554516Y-114846780D01*
X166554516Y-114846780D02*
X166649754Y-115037257D01*
X166649754Y-115037257D02*
X166649754Y-115608685D01*
X166649754Y-115608685D02*
X166554516Y-115799161D01*
X166554516Y-115799161D02*
X166459278Y-115894400D01*
X166459278Y-115894400D02*
X166268802Y-115989638D01*
X166268802Y-115989638D02*
X165887849Y-115989638D01*
X165887849Y-115989638D02*
X165697373Y-115894400D01*
X168268802Y-115894400D02*
X168078326Y-115989638D01*
X168078326Y-115989638D02*
X167697373Y-115989638D01*
X167697373Y-115989638D02*
X167506897Y-115894400D01*
X167506897Y-115894400D02*
X167411659Y-115703923D01*
X167411659Y-115703923D02*
X167411659Y-114942019D01*
X167411659Y-114942019D02*
X167506897Y-114751542D01*
X167506897Y-114751542D02*
X167697373Y-114656304D01*
X167697373Y-114656304D02*
X168078326Y-114656304D01*
X168078326Y-114656304D02*
X168268802Y-114751542D01*
X168268802Y-114751542D02*
X168364040Y-114942019D01*
X168364040Y-114942019D02*
X168364040Y-115132495D01*
X168364040Y-115132495D02*
X167411659Y-115322971D01*
X169221183Y-115989638D02*
X169221183Y-114656304D01*
X169221183Y-115037257D02*
X169316421Y-114846780D01*
X169316421Y-114846780D02*
X169411659Y-114751542D01*
X169411659Y-114751542D02*
X169602135Y-114656304D01*
X169602135Y-114656304D02*
X169792612Y-114656304D01*
X170459278Y-115989638D02*
X170459278Y-114656304D01*
X170459278Y-113989638D02*
X170364040Y-114084876D01*
X170364040Y-114084876D02*
X170459278Y-114180114D01*
X170459278Y-114180114D02*
X170554516Y-114084876D01*
X170554516Y-114084876D02*
X170459278Y-113989638D01*
X170459278Y-113989638D02*
X170459278Y-114180114D01*
X172173564Y-115894400D02*
X171983088Y-115989638D01*
X171983088Y-115989638D02*
X171602135Y-115989638D01*
X171602135Y-115989638D02*
X171411659Y-115894400D01*
X171411659Y-115894400D02*
X171316421Y-115703923D01*
X171316421Y-115703923D02*
X171316421Y-114942019D01*
X171316421Y-114942019D02*
X171411659Y-114751542D01*
X171411659Y-114751542D02*
X171602135Y-114656304D01*
X171602135Y-114656304D02*
X171983088Y-114656304D01*
X171983088Y-114656304D02*
X172173564Y-114751542D01*
X172173564Y-114751542D02*
X172268802Y-114942019D01*
X172268802Y-114942019D02*
X172268802Y-115132495D01*
X172268802Y-115132495D02*
X171316421Y-115322971D01*
X173125945Y-114656304D02*
X173125945Y-115989638D01*
X173125945Y-114846780D02*
X173221183Y-114751542D01*
X173221183Y-114751542D02*
X173411659Y-114656304D01*
X173411659Y-114656304D02*
X173697374Y-114656304D01*
X173697374Y-114656304D02*
X173887850Y-114751542D01*
X173887850Y-114751542D02*
X173983088Y-114942019D01*
X173983088Y-114942019D02*
X173983088Y-115989638D01*
X175792612Y-115894400D02*
X175602136Y-115989638D01*
X175602136Y-115989638D02*
X175221183Y-115989638D01*
X175221183Y-115989638D02*
X175030707Y-115894400D01*
X175030707Y-115894400D02*
X174935469Y-115799161D01*
X174935469Y-115799161D02*
X174840231Y-115608685D01*
X174840231Y-115608685D02*
X174840231Y-115037257D01*
X174840231Y-115037257D02*
X174935469Y-114846780D01*
X174935469Y-114846780D02*
X175030707Y-114751542D01*
X175030707Y-114751542D02*
X175221183Y-114656304D01*
X175221183Y-114656304D02*
X175602136Y-114656304D01*
X175602136Y-114656304D02*
X175792612Y-114751542D01*
X177411660Y-115894400D02*
X177221184Y-115989638D01*
X177221184Y-115989638D02*
X176840231Y-115989638D01*
X176840231Y-115989638D02*
X176649755Y-115894400D01*
X176649755Y-115894400D02*
X176554517Y-115703923D01*
X176554517Y-115703923D02*
X176554517Y-114942019D01*
X176554517Y-114942019D02*
X176649755Y-114751542D01*
X176649755Y-114751542D02*
X176840231Y-114656304D01*
X176840231Y-114656304D02*
X177221184Y-114656304D01*
X177221184Y-114656304D02*
X177411660Y-114751542D01*
X177411660Y-114751542D02*
X177506898Y-114942019D01*
X177506898Y-114942019D02*
X177506898Y-115132495D01*
X177506898Y-115132495D02*
X176554517Y-115322971D01*
D10*
X178110588Y-77417438D02*
X178015350Y-77369819D01*
X178015350Y-77369819D02*
X177872493Y-77369819D01*
X177872493Y-77369819D02*
X177729636Y-77417438D01*
X177729636Y-77417438D02*
X177634398Y-77512676D01*
X177634398Y-77512676D02*
X177586779Y-77607914D01*
X177586779Y-77607914D02*
X177539160Y-77798390D01*
X177539160Y-77798390D02*
X177539160Y-77941247D01*
X177539160Y-77941247D02*
X177586779Y-78131723D01*
X177586779Y-78131723D02*
X177634398Y-78226961D01*
X177634398Y-78226961D02*
X177729636Y-78322200D01*
X177729636Y-78322200D02*
X177872493Y-78369819D01*
X177872493Y-78369819D02*
X177967731Y-78369819D01*
X177967731Y-78369819D02*
X178110588Y-78322200D01*
X178110588Y-78322200D02*
X178158207Y-78274580D01*
X178158207Y-78274580D02*
X178158207Y-77941247D01*
X178158207Y-77941247D02*
X177967731Y-77941247D01*
X161672142Y-87144819D02*
X161338809Y-86668628D01*
X161100714Y-87144819D02*
X161100714Y-86144819D01*
X161100714Y-86144819D02*
X161481666Y-86144819D01*
X161481666Y-86144819D02*
X161576904Y-86192438D01*
X161576904Y-86192438D02*
X161624523Y-86240057D01*
X161624523Y-86240057D02*
X161672142Y-86335295D01*
X161672142Y-86335295D02*
X161672142Y-86478152D01*
X161672142Y-86478152D02*
X161624523Y-86573390D01*
X161624523Y-86573390D02*
X161576904Y-86621009D01*
X161576904Y-86621009D02*
X161481666Y-86668628D01*
X161481666Y-86668628D02*
X161100714Y-86668628D01*
X162053095Y-86240057D02*
X162100714Y-86192438D01*
X162100714Y-86192438D02*
X162195952Y-86144819D01*
X162195952Y-86144819D02*
X162434047Y-86144819D01*
X162434047Y-86144819D02*
X162529285Y-86192438D01*
X162529285Y-86192438D02*
X162576904Y-86240057D01*
X162576904Y-86240057D02*
X162624523Y-86335295D01*
X162624523Y-86335295D02*
X162624523Y-86430533D01*
X162624523Y-86430533D02*
X162576904Y-86573390D01*
X162576904Y-86573390D02*
X162005476Y-87144819D01*
X162005476Y-87144819D02*
X162624523Y-87144819D01*
X163005476Y-86240057D02*
X163053095Y-86192438D01*
X163053095Y-86192438D02*
X163148333Y-86144819D01*
X163148333Y-86144819D02*
X163386428Y-86144819D01*
X163386428Y-86144819D02*
X163481666Y-86192438D01*
X163481666Y-86192438D02*
X163529285Y-86240057D01*
X163529285Y-86240057D02*
X163576904Y-86335295D01*
X163576904Y-86335295D02*
X163576904Y-86430533D01*
X163576904Y-86430533D02*
X163529285Y-86573390D01*
X163529285Y-86573390D02*
X162957857Y-87144819D01*
X162957857Y-87144819D02*
X163576904Y-87144819D01*
X157862142Y-93144819D02*
X157528809Y-92668628D01*
X157290714Y-93144819D02*
X157290714Y-92144819D01*
X157290714Y-92144819D02*
X157671666Y-92144819D01*
X157671666Y-92144819D02*
X157766904Y-92192438D01*
X157766904Y-92192438D02*
X157814523Y-92240057D01*
X157814523Y-92240057D02*
X157862142Y-92335295D01*
X157862142Y-92335295D02*
X157862142Y-92478152D01*
X157862142Y-92478152D02*
X157814523Y-92573390D01*
X157814523Y-92573390D02*
X157766904Y-92621009D01*
X157766904Y-92621009D02*
X157671666Y-92668628D01*
X157671666Y-92668628D02*
X157290714Y-92668628D01*
X158719285Y-92478152D02*
X158719285Y-93144819D01*
X158481190Y-92097200D02*
X158243095Y-92811485D01*
X158243095Y-92811485D02*
X158862142Y-92811485D01*
X159766904Y-93144819D02*
X159195476Y-93144819D01*
X159481190Y-93144819D02*
X159481190Y-92144819D01*
X159481190Y-92144819D02*
X159385952Y-92287676D01*
X159385952Y-92287676D02*
X159290714Y-92382914D01*
X159290714Y-92382914D02*
X159195476Y-92430533D01*
X151945833Y-65289580D02*
X151898214Y-65337200D01*
X151898214Y-65337200D02*
X151755357Y-65384819D01*
X151755357Y-65384819D02*
X151660119Y-65384819D01*
X151660119Y-65384819D02*
X151517262Y-65337200D01*
X151517262Y-65337200D02*
X151422024Y-65241961D01*
X151422024Y-65241961D02*
X151374405Y-65146723D01*
X151374405Y-65146723D02*
X151326786Y-64956247D01*
X151326786Y-64956247D02*
X151326786Y-64813390D01*
X151326786Y-64813390D02*
X151374405Y-64622914D01*
X151374405Y-64622914D02*
X151422024Y-64527676D01*
X151422024Y-64527676D02*
X151517262Y-64432438D01*
X151517262Y-64432438D02*
X151660119Y-64384819D01*
X151660119Y-64384819D02*
X151755357Y-64384819D01*
X151755357Y-64384819D02*
X151898214Y-64432438D01*
X151898214Y-64432438D02*
X151945833Y-64480057D01*
X152802976Y-64718152D02*
X152802976Y-65384819D01*
X152564881Y-64337200D02*
X152326786Y-65051485D01*
X152326786Y-65051485D02*
X152945833Y-65051485D01*
X161672142Y-79144819D02*
X161338809Y-78668628D01*
X161100714Y-79144819D02*
X161100714Y-78144819D01*
X161100714Y-78144819D02*
X161481666Y-78144819D01*
X161481666Y-78144819D02*
X161576904Y-78192438D01*
X161576904Y-78192438D02*
X161624523Y-78240057D01*
X161624523Y-78240057D02*
X161672142Y-78335295D01*
X161672142Y-78335295D02*
X161672142Y-78478152D01*
X161672142Y-78478152D02*
X161624523Y-78573390D01*
X161624523Y-78573390D02*
X161576904Y-78621009D01*
X161576904Y-78621009D02*
X161481666Y-78668628D01*
X161481666Y-78668628D02*
X161100714Y-78668628D01*
X162624523Y-79144819D02*
X162053095Y-79144819D01*
X162338809Y-79144819D02*
X162338809Y-78144819D01*
X162338809Y-78144819D02*
X162243571Y-78287676D01*
X162243571Y-78287676D02*
X162148333Y-78382914D01*
X162148333Y-78382914D02*
X162053095Y-78430533D01*
X163195952Y-78573390D02*
X163100714Y-78525771D01*
X163100714Y-78525771D02*
X163053095Y-78478152D01*
X163053095Y-78478152D02*
X163005476Y-78382914D01*
X163005476Y-78382914D02*
X163005476Y-78335295D01*
X163005476Y-78335295D02*
X163053095Y-78240057D01*
X163053095Y-78240057D02*
X163100714Y-78192438D01*
X163100714Y-78192438D02*
X163195952Y-78144819D01*
X163195952Y-78144819D02*
X163386428Y-78144819D01*
X163386428Y-78144819D02*
X163481666Y-78192438D01*
X163481666Y-78192438D02*
X163529285Y-78240057D01*
X163529285Y-78240057D02*
X163576904Y-78335295D01*
X163576904Y-78335295D02*
X163576904Y-78382914D01*
X163576904Y-78382914D02*
X163529285Y-78478152D01*
X163529285Y-78478152D02*
X163481666Y-78525771D01*
X163481666Y-78525771D02*
X163386428Y-78573390D01*
X163386428Y-78573390D02*
X163195952Y-78573390D01*
X163195952Y-78573390D02*
X163100714Y-78621009D01*
X163100714Y-78621009D02*
X163053095Y-78668628D01*
X163053095Y-78668628D02*
X163005476Y-78763866D01*
X163005476Y-78763866D02*
X163005476Y-78954342D01*
X163005476Y-78954342D02*
X163053095Y-79049580D01*
X163053095Y-79049580D02*
X163100714Y-79097200D01*
X163100714Y-79097200D02*
X163195952Y-79144819D01*
X163195952Y-79144819D02*
X163386428Y-79144819D01*
X163386428Y-79144819D02*
X163481666Y-79097200D01*
X163481666Y-79097200D02*
X163529285Y-79049580D01*
X163529285Y-79049580D02*
X163576904Y-78954342D01*
X163576904Y-78954342D02*
X163576904Y-78763866D01*
X163576904Y-78763866D02*
X163529285Y-78668628D01*
X163529285Y-78668628D02*
X163481666Y-78621009D01*
X163481666Y-78621009D02*
X163386428Y-78573390D01*
X177769642Y-108704819D02*
X177436309Y-108228628D01*
X177198214Y-108704819D02*
X177198214Y-107704819D01*
X177198214Y-107704819D02*
X177579166Y-107704819D01*
X177579166Y-107704819D02*
X177674404Y-107752438D01*
X177674404Y-107752438D02*
X177722023Y-107800057D01*
X177722023Y-107800057D02*
X177769642Y-107895295D01*
X177769642Y-107895295D02*
X177769642Y-108038152D01*
X177769642Y-108038152D02*
X177722023Y-108133390D01*
X177722023Y-108133390D02*
X177674404Y-108181009D01*
X177674404Y-108181009D02*
X177579166Y-108228628D01*
X177579166Y-108228628D02*
X177198214Y-108228628D01*
X178626785Y-108038152D02*
X178626785Y-108704819D01*
X178388690Y-107657200D02*
X178150595Y-108371485D01*
X178150595Y-108371485D02*
X178769642Y-108371485D01*
X179626785Y-107704819D02*
X179150595Y-107704819D01*
X179150595Y-107704819D02*
X179102976Y-108181009D01*
X179102976Y-108181009D02*
X179150595Y-108133390D01*
X179150595Y-108133390D02*
X179245833Y-108085771D01*
X179245833Y-108085771D02*
X179483928Y-108085771D01*
X179483928Y-108085771D02*
X179579166Y-108133390D01*
X179579166Y-108133390D02*
X179626785Y-108181009D01*
X179626785Y-108181009D02*
X179674404Y-108276247D01*
X179674404Y-108276247D02*
X179674404Y-108514342D01*
X179674404Y-108514342D02*
X179626785Y-108609580D01*
X179626785Y-108609580D02*
X179579166Y-108657200D01*
X179579166Y-108657200D02*
X179483928Y-108704819D01*
X179483928Y-108704819D02*
X179245833Y-108704819D01*
X179245833Y-108704819D02*
X179150595Y-108657200D01*
X179150595Y-108657200D02*
X179102976Y-108609580D01*
X147420833Y-58704819D02*
X147087500Y-58228628D01*
X146849405Y-58704819D02*
X146849405Y-57704819D01*
X146849405Y-57704819D02*
X147230357Y-57704819D01*
X147230357Y-57704819D02*
X147325595Y-57752438D01*
X147325595Y-57752438D02*
X147373214Y-57800057D01*
X147373214Y-57800057D02*
X147420833Y-57895295D01*
X147420833Y-57895295D02*
X147420833Y-58038152D01*
X147420833Y-58038152D02*
X147373214Y-58133390D01*
X147373214Y-58133390D02*
X147325595Y-58181009D01*
X147325595Y-58181009D02*
X147230357Y-58228628D01*
X147230357Y-58228628D02*
X146849405Y-58228628D01*
X147754167Y-57704819D02*
X148373214Y-57704819D01*
X148373214Y-57704819D02*
X148039881Y-58085771D01*
X148039881Y-58085771D02*
X148182738Y-58085771D01*
X148182738Y-58085771D02*
X148277976Y-58133390D01*
X148277976Y-58133390D02*
X148325595Y-58181009D01*
X148325595Y-58181009D02*
X148373214Y-58276247D01*
X148373214Y-58276247D02*
X148373214Y-58514342D01*
X148373214Y-58514342D02*
X148325595Y-58609580D01*
X148325595Y-58609580D02*
X148277976Y-58657200D01*
X148277976Y-58657200D02*
X148182738Y-58704819D01*
X148182738Y-58704819D02*
X147897024Y-58704819D01*
X147897024Y-58704819D02*
X147801786Y-58657200D01*
X147801786Y-58657200D02*
X147754167Y-58609580D01*
X165482142Y-91144819D02*
X165148809Y-90668628D01*
X164910714Y-91144819D02*
X164910714Y-90144819D01*
X164910714Y-90144819D02*
X165291666Y-90144819D01*
X165291666Y-90144819D02*
X165386904Y-90192438D01*
X165386904Y-90192438D02*
X165434523Y-90240057D01*
X165434523Y-90240057D02*
X165482142Y-90335295D01*
X165482142Y-90335295D02*
X165482142Y-90478152D01*
X165482142Y-90478152D02*
X165434523Y-90573390D01*
X165434523Y-90573390D02*
X165386904Y-90621009D01*
X165386904Y-90621009D02*
X165291666Y-90668628D01*
X165291666Y-90668628D02*
X164910714Y-90668628D01*
X166434523Y-91144819D02*
X165863095Y-91144819D01*
X166148809Y-91144819D02*
X166148809Y-90144819D01*
X166148809Y-90144819D02*
X166053571Y-90287676D01*
X166053571Y-90287676D02*
X165958333Y-90382914D01*
X165958333Y-90382914D02*
X165863095Y-90430533D01*
X166815476Y-90240057D02*
X166863095Y-90192438D01*
X166863095Y-90192438D02*
X166958333Y-90144819D01*
X166958333Y-90144819D02*
X167196428Y-90144819D01*
X167196428Y-90144819D02*
X167291666Y-90192438D01*
X167291666Y-90192438D02*
X167339285Y-90240057D01*
X167339285Y-90240057D02*
X167386904Y-90335295D01*
X167386904Y-90335295D02*
X167386904Y-90430533D01*
X167386904Y-90430533D02*
X167339285Y-90573390D01*
X167339285Y-90573390D02*
X166767857Y-91144819D01*
X166767857Y-91144819D02*
X167386904Y-91144819D01*
X161672142Y-77144819D02*
X161338809Y-76668628D01*
X161100714Y-77144819D02*
X161100714Y-76144819D01*
X161100714Y-76144819D02*
X161481666Y-76144819D01*
X161481666Y-76144819D02*
X161576904Y-76192438D01*
X161576904Y-76192438D02*
X161624523Y-76240057D01*
X161624523Y-76240057D02*
X161672142Y-76335295D01*
X161672142Y-76335295D02*
X161672142Y-76478152D01*
X161672142Y-76478152D02*
X161624523Y-76573390D01*
X161624523Y-76573390D02*
X161576904Y-76621009D01*
X161576904Y-76621009D02*
X161481666Y-76668628D01*
X161481666Y-76668628D02*
X161100714Y-76668628D01*
X162624523Y-77144819D02*
X162053095Y-77144819D01*
X162338809Y-77144819D02*
X162338809Y-76144819D01*
X162338809Y-76144819D02*
X162243571Y-76287676D01*
X162243571Y-76287676D02*
X162148333Y-76382914D01*
X162148333Y-76382914D02*
X162053095Y-76430533D01*
X162957857Y-76144819D02*
X163624523Y-76144819D01*
X163624523Y-76144819D02*
X163195952Y-77144819D01*
X141767080Y-45304166D02*
X141814700Y-45351785D01*
X141814700Y-45351785D02*
X141862319Y-45494642D01*
X141862319Y-45494642D02*
X141862319Y-45589880D01*
X141862319Y-45589880D02*
X141814700Y-45732737D01*
X141814700Y-45732737D02*
X141719461Y-45827975D01*
X141719461Y-45827975D02*
X141624223Y-45875594D01*
X141624223Y-45875594D02*
X141433747Y-45923213D01*
X141433747Y-45923213D02*
X141290890Y-45923213D01*
X141290890Y-45923213D02*
X141100414Y-45875594D01*
X141100414Y-45875594D02*
X141005176Y-45827975D01*
X141005176Y-45827975D02*
X140909938Y-45732737D01*
X140909938Y-45732737D02*
X140862319Y-45589880D01*
X140862319Y-45589880D02*
X140862319Y-45494642D01*
X140862319Y-45494642D02*
X140909938Y-45351785D01*
X140909938Y-45351785D02*
X140957557Y-45304166D01*
X140957557Y-44923213D02*
X140909938Y-44875594D01*
X140909938Y-44875594D02*
X140862319Y-44780356D01*
X140862319Y-44780356D02*
X140862319Y-44542261D01*
X140862319Y-44542261D02*
X140909938Y-44447023D01*
X140909938Y-44447023D02*
X140957557Y-44399404D01*
X140957557Y-44399404D02*
X141052795Y-44351785D01*
X141052795Y-44351785D02*
X141148033Y-44351785D01*
X141148033Y-44351785D02*
X141290890Y-44399404D01*
X141290890Y-44399404D02*
X141862319Y-44970832D01*
X141862319Y-44970832D02*
X141862319Y-44351785D01*
X165482142Y-89144819D02*
X165148809Y-88668628D01*
X164910714Y-89144819D02*
X164910714Y-88144819D01*
X164910714Y-88144819D02*
X165291666Y-88144819D01*
X165291666Y-88144819D02*
X165386904Y-88192438D01*
X165386904Y-88192438D02*
X165434523Y-88240057D01*
X165434523Y-88240057D02*
X165482142Y-88335295D01*
X165482142Y-88335295D02*
X165482142Y-88478152D01*
X165482142Y-88478152D02*
X165434523Y-88573390D01*
X165434523Y-88573390D02*
X165386904Y-88621009D01*
X165386904Y-88621009D02*
X165291666Y-88668628D01*
X165291666Y-88668628D02*
X164910714Y-88668628D01*
X166434523Y-89144819D02*
X165863095Y-89144819D01*
X166148809Y-89144819D02*
X166148809Y-88144819D01*
X166148809Y-88144819D02*
X166053571Y-88287676D01*
X166053571Y-88287676D02*
X165958333Y-88382914D01*
X165958333Y-88382914D02*
X165863095Y-88430533D01*
X167386904Y-89144819D02*
X166815476Y-89144819D01*
X167101190Y-89144819D02*
X167101190Y-88144819D01*
X167101190Y-88144819D02*
X167005952Y-88287676D01*
X167005952Y-88287676D02*
X166910714Y-88382914D01*
X166910714Y-88382914D02*
X166815476Y-88430533D01*
X165482142Y-98954819D02*
X165148809Y-98478628D01*
X164910714Y-98954819D02*
X164910714Y-97954819D01*
X164910714Y-97954819D02*
X165291666Y-97954819D01*
X165291666Y-97954819D02*
X165386904Y-98002438D01*
X165386904Y-98002438D02*
X165434523Y-98050057D01*
X165434523Y-98050057D02*
X165482142Y-98145295D01*
X165482142Y-98145295D02*
X165482142Y-98288152D01*
X165482142Y-98288152D02*
X165434523Y-98383390D01*
X165434523Y-98383390D02*
X165386904Y-98431009D01*
X165386904Y-98431009D02*
X165291666Y-98478628D01*
X165291666Y-98478628D02*
X164910714Y-98478628D01*
X166434523Y-98954819D02*
X165863095Y-98954819D01*
X166148809Y-98954819D02*
X166148809Y-97954819D01*
X166148809Y-97954819D02*
X166053571Y-98097676D01*
X166053571Y-98097676D02*
X165958333Y-98192914D01*
X165958333Y-98192914D02*
X165863095Y-98240533D01*
X167291666Y-97954819D02*
X167101190Y-97954819D01*
X167101190Y-97954819D02*
X167005952Y-98002438D01*
X167005952Y-98002438D02*
X166958333Y-98050057D01*
X166958333Y-98050057D02*
X166863095Y-98192914D01*
X166863095Y-98192914D02*
X166815476Y-98383390D01*
X166815476Y-98383390D02*
X166815476Y-98764342D01*
X166815476Y-98764342D02*
X166863095Y-98859580D01*
X166863095Y-98859580D02*
X166910714Y-98907200D01*
X166910714Y-98907200D02*
X167005952Y-98954819D01*
X167005952Y-98954819D02*
X167196428Y-98954819D01*
X167196428Y-98954819D02*
X167291666Y-98907200D01*
X167291666Y-98907200D02*
X167339285Y-98859580D01*
X167339285Y-98859580D02*
X167386904Y-98764342D01*
X167386904Y-98764342D02*
X167386904Y-98526247D01*
X167386904Y-98526247D02*
X167339285Y-98431009D01*
X167339285Y-98431009D02*
X167291666Y-98383390D01*
X167291666Y-98383390D02*
X167196428Y-98335771D01*
X167196428Y-98335771D02*
X167005952Y-98335771D01*
X167005952Y-98335771D02*
X166910714Y-98383390D01*
X166910714Y-98383390D02*
X166863095Y-98431009D01*
X166863095Y-98431009D02*
X166815476Y-98526247D01*
X166833333Y-63859580D02*
X166785714Y-63907200D01*
X166785714Y-63907200D02*
X166642857Y-63954819D01*
X166642857Y-63954819D02*
X166547619Y-63954819D01*
X166547619Y-63954819D02*
X166404762Y-63907200D01*
X166404762Y-63907200D02*
X166309524Y-63811961D01*
X166309524Y-63811961D02*
X166261905Y-63716723D01*
X166261905Y-63716723D02*
X166214286Y-63526247D01*
X166214286Y-63526247D02*
X166214286Y-63383390D01*
X166214286Y-63383390D02*
X166261905Y-63192914D01*
X166261905Y-63192914D02*
X166309524Y-63097676D01*
X166309524Y-63097676D02*
X166404762Y-63002438D01*
X166404762Y-63002438D02*
X166547619Y-62954819D01*
X166547619Y-62954819D02*
X166642857Y-62954819D01*
X166642857Y-62954819D02*
X166785714Y-63002438D01*
X166785714Y-63002438D02*
X166833333Y-63050057D01*
X167404762Y-63383390D02*
X167309524Y-63335771D01*
X167309524Y-63335771D02*
X167261905Y-63288152D01*
X167261905Y-63288152D02*
X167214286Y-63192914D01*
X167214286Y-63192914D02*
X167214286Y-63145295D01*
X167214286Y-63145295D02*
X167261905Y-63050057D01*
X167261905Y-63050057D02*
X167309524Y-63002438D01*
X167309524Y-63002438D02*
X167404762Y-62954819D01*
X167404762Y-62954819D02*
X167595238Y-62954819D01*
X167595238Y-62954819D02*
X167690476Y-63002438D01*
X167690476Y-63002438D02*
X167738095Y-63050057D01*
X167738095Y-63050057D02*
X167785714Y-63145295D01*
X167785714Y-63145295D02*
X167785714Y-63192914D01*
X167785714Y-63192914D02*
X167738095Y-63288152D01*
X167738095Y-63288152D02*
X167690476Y-63335771D01*
X167690476Y-63335771D02*
X167595238Y-63383390D01*
X167595238Y-63383390D02*
X167404762Y-63383390D01*
X167404762Y-63383390D02*
X167309524Y-63431009D01*
X167309524Y-63431009D02*
X167261905Y-63478628D01*
X167261905Y-63478628D02*
X167214286Y-63573866D01*
X167214286Y-63573866D02*
X167214286Y-63764342D01*
X167214286Y-63764342D02*
X167261905Y-63859580D01*
X167261905Y-63859580D02*
X167309524Y-63907200D01*
X167309524Y-63907200D02*
X167404762Y-63954819D01*
X167404762Y-63954819D02*
X167595238Y-63954819D01*
X167595238Y-63954819D02*
X167690476Y-63907200D01*
X167690476Y-63907200D02*
X167738095Y-63859580D01*
X167738095Y-63859580D02*
X167785714Y-63764342D01*
X167785714Y-63764342D02*
X167785714Y-63573866D01*
X167785714Y-63573866D02*
X167738095Y-63478628D01*
X167738095Y-63478628D02*
X167690476Y-63431009D01*
X167690476Y-63431009D02*
X167595238Y-63383390D01*
X151408095Y-58304819D02*
X151408095Y-59114342D01*
X151408095Y-59114342D02*
X151455714Y-59209580D01*
X151455714Y-59209580D02*
X151503333Y-59257200D01*
X151503333Y-59257200D02*
X151598571Y-59304819D01*
X151598571Y-59304819D02*
X151789047Y-59304819D01*
X151789047Y-59304819D02*
X151884285Y-59257200D01*
X151884285Y-59257200D02*
X151931904Y-59209580D01*
X151931904Y-59209580D02*
X151979523Y-59114342D01*
X151979523Y-59114342D02*
X151979523Y-58304819D01*
X152408095Y-58400057D02*
X152455714Y-58352438D01*
X152455714Y-58352438D02*
X152550952Y-58304819D01*
X152550952Y-58304819D02*
X152789047Y-58304819D01*
X152789047Y-58304819D02*
X152884285Y-58352438D01*
X152884285Y-58352438D02*
X152931904Y-58400057D01*
X152931904Y-58400057D02*
X152979523Y-58495295D01*
X152979523Y-58495295D02*
X152979523Y-58590533D01*
X152979523Y-58590533D02*
X152931904Y-58733390D01*
X152931904Y-58733390D02*
X152360476Y-59304819D01*
X152360476Y-59304819D02*
X152979523Y-59304819D01*
X157862142Y-83144819D02*
X157528809Y-82668628D01*
X157290714Y-83144819D02*
X157290714Y-82144819D01*
X157290714Y-82144819D02*
X157671666Y-82144819D01*
X157671666Y-82144819D02*
X157766904Y-82192438D01*
X157766904Y-82192438D02*
X157814523Y-82240057D01*
X157814523Y-82240057D02*
X157862142Y-82335295D01*
X157862142Y-82335295D02*
X157862142Y-82478152D01*
X157862142Y-82478152D02*
X157814523Y-82573390D01*
X157814523Y-82573390D02*
X157766904Y-82621009D01*
X157766904Y-82621009D02*
X157671666Y-82668628D01*
X157671666Y-82668628D02*
X157290714Y-82668628D01*
X158195476Y-82144819D02*
X158814523Y-82144819D01*
X158814523Y-82144819D02*
X158481190Y-82525771D01*
X158481190Y-82525771D02*
X158624047Y-82525771D01*
X158624047Y-82525771D02*
X158719285Y-82573390D01*
X158719285Y-82573390D02*
X158766904Y-82621009D01*
X158766904Y-82621009D02*
X158814523Y-82716247D01*
X158814523Y-82716247D02*
X158814523Y-82954342D01*
X158814523Y-82954342D02*
X158766904Y-83049580D01*
X158766904Y-83049580D02*
X158719285Y-83097200D01*
X158719285Y-83097200D02*
X158624047Y-83144819D01*
X158624047Y-83144819D02*
X158338333Y-83144819D01*
X158338333Y-83144819D02*
X158243095Y-83097200D01*
X158243095Y-83097200D02*
X158195476Y-83049580D01*
X159671666Y-82144819D02*
X159481190Y-82144819D01*
X159481190Y-82144819D02*
X159385952Y-82192438D01*
X159385952Y-82192438D02*
X159338333Y-82240057D01*
X159338333Y-82240057D02*
X159243095Y-82382914D01*
X159243095Y-82382914D02*
X159195476Y-82573390D01*
X159195476Y-82573390D02*
X159195476Y-82954342D01*
X159195476Y-82954342D02*
X159243095Y-83049580D01*
X159243095Y-83049580D02*
X159290714Y-83097200D01*
X159290714Y-83097200D02*
X159385952Y-83144819D01*
X159385952Y-83144819D02*
X159576428Y-83144819D01*
X159576428Y-83144819D02*
X159671666Y-83097200D01*
X159671666Y-83097200D02*
X159719285Y-83049580D01*
X159719285Y-83049580D02*
X159766904Y-82954342D01*
X159766904Y-82954342D02*
X159766904Y-82716247D01*
X159766904Y-82716247D02*
X159719285Y-82621009D01*
X159719285Y-82621009D02*
X159671666Y-82573390D01*
X159671666Y-82573390D02*
X159576428Y-82525771D01*
X159576428Y-82525771D02*
X159385952Y-82525771D01*
X159385952Y-82525771D02*
X159290714Y-82573390D01*
X159290714Y-82573390D02*
X159243095Y-82621009D01*
X159243095Y-82621009D02*
X159195476Y-82716247D01*
X161672142Y-93144819D02*
X161338809Y-92668628D01*
X161100714Y-93144819D02*
X161100714Y-92144819D01*
X161100714Y-92144819D02*
X161481666Y-92144819D01*
X161481666Y-92144819D02*
X161576904Y-92192438D01*
X161576904Y-92192438D02*
X161624523Y-92240057D01*
X161624523Y-92240057D02*
X161672142Y-92335295D01*
X161672142Y-92335295D02*
X161672142Y-92478152D01*
X161672142Y-92478152D02*
X161624523Y-92573390D01*
X161624523Y-92573390D02*
X161576904Y-92621009D01*
X161576904Y-92621009D02*
X161481666Y-92668628D01*
X161481666Y-92668628D02*
X161100714Y-92668628D01*
X162053095Y-92240057D02*
X162100714Y-92192438D01*
X162100714Y-92192438D02*
X162195952Y-92144819D01*
X162195952Y-92144819D02*
X162434047Y-92144819D01*
X162434047Y-92144819D02*
X162529285Y-92192438D01*
X162529285Y-92192438D02*
X162576904Y-92240057D01*
X162576904Y-92240057D02*
X162624523Y-92335295D01*
X162624523Y-92335295D02*
X162624523Y-92430533D01*
X162624523Y-92430533D02*
X162576904Y-92573390D01*
X162576904Y-92573390D02*
X162005476Y-93144819D01*
X162005476Y-93144819D02*
X162624523Y-93144819D01*
X163529285Y-92144819D02*
X163053095Y-92144819D01*
X163053095Y-92144819D02*
X163005476Y-92621009D01*
X163005476Y-92621009D02*
X163053095Y-92573390D01*
X163053095Y-92573390D02*
X163148333Y-92525771D01*
X163148333Y-92525771D02*
X163386428Y-92525771D01*
X163386428Y-92525771D02*
X163481666Y-92573390D01*
X163481666Y-92573390D02*
X163529285Y-92621009D01*
X163529285Y-92621009D02*
X163576904Y-92716247D01*
X163576904Y-92716247D02*
X163576904Y-92954342D01*
X163576904Y-92954342D02*
X163529285Y-93049580D01*
X163529285Y-93049580D02*
X163481666Y-93097200D01*
X163481666Y-93097200D02*
X163386428Y-93144819D01*
X163386428Y-93144819D02*
X163148333Y-93144819D01*
X163148333Y-93144819D02*
X163053095Y-93097200D01*
X163053095Y-93097200D02*
X163005476Y-93049580D01*
X171944642Y-47884819D02*
X171611309Y-47408628D01*
X171373214Y-47884819D02*
X171373214Y-46884819D01*
X171373214Y-46884819D02*
X171754166Y-46884819D01*
X171754166Y-46884819D02*
X171849404Y-46932438D01*
X171849404Y-46932438D02*
X171897023Y-46980057D01*
X171897023Y-46980057D02*
X171944642Y-47075295D01*
X171944642Y-47075295D02*
X171944642Y-47218152D01*
X171944642Y-47218152D02*
X171897023Y-47313390D01*
X171897023Y-47313390D02*
X171849404Y-47361009D01*
X171849404Y-47361009D02*
X171754166Y-47408628D01*
X171754166Y-47408628D02*
X171373214Y-47408628D01*
X172801785Y-47218152D02*
X172801785Y-47884819D01*
X172563690Y-46837200D02*
X172325595Y-47551485D01*
X172325595Y-47551485D02*
X172944642Y-47551485D01*
X173373214Y-47884819D02*
X173563690Y-47884819D01*
X173563690Y-47884819D02*
X173658928Y-47837200D01*
X173658928Y-47837200D02*
X173706547Y-47789580D01*
X173706547Y-47789580D02*
X173801785Y-47646723D01*
X173801785Y-47646723D02*
X173849404Y-47456247D01*
X173849404Y-47456247D02*
X173849404Y-47075295D01*
X173849404Y-47075295D02*
X173801785Y-46980057D01*
X173801785Y-46980057D02*
X173754166Y-46932438D01*
X173754166Y-46932438D02*
X173658928Y-46884819D01*
X173658928Y-46884819D02*
X173468452Y-46884819D01*
X173468452Y-46884819D02*
X173373214Y-46932438D01*
X173373214Y-46932438D02*
X173325595Y-46980057D01*
X173325595Y-46980057D02*
X173277976Y-47075295D01*
X173277976Y-47075295D02*
X173277976Y-47313390D01*
X173277976Y-47313390D02*
X173325595Y-47408628D01*
X173325595Y-47408628D02*
X173373214Y-47456247D01*
X173373214Y-47456247D02*
X173468452Y-47503866D01*
X173468452Y-47503866D02*
X173658928Y-47503866D01*
X173658928Y-47503866D02*
X173754166Y-47456247D01*
X173754166Y-47456247D02*
X173801785Y-47408628D01*
X173801785Y-47408628D02*
X173849404Y-47313390D01*
X157862142Y-85144819D02*
X157528809Y-84668628D01*
X157290714Y-85144819D02*
X157290714Y-84144819D01*
X157290714Y-84144819D02*
X157671666Y-84144819D01*
X157671666Y-84144819D02*
X157766904Y-84192438D01*
X157766904Y-84192438D02*
X157814523Y-84240057D01*
X157814523Y-84240057D02*
X157862142Y-84335295D01*
X157862142Y-84335295D02*
X157862142Y-84478152D01*
X157862142Y-84478152D02*
X157814523Y-84573390D01*
X157814523Y-84573390D02*
X157766904Y-84621009D01*
X157766904Y-84621009D02*
X157671666Y-84668628D01*
X157671666Y-84668628D02*
X157290714Y-84668628D01*
X158195476Y-84144819D02*
X158814523Y-84144819D01*
X158814523Y-84144819D02*
X158481190Y-84525771D01*
X158481190Y-84525771D02*
X158624047Y-84525771D01*
X158624047Y-84525771D02*
X158719285Y-84573390D01*
X158719285Y-84573390D02*
X158766904Y-84621009D01*
X158766904Y-84621009D02*
X158814523Y-84716247D01*
X158814523Y-84716247D02*
X158814523Y-84954342D01*
X158814523Y-84954342D02*
X158766904Y-85049580D01*
X158766904Y-85049580D02*
X158719285Y-85097200D01*
X158719285Y-85097200D02*
X158624047Y-85144819D01*
X158624047Y-85144819D02*
X158338333Y-85144819D01*
X158338333Y-85144819D02*
X158243095Y-85097200D01*
X158243095Y-85097200D02*
X158195476Y-85049580D01*
X159147857Y-84144819D02*
X159814523Y-84144819D01*
X159814523Y-84144819D02*
X159385952Y-85144819D01*
X147420833Y-60704819D02*
X147087500Y-60228628D01*
X146849405Y-60704819D02*
X146849405Y-59704819D01*
X146849405Y-59704819D02*
X147230357Y-59704819D01*
X147230357Y-59704819D02*
X147325595Y-59752438D01*
X147325595Y-59752438D02*
X147373214Y-59800057D01*
X147373214Y-59800057D02*
X147420833Y-59895295D01*
X147420833Y-59895295D02*
X147420833Y-60038152D01*
X147420833Y-60038152D02*
X147373214Y-60133390D01*
X147373214Y-60133390D02*
X147325595Y-60181009D01*
X147325595Y-60181009D02*
X147230357Y-60228628D01*
X147230357Y-60228628D02*
X146849405Y-60228628D01*
X148373214Y-60704819D02*
X147801786Y-60704819D01*
X148087500Y-60704819D02*
X148087500Y-59704819D01*
X148087500Y-59704819D02*
X147992262Y-59847676D01*
X147992262Y-59847676D02*
X147897024Y-59942914D01*
X147897024Y-59942914D02*
X147801786Y-59990533D01*
X157862142Y-98954819D02*
X157528809Y-98478628D01*
X157290714Y-98954819D02*
X157290714Y-97954819D01*
X157290714Y-97954819D02*
X157671666Y-97954819D01*
X157671666Y-97954819D02*
X157766904Y-98002438D01*
X157766904Y-98002438D02*
X157814523Y-98050057D01*
X157814523Y-98050057D02*
X157862142Y-98145295D01*
X157862142Y-98145295D02*
X157862142Y-98288152D01*
X157862142Y-98288152D02*
X157814523Y-98383390D01*
X157814523Y-98383390D02*
X157766904Y-98431009D01*
X157766904Y-98431009D02*
X157671666Y-98478628D01*
X157671666Y-98478628D02*
X157290714Y-98478628D01*
X158719285Y-98288152D02*
X158719285Y-98954819D01*
X158481190Y-97907200D02*
X158243095Y-98621485D01*
X158243095Y-98621485D02*
X158862142Y-98621485D01*
X159671666Y-98288152D02*
X159671666Y-98954819D01*
X159433571Y-97907200D02*
X159195476Y-98621485D01*
X159195476Y-98621485D02*
X159814523Y-98621485D01*
X159857142Y-63954819D02*
X159523809Y-63478628D01*
X159285714Y-63954819D02*
X159285714Y-62954819D01*
X159285714Y-62954819D02*
X159666666Y-62954819D01*
X159666666Y-62954819D02*
X159761904Y-63002438D01*
X159761904Y-63002438D02*
X159809523Y-63050057D01*
X159809523Y-63050057D02*
X159857142Y-63145295D01*
X159857142Y-63145295D02*
X159857142Y-63288152D01*
X159857142Y-63288152D02*
X159809523Y-63383390D01*
X159809523Y-63383390D02*
X159761904Y-63431009D01*
X159761904Y-63431009D02*
X159666666Y-63478628D01*
X159666666Y-63478628D02*
X159285714Y-63478628D01*
X160190476Y-62954819D02*
X160809523Y-62954819D01*
X160809523Y-62954819D02*
X160476190Y-63335771D01*
X160476190Y-63335771D02*
X160619047Y-63335771D01*
X160619047Y-63335771D02*
X160714285Y-63383390D01*
X160714285Y-63383390D02*
X160761904Y-63431009D01*
X160761904Y-63431009D02*
X160809523Y-63526247D01*
X160809523Y-63526247D02*
X160809523Y-63764342D01*
X160809523Y-63764342D02*
X160761904Y-63859580D01*
X160761904Y-63859580D02*
X160714285Y-63907200D01*
X160714285Y-63907200D02*
X160619047Y-63954819D01*
X160619047Y-63954819D02*
X160333333Y-63954819D01*
X160333333Y-63954819D02*
X160238095Y-63907200D01*
X160238095Y-63907200D02*
X160190476Y-63859580D01*
X161190476Y-63050057D02*
X161238095Y-63002438D01*
X161238095Y-63002438D02*
X161333333Y-62954819D01*
X161333333Y-62954819D02*
X161571428Y-62954819D01*
X161571428Y-62954819D02*
X161666666Y-63002438D01*
X161666666Y-63002438D02*
X161714285Y-63050057D01*
X161714285Y-63050057D02*
X161761904Y-63145295D01*
X161761904Y-63145295D02*
X161761904Y-63240533D01*
X161761904Y-63240533D02*
X161714285Y-63383390D01*
X161714285Y-63383390D02*
X161142857Y-63954819D01*
X161142857Y-63954819D02*
X161761904Y-63954819D01*
X157862142Y-79144819D02*
X157528809Y-78668628D01*
X157290714Y-79144819D02*
X157290714Y-78144819D01*
X157290714Y-78144819D02*
X157671666Y-78144819D01*
X157671666Y-78144819D02*
X157766904Y-78192438D01*
X157766904Y-78192438D02*
X157814523Y-78240057D01*
X157814523Y-78240057D02*
X157862142Y-78335295D01*
X157862142Y-78335295D02*
X157862142Y-78478152D01*
X157862142Y-78478152D02*
X157814523Y-78573390D01*
X157814523Y-78573390D02*
X157766904Y-78621009D01*
X157766904Y-78621009D02*
X157671666Y-78668628D01*
X157671666Y-78668628D02*
X157290714Y-78668628D01*
X158195476Y-78144819D02*
X158814523Y-78144819D01*
X158814523Y-78144819D02*
X158481190Y-78525771D01*
X158481190Y-78525771D02*
X158624047Y-78525771D01*
X158624047Y-78525771D02*
X158719285Y-78573390D01*
X158719285Y-78573390D02*
X158766904Y-78621009D01*
X158766904Y-78621009D02*
X158814523Y-78716247D01*
X158814523Y-78716247D02*
X158814523Y-78954342D01*
X158814523Y-78954342D02*
X158766904Y-79049580D01*
X158766904Y-79049580D02*
X158719285Y-79097200D01*
X158719285Y-79097200D02*
X158624047Y-79144819D01*
X158624047Y-79144819D02*
X158338333Y-79144819D01*
X158338333Y-79144819D02*
X158243095Y-79097200D01*
X158243095Y-79097200D02*
X158195476Y-79049580D01*
X159671666Y-78478152D02*
X159671666Y-79144819D01*
X159433571Y-78097200D02*
X159195476Y-78811485D01*
X159195476Y-78811485D02*
X159814523Y-78811485D01*
X145694642Y-42662319D02*
X145361309Y-42186128D01*
X145123214Y-42662319D02*
X145123214Y-41662319D01*
X145123214Y-41662319D02*
X145504166Y-41662319D01*
X145504166Y-41662319D02*
X145599404Y-41709938D01*
X145599404Y-41709938D02*
X145647023Y-41757557D01*
X145647023Y-41757557D02*
X145694642Y-41852795D01*
X145694642Y-41852795D02*
X145694642Y-41995652D01*
X145694642Y-41995652D02*
X145647023Y-42090890D01*
X145647023Y-42090890D02*
X145599404Y-42138509D01*
X145599404Y-42138509D02*
X145504166Y-42186128D01*
X145504166Y-42186128D02*
X145123214Y-42186128D01*
X146551785Y-41995652D02*
X146551785Y-42662319D01*
X146313690Y-41614700D02*
X146075595Y-42328985D01*
X146075595Y-42328985D02*
X146694642Y-42328985D01*
X146980357Y-41662319D02*
X147647023Y-41662319D01*
X147647023Y-41662319D02*
X147218452Y-42662319D01*
X171944642Y-45134819D02*
X171611309Y-44658628D01*
X171373214Y-45134819D02*
X171373214Y-44134819D01*
X171373214Y-44134819D02*
X171754166Y-44134819D01*
X171754166Y-44134819D02*
X171849404Y-44182438D01*
X171849404Y-44182438D02*
X171897023Y-44230057D01*
X171897023Y-44230057D02*
X171944642Y-44325295D01*
X171944642Y-44325295D02*
X171944642Y-44468152D01*
X171944642Y-44468152D02*
X171897023Y-44563390D01*
X171897023Y-44563390D02*
X171849404Y-44611009D01*
X171849404Y-44611009D02*
X171754166Y-44658628D01*
X171754166Y-44658628D02*
X171373214Y-44658628D01*
X172801785Y-44468152D02*
X172801785Y-45134819D01*
X172563690Y-44087200D02*
X172325595Y-44801485D01*
X172325595Y-44801485D02*
X172944642Y-44801485D01*
X173468452Y-44563390D02*
X173373214Y-44515771D01*
X173373214Y-44515771D02*
X173325595Y-44468152D01*
X173325595Y-44468152D02*
X173277976Y-44372914D01*
X173277976Y-44372914D02*
X173277976Y-44325295D01*
X173277976Y-44325295D02*
X173325595Y-44230057D01*
X173325595Y-44230057D02*
X173373214Y-44182438D01*
X173373214Y-44182438D02*
X173468452Y-44134819D01*
X173468452Y-44134819D02*
X173658928Y-44134819D01*
X173658928Y-44134819D02*
X173754166Y-44182438D01*
X173754166Y-44182438D02*
X173801785Y-44230057D01*
X173801785Y-44230057D02*
X173849404Y-44325295D01*
X173849404Y-44325295D02*
X173849404Y-44372914D01*
X173849404Y-44372914D02*
X173801785Y-44468152D01*
X173801785Y-44468152D02*
X173754166Y-44515771D01*
X173754166Y-44515771D02*
X173658928Y-44563390D01*
X173658928Y-44563390D02*
X173468452Y-44563390D01*
X173468452Y-44563390D02*
X173373214Y-44611009D01*
X173373214Y-44611009D02*
X173325595Y-44658628D01*
X173325595Y-44658628D02*
X173277976Y-44753866D01*
X173277976Y-44753866D02*
X173277976Y-44944342D01*
X173277976Y-44944342D02*
X173325595Y-45039580D01*
X173325595Y-45039580D02*
X173373214Y-45087200D01*
X173373214Y-45087200D02*
X173468452Y-45134819D01*
X173468452Y-45134819D02*
X173658928Y-45134819D01*
X173658928Y-45134819D02*
X173754166Y-45087200D01*
X173754166Y-45087200D02*
X173801785Y-45039580D01*
X173801785Y-45039580D02*
X173849404Y-44944342D01*
X173849404Y-44944342D02*
X173849404Y-44753866D01*
X173849404Y-44753866D02*
X173801785Y-44658628D01*
X173801785Y-44658628D02*
X173754166Y-44611009D01*
X173754166Y-44611009D02*
X173658928Y-44563390D01*
X165333333Y-81144819D02*
X165000000Y-80668628D01*
X164761905Y-81144819D02*
X164761905Y-80144819D01*
X164761905Y-80144819D02*
X165142857Y-80144819D01*
X165142857Y-80144819D02*
X165238095Y-80192438D01*
X165238095Y-80192438D02*
X165285714Y-80240057D01*
X165285714Y-80240057D02*
X165333333Y-80335295D01*
X165333333Y-80335295D02*
X165333333Y-80478152D01*
X165333333Y-80478152D02*
X165285714Y-80573390D01*
X165285714Y-80573390D02*
X165238095Y-80621009D01*
X165238095Y-80621009D02*
X165142857Y-80668628D01*
X165142857Y-80668628D02*
X164761905Y-80668628D01*
X165666667Y-80144819D02*
X166333333Y-80144819D01*
X166333333Y-80144819D02*
X165904762Y-81144819D01*
X166833333Y-60109580D02*
X166785714Y-60157200D01*
X166785714Y-60157200D02*
X166642857Y-60204819D01*
X166642857Y-60204819D02*
X166547619Y-60204819D01*
X166547619Y-60204819D02*
X166404762Y-60157200D01*
X166404762Y-60157200D02*
X166309524Y-60061961D01*
X166309524Y-60061961D02*
X166261905Y-59966723D01*
X166261905Y-59966723D02*
X166214286Y-59776247D01*
X166214286Y-59776247D02*
X166214286Y-59633390D01*
X166214286Y-59633390D02*
X166261905Y-59442914D01*
X166261905Y-59442914D02*
X166309524Y-59347676D01*
X166309524Y-59347676D02*
X166404762Y-59252438D01*
X166404762Y-59252438D02*
X166547619Y-59204819D01*
X166547619Y-59204819D02*
X166642857Y-59204819D01*
X166642857Y-59204819D02*
X166785714Y-59252438D01*
X166785714Y-59252438D02*
X166833333Y-59300057D01*
X167738095Y-59204819D02*
X167261905Y-59204819D01*
X167261905Y-59204819D02*
X167214286Y-59681009D01*
X167214286Y-59681009D02*
X167261905Y-59633390D01*
X167261905Y-59633390D02*
X167357143Y-59585771D01*
X167357143Y-59585771D02*
X167595238Y-59585771D01*
X167595238Y-59585771D02*
X167690476Y-59633390D01*
X167690476Y-59633390D02*
X167738095Y-59681009D01*
X167738095Y-59681009D02*
X167785714Y-59776247D01*
X167785714Y-59776247D02*
X167785714Y-60014342D01*
X167785714Y-60014342D02*
X167738095Y-60109580D01*
X167738095Y-60109580D02*
X167690476Y-60157200D01*
X167690476Y-60157200D02*
X167595238Y-60204819D01*
X167595238Y-60204819D02*
X167357143Y-60204819D01*
X167357143Y-60204819D02*
X167261905Y-60157200D01*
X167261905Y-60157200D02*
X167214286Y-60109580D01*
X171944642Y-50884819D02*
X171611309Y-50408628D01*
X171373214Y-50884819D02*
X171373214Y-49884819D01*
X171373214Y-49884819D02*
X171754166Y-49884819D01*
X171754166Y-49884819D02*
X171849404Y-49932438D01*
X171849404Y-49932438D02*
X171897023Y-49980057D01*
X171897023Y-49980057D02*
X171944642Y-50075295D01*
X171944642Y-50075295D02*
X171944642Y-50218152D01*
X171944642Y-50218152D02*
X171897023Y-50313390D01*
X171897023Y-50313390D02*
X171849404Y-50361009D01*
X171849404Y-50361009D02*
X171754166Y-50408628D01*
X171754166Y-50408628D02*
X171373214Y-50408628D01*
X172849404Y-49884819D02*
X172373214Y-49884819D01*
X172373214Y-49884819D02*
X172325595Y-50361009D01*
X172325595Y-50361009D02*
X172373214Y-50313390D01*
X172373214Y-50313390D02*
X172468452Y-50265771D01*
X172468452Y-50265771D02*
X172706547Y-50265771D01*
X172706547Y-50265771D02*
X172801785Y-50313390D01*
X172801785Y-50313390D02*
X172849404Y-50361009D01*
X172849404Y-50361009D02*
X172897023Y-50456247D01*
X172897023Y-50456247D02*
X172897023Y-50694342D01*
X172897023Y-50694342D02*
X172849404Y-50789580D01*
X172849404Y-50789580D02*
X172801785Y-50837200D01*
X172801785Y-50837200D02*
X172706547Y-50884819D01*
X172706547Y-50884819D02*
X172468452Y-50884819D01*
X172468452Y-50884819D02*
X172373214Y-50837200D01*
X172373214Y-50837200D02*
X172325595Y-50789580D01*
X173516071Y-49884819D02*
X173611309Y-49884819D01*
X173611309Y-49884819D02*
X173706547Y-49932438D01*
X173706547Y-49932438D02*
X173754166Y-49980057D01*
X173754166Y-49980057D02*
X173801785Y-50075295D01*
X173801785Y-50075295D02*
X173849404Y-50265771D01*
X173849404Y-50265771D02*
X173849404Y-50503866D01*
X173849404Y-50503866D02*
X173801785Y-50694342D01*
X173801785Y-50694342D02*
X173754166Y-50789580D01*
X173754166Y-50789580D02*
X173706547Y-50837200D01*
X173706547Y-50837200D02*
X173611309Y-50884819D01*
X173611309Y-50884819D02*
X173516071Y-50884819D01*
X173516071Y-50884819D02*
X173420833Y-50837200D01*
X173420833Y-50837200D02*
X173373214Y-50789580D01*
X173373214Y-50789580D02*
X173325595Y-50694342D01*
X173325595Y-50694342D02*
X173277976Y-50503866D01*
X173277976Y-50503866D02*
X173277976Y-50265771D01*
X173277976Y-50265771D02*
X173325595Y-50075295D01*
X173325595Y-50075295D02*
X173373214Y-49980057D01*
X173373214Y-49980057D02*
X173420833Y-49932438D01*
X173420833Y-49932438D02*
X173516071Y-49884819D01*
X161672142Y-98954819D02*
X161338809Y-98478628D01*
X161100714Y-98954819D02*
X161100714Y-97954819D01*
X161100714Y-97954819D02*
X161481666Y-97954819D01*
X161481666Y-97954819D02*
X161576904Y-98002438D01*
X161576904Y-98002438D02*
X161624523Y-98050057D01*
X161624523Y-98050057D02*
X161672142Y-98145295D01*
X161672142Y-98145295D02*
X161672142Y-98288152D01*
X161672142Y-98288152D02*
X161624523Y-98383390D01*
X161624523Y-98383390D02*
X161576904Y-98431009D01*
X161576904Y-98431009D02*
X161481666Y-98478628D01*
X161481666Y-98478628D02*
X161100714Y-98478628D01*
X162053095Y-98050057D02*
X162100714Y-98002438D01*
X162100714Y-98002438D02*
X162195952Y-97954819D01*
X162195952Y-97954819D02*
X162434047Y-97954819D01*
X162434047Y-97954819D02*
X162529285Y-98002438D01*
X162529285Y-98002438D02*
X162576904Y-98050057D01*
X162576904Y-98050057D02*
X162624523Y-98145295D01*
X162624523Y-98145295D02*
X162624523Y-98240533D01*
X162624523Y-98240533D02*
X162576904Y-98383390D01*
X162576904Y-98383390D02*
X162005476Y-98954819D01*
X162005476Y-98954819D02*
X162624523Y-98954819D01*
X163195952Y-98383390D02*
X163100714Y-98335771D01*
X163100714Y-98335771D02*
X163053095Y-98288152D01*
X163053095Y-98288152D02*
X163005476Y-98192914D01*
X163005476Y-98192914D02*
X163005476Y-98145295D01*
X163005476Y-98145295D02*
X163053095Y-98050057D01*
X163053095Y-98050057D02*
X163100714Y-98002438D01*
X163100714Y-98002438D02*
X163195952Y-97954819D01*
X163195952Y-97954819D02*
X163386428Y-97954819D01*
X163386428Y-97954819D02*
X163481666Y-98002438D01*
X163481666Y-98002438D02*
X163529285Y-98050057D01*
X163529285Y-98050057D02*
X163576904Y-98145295D01*
X163576904Y-98145295D02*
X163576904Y-98192914D01*
X163576904Y-98192914D02*
X163529285Y-98288152D01*
X163529285Y-98288152D02*
X163481666Y-98335771D01*
X163481666Y-98335771D02*
X163386428Y-98383390D01*
X163386428Y-98383390D02*
X163195952Y-98383390D01*
X163195952Y-98383390D02*
X163100714Y-98431009D01*
X163100714Y-98431009D02*
X163053095Y-98478628D01*
X163053095Y-98478628D02*
X163005476Y-98573866D01*
X163005476Y-98573866D02*
X163005476Y-98764342D01*
X163005476Y-98764342D02*
X163053095Y-98859580D01*
X163053095Y-98859580D02*
X163100714Y-98907200D01*
X163100714Y-98907200D02*
X163195952Y-98954819D01*
X163195952Y-98954819D02*
X163386428Y-98954819D01*
X163386428Y-98954819D02*
X163481666Y-98907200D01*
X163481666Y-98907200D02*
X163529285Y-98859580D01*
X163529285Y-98859580D02*
X163576904Y-98764342D01*
X163576904Y-98764342D02*
X163576904Y-98573866D01*
X163576904Y-98573866D02*
X163529285Y-98478628D01*
X163529285Y-98478628D02*
X163481666Y-98431009D01*
X163481666Y-98431009D02*
X163386428Y-98383390D01*
X161672142Y-85144819D02*
X161338809Y-84668628D01*
X161100714Y-85144819D02*
X161100714Y-84144819D01*
X161100714Y-84144819D02*
X161481666Y-84144819D01*
X161481666Y-84144819D02*
X161576904Y-84192438D01*
X161576904Y-84192438D02*
X161624523Y-84240057D01*
X161624523Y-84240057D02*
X161672142Y-84335295D01*
X161672142Y-84335295D02*
X161672142Y-84478152D01*
X161672142Y-84478152D02*
X161624523Y-84573390D01*
X161624523Y-84573390D02*
X161576904Y-84621009D01*
X161576904Y-84621009D02*
X161481666Y-84668628D01*
X161481666Y-84668628D02*
X161100714Y-84668628D01*
X162053095Y-84240057D02*
X162100714Y-84192438D01*
X162100714Y-84192438D02*
X162195952Y-84144819D01*
X162195952Y-84144819D02*
X162434047Y-84144819D01*
X162434047Y-84144819D02*
X162529285Y-84192438D01*
X162529285Y-84192438D02*
X162576904Y-84240057D01*
X162576904Y-84240057D02*
X162624523Y-84335295D01*
X162624523Y-84335295D02*
X162624523Y-84430533D01*
X162624523Y-84430533D02*
X162576904Y-84573390D01*
X162576904Y-84573390D02*
X162005476Y-85144819D01*
X162005476Y-85144819D02*
X162624523Y-85144819D01*
X163576904Y-85144819D02*
X163005476Y-85144819D01*
X163291190Y-85144819D02*
X163291190Y-84144819D01*
X163291190Y-84144819D02*
X163195952Y-84287676D01*
X163195952Y-84287676D02*
X163100714Y-84382914D01*
X163100714Y-84382914D02*
X163005476Y-84430533D01*
X166833333Y-58109580D02*
X166785714Y-58157200D01*
X166785714Y-58157200D02*
X166642857Y-58204819D01*
X166642857Y-58204819D02*
X166547619Y-58204819D01*
X166547619Y-58204819D02*
X166404762Y-58157200D01*
X166404762Y-58157200D02*
X166309524Y-58061961D01*
X166309524Y-58061961D02*
X166261905Y-57966723D01*
X166261905Y-57966723D02*
X166214286Y-57776247D01*
X166214286Y-57776247D02*
X166214286Y-57633390D01*
X166214286Y-57633390D02*
X166261905Y-57442914D01*
X166261905Y-57442914D02*
X166309524Y-57347676D01*
X166309524Y-57347676D02*
X166404762Y-57252438D01*
X166404762Y-57252438D02*
X166547619Y-57204819D01*
X166547619Y-57204819D02*
X166642857Y-57204819D01*
X166642857Y-57204819D02*
X166785714Y-57252438D01*
X166785714Y-57252438D02*
X166833333Y-57300057D01*
X167166667Y-57204819D02*
X167833333Y-57204819D01*
X167833333Y-57204819D02*
X167404762Y-58204819D01*
X165482142Y-93144819D02*
X165148809Y-92668628D01*
X164910714Y-93144819D02*
X164910714Y-92144819D01*
X164910714Y-92144819D02*
X165291666Y-92144819D01*
X165291666Y-92144819D02*
X165386904Y-92192438D01*
X165386904Y-92192438D02*
X165434523Y-92240057D01*
X165434523Y-92240057D02*
X165482142Y-92335295D01*
X165482142Y-92335295D02*
X165482142Y-92478152D01*
X165482142Y-92478152D02*
X165434523Y-92573390D01*
X165434523Y-92573390D02*
X165386904Y-92621009D01*
X165386904Y-92621009D02*
X165291666Y-92668628D01*
X165291666Y-92668628D02*
X164910714Y-92668628D01*
X166434523Y-93144819D02*
X165863095Y-93144819D01*
X166148809Y-93144819D02*
X166148809Y-92144819D01*
X166148809Y-92144819D02*
X166053571Y-92287676D01*
X166053571Y-92287676D02*
X165958333Y-92382914D01*
X165958333Y-92382914D02*
X165863095Y-92430533D01*
X166767857Y-92144819D02*
X167386904Y-92144819D01*
X167386904Y-92144819D02*
X167053571Y-92525771D01*
X167053571Y-92525771D02*
X167196428Y-92525771D01*
X167196428Y-92525771D02*
X167291666Y-92573390D01*
X167291666Y-92573390D02*
X167339285Y-92621009D01*
X167339285Y-92621009D02*
X167386904Y-92716247D01*
X167386904Y-92716247D02*
X167386904Y-92954342D01*
X167386904Y-92954342D02*
X167339285Y-93049580D01*
X167339285Y-93049580D02*
X167291666Y-93097200D01*
X167291666Y-93097200D02*
X167196428Y-93144819D01*
X167196428Y-93144819D02*
X166910714Y-93144819D01*
X166910714Y-93144819D02*
X166815476Y-93097200D01*
X166815476Y-93097200D02*
X166767857Y-93049580D01*
X165482142Y-97144819D02*
X165148809Y-96668628D01*
X164910714Y-97144819D02*
X164910714Y-96144819D01*
X164910714Y-96144819D02*
X165291666Y-96144819D01*
X165291666Y-96144819D02*
X165386904Y-96192438D01*
X165386904Y-96192438D02*
X165434523Y-96240057D01*
X165434523Y-96240057D02*
X165482142Y-96335295D01*
X165482142Y-96335295D02*
X165482142Y-96478152D01*
X165482142Y-96478152D02*
X165434523Y-96573390D01*
X165434523Y-96573390D02*
X165386904Y-96621009D01*
X165386904Y-96621009D02*
X165291666Y-96668628D01*
X165291666Y-96668628D02*
X164910714Y-96668628D01*
X166434523Y-97144819D02*
X165863095Y-97144819D01*
X166148809Y-97144819D02*
X166148809Y-96144819D01*
X166148809Y-96144819D02*
X166053571Y-96287676D01*
X166053571Y-96287676D02*
X165958333Y-96382914D01*
X165958333Y-96382914D02*
X165863095Y-96430533D01*
X167339285Y-96144819D02*
X166863095Y-96144819D01*
X166863095Y-96144819D02*
X166815476Y-96621009D01*
X166815476Y-96621009D02*
X166863095Y-96573390D01*
X166863095Y-96573390D02*
X166958333Y-96525771D01*
X166958333Y-96525771D02*
X167196428Y-96525771D01*
X167196428Y-96525771D02*
X167291666Y-96573390D01*
X167291666Y-96573390D02*
X167339285Y-96621009D01*
X167339285Y-96621009D02*
X167386904Y-96716247D01*
X167386904Y-96716247D02*
X167386904Y-96954342D01*
X167386904Y-96954342D02*
X167339285Y-97049580D01*
X167339285Y-97049580D02*
X167291666Y-97097200D01*
X167291666Y-97097200D02*
X167196428Y-97144819D01*
X167196428Y-97144819D02*
X166958333Y-97144819D01*
X166958333Y-97144819D02*
X166863095Y-97097200D01*
X166863095Y-97097200D02*
X166815476Y-97049580D01*
X165482142Y-95144819D02*
X165148809Y-94668628D01*
X164910714Y-95144819D02*
X164910714Y-94144819D01*
X164910714Y-94144819D02*
X165291666Y-94144819D01*
X165291666Y-94144819D02*
X165386904Y-94192438D01*
X165386904Y-94192438D02*
X165434523Y-94240057D01*
X165434523Y-94240057D02*
X165482142Y-94335295D01*
X165482142Y-94335295D02*
X165482142Y-94478152D01*
X165482142Y-94478152D02*
X165434523Y-94573390D01*
X165434523Y-94573390D02*
X165386904Y-94621009D01*
X165386904Y-94621009D02*
X165291666Y-94668628D01*
X165291666Y-94668628D02*
X164910714Y-94668628D01*
X166434523Y-95144819D02*
X165863095Y-95144819D01*
X166148809Y-95144819D02*
X166148809Y-94144819D01*
X166148809Y-94144819D02*
X166053571Y-94287676D01*
X166053571Y-94287676D02*
X165958333Y-94382914D01*
X165958333Y-94382914D02*
X165863095Y-94430533D01*
X167291666Y-94478152D02*
X167291666Y-95144819D01*
X167053571Y-94097200D02*
X166815476Y-94811485D01*
X166815476Y-94811485D02*
X167434523Y-94811485D01*
X161672142Y-83144819D02*
X161338809Y-82668628D01*
X161100714Y-83144819D02*
X161100714Y-82144819D01*
X161100714Y-82144819D02*
X161481666Y-82144819D01*
X161481666Y-82144819D02*
X161576904Y-82192438D01*
X161576904Y-82192438D02*
X161624523Y-82240057D01*
X161624523Y-82240057D02*
X161672142Y-82335295D01*
X161672142Y-82335295D02*
X161672142Y-82478152D01*
X161672142Y-82478152D02*
X161624523Y-82573390D01*
X161624523Y-82573390D02*
X161576904Y-82621009D01*
X161576904Y-82621009D02*
X161481666Y-82668628D01*
X161481666Y-82668628D02*
X161100714Y-82668628D01*
X162053095Y-82240057D02*
X162100714Y-82192438D01*
X162100714Y-82192438D02*
X162195952Y-82144819D01*
X162195952Y-82144819D02*
X162434047Y-82144819D01*
X162434047Y-82144819D02*
X162529285Y-82192438D01*
X162529285Y-82192438D02*
X162576904Y-82240057D01*
X162576904Y-82240057D02*
X162624523Y-82335295D01*
X162624523Y-82335295D02*
X162624523Y-82430533D01*
X162624523Y-82430533D02*
X162576904Y-82573390D01*
X162576904Y-82573390D02*
X162005476Y-83144819D01*
X162005476Y-83144819D02*
X162624523Y-83144819D01*
X163243571Y-82144819D02*
X163338809Y-82144819D01*
X163338809Y-82144819D02*
X163434047Y-82192438D01*
X163434047Y-82192438D02*
X163481666Y-82240057D01*
X163481666Y-82240057D02*
X163529285Y-82335295D01*
X163529285Y-82335295D02*
X163576904Y-82525771D01*
X163576904Y-82525771D02*
X163576904Y-82763866D01*
X163576904Y-82763866D02*
X163529285Y-82954342D01*
X163529285Y-82954342D02*
X163481666Y-83049580D01*
X163481666Y-83049580D02*
X163434047Y-83097200D01*
X163434047Y-83097200D02*
X163338809Y-83144819D01*
X163338809Y-83144819D02*
X163243571Y-83144819D01*
X163243571Y-83144819D02*
X163148333Y-83097200D01*
X163148333Y-83097200D02*
X163100714Y-83049580D01*
X163100714Y-83049580D02*
X163053095Y-82954342D01*
X163053095Y-82954342D02*
X163005476Y-82763866D01*
X163005476Y-82763866D02*
X163005476Y-82525771D01*
X163005476Y-82525771D02*
X163053095Y-82335295D01*
X163053095Y-82335295D02*
X163100714Y-82240057D01*
X163100714Y-82240057D02*
X163148333Y-82192438D01*
X163148333Y-82192438D02*
X163243571Y-82144819D01*
X165333333Y-77144819D02*
X165000000Y-76668628D01*
X164761905Y-77144819D02*
X164761905Y-76144819D01*
X164761905Y-76144819D02*
X165142857Y-76144819D01*
X165142857Y-76144819D02*
X165238095Y-76192438D01*
X165238095Y-76192438D02*
X165285714Y-76240057D01*
X165285714Y-76240057D02*
X165333333Y-76335295D01*
X165333333Y-76335295D02*
X165333333Y-76478152D01*
X165333333Y-76478152D02*
X165285714Y-76573390D01*
X165285714Y-76573390D02*
X165238095Y-76621009D01*
X165238095Y-76621009D02*
X165142857Y-76668628D01*
X165142857Y-76668628D02*
X164761905Y-76668628D01*
X166238095Y-76144819D02*
X165761905Y-76144819D01*
X165761905Y-76144819D02*
X165714286Y-76621009D01*
X165714286Y-76621009D02*
X165761905Y-76573390D01*
X165761905Y-76573390D02*
X165857143Y-76525771D01*
X165857143Y-76525771D02*
X166095238Y-76525771D01*
X166095238Y-76525771D02*
X166190476Y-76573390D01*
X166190476Y-76573390D02*
X166238095Y-76621009D01*
X166238095Y-76621009D02*
X166285714Y-76716247D01*
X166285714Y-76716247D02*
X166285714Y-76954342D01*
X166285714Y-76954342D02*
X166238095Y-77049580D01*
X166238095Y-77049580D02*
X166190476Y-77097200D01*
X166190476Y-77097200D02*
X166095238Y-77144819D01*
X166095238Y-77144819D02*
X165857143Y-77144819D01*
X165857143Y-77144819D02*
X165761905Y-77097200D01*
X165761905Y-77097200D02*
X165714286Y-77049580D01*
X151744642Y-72789580D02*
X151697023Y-72837200D01*
X151697023Y-72837200D02*
X151554166Y-72884819D01*
X151554166Y-72884819D02*
X151458928Y-72884819D01*
X151458928Y-72884819D02*
X151316071Y-72837200D01*
X151316071Y-72837200D02*
X151220833Y-72741961D01*
X151220833Y-72741961D02*
X151173214Y-72646723D01*
X151173214Y-72646723D02*
X151125595Y-72456247D01*
X151125595Y-72456247D02*
X151125595Y-72313390D01*
X151125595Y-72313390D02*
X151173214Y-72122914D01*
X151173214Y-72122914D02*
X151220833Y-72027676D01*
X151220833Y-72027676D02*
X151316071Y-71932438D01*
X151316071Y-71932438D02*
X151458928Y-71884819D01*
X151458928Y-71884819D02*
X151554166Y-71884819D01*
X151554166Y-71884819D02*
X151697023Y-71932438D01*
X151697023Y-71932438D02*
X151744642Y-71980057D01*
X152697023Y-72884819D02*
X152125595Y-72884819D01*
X152411309Y-72884819D02*
X152411309Y-71884819D01*
X152411309Y-71884819D02*
X152316071Y-72027676D01*
X152316071Y-72027676D02*
X152220833Y-72122914D01*
X152220833Y-72122914D02*
X152125595Y-72170533D01*
X153316071Y-71884819D02*
X153411309Y-71884819D01*
X153411309Y-71884819D02*
X153506547Y-71932438D01*
X153506547Y-71932438D02*
X153554166Y-71980057D01*
X153554166Y-71980057D02*
X153601785Y-72075295D01*
X153601785Y-72075295D02*
X153649404Y-72265771D01*
X153649404Y-72265771D02*
X153649404Y-72503866D01*
X153649404Y-72503866D02*
X153601785Y-72694342D01*
X153601785Y-72694342D02*
X153554166Y-72789580D01*
X153554166Y-72789580D02*
X153506547Y-72837200D01*
X153506547Y-72837200D02*
X153411309Y-72884819D01*
X153411309Y-72884819D02*
X153316071Y-72884819D01*
X153316071Y-72884819D02*
X153220833Y-72837200D01*
X153220833Y-72837200D02*
X153173214Y-72789580D01*
X153173214Y-72789580D02*
X153125595Y-72694342D01*
X153125595Y-72694342D02*
X153077976Y-72503866D01*
X153077976Y-72503866D02*
X153077976Y-72265771D01*
X153077976Y-72265771D02*
X153125595Y-72075295D01*
X153125595Y-72075295D02*
X153173214Y-71980057D01*
X153173214Y-71980057D02*
X153220833Y-71932438D01*
X153220833Y-71932438D02*
X153316071Y-71884819D01*
X157862142Y-77144819D02*
X157528809Y-76668628D01*
X157290714Y-77144819D02*
X157290714Y-76144819D01*
X157290714Y-76144819D02*
X157671666Y-76144819D01*
X157671666Y-76144819D02*
X157766904Y-76192438D01*
X157766904Y-76192438D02*
X157814523Y-76240057D01*
X157814523Y-76240057D02*
X157862142Y-76335295D01*
X157862142Y-76335295D02*
X157862142Y-76478152D01*
X157862142Y-76478152D02*
X157814523Y-76573390D01*
X157814523Y-76573390D02*
X157766904Y-76621009D01*
X157766904Y-76621009D02*
X157671666Y-76668628D01*
X157671666Y-76668628D02*
X157290714Y-76668628D01*
X158195476Y-76144819D02*
X158814523Y-76144819D01*
X158814523Y-76144819D02*
X158481190Y-76525771D01*
X158481190Y-76525771D02*
X158624047Y-76525771D01*
X158624047Y-76525771D02*
X158719285Y-76573390D01*
X158719285Y-76573390D02*
X158766904Y-76621009D01*
X158766904Y-76621009D02*
X158814523Y-76716247D01*
X158814523Y-76716247D02*
X158814523Y-76954342D01*
X158814523Y-76954342D02*
X158766904Y-77049580D01*
X158766904Y-77049580D02*
X158719285Y-77097200D01*
X158719285Y-77097200D02*
X158624047Y-77144819D01*
X158624047Y-77144819D02*
X158338333Y-77144819D01*
X158338333Y-77144819D02*
X158243095Y-77097200D01*
X158243095Y-77097200D02*
X158195476Y-77049580D01*
X159147857Y-76144819D02*
X159766904Y-76144819D01*
X159766904Y-76144819D02*
X159433571Y-76525771D01*
X159433571Y-76525771D02*
X159576428Y-76525771D01*
X159576428Y-76525771D02*
X159671666Y-76573390D01*
X159671666Y-76573390D02*
X159719285Y-76621009D01*
X159719285Y-76621009D02*
X159766904Y-76716247D01*
X159766904Y-76716247D02*
X159766904Y-76954342D01*
X159766904Y-76954342D02*
X159719285Y-77049580D01*
X159719285Y-77049580D02*
X159671666Y-77097200D01*
X159671666Y-77097200D02*
X159576428Y-77144819D01*
X159576428Y-77144819D02*
X159290714Y-77144819D01*
X159290714Y-77144819D02*
X159195476Y-77097200D01*
X159195476Y-77097200D02*
X159147857Y-77049580D01*
X175166666Y-79614819D02*
X175166666Y-80329104D01*
X175166666Y-80329104D02*
X175119047Y-80471961D01*
X175119047Y-80471961D02*
X175023809Y-80567200D01*
X175023809Y-80567200D02*
X174880952Y-80614819D01*
X174880952Y-80614819D02*
X174785714Y-80614819D01*
X175547619Y-79614819D02*
X176166666Y-79614819D01*
X176166666Y-79614819D02*
X175833333Y-79995771D01*
X175833333Y-79995771D02*
X175976190Y-79995771D01*
X175976190Y-79995771D02*
X176071428Y-80043390D01*
X176071428Y-80043390D02*
X176119047Y-80091009D01*
X176119047Y-80091009D02*
X176166666Y-80186247D01*
X176166666Y-80186247D02*
X176166666Y-80424342D01*
X176166666Y-80424342D02*
X176119047Y-80519580D01*
X176119047Y-80519580D02*
X176071428Y-80567200D01*
X176071428Y-80567200D02*
X175976190Y-80614819D01*
X175976190Y-80614819D02*
X175690476Y-80614819D01*
X175690476Y-80614819D02*
X175595238Y-80567200D01*
X175595238Y-80567200D02*
X175547619Y-80519580D01*
X159857142Y-60204819D02*
X159523809Y-59728628D01*
X159285714Y-60204819D02*
X159285714Y-59204819D01*
X159285714Y-59204819D02*
X159666666Y-59204819D01*
X159666666Y-59204819D02*
X159761904Y-59252438D01*
X159761904Y-59252438D02*
X159809523Y-59300057D01*
X159809523Y-59300057D02*
X159857142Y-59395295D01*
X159857142Y-59395295D02*
X159857142Y-59538152D01*
X159857142Y-59538152D02*
X159809523Y-59633390D01*
X159809523Y-59633390D02*
X159761904Y-59681009D01*
X159761904Y-59681009D02*
X159666666Y-59728628D01*
X159666666Y-59728628D02*
X159285714Y-59728628D01*
X160238095Y-59300057D02*
X160285714Y-59252438D01*
X160285714Y-59252438D02*
X160380952Y-59204819D01*
X160380952Y-59204819D02*
X160619047Y-59204819D01*
X160619047Y-59204819D02*
X160714285Y-59252438D01*
X160714285Y-59252438D02*
X160761904Y-59300057D01*
X160761904Y-59300057D02*
X160809523Y-59395295D01*
X160809523Y-59395295D02*
X160809523Y-59490533D01*
X160809523Y-59490533D02*
X160761904Y-59633390D01*
X160761904Y-59633390D02*
X160190476Y-60204819D01*
X160190476Y-60204819D02*
X160809523Y-60204819D01*
X161285714Y-60204819D02*
X161476190Y-60204819D01*
X161476190Y-60204819D02*
X161571428Y-60157200D01*
X161571428Y-60157200D02*
X161619047Y-60109580D01*
X161619047Y-60109580D02*
X161714285Y-59966723D01*
X161714285Y-59966723D02*
X161761904Y-59776247D01*
X161761904Y-59776247D02*
X161761904Y-59395295D01*
X161761904Y-59395295D02*
X161714285Y-59300057D01*
X161714285Y-59300057D02*
X161666666Y-59252438D01*
X161666666Y-59252438D02*
X161571428Y-59204819D01*
X161571428Y-59204819D02*
X161380952Y-59204819D01*
X161380952Y-59204819D02*
X161285714Y-59252438D01*
X161285714Y-59252438D02*
X161238095Y-59300057D01*
X161238095Y-59300057D02*
X161190476Y-59395295D01*
X161190476Y-59395295D02*
X161190476Y-59633390D01*
X161190476Y-59633390D02*
X161238095Y-59728628D01*
X161238095Y-59728628D02*
X161285714Y-59776247D01*
X161285714Y-59776247D02*
X161380952Y-59823866D01*
X161380952Y-59823866D02*
X161571428Y-59823866D01*
X161571428Y-59823866D02*
X161666666Y-59776247D01*
X161666666Y-59776247D02*
X161714285Y-59728628D01*
X161714285Y-59728628D02*
X161761904Y-59633390D01*
X170857142Y-74524819D02*
X170523809Y-74048628D01*
X170285714Y-74524819D02*
X170285714Y-73524819D01*
X170285714Y-73524819D02*
X170666666Y-73524819D01*
X170666666Y-73524819D02*
X170761904Y-73572438D01*
X170761904Y-73572438D02*
X170809523Y-73620057D01*
X170809523Y-73620057D02*
X170857142Y-73715295D01*
X170857142Y-73715295D02*
X170857142Y-73858152D01*
X170857142Y-73858152D02*
X170809523Y-73953390D01*
X170809523Y-73953390D02*
X170761904Y-74001009D01*
X170761904Y-74001009D02*
X170666666Y-74048628D01*
X170666666Y-74048628D02*
X170285714Y-74048628D01*
X171761904Y-73524819D02*
X171285714Y-73524819D01*
X171285714Y-73524819D02*
X171238095Y-74001009D01*
X171238095Y-74001009D02*
X171285714Y-73953390D01*
X171285714Y-73953390D02*
X171380952Y-73905771D01*
X171380952Y-73905771D02*
X171619047Y-73905771D01*
X171619047Y-73905771D02*
X171714285Y-73953390D01*
X171714285Y-73953390D02*
X171761904Y-74001009D01*
X171761904Y-74001009D02*
X171809523Y-74096247D01*
X171809523Y-74096247D02*
X171809523Y-74334342D01*
X171809523Y-74334342D02*
X171761904Y-74429580D01*
X171761904Y-74429580D02*
X171714285Y-74477200D01*
X171714285Y-74477200D02*
X171619047Y-74524819D01*
X171619047Y-74524819D02*
X171380952Y-74524819D01*
X171380952Y-74524819D02*
X171285714Y-74477200D01*
X171285714Y-74477200D02*
X171238095Y-74429580D01*
X172761904Y-74524819D02*
X172190476Y-74524819D01*
X172476190Y-74524819D02*
X172476190Y-73524819D01*
X172476190Y-73524819D02*
X172380952Y-73667676D01*
X172380952Y-73667676D02*
X172285714Y-73762914D01*
X172285714Y-73762914D02*
X172190476Y-73810533D01*
X180166666Y-57704819D02*
X180166666Y-58419104D01*
X180166666Y-58419104D02*
X180119047Y-58561961D01*
X180119047Y-58561961D02*
X180023809Y-58657200D01*
X180023809Y-58657200D02*
X179880952Y-58704819D01*
X179880952Y-58704819D02*
X179785714Y-58704819D01*
X181166666Y-58704819D02*
X180595238Y-58704819D01*
X180880952Y-58704819D02*
X180880952Y-57704819D01*
X180880952Y-57704819D02*
X180785714Y-57847676D01*
X180785714Y-57847676D02*
X180690476Y-57942914D01*
X180690476Y-57942914D02*
X180595238Y-57990533D01*
X170857142Y-71774819D02*
X170523809Y-71298628D01*
X170285714Y-71774819D02*
X170285714Y-70774819D01*
X170285714Y-70774819D02*
X170666666Y-70774819D01*
X170666666Y-70774819D02*
X170761904Y-70822438D01*
X170761904Y-70822438D02*
X170809523Y-70870057D01*
X170809523Y-70870057D02*
X170857142Y-70965295D01*
X170857142Y-70965295D02*
X170857142Y-71108152D01*
X170857142Y-71108152D02*
X170809523Y-71203390D01*
X170809523Y-71203390D02*
X170761904Y-71251009D01*
X170761904Y-71251009D02*
X170666666Y-71298628D01*
X170666666Y-71298628D02*
X170285714Y-71298628D01*
X171761904Y-70774819D02*
X171285714Y-70774819D01*
X171285714Y-70774819D02*
X171238095Y-71251009D01*
X171238095Y-71251009D02*
X171285714Y-71203390D01*
X171285714Y-71203390D02*
X171380952Y-71155771D01*
X171380952Y-71155771D02*
X171619047Y-71155771D01*
X171619047Y-71155771D02*
X171714285Y-71203390D01*
X171714285Y-71203390D02*
X171761904Y-71251009D01*
X171761904Y-71251009D02*
X171809523Y-71346247D01*
X171809523Y-71346247D02*
X171809523Y-71584342D01*
X171809523Y-71584342D02*
X171761904Y-71679580D01*
X171761904Y-71679580D02*
X171714285Y-71727200D01*
X171714285Y-71727200D02*
X171619047Y-71774819D01*
X171619047Y-71774819D02*
X171380952Y-71774819D01*
X171380952Y-71774819D02*
X171285714Y-71727200D01*
X171285714Y-71727200D02*
X171238095Y-71679580D01*
X172190476Y-70870057D02*
X172238095Y-70822438D01*
X172238095Y-70822438D02*
X172333333Y-70774819D01*
X172333333Y-70774819D02*
X172571428Y-70774819D01*
X172571428Y-70774819D02*
X172666666Y-70822438D01*
X172666666Y-70822438D02*
X172714285Y-70870057D01*
X172714285Y-70870057D02*
X172761904Y-70965295D01*
X172761904Y-70965295D02*
X172761904Y-71060533D01*
X172761904Y-71060533D02*
X172714285Y-71203390D01*
X172714285Y-71203390D02*
X172142857Y-71774819D01*
X172142857Y-71774819D02*
X172761904Y-71774819D01*
X165333333Y-83144819D02*
X165000000Y-82668628D01*
X164761905Y-83144819D02*
X164761905Y-82144819D01*
X164761905Y-82144819D02*
X165142857Y-82144819D01*
X165142857Y-82144819D02*
X165238095Y-82192438D01*
X165238095Y-82192438D02*
X165285714Y-82240057D01*
X165285714Y-82240057D02*
X165333333Y-82335295D01*
X165333333Y-82335295D02*
X165333333Y-82478152D01*
X165333333Y-82478152D02*
X165285714Y-82573390D01*
X165285714Y-82573390D02*
X165238095Y-82621009D01*
X165238095Y-82621009D02*
X165142857Y-82668628D01*
X165142857Y-82668628D02*
X164761905Y-82668628D01*
X165904762Y-82573390D02*
X165809524Y-82525771D01*
X165809524Y-82525771D02*
X165761905Y-82478152D01*
X165761905Y-82478152D02*
X165714286Y-82382914D01*
X165714286Y-82382914D02*
X165714286Y-82335295D01*
X165714286Y-82335295D02*
X165761905Y-82240057D01*
X165761905Y-82240057D02*
X165809524Y-82192438D01*
X165809524Y-82192438D02*
X165904762Y-82144819D01*
X165904762Y-82144819D02*
X166095238Y-82144819D01*
X166095238Y-82144819D02*
X166190476Y-82192438D01*
X166190476Y-82192438D02*
X166238095Y-82240057D01*
X166238095Y-82240057D02*
X166285714Y-82335295D01*
X166285714Y-82335295D02*
X166285714Y-82382914D01*
X166285714Y-82382914D02*
X166238095Y-82478152D01*
X166238095Y-82478152D02*
X166190476Y-82525771D01*
X166190476Y-82525771D02*
X166095238Y-82573390D01*
X166095238Y-82573390D02*
X165904762Y-82573390D01*
X165904762Y-82573390D02*
X165809524Y-82621009D01*
X165809524Y-82621009D02*
X165761905Y-82668628D01*
X165761905Y-82668628D02*
X165714286Y-82763866D01*
X165714286Y-82763866D02*
X165714286Y-82954342D01*
X165714286Y-82954342D02*
X165761905Y-83049580D01*
X165761905Y-83049580D02*
X165809524Y-83097200D01*
X165809524Y-83097200D02*
X165904762Y-83144819D01*
X165904762Y-83144819D02*
X166095238Y-83144819D01*
X166095238Y-83144819D02*
X166190476Y-83097200D01*
X166190476Y-83097200D02*
X166238095Y-83049580D01*
X166238095Y-83049580D02*
X166285714Y-82954342D01*
X166285714Y-82954342D02*
X166285714Y-82763866D01*
X166285714Y-82763866D02*
X166238095Y-82668628D01*
X166238095Y-82668628D02*
X166190476Y-82621009D01*
X166190476Y-82621009D02*
X166095238Y-82573390D01*
X147420833Y-64704819D02*
X147087500Y-64228628D01*
X146849405Y-64704819D02*
X146849405Y-63704819D01*
X146849405Y-63704819D02*
X147230357Y-63704819D01*
X147230357Y-63704819D02*
X147325595Y-63752438D01*
X147325595Y-63752438D02*
X147373214Y-63800057D01*
X147373214Y-63800057D02*
X147420833Y-63895295D01*
X147420833Y-63895295D02*
X147420833Y-64038152D01*
X147420833Y-64038152D02*
X147373214Y-64133390D01*
X147373214Y-64133390D02*
X147325595Y-64181009D01*
X147325595Y-64181009D02*
X147230357Y-64228628D01*
X147230357Y-64228628D02*
X146849405Y-64228628D01*
X148277976Y-64038152D02*
X148277976Y-64704819D01*
X148039881Y-63657200D02*
X147801786Y-64371485D01*
X147801786Y-64371485D02*
X148420833Y-64371485D01*
X155877080Y-47804166D02*
X155924700Y-47851785D01*
X155924700Y-47851785D02*
X155972319Y-47994642D01*
X155972319Y-47994642D02*
X155972319Y-48089880D01*
X155972319Y-48089880D02*
X155924700Y-48232737D01*
X155924700Y-48232737D02*
X155829461Y-48327975D01*
X155829461Y-48327975D02*
X155734223Y-48375594D01*
X155734223Y-48375594D02*
X155543747Y-48423213D01*
X155543747Y-48423213D02*
X155400890Y-48423213D01*
X155400890Y-48423213D02*
X155210414Y-48375594D01*
X155210414Y-48375594D02*
X155115176Y-48327975D01*
X155115176Y-48327975D02*
X155019938Y-48232737D01*
X155019938Y-48232737D02*
X154972319Y-48089880D01*
X154972319Y-48089880D02*
X154972319Y-47994642D01*
X154972319Y-47994642D02*
X155019938Y-47851785D01*
X155019938Y-47851785D02*
X155067557Y-47804166D01*
X155972319Y-46851785D02*
X155972319Y-47423213D01*
X155972319Y-47137499D02*
X154972319Y-47137499D01*
X154972319Y-47137499D02*
X155115176Y-47232737D01*
X155115176Y-47232737D02*
X155210414Y-47327975D01*
X155210414Y-47327975D02*
X155258033Y-47423213D01*
X161672142Y-89144819D02*
X161338809Y-88668628D01*
X161100714Y-89144819D02*
X161100714Y-88144819D01*
X161100714Y-88144819D02*
X161481666Y-88144819D01*
X161481666Y-88144819D02*
X161576904Y-88192438D01*
X161576904Y-88192438D02*
X161624523Y-88240057D01*
X161624523Y-88240057D02*
X161672142Y-88335295D01*
X161672142Y-88335295D02*
X161672142Y-88478152D01*
X161672142Y-88478152D02*
X161624523Y-88573390D01*
X161624523Y-88573390D02*
X161576904Y-88621009D01*
X161576904Y-88621009D02*
X161481666Y-88668628D01*
X161481666Y-88668628D02*
X161100714Y-88668628D01*
X162053095Y-88240057D02*
X162100714Y-88192438D01*
X162100714Y-88192438D02*
X162195952Y-88144819D01*
X162195952Y-88144819D02*
X162434047Y-88144819D01*
X162434047Y-88144819D02*
X162529285Y-88192438D01*
X162529285Y-88192438D02*
X162576904Y-88240057D01*
X162576904Y-88240057D02*
X162624523Y-88335295D01*
X162624523Y-88335295D02*
X162624523Y-88430533D01*
X162624523Y-88430533D02*
X162576904Y-88573390D01*
X162576904Y-88573390D02*
X162005476Y-89144819D01*
X162005476Y-89144819D02*
X162624523Y-89144819D01*
X162957857Y-88144819D02*
X163576904Y-88144819D01*
X163576904Y-88144819D02*
X163243571Y-88525771D01*
X163243571Y-88525771D02*
X163386428Y-88525771D01*
X163386428Y-88525771D02*
X163481666Y-88573390D01*
X163481666Y-88573390D02*
X163529285Y-88621009D01*
X163529285Y-88621009D02*
X163576904Y-88716247D01*
X163576904Y-88716247D02*
X163576904Y-88954342D01*
X163576904Y-88954342D02*
X163529285Y-89049580D01*
X163529285Y-89049580D02*
X163481666Y-89097200D01*
X163481666Y-89097200D02*
X163386428Y-89144819D01*
X163386428Y-89144819D02*
X163100714Y-89144819D01*
X163100714Y-89144819D02*
X163005476Y-89097200D01*
X163005476Y-89097200D02*
X162957857Y-89049580D01*
X177694642Y-102634819D02*
X177361309Y-102158628D01*
X177123214Y-102634819D02*
X177123214Y-101634819D01*
X177123214Y-101634819D02*
X177504166Y-101634819D01*
X177504166Y-101634819D02*
X177599404Y-101682438D01*
X177599404Y-101682438D02*
X177647023Y-101730057D01*
X177647023Y-101730057D02*
X177694642Y-101825295D01*
X177694642Y-101825295D02*
X177694642Y-101968152D01*
X177694642Y-101968152D02*
X177647023Y-102063390D01*
X177647023Y-102063390D02*
X177599404Y-102111009D01*
X177599404Y-102111009D02*
X177504166Y-102158628D01*
X177504166Y-102158628D02*
X177123214Y-102158628D01*
X178551785Y-101968152D02*
X178551785Y-102634819D01*
X178313690Y-101587200D02*
X178075595Y-102301485D01*
X178075595Y-102301485D02*
X178694642Y-102301485D01*
X179504166Y-101634819D02*
X179313690Y-101634819D01*
X179313690Y-101634819D02*
X179218452Y-101682438D01*
X179218452Y-101682438D02*
X179170833Y-101730057D01*
X179170833Y-101730057D02*
X179075595Y-101872914D01*
X179075595Y-101872914D02*
X179027976Y-102063390D01*
X179027976Y-102063390D02*
X179027976Y-102444342D01*
X179027976Y-102444342D02*
X179075595Y-102539580D01*
X179075595Y-102539580D02*
X179123214Y-102587200D01*
X179123214Y-102587200D02*
X179218452Y-102634819D01*
X179218452Y-102634819D02*
X179408928Y-102634819D01*
X179408928Y-102634819D02*
X179504166Y-102587200D01*
X179504166Y-102587200D02*
X179551785Y-102539580D01*
X179551785Y-102539580D02*
X179599404Y-102444342D01*
X179599404Y-102444342D02*
X179599404Y-102206247D01*
X179599404Y-102206247D02*
X179551785Y-102111009D01*
X179551785Y-102111009D02*
X179504166Y-102063390D01*
X179504166Y-102063390D02*
X179408928Y-102015771D01*
X179408928Y-102015771D02*
X179218452Y-102015771D01*
X179218452Y-102015771D02*
X179123214Y-102063390D01*
X179123214Y-102063390D02*
X179075595Y-102111009D01*
X179075595Y-102111009D02*
X179027976Y-102206247D01*
X165333333Y-85144819D02*
X165000000Y-84668628D01*
X164761905Y-85144819D02*
X164761905Y-84144819D01*
X164761905Y-84144819D02*
X165142857Y-84144819D01*
X165142857Y-84144819D02*
X165238095Y-84192438D01*
X165238095Y-84192438D02*
X165285714Y-84240057D01*
X165285714Y-84240057D02*
X165333333Y-84335295D01*
X165333333Y-84335295D02*
X165333333Y-84478152D01*
X165333333Y-84478152D02*
X165285714Y-84573390D01*
X165285714Y-84573390D02*
X165238095Y-84621009D01*
X165238095Y-84621009D02*
X165142857Y-84668628D01*
X165142857Y-84668628D02*
X164761905Y-84668628D01*
X165809524Y-85144819D02*
X166000000Y-85144819D01*
X166000000Y-85144819D02*
X166095238Y-85097200D01*
X166095238Y-85097200D02*
X166142857Y-85049580D01*
X166142857Y-85049580D02*
X166238095Y-84906723D01*
X166238095Y-84906723D02*
X166285714Y-84716247D01*
X166285714Y-84716247D02*
X166285714Y-84335295D01*
X166285714Y-84335295D02*
X166238095Y-84240057D01*
X166238095Y-84240057D02*
X166190476Y-84192438D01*
X166190476Y-84192438D02*
X166095238Y-84144819D01*
X166095238Y-84144819D02*
X165904762Y-84144819D01*
X165904762Y-84144819D02*
X165809524Y-84192438D01*
X165809524Y-84192438D02*
X165761905Y-84240057D01*
X165761905Y-84240057D02*
X165714286Y-84335295D01*
X165714286Y-84335295D02*
X165714286Y-84573390D01*
X165714286Y-84573390D02*
X165761905Y-84668628D01*
X165761905Y-84668628D02*
X165809524Y-84716247D01*
X165809524Y-84716247D02*
X165904762Y-84763866D01*
X165904762Y-84763866D02*
X166095238Y-84763866D01*
X166095238Y-84763866D02*
X166190476Y-84716247D01*
X166190476Y-84716247D02*
X166238095Y-84668628D01*
X166238095Y-84668628D02*
X166285714Y-84573390D01*
X180395180Y-68021666D02*
X179680895Y-68021666D01*
X179680895Y-68021666D02*
X179538038Y-67974047D01*
X179538038Y-67974047D02*
X179442800Y-67878809D01*
X179442800Y-67878809D02*
X179395180Y-67735952D01*
X179395180Y-67735952D02*
X179395180Y-67640714D01*
X180061847Y-68926428D02*
X179395180Y-68926428D01*
X180442800Y-68688333D02*
X179728514Y-68450238D01*
X179728514Y-68450238D02*
X179728514Y-69069285D01*
X157862142Y-89144819D02*
X157528809Y-88668628D01*
X157290714Y-89144819D02*
X157290714Y-88144819D01*
X157290714Y-88144819D02*
X157671666Y-88144819D01*
X157671666Y-88144819D02*
X157766904Y-88192438D01*
X157766904Y-88192438D02*
X157814523Y-88240057D01*
X157814523Y-88240057D02*
X157862142Y-88335295D01*
X157862142Y-88335295D02*
X157862142Y-88478152D01*
X157862142Y-88478152D02*
X157814523Y-88573390D01*
X157814523Y-88573390D02*
X157766904Y-88621009D01*
X157766904Y-88621009D02*
X157671666Y-88668628D01*
X157671666Y-88668628D02*
X157290714Y-88668628D01*
X158195476Y-88144819D02*
X158814523Y-88144819D01*
X158814523Y-88144819D02*
X158481190Y-88525771D01*
X158481190Y-88525771D02*
X158624047Y-88525771D01*
X158624047Y-88525771D02*
X158719285Y-88573390D01*
X158719285Y-88573390D02*
X158766904Y-88621009D01*
X158766904Y-88621009D02*
X158814523Y-88716247D01*
X158814523Y-88716247D02*
X158814523Y-88954342D01*
X158814523Y-88954342D02*
X158766904Y-89049580D01*
X158766904Y-89049580D02*
X158719285Y-89097200D01*
X158719285Y-89097200D02*
X158624047Y-89144819D01*
X158624047Y-89144819D02*
X158338333Y-89144819D01*
X158338333Y-89144819D02*
X158243095Y-89097200D01*
X158243095Y-89097200D02*
X158195476Y-89049580D01*
X159290714Y-89144819D02*
X159481190Y-89144819D01*
X159481190Y-89144819D02*
X159576428Y-89097200D01*
X159576428Y-89097200D02*
X159624047Y-89049580D01*
X159624047Y-89049580D02*
X159719285Y-88906723D01*
X159719285Y-88906723D02*
X159766904Y-88716247D01*
X159766904Y-88716247D02*
X159766904Y-88335295D01*
X159766904Y-88335295D02*
X159719285Y-88240057D01*
X159719285Y-88240057D02*
X159671666Y-88192438D01*
X159671666Y-88192438D02*
X159576428Y-88144819D01*
X159576428Y-88144819D02*
X159385952Y-88144819D01*
X159385952Y-88144819D02*
X159290714Y-88192438D01*
X159290714Y-88192438D02*
X159243095Y-88240057D01*
X159243095Y-88240057D02*
X159195476Y-88335295D01*
X159195476Y-88335295D02*
X159195476Y-88573390D01*
X159195476Y-88573390D02*
X159243095Y-88668628D01*
X159243095Y-88668628D02*
X159290714Y-88716247D01*
X159290714Y-88716247D02*
X159385952Y-88763866D01*
X159385952Y-88763866D02*
X159576428Y-88763866D01*
X159576428Y-88763866D02*
X159671666Y-88716247D01*
X159671666Y-88716247D02*
X159719285Y-88668628D01*
X159719285Y-88668628D02*
X159766904Y-88573390D01*
X167399405Y-44304819D02*
X167399405Y-43304819D01*
X167399405Y-43304819D02*
X167637500Y-43304819D01*
X167637500Y-43304819D02*
X167780357Y-43352438D01*
X167780357Y-43352438D02*
X167875595Y-43447676D01*
X167875595Y-43447676D02*
X167923214Y-43542914D01*
X167923214Y-43542914D02*
X167970833Y-43733390D01*
X167970833Y-43733390D02*
X167970833Y-43876247D01*
X167970833Y-43876247D02*
X167923214Y-44066723D01*
X167923214Y-44066723D02*
X167875595Y-44161961D01*
X167875595Y-44161961D02*
X167780357Y-44257200D01*
X167780357Y-44257200D02*
X167637500Y-44304819D01*
X167637500Y-44304819D02*
X167399405Y-44304819D01*
X168923214Y-44304819D02*
X168351786Y-44304819D01*
X168637500Y-44304819D02*
X168637500Y-43304819D01*
X168637500Y-43304819D02*
X168542262Y-43447676D01*
X168542262Y-43447676D02*
X168447024Y-43542914D01*
X168447024Y-43542914D02*
X168351786Y-43590533D01*
X159238095Y-43704819D02*
X159809523Y-43704819D01*
X159523809Y-44704819D02*
X159523809Y-43704819D01*
X160142857Y-44704819D02*
X160142857Y-43704819D01*
X160142857Y-43704819D02*
X160523809Y-43704819D01*
X160523809Y-43704819D02*
X160619047Y-43752438D01*
X160619047Y-43752438D02*
X160666666Y-43800057D01*
X160666666Y-43800057D02*
X160714285Y-43895295D01*
X160714285Y-43895295D02*
X160714285Y-44038152D01*
X160714285Y-44038152D02*
X160666666Y-44133390D01*
X160666666Y-44133390D02*
X160619047Y-44181009D01*
X160619047Y-44181009D02*
X160523809Y-44228628D01*
X160523809Y-44228628D02*
X160142857Y-44228628D01*
X161047619Y-43704819D02*
X161666666Y-43704819D01*
X161666666Y-43704819D02*
X161333333Y-44085771D01*
X161333333Y-44085771D02*
X161476190Y-44085771D01*
X161476190Y-44085771D02*
X161571428Y-44133390D01*
X161571428Y-44133390D02*
X161619047Y-44181009D01*
X161619047Y-44181009D02*
X161666666Y-44276247D01*
X161666666Y-44276247D02*
X161666666Y-44514342D01*
X161666666Y-44514342D02*
X161619047Y-44609580D01*
X161619047Y-44609580D02*
X161571428Y-44657200D01*
X161571428Y-44657200D02*
X161476190Y-44704819D01*
X161476190Y-44704819D02*
X161190476Y-44704819D01*
X161190476Y-44704819D02*
X161095238Y-44657200D01*
X161095238Y-44657200D02*
X161047619Y-44609580D01*
X147420833Y-62704819D02*
X147087500Y-62228628D01*
X146849405Y-62704819D02*
X146849405Y-61704819D01*
X146849405Y-61704819D02*
X147230357Y-61704819D01*
X147230357Y-61704819D02*
X147325595Y-61752438D01*
X147325595Y-61752438D02*
X147373214Y-61800057D01*
X147373214Y-61800057D02*
X147420833Y-61895295D01*
X147420833Y-61895295D02*
X147420833Y-62038152D01*
X147420833Y-62038152D02*
X147373214Y-62133390D01*
X147373214Y-62133390D02*
X147325595Y-62181009D01*
X147325595Y-62181009D02*
X147230357Y-62228628D01*
X147230357Y-62228628D02*
X146849405Y-62228628D01*
X147801786Y-61800057D02*
X147849405Y-61752438D01*
X147849405Y-61752438D02*
X147944643Y-61704819D01*
X147944643Y-61704819D02*
X148182738Y-61704819D01*
X148182738Y-61704819D02*
X148277976Y-61752438D01*
X148277976Y-61752438D02*
X148325595Y-61800057D01*
X148325595Y-61800057D02*
X148373214Y-61895295D01*
X148373214Y-61895295D02*
X148373214Y-61990533D01*
X148373214Y-61990533D02*
X148325595Y-62133390D01*
X148325595Y-62133390D02*
X147754167Y-62704819D01*
X147754167Y-62704819D02*
X148373214Y-62704819D01*
X157862142Y-97144819D02*
X157528809Y-96668628D01*
X157290714Y-97144819D02*
X157290714Y-96144819D01*
X157290714Y-96144819D02*
X157671666Y-96144819D01*
X157671666Y-96144819D02*
X157766904Y-96192438D01*
X157766904Y-96192438D02*
X157814523Y-96240057D01*
X157814523Y-96240057D02*
X157862142Y-96335295D01*
X157862142Y-96335295D02*
X157862142Y-96478152D01*
X157862142Y-96478152D02*
X157814523Y-96573390D01*
X157814523Y-96573390D02*
X157766904Y-96621009D01*
X157766904Y-96621009D02*
X157671666Y-96668628D01*
X157671666Y-96668628D02*
X157290714Y-96668628D01*
X158719285Y-96478152D02*
X158719285Y-97144819D01*
X158481190Y-96097200D02*
X158243095Y-96811485D01*
X158243095Y-96811485D02*
X158862142Y-96811485D01*
X159147857Y-96144819D02*
X159766904Y-96144819D01*
X159766904Y-96144819D02*
X159433571Y-96525771D01*
X159433571Y-96525771D02*
X159576428Y-96525771D01*
X159576428Y-96525771D02*
X159671666Y-96573390D01*
X159671666Y-96573390D02*
X159719285Y-96621009D01*
X159719285Y-96621009D02*
X159766904Y-96716247D01*
X159766904Y-96716247D02*
X159766904Y-96954342D01*
X159766904Y-96954342D02*
X159719285Y-97049580D01*
X159719285Y-97049580D02*
X159671666Y-97097200D01*
X159671666Y-97097200D02*
X159576428Y-97144819D01*
X159576428Y-97144819D02*
X159290714Y-97144819D01*
X159290714Y-97144819D02*
X159195476Y-97097200D01*
X159195476Y-97097200D02*
X159147857Y-97049580D01*
X159238095Y-48704819D02*
X159809523Y-48704819D01*
X159523809Y-49704819D02*
X159523809Y-48704819D01*
X160142857Y-49704819D02*
X160142857Y-48704819D01*
X160142857Y-48704819D02*
X160523809Y-48704819D01*
X160523809Y-48704819D02*
X160619047Y-48752438D01*
X160619047Y-48752438D02*
X160666666Y-48800057D01*
X160666666Y-48800057D02*
X160714285Y-48895295D01*
X160714285Y-48895295D02*
X160714285Y-49038152D01*
X160714285Y-49038152D02*
X160666666Y-49133390D01*
X160666666Y-49133390D02*
X160619047Y-49181009D01*
X160619047Y-49181009D02*
X160523809Y-49228628D01*
X160523809Y-49228628D02*
X160142857Y-49228628D01*
X161095238Y-48800057D02*
X161142857Y-48752438D01*
X161142857Y-48752438D02*
X161238095Y-48704819D01*
X161238095Y-48704819D02*
X161476190Y-48704819D01*
X161476190Y-48704819D02*
X161571428Y-48752438D01*
X161571428Y-48752438D02*
X161619047Y-48800057D01*
X161619047Y-48800057D02*
X161666666Y-48895295D01*
X161666666Y-48895295D02*
X161666666Y-48990533D01*
X161666666Y-48990533D02*
X161619047Y-49133390D01*
X161619047Y-49133390D02*
X161047619Y-49704819D01*
X161047619Y-49704819D02*
X161666666Y-49704819D01*
X154454819Y-68874404D02*
X155264342Y-68874404D01*
X155264342Y-68874404D02*
X155359580Y-68826785D01*
X155359580Y-68826785D02*
X155407200Y-68779166D01*
X155407200Y-68779166D02*
X155454819Y-68683928D01*
X155454819Y-68683928D02*
X155454819Y-68493452D01*
X155454819Y-68493452D02*
X155407200Y-68398214D01*
X155407200Y-68398214D02*
X155359580Y-68350595D01*
X155359580Y-68350595D02*
X155264342Y-68302976D01*
X155264342Y-68302976D02*
X154454819Y-68302976D01*
X154454819Y-67922023D02*
X154454819Y-67302976D01*
X154454819Y-67302976D02*
X154835771Y-67636309D01*
X154835771Y-67636309D02*
X154835771Y-67493452D01*
X154835771Y-67493452D02*
X154883390Y-67398214D01*
X154883390Y-67398214D02*
X154931009Y-67350595D01*
X154931009Y-67350595D02*
X155026247Y-67302976D01*
X155026247Y-67302976D02*
X155264342Y-67302976D01*
X155264342Y-67302976D02*
X155359580Y-67350595D01*
X155359580Y-67350595D02*
X155407200Y-67398214D01*
X155407200Y-67398214D02*
X155454819Y-67493452D01*
X155454819Y-67493452D02*
X155454819Y-67779166D01*
X155454819Y-67779166D02*
X155407200Y-67874404D01*
X155407200Y-67874404D02*
X155359580Y-67922023D01*
X165482142Y-87144819D02*
X165148809Y-86668628D01*
X164910714Y-87144819D02*
X164910714Y-86144819D01*
X164910714Y-86144819D02*
X165291666Y-86144819D01*
X165291666Y-86144819D02*
X165386904Y-86192438D01*
X165386904Y-86192438D02*
X165434523Y-86240057D01*
X165434523Y-86240057D02*
X165482142Y-86335295D01*
X165482142Y-86335295D02*
X165482142Y-86478152D01*
X165482142Y-86478152D02*
X165434523Y-86573390D01*
X165434523Y-86573390D02*
X165386904Y-86621009D01*
X165386904Y-86621009D02*
X165291666Y-86668628D01*
X165291666Y-86668628D02*
X164910714Y-86668628D01*
X166434523Y-87144819D02*
X165863095Y-87144819D01*
X166148809Y-87144819D02*
X166148809Y-86144819D01*
X166148809Y-86144819D02*
X166053571Y-86287676D01*
X166053571Y-86287676D02*
X165958333Y-86382914D01*
X165958333Y-86382914D02*
X165863095Y-86430533D01*
X167053571Y-86144819D02*
X167148809Y-86144819D01*
X167148809Y-86144819D02*
X167244047Y-86192438D01*
X167244047Y-86192438D02*
X167291666Y-86240057D01*
X167291666Y-86240057D02*
X167339285Y-86335295D01*
X167339285Y-86335295D02*
X167386904Y-86525771D01*
X167386904Y-86525771D02*
X167386904Y-86763866D01*
X167386904Y-86763866D02*
X167339285Y-86954342D01*
X167339285Y-86954342D02*
X167291666Y-87049580D01*
X167291666Y-87049580D02*
X167244047Y-87097200D01*
X167244047Y-87097200D02*
X167148809Y-87144819D01*
X167148809Y-87144819D02*
X167053571Y-87144819D01*
X167053571Y-87144819D02*
X166958333Y-87097200D01*
X166958333Y-87097200D02*
X166910714Y-87049580D01*
X166910714Y-87049580D02*
X166863095Y-86954342D01*
X166863095Y-86954342D02*
X166815476Y-86763866D01*
X166815476Y-86763866D02*
X166815476Y-86525771D01*
X166815476Y-86525771D02*
X166863095Y-86335295D01*
X166863095Y-86335295D02*
X166910714Y-86240057D01*
X166910714Y-86240057D02*
X166958333Y-86192438D01*
X166958333Y-86192438D02*
X167053571Y-86144819D01*
X159238095Y-38704819D02*
X159809523Y-38704819D01*
X159523809Y-39704819D02*
X159523809Y-38704819D01*
X160142857Y-39704819D02*
X160142857Y-38704819D01*
X160142857Y-38704819D02*
X160523809Y-38704819D01*
X160523809Y-38704819D02*
X160619047Y-38752438D01*
X160619047Y-38752438D02*
X160666666Y-38800057D01*
X160666666Y-38800057D02*
X160714285Y-38895295D01*
X160714285Y-38895295D02*
X160714285Y-39038152D01*
X160714285Y-39038152D02*
X160666666Y-39133390D01*
X160666666Y-39133390D02*
X160619047Y-39181009D01*
X160619047Y-39181009D02*
X160523809Y-39228628D01*
X160523809Y-39228628D02*
X160142857Y-39228628D01*
X161571428Y-39038152D02*
X161571428Y-39704819D01*
X161333333Y-38657200D02*
X161095238Y-39371485D01*
X161095238Y-39371485D02*
X161714285Y-39371485D01*
X126241666Y-103304819D02*
X126241666Y-104019104D01*
X126241666Y-104019104D02*
X126194047Y-104161961D01*
X126194047Y-104161961D02*
X126098809Y-104257200D01*
X126098809Y-104257200D02*
X125955952Y-104304819D01*
X125955952Y-104304819D02*
X125860714Y-104304819D01*
X126670238Y-103400057D02*
X126717857Y-103352438D01*
X126717857Y-103352438D02*
X126813095Y-103304819D01*
X126813095Y-103304819D02*
X127051190Y-103304819D01*
X127051190Y-103304819D02*
X127146428Y-103352438D01*
X127146428Y-103352438D02*
X127194047Y-103400057D01*
X127194047Y-103400057D02*
X127241666Y-103495295D01*
X127241666Y-103495295D02*
X127241666Y-103590533D01*
X127241666Y-103590533D02*
X127194047Y-103733390D01*
X127194047Y-103733390D02*
X126622619Y-104304819D01*
X126622619Y-104304819D02*
X127241666Y-104304819D01*
X165333333Y-79144819D02*
X165000000Y-78668628D01*
X164761905Y-79144819D02*
X164761905Y-78144819D01*
X164761905Y-78144819D02*
X165142857Y-78144819D01*
X165142857Y-78144819D02*
X165238095Y-78192438D01*
X165238095Y-78192438D02*
X165285714Y-78240057D01*
X165285714Y-78240057D02*
X165333333Y-78335295D01*
X165333333Y-78335295D02*
X165333333Y-78478152D01*
X165333333Y-78478152D02*
X165285714Y-78573390D01*
X165285714Y-78573390D02*
X165238095Y-78621009D01*
X165238095Y-78621009D02*
X165142857Y-78668628D01*
X165142857Y-78668628D02*
X164761905Y-78668628D01*
X166190476Y-78144819D02*
X166000000Y-78144819D01*
X166000000Y-78144819D02*
X165904762Y-78192438D01*
X165904762Y-78192438D02*
X165857143Y-78240057D01*
X165857143Y-78240057D02*
X165761905Y-78382914D01*
X165761905Y-78382914D02*
X165714286Y-78573390D01*
X165714286Y-78573390D02*
X165714286Y-78954342D01*
X165714286Y-78954342D02*
X165761905Y-79049580D01*
X165761905Y-79049580D02*
X165809524Y-79097200D01*
X165809524Y-79097200D02*
X165904762Y-79144819D01*
X165904762Y-79144819D02*
X166095238Y-79144819D01*
X166095238Y-79144819D02*
X166190476Y-79097200D01*
X166190476Y-79097200D02*
X166238095Y-79049580D01*
X166238095Y-79049580D02*
X166285714Y-78954342D01*
X166285714Y-78954342D02*
X166285714Y-78716247D01*
X166285714Y-78716247D02*
X166238095Y-78621009D01*
X166238095Y-78621009D02*
X166190476Y-78573390D01*
X166190476Y-78573390D02*
X166095238Y-78525771D01*
X166095238Y-78525771D02*
X165904762Y-78525771D01*
X165904762Y-78525771D02*
X165809524Y-78573390D01*
X165809524Y-78573390D02*
X165761905Y-78621009D01*
X165761905Y-78621009D02*
X165714286Y-78716247D01*
X157862142Y-87144819D02*
X157528809Y-86668628D01*
X157290714Y-87144819D02*
X157290714Y-86144819D01*
X157290714Y-86144819D02*
X157671666Y-86144819D01*
X157671666Y-86144819D02*
X157766904Y-86192438D01*
X157766904Y-86192438D02*
X157814523Y-86240057D01*
X157814523Y-86240057D02*
X157862142Y-86335295D01*
X157862142Y-86335295D02*
X157862142Y-86478152D01*
X157862142Y-86478152D02*
X157814523Y-86573390D01*
X157814523Y-86573390D02*
X157766904Y-86621009D01*
X157766904Y-86621009D02*
X157671666Y-86668628D01*
X157671666Y-86668628D02*
X157290714Y-86668628D01*
X158195476Y-86144819D02*
X158814523Y-86144819D01*
X158814523Y-86144819D02*
X158481190Y-86525771D01*
X158481190Y-86525771D02*
X158624047Y-86525771D01*
X158624047Y-86525771D02*
X158719285Y-86573390D01*
X158719285Y-86573390D02*
X158766904Y-86621009D01*
X158766904Y-86621009D02*
X158814523Y-86716247D01*
X158814523Y-86716247D02*
X158814523Y-86954342D01*
X158814523Y-86954342D02*
X158766904Y-87049580D01*
X158766904Y-87049580D02*
X158719285Y-87097200D01*
X158719285Y-87097200D02*
X158624047Y-87144819D01*
X158624047Y-87144819D02*
X158338333Y-87144819D01*
X158338333Y-87144819D02*
X158243095Y-87097200D01*
X158243095Y-87097200D02*
X158195476Y-87049580D01*
X159385952Y-86573390D02*
X159290714Y-86525771D01*
X159290714Y-86525771D02*
X159243095Y-86478152D01*
X159243095Y-86478152D02*
X159195476Y-86382914D01*
X159195476Y-86382914D02*
X159195476Y-86335295D01*
X159195476Y-86335295D02*
X159243095Y-86240057D01*
X159243095Y-86240057D02*
X159290714Y-86192438D01*
X159290714Y-86192438D02*
X159385952Y-86144819D01*
X159385952Y-86144819D02*
X159576428Y-86144819D01*
X159576428Y-86144819D02*
X159671666Y-86192438D01*
X159671666Y-86192438D02*
X159719285Y-86240057D01*
X159719285Y-86240057D02*
X159766904Y-86335295D01*
X159766904Y-86335295D02*
X159766904Y-86382914D01*
X159766904Y-86382914D02*
X159719285Y-86478152D01*
X159719285Y-86478152D02*
X159671666Y-86525771D01*
X159671666Y-86525771D02*
X159576428Y-86573390D01*
X159576428Y-86573390D02*
X159385952Y-86573390D01*
X159385952Y-86573390D02*
X159290714Y-86621009D01*
X159290714Y-86621009D02*
X159243095Y-86668628D01*
X159243095Y-86668628D02*
X159195476Y-86763866D01*
X159195476Y-86763866D02*
X159195476Y-86954342D01*
X159195476Y-86954342D02*
X159243095Y-87049580D01*
X159243095Y-87049580D02*
X159290714Y-87097200D01*
X159290714Y-87097200D02*
X159385952Y-87144819D01*
X159385952Y-87144819D02*
X159576428Y-87144819D01*
X159576428Y-87144819D02*
X159671666Y-87097200D01*
X159671666Y-87097200D02*
X159719285Y-87049580D01*
X159719285Y-87049580D02*
X159766904Y-86954342D01*
X159766904Y-86954342D02*
X159766904Y-86763866D01*
X159766904Y-86763866D02*
X159719285Y-86668628D01*
X159719285Y-86668628D02*
X159671666Y-86621009D01*
X159671666Y-86621009D02*
X159576428Y-86573390D01*
X159857142Y-62204819D02*
X159523809Y-61728628D01*
X159285714Y-62204819D02*
X159285714Y-61204819D01*
X159285714Y-61204819D02*
X159666666Y-61204819D01*
X159666666Y-61204819D02*
X159761904Y-61252438D01*
X159761904Y-61252438D02*
X159809523Y-61300057D01*
X159809523Y-61300057D02*
X159857142Y-61395295D01*
X159857142Y-61395295D02*
X159857142Y-61538152D01*
X159857142Y-61538152D02*
X159809523Y-61633390D01*
X159809523Y-61633390D02*
X159761904Y-61681009D01*
X159761904Y-61681009D02*
X159666666Y-61728628D01*
X159666666Y-61728628D02*
X159285714Y-61728628D01*
X160190476Y-61204819D02*
X160809523Y-61204819D01*
X160809523Y-61204819D02*
X160476190Y-61585771D01*
X160476190Y-61585771D02*
X160619047Y-61585771D01*
X160619047Y-61585771D02*
X160714285Y-61633390D01*
X160714285Y-61633390D02*
X160761904Y-61681009D01*
X160761904Y-61681009D02*
X160809523Y-61776247D01*
X160809523Y-61776247D02*
X160809523Y-62014342D01*
X160809523Y-62014342D02*
X160761904Y-62109580D01*
X160761904Y-62109580D02*
X160714285Y-62157200D01*
X160714285Y-62157200D02*
X160619047Y-62204819D01*
X160619047Y-62204819D02*
X160333333Y-62204819D01*
X160333333Y-62204819D02*
X160238095Y-62157200D01*
X160238095Y-62157200D02*
X160190476Y-62109580D01*
X161428571Y-61204819D02*
X161523809Y-61204819D01*
X161523809Y-61204819D02*
X161619047Y-61252438D01*
X161619047Y-61252438D02*
X161666666Y-61300057D01*
X161666666Y-61300057D02*
X161714285Y-61395295D01*
X161714285Y-61395295D02*
X161761904Y-61585771D01*
X161761904Y-61585771D02*
X161761904Y-61823866D01*
X161761904Y-61823866D02*
X161714285Y-62014342D01*
X161714285Y-62014342D02*
X161666666Y-62109580D01*
X161666666Y-62109580D02*
X161619047Y-62157200D01*
X161619047Y-62157200D02*
X161523809Y-62204819D01*
X161523809Y-62204819D02*
X161428571Y-62204819D01*
X161428571Y-62204819D02*
X161333333Y-62157200D01*
X161333333Y-62157200D02*
X161285714Y-62109580D01*
X161285714Y-62109580D02*
X161238095Y-62014342D01*
X161238095Y-62014342D02*
X161190476Y-61823866D01*
X161190476Y-61823866D02*
X161190476Y-61585771D01*
X161190476Y-61585771D02*
X161238095Y-61395295D01*
X161238095Y-61395295D02*
X161285714Y-61300057D01*
X161285714Y-61300057D02*
X161333333Y-61252438D01*
X161333333Y-61252438D02*
X161428571Y-61204819D01*
X166833333Y-61859580D02*
X166785714Y-61907200D01*
X166785714Y-61907200D02*
X166642857Y-61954819D01*
X166642857Y-61954819D02*
X166547619Y-61954819D01*
X166547619Y-61954819D02*
X166404762Y-61907200D01*
X166404762Y-61907200D02*
X166309524Y-61811961D01*
X166309524Y-61811961D02*
X166261905Y-61716723D01*
X166261905Y-61716723D02*
X166214286Y-61526247D01*
X166214286Y-61526247D02*
X166214286Y-61383390D01*
X166214286Y-61383390D02*
X166261905Y-61192914D01*
X166261905Y-61192914D02*
X166309524Y-61097676D01*
X166309524Y-61097676D02*
X166404762Y-61002438D01*
X166404762Y-61002438D02*
X166547619Y-60954819D01*
X166547619Y-60954819D02*
X166642857Y-60954819D01*
X166642857Y-60954819D02*
X166785714Y-61002438D01*
X166785714Y-61002438D02*
X166833333Y-61050057D01*
X167690476Y-60954819D02*
X167500000Y-60954819D01*
X167500000Y-60954819D02*
X167404762Y-61002438D01*
X167404762Y-61002438D02*
X167357143Y-61050057D01*
X167357143Y-61050057D02*
X167261905Y-61192914D01*
X167261905Y-61192914D02*
X167214286Y-61383390D01*
X167214286Y-61383390D02*
X167214286Y-61764342D01*
X167214286Y-61764342D02*
X167261905Y-61859580D01*
X167261905Y-61859580D02*
X167309524Y-61907200D01*
X167309524Y-61907200D02*
X167404762Y-61954819D01*
X167404762Y-61954819D02*
X167595238Y-61954819D01*
X167595238Y-61954819D02*
X167690476Y-61907200D01*
X167690476Y-61907200D02*
X167738095Y-61859580D01*
X167738095Y-61859580D02*
X167785714Y-61764342D01*
X167785714Y-61764342D02*
X167785714Y-61526247D01*
X167785714Y-61526247D02*
X167738095Y-61431009D01*
X167738095Y-61431009D02*
X167690476Y-61383390D01*
X167690476Y-61383390D02*
X167595238Y-61335771D01*
X167595238Y-61335771D02*
X167404762Y-61335771D01*
X167404762Y-61335771D02*
X167309524Y-61383390D01*
X167309524Y-61383390D02*
X167261905Y-61431009D01*
X167261905Y-61431009D02*
X167214286Y-61526247D01*
X161672142Y-95144819D02*
X161338809Y-94668628D01*
X161100714Y-95144819D02*
X161100714Y-94144819D01*
X161100714Y-94144819D02*
X161481666Y-94144819D01*
X161481666Y-94144819D02*
X161576904Y-94192438D01*
X161576904Y-94192438D02*
X161624523Y-94240057D01*
X161624523Y-94240057D02*
X161672142Y-94335295D01*
X161672142Y-94335295D02*
X161672142Y-94478152D01*
X161672142Y-94478152D02*
X161624523Y-94573390D01*
X161624523Y-94573390D02*
X161576904Y-94621009D01*
X161576904Y-94621009D02*
X161481666Y-94668628D01*
X161481666Y-94668628D02*
X161100714Y-94668628D01*
X162053095Y-94240057D02*
X162100714Y-94192438D01*
X162100714Y-94192438D02*
X162195952Y-94144819D01*
X162195952Y-94144819D02*
X162434047Y-94144819D01*
X162434047Y-94144819D02*
X162529285Y-94192438D01*
X162529285Y-94192438D02*
X162576904Y-94240057D01*
X162576904Y-94240057D02*
X162624523Y-94335295D01*
X162624523Y-94335295D02*
X162624523Y-94430533D01*
X162624523Y-94430533D02*
X162576904Y-94573390D01*
X162576904Y-94573390D02*
X162005476Y-95144819D01*
X162005476Y-95144819D02*
X162624523Y-95144819D01*
X163481666Y-94144819D02*
X163291190Y-94144819D01*
X163291190Y-94144819D02*
X163195952Y-94192438D01*
X163195952Y-94192438D02*
X163148333Y-94240057D01*
X163148333Y-94240057D02*
X163053095Y-94382914D01*
X163053095Y-94382914D02*
X163005476Y-94573390D01*
X163005476Y-94573390D02*
X163005476Y-94954342D01*
X163005476Y-94954342D02*
X163053095Y-95049580D01*
X163053095Y-95049580D02*
X163100714Y-95097200D01*
X163100714Y-95097200D02*
X163195952Y-95144819D01*
X163195952Y-95144819D02*
X163386428Y-95144819D01*
X163386428Y-95144819D02*
X163481666Y-95097200D01*
X163481666Y-95097200D02*
X163529285Y-95049580D01*
X163529285Y-95049580D02*
X163576904Y-94954342D01*
X163576904Y-94954342D02*
X163576904Y-94716247D01*
X163576904Y-94716247D02*
X163529285Y-94621009D01*
X163529285Y-94621009D02*
X163481666Y-94573390D01*
X163481666Y-94573390D02*
X163386428Y-94525771D01*
X163386428Y-94525771D02*
X163195952Y-94525771D01*
X163195952Y-94525771D02*
X163100714Y-94573390D01*
X163100714Y-94573390D02*
X163053095Y-94621009D01*
X163053095Y-94621009D02*
X163005476Y-94716247D01*
X157862142Y-95144819D02*
X157528809Y-94668628D01*
X157290714Y-95144819D02*
X157290714Y-94144819D01*
X157290714Y-94144819D02*
X157671666Y-94144819D01*
X157671666Y-94144819D02*
X157766904Y-94192438D01*
X157766904Y-94192438D02*
X157814523Y-94240057D01*
X157814523Y-94240057D02*
X157862142Y-94335295D01*
X157862142Y-94335295D02*
X157862142Y-94478152D01*
X157862142Y-94478152D02*
X157814523Y-94573390D01*
X157814523Y-94573390D02*
X157766904Y-94621009D01*
X157766904Y-94621009D02*
X157671666Y-94668628D01*
X157671666Y-94668628D02*
X157290714Y-94668628D01*
X158719285Y-94478152D02*
X158719285Y-95144819D01*
X158481190Y-94097200D02*
X158243095Y-94811485D01*
X158243095Y-94811485D02*
X158862142Y-94811485D01*
X159195476Y-94240057D02*
X159243095Y-94192438D01*
X159243095Y-94192438D02*
X159338333Y-94144819D01*
X159338333Y-94144819D02*
X159576428Y-94144819D01*
X159576428Y-94144819D02*
X159671666Y-94192438D01*
X159671666Y-94192438D02*
X159719285Y-94240057D01*
X159719285Y-94240057D02*
X159766904Y-94335295D01*
X159766904Y-94335295D02*
X159766904Y-94430533D01*
X159766904Y-94430533D02*
X159719285Y-94573390D01*
X159719285Y-94573390D02*
X159147857Y-95144819D01*
X159147857Y-95144819D02*
X159766904Y-95144819D01*
X149075595Y-43092319D02*
X149075595Y-43901842D01*
X149075595Y-43901842D02*
X149123214Y-43997080D01*
X149123214Y-43997080D02*
X149170833Y-44044700D01*
X149170833Y-44044700D02*
X149266071Y-44092319D01*
X149266071Y-44092319D02*
X149456547Y-44092319D01*
X149456547Y-44092319D02*
X149551785Y-44044700D01*
X149551785Y-44044700D02*
X149599404Y-43997080D01*
X149599404Y-43997080D02*
X149647023Y-43901842D01*
X149647023Y-43901842D02*
X149647023Y-43092319D01*
X150647023Y-44092319D02*
X150075595Y-44092319D01*
X150361309Y-44092319D02*
X150361309Y-43092319D01*
X150361309Y-43092319D02*
X150266071Y-43235176D01*
X150266071Y-43235176D02*
X150170833Y-43330414D01*
X150170833Y-43330414D02*
X150075595Y-43378033D01*
X157862142Y-91144819D02*
X157528809Y-90668628D01*
X157290714Y-91144819D02*
X157290714Y-90144819D01*
X157290714Y-90144819D02*
X157671666Y-90144819D01*
X157671666Y-90144819D02*
X157766904Y-90192438D01*
X157766904Y-90192438D02*
X157814523Y-90240057D01*
X157814523Y-90240057D02*
X157862142Y-90335295D01*
X157862142Y-90335295D02*
X157862142Y-90478152D01*
X157862142Y-90478152D02*
X157814523Y-90573390D01*
X157814523Y-90573390D02*
X157766904Y-90621009D01*
X157766904Y-90621009D02*
X157671666Y-90668628D01*
X157671666Y-90668628D02*
X157290714Y-90668628D01*
X158719285Y-90478152D02*
X158719285Y-91144819D01*
X158481190Y-90097200D02*
X158243095Y-90811485D01*
X158243095Y-90811485D02*
X158862142Y-90811485D01*
X159433571Y-90144819D02*
X159528809Y-90144819D01*
X159528809Y-90144819D02*
X159624047Y-90192438D01*
X159624047Y-90192438D02*
X159671666Y-90240057D01*
X159671666Y-90240057D02*
X159719285Y-90335295D01*
X159719285Y-90335295D02*
X159766904Y-90525771D01*
X159766904Y-90525771D02*
X159766904Y-90763866D01*
X159766904Y-90763866D02*
X159719285Y-90954342D01*
X159719285Y-90954342D02*
X159671666Y-91049580D01*
X159671666Y-91049580D02*
X159624047Y-91097200D01*
X159624047Y-91097200D02*
X159528809Y-91144819D01*
X159528809Y-91144819D02*
X159433571Y-91144819D01*
X159433571Y-91144819D02*
X159338333Y-91097200D01*
X159338333Y-91097200D02*
X159290714Y-91049580D01*
X159290714Y-91049580D02*
X159243095Y-90954342D01*
X159243095Y-90954342D02*
X159195476Y-90763866D01*
X159195476Y-90763866D02*
X159195476Y-90525771D01*
X159195476Y-90525771D02*
X159243095Y-90335295D01*
X159243095Y-90335295D02*
X159290714Y-90240057D01*
X159290714Y-90240057D02*
X159338333Y-90192438D01*
X159338333Y-90192438D02*
X159433571Y-90144819D01*
X159857142Y-58204819D02*
X159523809Y-57728628D01*
X159285714Y-58204819D02*
X159285714Y-57204819D01*
X159285714Y-57204819D02*
X159666666Y-57204819D01*
X159666666Y-57204819D02*
X159761904Y-57252438D01*
X159761904Y-57252438D02*
X159809523Y-57300057D01*
X159809523Y-57300057D02*
X159857142Y-57395295D01*
X159857142Y-57395295D02*
X159857142Y-57538152D01*
X159857142Y-57538152D02*
X159809523Y-57633390D01*
X159809523Y-57633390D02*
X159761904Y-57681009D01*
X159761904Y-57681009D02*
X159666666Y-57728628D01*
X159666666Y-57728628D02*
X159285714Y-57728628D01*
X160190476Y-57204819D02*
X160809523Y-57204819D01*
X160809523Y-57204819D02*
X160476190Y-57585771D01*
X160476190Y-57585771D02*
X160619047Y-57585771D01*
X160619047Y-57585771D02*
X160714285Y-57633390D01*
X160714285Y-57633390D02*
X160761904Y-57681009D01*
X160761904Y-57681009D02*
X160809523Y-57776247D01*
X160809523Y-57776247D02*
X160809523Y-58014342D01*
X160809523Y-58014342D02*
X160761904Y-58109580D01*
X160761904Y-58109580D02*
X160714285Y-58157200D01*
X160714285Y-58157200D02*
X160619047Y-58204819D01*
X160619047Y-58204819D02*
X160333333Y-58204819D01*
X160333333Y-58204819D02*
X160238095Y-58157200D01*
X160238095Y-58157200D02*
X160190476Y-58109580D01*
X161761904Y-58204819D02*
X161190476Y-58204819D01*
X161476190Y-58204819D02*
X161476190Y-57204819D01*
X161476190Y-57204819D02*
X161380952Y-57347676D01*
X161380952Y-57347676D02*
X161285714Y-57442914D01*
X161285714Y-57442914D02*
X161190476Y-57490533D01*
X161672142Y-97144819D02*
X161338809Y-96668628D01*
X161100714Y-97144819D02*
X161100714Y-96144819D01*
X161100714Y-96144819D02*
X161481666Y-96144819D01*
X161481666Y-96144819D02*
X161576904Y-96192438D01*
X161576904Y-96192438D02*
X161624523Y-96240057D01*
X161624523Y-96240057D02*
X161672142Y-96335295D01*
X161672142Y-96335295D02*
X161672142Y-96478152D01*
X161672142Y-96478152D02*
X161624523Y-96573390D01*
X161624523Y-96573390D02*
X161576904Y-96621009D01*
X161576904Y-96621009D02*
X161481666Y-96668628D01*
X161481666Y-96668628D02*
X161100714Y-96668628D01*
X162053095Y-96240057D02*
X162100714Y-96192438D01*
X162100714Y-96192438D02*
X162195952Y-96144819D01*
X162195952Y-96144819D02*
X162434047Y-96144819D01*
X162434047Y-96144819D02*
X162529285Y-96192438D01*
X162529285Y-96192438D02*
X162576904Y-96240057D01*
X162576904Y-96240057D02*
X162624523Y-96335295D01*
X162624523Y-96335295D02*
X162624523Y-96430533D01*
X162624523Y-96430533D02*
X162576904Y-96573390D01*
X162576904Y-96573390D02*
X162005476Y-97144819D01*
X162005476Y-97144819D02*
X162624523Y-97144819D01*
X162957857Y-96144819D02*
X163624523Y-96144819D01*
X163624523Y-96144819D02*
X163195952Y-97144819D01*
X137738095Y-67643819D02*
X138309523Y-67643819D01*
X138023809Y-68643819D02*
X138023809Y-67643819D01*
X138642857Y-68643819D02*
X138642857Y-67643819D01*
X138642857Y-67643819D02*
X139023809Y-67643819D01*
X139023809Y-67643819D02*
X139119047Y-67691438D01*
X139119047Y-67691438D02*
X139166666Y-67739057D01*
X139166666Y-67739057D02*
X139214285Y-67834295D01*
X139214285Y-67834295D02*
X139214285Y-67977152D01*
X139214285Y-67977152D02*
X139166666Y-68072390D01*
X139166666Y-68072390D02*
X139119047Y-68120009D01*
X139119047Y-68120009D02*
X139023809Y-68167628D01*
X139023809Y-68167628D02*
X138642857Y-68167628D01*
X140166666Y-68643819D02*
X139595238Y-68643819D01*
X139880952Y-68643819D02*
X139880952Y-67643819D01*
X139880952Y-67643819D02*
X139785714Y-67786676D01*
X139785714Y-67786676D02*
X139690476Y-67881914D01*
X139690476Y-67881914D02*
X139595238Y-67929533D01*
X148359580Y-67916666D02*
X148407200Y-67964285D01*
X148407200Y-67964285D02*
X148454819Y-68107142D01*
X148454819Y-68107142D02*
X148454819Y-68202380D01*
X148454819Y-68202380D02*
X148407200Y-68345237D01*
X148407200Y-68345237D02*
X148311961Y-68440475D01*
X148311961Y-68440475D02*
X148216723Y-68488094D01*
X148216723Y-68488094D02*
X148026247Y-68535713D01*
X148026247Y-68535713D02*
X147883390Y-68535713D01*
X147883390Y-68535713D02*
X147692914Y-68488094D01*
X147692914Y-68488094D02*
X147597676Y-68440475D01*
X147597676Y-68440475D02*
X147502438Y-68345237D01*
X147502438Y-68345237D02*
X147454819Y-68202380D01*
X147454819Y-68202380D02*
X147454819Y-68107142D01*
X147454819Y-68107142D02*
X147502438Y-67964285D01*
X147502438Y-67964285D02*
X147550057Y-67916666D01*
X148454819Y-67440475D02*
X148454819Y-67249999D01*
X148454819Y-67249999D02*
X148407200Y-67154761D01*
X148407200Y-67154761D02*
X148359580Y-67107142D01*
X148359580Y-67107142D02*
X148216723Y-67011904D01*
X148216723Y-67011904D02*
X148026247Y-66964285D01*
X148026247Y-66964285D02*
X147645295Y-66964285D01*
X147645295Y-66964285D02*
X147550057Y-67011904D01*
X147550057Y-67011904D02*
X147502438Y-67059523D01*
X147502438Y-67059523D02*
X147454819Y-67154761D01*
X147454819Y-67154761D02*
X147454819Y-67345237D01*
X147454819Y-67345237D02*
X147502438Y-67440475D01*
X147502438Y-67440475D02*
X147550057Y-67488094D01*
X147550057Y-67488094D02*
X147645295Y-67535713D01*
X147645295Y-67535713D02*
X147883390Y-67535713D01*
X147883390Y-67535713D02*
X147978628Y-67488094D01*
X147978628Y-67488094D02*
X148026247Y-67440475D01*
X148026247Y-67440475D02*
X148073866Y-67345237D01*
X148073866Y-67345237D02*
X148073866Y-67154761D01*
X148073866Y-67154761D02*
X148026247Y-67059523D01*
X148026247Y-67059523D02*
X147978628Y-67011904D01*
X147978628Y-67011904D02*
X147883390Y-66964285D01*
X161672142Y-91144819D02*
X161338809Y-90668628D01*
X161100714Y-91144819D02*
X161100714Y-90144819D01*
X161100714Y-90144819D02*
X161481666Y-90144819D01*
X161481666Y-90144819D02*
X161576904Y-90192438D01*
X161576904Y-90192438D02*
X161624523Y-90240057D01*
X161624523Y-90240057D02*
X161672142Y-90335295D01*
X161672142Y-90335295D02*
X161672142Y-90478152D01*
X161672142Y-90478152D02*
X161624523Y-90573390D01*
X161624523Y-90573390D02*
X161576904Y-90621009D01*
X161576904Y-90621009D02*
X161481666Y-90668628D01*
X161481666Y-90668628D02*
X161100714Y-90668628D01*
X162053095Y-90240057D02*
X162100714Y-90192438D01*
X162100714Y-90192438D02*
X162195952Y-90144819D01*
X162195952Y-90144819D02*
X162434047Y-90144819D01*
X162434047Y-90144819D02*
X162529285Y-90192438D01*
X162529285Y-90192438D02*
X162576904Y-90240057D01*
X162576904Y-90240057D02*
X162624523Y-90335295D01*
X162624523Y-90335295D02*
X162624523Y-90430533D01*
X162624523Y-90430533D02*
X162576904Y-90573390D01*
X162576904Y-90573390D02*
X162005476Y-91144819D01*
X162005476Y-91144819D02*
X162624523Y-91144819D01*
X163481666Y-90478152D02*
X163481666Y-91144819D01*
X163243571Y-90097200D02*
X163005476Y-90811485D01*
X163005476Y-90811485D02*
X163624523Y-90811485D01*
X161672142Y-81144819D02*
X161338809Y-80668628D01*
X161100714Y-81144819D02*
X161100714Y-80144819D01*
X161100714Y-80144819D02*
X161481666Y-80144819D01*
X161481666Y-80144819D02*
X161576904Y-80192438D01*
X161576904Y-80192438D02*
X161624523Y-80240057D01*
X161624523Y-80240057D02*
X161672142Y-80335295D01*
X161672142Y-80335295D02*
X161672142Y-80478152D01*
X161672142Y-80478152D02*
X161624523Y-80573390D01*
X161624523Y-80573390D02*
X161576904Y-80621009D01*
X161576904Y-80621009D02*
X161481666Y-80668628D01*
X161481666Y-80668628D02*
X161100714Y-80668628D01*
X162624523Y-81144819D02*
X162053095Y-81144819D01*
X162338809Y-81144819D02*
X162338809Y-80144819D01*
X162338809Y-80144819D02*
X162243571Y-80287676D01*
X162243571Y-80287676D02*
X162148333Y-80382914D01*
X162148333Y-80382914D02*
X162053095Y-80430533D01*
X163100714Y-81144819D02*
X163291190Y-81144819D01*
X163291190Y-81144819D02*
X163386428Y-81097200D01*
X163386428Y-81097200D02*
X163434047Y-81049580D01*
X163434047Y-81049580D02*
X163529285Y-80906723D01*
X163529285Y-80906723D02*
X163576904Y-80716247D01*
X163576904Y-80716247D02*
X163576904Y-80335295D01*
X163576904Y-80335295D02*
X163529285Y-80240057D01*
X163529285Y-80240057D02*
X163481666Y-80192438D01*
X163481666Y-80192438D02*
X163386428Y-80144819D01*
X163386428Y-80144819D02*
X163195952Y-80144819D01*
X163195952Y-80144819D02*
X163100714Y-80192438D01*
X163100714Y-80192438D02*
X163053095Y-80240057D01*
X163053095Y-80240057D02*
X163005476Y-80335295D01*
X163005476Y-80335295D02*
X163005476Y-80573390D01*
X163005476Y-80573390D02*
X163053095Y-80668628D01*
X163053095Y-80668628D02*
X163100714Y-80716247D01*
X163100714Y-80716247D02*
X163195952Y-80763866D01*
X163195952Y-80763866D02*
X163386428Y-80763866D01*
X163386428Y-80763866D02*
X163481666Y-80716247D01*
X163481666Y-80716247D02*
X163529285Y-80668628D01*
X163529285Y-80668628D02*
X163576904Y-80573390D01*
X157862142Y-81144819D02*
X157528809Y-80668628D01*
X157290714Y-81144819D02*
X157290714Y-80144819D01*
X157290714Y-80144819D02*
X157671666Y-80144819D01*
X157671666Y-80144819D02*
X157766904Y-80192438D01*
X157766904Y-80192438D02*
X157814523Y-80240057D01*
X157814523Y-80240057D02*
X157862142Y-80335295D01*
X157862142Y-80335295D02*
X157862142Y-80478152D01*
X157862142Y-80478152D02*
X157814523Y-80573390D01*
X157814523Y-80573390D02*
X157766904Y-80621009D01*
X157766904Y-80621009D02*
X157671666Y-80668628D01*
X157671666Y-80668628D02*
X157290714Y-80668628D01*
X158195476Y-80144819D02*
X158814523Y-80144819D01*
X158814523Y-80144819D02*
X158481190Y-80525771D01*
X158481190Y-80525771D02*
X158624047Y-80525771D01*
X158624047Y-80525771D02*
X158719285Y-80573390D01*
X158719285Y-80573390D02*
X158766904Y-80621009D01*
X158766904Y-80621009D02*
X158814523Y-80716247D01*
X158814523Y-80716247D02*
X158814523Y-80954342D01*
X158814523Y-80954342D02*
X158766904Y-81049580D01*
X158766904Y-81049580D02*
X158719285Y-81097200D01*
X158719285Y-81097200D02*
X158624047Y-81144819D01*
X158624047Y-81144819D02*
X158338333Y-81144819D01*
X158338333Y-81144819D02*
X158243095Y-81097200D01*
X158243095Y-81097200D02*
X158195476Y-81049580D01*
X159719285Y-80144819D02*
X159243095Y-80144819D01*
X159243095Y-80144819D02*
X159195476Y-80621009D01*
X159195476Y-80621009D02*
X159243095Y-80573390D01*
X159243095Y-80573390D02*
X159338333Y-80525771D01*
X159338333Y-80525771D02*
X159576428Y-80525771D01*
X159576428Y-80525771D02*
X159671666Y-80573390D01*
X159671666Y-80573390D02*
X159719285Y-80621009D01*
X159719285Y-80621009D02*
X159766904Y-80716247D01*
X159766904Y-80716247D02*
X159766904Y-80954342D01*
X159766904Y-80954342D02*
X159719285Y-81049580D01*
X159719285Y-81049580D02*
X159671666Y-81097200D01*
X159671666Y-81097200D02*
X159576428Y-81144819D01*
X159576428Y-81144819D02*
X159338333Y-81144819D01*
X159338333Y-81144819D02*
X159243095Y-81097200D01*
X159243095Y-81097200D02*
X159195476Y-81049580D01*
X141767080Y-48804166D02*
X141814700Y-48851785D01*
X141814700Y-48851785D02*
X141862319Y-48994642D01*
X141862319Y-48994642D02*
X141862319Y-49089880D01*
X141862319Y-49089880D02*
X141814700Y-49232737D01*
X141814700Y-49232737D02*
X141719461Y-49327975D01*
X141719461Y-49327975D02*
X141624223Y-49375594D01*
X141624223Y-49375594D02*
X141433747Y-49423213D01*
X141433747Y-49423213D02*
X141290890Y-49423213D01*
X141290890Y-49423213D02*
X141100414Y-49375594D01*
X141100414Y-49375594D02*
X141005176Y-49327975D01*
X141005176Y-49327975D02*
X140909938Y-49232737D01*
X140909938Y-49232737D02*
X140862319Y-49089880D01*
X140862319Y-49089880D02*
X140862319Y-48994642D01*
X140862319Y-48994642D02*
X140909938Y-48851785D01*
X140909938Y-48851785D02*
X140957557Y-48804166D01*
X140862319Y-48470832D02*
X140862319Y-47851785D01*
X140862319Y-47851785D02*
X141243271Y-48185118D01*
X141243271Y-48185118D02*
X141243271Y-48042261D01*
X141243271Y-48042261D02*
X141290890Y-47947023D01*
X141290890Y-47947023D02*
X141338509Y-47899404D01*
X141338509Y-47899404D02*
X141433747Y-47851785D01*
X141433747Y-47851785D02*
X141671842Y-47851785D01*
X141671842Y-47851785D02*
X141767080Y-47899404D01*
X141767080Y-47899404D02*
X141814700Y-47947023D01*
X141814700Y-47947023D02*
X141862319Y-48042261D01*
X141862319Y-48042261D02*
X141862319Y-48327975D01*
X141862319Y-48327975D02*
X141814700Y-48423213D01*
X141814700Y-48423213D02*
X141767080Y-48470832D01*
D12*
X150782224Y-86167500D02*
X150272776Y-86167500D01*
X150782224Y-87212500D02*
X150272776Y-87212500D01*
X146972224Y-92167500D02*
X146462776Y-92167500D01*
X146972224Y-93212500D02*
X146462776Y-93212500D01*
X152258767Y-62990000D02*
X151966233Y-62990000D01*
X152258767Y-64010000D02*
X151966233Y-64010000D01*
X150782224Y-78167500D02*
X150272776Y-78167500D01*
X150782224Y-79212500D02*
X150272776Y-79212500D01*
X178157776Y-105977500D02*
X178667224Y-105977500D01*
X178157776Y-107022500D02*
X178667224Y-107022500D01*
X144495276Y-57727500D02*
X145004724Y-57727500D01*
X144495276Y-58772500D02*
X145004724Y-58772500D01*
X154592224Y-90167500D02*
X154082776Y-90167500D01*
X154592224Y-91212500D02*
X154082776Y-91212500D01*
X150782224Y-76167500D02*
X150272776Y-76167500D01*
X150782224Y-77212500D02*
X150272776Y-77212500D01*
X142327500Y-45283767D02*
X142327500Y-44991233D01*
X143347500Y-45283767D02*
X143347500Y-44991233D01*
X154592224Y-88167500D02*
X154082776Y-88167500D01*
X154592224Y-89212500D02*
X154082776Y-89212500D01*
X154592224Y-97977500D02*
X154082776Y-97977500D01*
X154592224Y-99022500D02*
X154082776Y-99022500D01*
X163991233Y-62990000D02*
X164283767Y-62990000D01*
X163991233Y-64010000D02*
X164283767Y-64010000D01*
X151460000Y-59940000D02*
X152870000Y-59940000D01*
X151470000Y-62260000D02*
X152870000Y-62260000D01*
X151090000Y-59990000D02*
X150850000Y-59660000D01*
X151330000Y-59660000D01*
X151090000Y-59990000D01*
G36*
X151090000Y-59990000D02*
G01*
X150850000Y-59660000D01*
X151330000Y-59660000D01*
X151090000Y-59990000D01*
G37*
X146972224Y-82167500D02*
X146462776Y-82167500D01*
X146972224Y-83212500D02*
X146462776Y-83212500D01*
X150782224Y-92167500D02*
X150272776Y-92167500D01*
X150782224Y-93212500D02*
X150272776Y-93212500D01*
X172842224Y-45477500D02*
X172332776Y-45477500D01*
X172842224Y-46522500D02*
X172332776Y-46522500D01*
X146972224Y-84167500D02*
X146462776Y-84167500D01*
X146972224Y-85212500D02*
X146462776Y-85212500D01*
X144582776Y-59727500D02*
X145092224Y-59727500D01*
X144582776Y-60772500D02*
X145092224Y-60772500D01*
X146972224Y-97977500D02*
X146462776Y-97977500D01*
X146972224Y-99022500D02*
X146462776Y-99022500D01*
X156995276Y-62977500D02*
X157504724Y-62977500D01*
X156995276Y-64022500D02*
X157504724Y-64022500D01*
X146972224Y-78167500D02*
X146462776Y-78167500D01*
X146972224Y-79212500D02*
X146462776Y-79212500D01*
X146082776Y-43115000D02*
X146592224Y-43115000D01*
X146082776Y-44160000D02*
X146592224Y-44160000D01*
X172842224Y-42727500D02*
X172332776Y-42727500D01*
X172842224Y-43772500D02*
X172332776Y-43772500D01*
X154592224Y-80167500D02*
X154082776Y-80167500D01*
X154592224Y-81212500D02*
X154082776Y-81212500D01*
X164041233Y-59145000D02*
X164333767Y-59145000D01*
X164041233Y-60165000D02*
X164333767Y-60165000D01*
X172842224Y-48477500D02*
X172332776Y-48477500D01*
X172842224Y-49522500D02*
X172332776Y-49522500D01*
X150782224Y-97977500D02*
X150272776Y-97977500D01*
X150782224Y-99022500D02*
X150272776Y-99022500D01*
X150782224Y-84167500D02*
X150272776Y-84167500D01*
X150782224Y-85212500D02*
X150272776Y-85212500D01*
X164103733Y-57240000D02*
X164396267Y-57240000D01*
X164103733Y-58260000D02*
X164396267Y-58260000D01*
X154592224Y-92167500D02*
X154082776Y-92167500D01*
X154592224Y-93212500D02*
X154082776Y-93212500D01*
X154592224Y-96167500D02*
X154082776Y-96167500D01*
X154592224Y-97212500D02*
X154082776Y-97212500D01*
X154592224Y-94167500D02*
X154082776Y-94167500D01*
X154592224Y-95212500D02*
X154082776Y-95212500D01*
X150782224Y-82167500D02*
X150272776Y-82167500D01*
X150782224Y-83212500D02*
X150272776Y-83212500D01*
X154592224Y-76167500D02*
X154082776Y-76167500D01*
X154592224Y-77212500D02*
X154082776Y-77212500D01*
X152533767Y-70490000D02*
X152241233Y-70490000D01*
X152533767Y-71510000D02*
X152241233Y-71510000D01*
X146972224Y-76167500D02*
X146462776Y-76167500D01*
X146972224Y-77212500D02*
X146462776Y-77212500D01*
X174170000Y-76560000D02*
X174170000Y-71420000D01*
X176830000Y-71420000D02*
X174170000Y-71420000D01*
X176830000Y-76560000D02*
X174170000Y-76560000D01*
X176830000Y-76560000D02*
X176830000Y-71420000D01*
X176830000Y-77830000D02*
X176830000Y-79160000D01*
X176830000Y-79160000D02*
X175500000Y-79160000D01*
X156995276Y-59227500D02*
X157504724Y-59227500D01*
X156995276Y-60272500D02*
X157504724Y-60272500D01*
X171245276Y-74977500D02*
X171754724Y-74977500D01*
X171245276Y-76022500D02*
X171754724Y-76022500D01*
D10*
X179750000Y-39000000D02*
X179750000Y-42000000D01*
X179750000Y-39000000D02*
X196250000Y-39000000D01*
X179750000Y-45500000D02*
X179750000Y-50500000D01*
X179750000Y-45500000D02*
X182250000Y-45500000D01*
X179750000Y-54000000D02*
X179750000Y-57000000D01*
X179750000Y-54000000D02*
X182250000Y-54000000D01*
X179750000Y-57000000D02*
X196250000Y-57000000D01*
X182250000Y-42000000D02*
X179750000Y-42000000D01*
X182250000Y-45500000D02*
X182250000Y-42000000D01*
X182250000Y-50500000D02*
X179750000Y-50500000D01*
X182250000Y-54000000D02*
X182250000Y-50500000D01*
X196250000Y-39000000D02*
X196250000Y-40000000D01*
X196250000Y-40000000D02*
X196250000Y-56000000D01*
X196250000Y-56000000D02*
X196250000Y-57000000D01*
X196750000Y-39000000D02*
X196750000Y-40000000D01*
X196750000Y-40000000D02*
X196250000Y-40000000D01*
X196750000Y-56000000D02*
X196250000Y-56000000D01*
X196750000Y-57000000D02*
X196750000Y-56000000D01*
X196750000Y-58500000D02*
X196750000Y-57000000D01*
X197750000Y-37500000D02*
X197750000Y-39000000D01*
X197750000Y-39000000D02*
X196750000Y-39000000D01*
X197750000Y-57000000D02*
X197750000Y-58500000D01*
X197750000Y-58500000D02*
X196750000Y-58500000D01*
X198750000Y-37500000D02*
X197750000Y-37500000D01*
X198750000Y-39000000D02*
X198750000Y-37500000D01*
X198750000Y-39000000D02*
X198750000Y-57000000D01*
X198750000Y-57000000D02*
X197750000Y-57000000D01*
D12*
X171245276Y-72227500D02*
X171754724Y-72227500D01*
X171245276Y-73272500D02*
X171754724Y-73272500D01*
X154592224Y-82167500D02*
X154082776Y-82167500D01*
X154592224Y-83212500D02*
X154082776Y-83212500D01*
X144582776Y-63727500D02*
X145092224Y-63727500D01*
X144582776Y-64772500D02*
X145092224Y-64772500D01*
X153577500Y-47491233D02*
X153577500Y-47783767D01*
X154597500Y-47491233D02*
X154597500Y-47783767D01*
X150782224Y-88167500D02*
X150272776Y-88167500D01*
X150782224Y-89212500D02*
X150272776Y-89212500D01*
X178592224Y-100227500D02*
X178082776Y-100227500D01*
X178592224Y-101272500D02*
X178082776Y-101272500D01*
X154592224Y-84167500D02*
X154082776Y-84167500D01*
X154592224Y-85212500D02*
X154082776Y-85212500D01*
X181350000Y-66355000D02*
X181350000Y-116355000D01*
X181350000Y-116355000D02*
X188050000Y-116355000D01*
X188050000Y-66355000D02*
X181350000Y-66355000D01*
X188650000Y-58355000D02*
X188650000Y-63455000D01*
X188650000Y-119155000D02*
X188650000Y-124355000D01*
X188650000Y-124355000D02*
X191650000Y-124355000D01*
X191650000Y-58355000D02*
X188650000Y-58355000D01*
X191650000Y-63455000D02*
X191650000Y-58355000D01*
X191650000Y-124355000D02*
X191650000Y-119255000D01*
X191850000Y-116055000D02*
X191850000Y-66555000D01*
X146972224Y-88167500D02*
X146462776Y-88167500D01*
X146972224Y-89212500D02*
X146462776Y-89212500D01*
X167427500Y-44940000D02*
X168837500Y-44940000D01*
X167437500Y-47260000D02*
X168837500Y-47260000D01*
X167057500Y-44990000D02*
X166817500Y-44660000D01*
X167297500Y-44660000D01*
X167057500Y-44990000D01*
G36*
X167057500Y-44990000D02*
G01*
X166817500Y-44660000D01*
X167297500Y-44660000D01*
X167057500Y-44990000D01*
G37*
X159550000Y-45550000D02*
X161450000Y-45550000D01*
X159550000Y-47450000D02*
X159550000Y-45550000D01*
X161450000Y-45550000D02*
X161450000Y-47450000D01*
X161450000Y-47450000D02*
X159550000Y-47450000D01*
X144582776Y-61727500D02*
X145092224Y-61727500D01*
X144582776Y-62772500D02*
X145092224Y-62772500D01*
X146972224Y-96167500D02*
X146462776Y-96167500D01*
X146972224Y-97212500D02*
X146462776Y-97212500D01*
X159550000Y-50550000D02*
X161450000Y-50550000D01*
X159550000Y-52450000D02*
X159550000Y-50550000D01*
X161450000Y-50550000D02*
X161450000Y-52450000D01*
X161450000Y-52450000D02*
X159550000Y-52450000D01*
X150877500Y-68112500D02*
X150877500Y-67312500D01*
X150877500Y-68112500D02*
X150877500Y-68912500D01*
X153997500Y-68112500D02*
X153997500Y-67312500D01*
X153997500Y-68112500D02*
X153997500Y-68912500D01*
X150927500Y-69412500D02*
X150597500Y-69652500D01*
X150597500Y-69172500D01*
X150927500Y-69412500D01*
G36*
X150927500Y-69412500D02*
G01*
X150597500Y-69652500D01*
X150597500Y-69172500D01*
X150927500Y-69412500D01*
G37*
X154592224Y-86167500D02*
X154082776Y-86167500D01*
X154592224Y-87212500D02*
X154082776Y-87212500D01*
X159550000Y-40550000D02*
X161450000Y-40550000D01*
X159550000Y-42450000D02*
X159550000Y-40550000D01*
X161450000Y-40550000D02*
X161450000Y-42450000D01*
X161450000Y-42450000D02*
X159550000Y-42450000D01*
X119400000Y-51900000D02*
X128520000Y-51900000D01*
X119400000Y-102960000D02*
X119400000Y-51900000D01*
X128520000Y-51900000D02*
X128520000Y-102960000D01*
X128520000Y-75380000D02*
X119400000Y-75380000D01*
X128520000Y-79480000D02*
X119400000Y-79480000D01*
X128520000Y-102960000D02*
X119400000Y-102960000D01*
X134140000Y-97750000D02*
X135140000Y-98250000D01*
X135140000Y-97250000D02*
X134140000Y-97750000D01*
X135140000Y-98250000D02*
X135140000Y-97250000D01*
X154592224Y-78167500D02*
X154082776Y-78167500D01*
X154592224Y-79212500D02*
X154082776Y-79212500D01*
X146972224Y-86167500D02*
X146462776Y-86167500D01*
X146972224Y-87212500D02*
X146462776Y-87212500D01*
X157082776Y-61227500D02*
X157592224Y-61227500D01*
X157082776Y-62272500D02*
X157592224Y-62272500D01*
X164041233Y-60990000D02*
X164333767Y-60990000D01*
X164041233Y-62010000D02*
X164333767Y-62010000D01*
X150782224Y-94167500D02*
X150272776Y-94167500D01*
X150782224Y-95212500D02*
X150272776Y-95212500D01*
X146972224Y-94167500D02*
X146462776Y-94167500D01*
X146972224Y-95212500D02*
X146462776Y-95212500D01*
X148587500Y-44777500D02*
X146387500Y-44777500D01*
X148587500Y-44777500D02*
X150787500Y-44777500D01*
X148587500Y-49997500D02*
X146387500Y-49997500D01*
X148587500Y-49997500D02*
X150787500Y-49997500D01*
X145687500Y-44977500D02*
X145447500Y-44647500D01*
X145927500Y-44647500D01*
X145687500Y-44977500D01*
G36*
X145687500Y-44977500D02*
G01*
X145447500Y-44647500D01*
X145927500Y-44647500D01*
X145687500Y-44977500D01*
G37*
X146972224Y-90167500D02*
X146462776Y-90167500D01*
X146972224Y-91212500D02*
X146462776Y-91212500D01*
X156907776Y-57227500D02*
X157417224Y-57227500D01*
X156907776Y-58272500D02*
X157417224Y-58272500D01*
X150782224Y-96167500D02*
X150272776Y-96167500D01*
X150782224Y-97212500D02*
X150272776Y-97212500D01*
X138050000Y-69300000D02*
X139950000Y-69300000D01*
X138050000Y-71200000D02*
X138050000Y-69300000D01*
X139950000Y-69300000D02*
X139950000Y-71200000D01*
X139950000Y-71200000D02*
X138050000Y-71200000D01*
X149127500Y-67603733D02*
X149127500Y-67896267D01*
X150147500Y-67603733D02*
X150147500Y-67896267D01*
X150782224Y-90167500D02*
X150272776Y-90167500D01*
X150782224Y-91212500D02*
X150272776Y-91212500D01*
X150782224Y-80167500D02*
X150272776Y-80167500D01*
X150782224Y-81212500D02*
X150272776Y-81212500D01*
X146972224Y-80167500D02*
X146462776Y-80167500D01*
X146972224Y-81212500D02*
X146462776Y-81212500D01*
X142327500Y-48783767D02*
X142327500Y-48491233D01*
X143347500Y-48783767D02*
X143347500Y-48491233D01*
%LPC*%
D13*
X151440000Y-86690000D03*
X149615000Y-86690000D03*
X147630000Y-92690000D03*
X145805000Y-92690000D03*
D14*
X152975000Y-63500000D03*
X151250000Y-63500000D03*
D13*
X151440000Y-78690000D03*
X149615000Y-78690000D03*
D15*
X177500000Y-106500000D03*
X179325000Y-106500000D03*
X143837500Y-58250000D03*
X145662500Y-58250000D03*
D13*
X155250000Y-90690000D03*
X153425000Y-90690000D03*
X151440000Y-76690000D03*
X149615000Y-76690000D03*
D16*
X142837500Y-46000000D03*
X142837500Y-44275000D03*
D13*
X155250000Y-88690000D03*
X153425000Y-88690000D03*
X155250000Y-98500000D03*
X153425000Y-98500000D03*
D17*
X163275000Y-63500000D03*
X165000000Y-63500000D03*
D18*
X150840000Y-60450000D03*
X150840000Y-61100000D03*
X150840000Y-61750000D03*
X153500000Y-61750000D03*
X153500000Y-61100000D03*
X153500000Y-60450000D03*
D13*
X147630000Y-82690000D03*
X145805000Y-82690000D03*
X151440000Y-92690000D03*
X149615000Y-92690000D03*
X173500000Y-46000000D03*
X171675000Y-46000000D03*
X147630000Y-84690000D03*
X145805000Y-84690000D03*
D15*
X143925000Y-60250000D03*
X145750000Y-60250000D03*
D13*
X147630000Y-98500000D03*
X145805000Y-98500000D03*
D15*
X156337500Y-63500000D03*
X158162500Y-63500000D03*
D13*
X147630000Y-78690000D03*
X145805000Y-78690000D03*
D15*
X145425000Y-43637500D03*
X147250000Y-43637500D03*
D13*
X173500000Y-43250000D03*
X171675000Y-43250000D03*
X155250000Y-80690000D03*
X153425000Y-80690000D03*
D17*
X163325000Y-59655000D03*
X165050000Y-59655000D03*
D13*
X173500000Y-49000000D03*
X171675000Y-49000000D03*
X151440000Y-98500000D03*
X149615000Y-98500000D03*
X151440000Y-84690000D03*
X149615000Y-84690000D03*
D17*
X163387500Y-57750000D03*
X165112500Y-57750000D03*
D13*
X155250000Y-92690000D03*
X153425000Y-92690000D03*
X155250000Y-96690000D03*
X153425000Y-96690000D03*
X155250000Y-94690000D03*
X153425000Y-94690000D03*
X151440000Y-82690000D03*
X149615000Y-82690000D03*
X155250000Y-76690000D03*
X153425000Y-76690000D03*
D14*
X153250000Y-71000000D03*
X151525000Y-71000000D03*
D13*
X147630000Y-76690000D03*
X145805000Y-76690000D03*
D19*
X175500000Y-77830000D03*
D20*
X175500000Y-75290000D03*
X175500000Y-72750000D03*
D15*
X156337500Y-59750000D03*
X158162500Y-59750000D03*
X170587500Y-75500000D03*
X172412500Y-75500000D03*
D21*
X186250000Y-40500000D03*
X183750000Y-43000000D03*
X186250000Y-48000000D03*
X183750000Y-53000000D03*
X186250000Y-55500000D03*
X181250000Y-48000000D03*
X196250000Y-43000000D03*
X196250000Y-53000000D03*
D15*
X170587500Y-72750000D03*
X172412500Y-72750000D03*
D13*
X155250000Y-82690000D03*
X153425000Y-82690000D03*
D15*
X143925000Y-64250000D03*
X145750000Y-64250000D03*
D22*
X154087500Y-46775000D03*
X154087500Y-48500000D03*
D13*
X151440000Y-88690000D03*
X149615000Y-88690000D03*
X179250000Y-100750000D03*
X177425000Y-100750000D03*
X155250000Y-84690000D03*
X153425000Y-84690000D03*
D23*
X183350000Y-72305000D03*
D24*
X188250000Y-74210000D03*
X183350000Y-76115000D03*
X188250000Y-78020000D03*
X183350000Y-79925000D03*
X188250000Y-81830000D03*
X183350000Y-83735000D03*
X188250000Y-85640000D03*
X183350000Y-87545000D03*
X188250000Y-89450000D03*
X183350000Y-91355000D03*
X188250000Y-93260000D03*
X183350000Y-95165000D03*
X188250000Y-97070000D03*
X183350000Y-98975000D03*
X188250000Y-100880000D03*
X183350000Y-102785000D03*
X188250000Y-104690000D03*
X183350000Y-106595000D03*
X188250000Y-108500000D03*
X183350000Y-110405000D03*
D13*
X147630000Y-88690000D03*
X145805000Y-88690000D03*
D25*
X167187500Y-45450000D03*
X167187500Y-46100000D03*
X167187500Y-46750000D03*
X169087500Y-46750000D03*
X169087500Y-46100000D03*
X169087500Y-45450000D03*
D26*
X160500000Y-46500000D03*
D15*
X143925000Y-62250000D03*
X145750000Y-62250000D03*
D13*
X147630000Y-96690000D03*
X145805000Y-96690000D03*
D26*
X160500000Y-51500000D03*
D27*
X151487500Y-69250000D03*
X153387500Y-69250000D03*
X152437500Y-66975000D03*
D13*
X155250000Y-86690000D03*
X153425000Y-86690000D03*
D26*
X160500000Y-41500000D03*
D28*
X132790000Y-97750000D03*
D29*
X130250000Y-97750000D03*
X132790000Y-95210000D03*
X130250000Y-95210000D03*
X132790000Y-92670000D03*
X130250000Y-92670000D03*
X132790000Y-90130000D03*
X130250000Y-90130000D03*
X132790000Y-87590000D03*
X130250000Y-87590000D03*
X132790000Y-85050000D03*
X130250000Y-85050000D03*
X132790000Y-82510000D03*
X130250000Y-82510000D03*
X132790000Y-79970000D03*
X130250000Y-79970000D03*
X132790000Y-77430000D03*
X130250000Y-77430000D03*
X132790000Y-74890000D03*
X130250000Y-74890000D03*
X132790000Y-72350000D03*
X130250000Y-72350000D03*
X132790000Y-69810000D03*
X130250000Y-69810000D03*
X132790000Y-67270000D03*
X130250000Y-67270000D03*
X132790000Y-64730000D03*
X130250000Y-64730000D03*
X132790000Y-62190000D03*
X130250000Y-62190000D03*
X132790000Y-59650000D03*
X130250000Y-59650000D03*
X132790000Y-57110000D03*
X130250000Y-57110000D03*
D13*
X155250000Y-78690000D03*
X153425000Y-78690000D03*
X147630000Y-86690000D03*
X145805000Y-86690000D03*
D15*
X156425000Y-61750000D03*
X158250000Y-61750000D03*
D17*
X163325000Y-61500000D03*
X165050000Y-61500000D03*
D13*
X151440000Y-94690000D03*
X149615000Y-94690000D03*
X147630000Y-94690000D03*
X145805000Y-94690000D03*
D30*
X145725000Y-45437500D03*
X145725000Y-46087500D03*
X145725000Y-46737500D03*
X145725000Y-47387500D03*
X145725000Y-48037500D03*
X145725000Y-48687500D03*
X145725000Y-49337500D03*
X151450000Y-49337500D03*
X151450000Y-48687500D03*
X151450000Y-48037500D03*
X151450000Y-47387500D03*
X151450000Y-46737500D03*
X151450000Y-46087500D03*
X151450000Y-45437500D03*
D13*
X147630000Y-90690000D03*
X145805000Y-90690000D03*
D15*
X156250000Y-57750000D03*
X158075000Y-57750000D03*
D13*
X151440000Y-96690000D03*
X149615000Y-96690000D03*
D26*
X139000000Y-70250000D03*
D22*
X149637500Y-66887500D03*
X149637500Y-68612500D03*
D13*
X151440000Y-90690000D03*
X149615000Y-90690000D03*
X151440000Y-80690000D03*
X149615000Y-80690000D03*
X147630000Y-80690000D03*
X145805000Y-80690000D03*
D16*
X142837500Y-49500000D03*
X142837500Y-47775000D03*
%LPD*%
M02*
