G04 #@! TF.GenerationSoftware,KiCad,Pcbnew,8.0.4+dfsg-1*
G04 #@! TF.CreationDate,2025-03-15T13:20:51+01:00*
G04 #@! TF.ProjectId,olimex-ice40-scart-header,6f6c696d-6578-42d6-9963-6534302d7363,rev?*
G04 #@! TF.SameCoordinates,Original*
G04 #@! TF.FileFunction,Copper,L4,Bot*
G04 #@! TF.FilePolarity,Positive*
%FSLAX46Y46*%
G04 Gerber Fmt 4.6, Leading zero omitted, Abs format (unit mm)*
G04 Created by KiCad (PCBNEW 8.0.4+dfsg-1) date 2025-03-15 13:20:51*
%MOMM*%
%LPD*%
G01*
G04 APERTURE LIST*
G04 Aperture macros list*
%AMRoundRect*
0 Rectangle with rounded corners*
0 $1 Rounding radius*
0 $2 $3 $4 $5 $6 $7 $8 $9 X,Y pos of 4 corners*
0 Add a 4 corners polygon primitive as box body*
4,1,4,$2,$3,$4,$5,$6,$7,$8,$9,$2,$3,0*
0 Add four circle primitives for the rounded corners*
1,1,$1+$1,$2,$3*
1,1,$1+$1,$4,$5*
1,1,$1+$1,$6,$7*
1,1,$1+$1,$8,$9*
0 Add four rect primitives between the rounded corners*
20,1,$1+$1,$2,$3,$4,$5,0*
20,1,$1+$1,$4,$5,$6,$7,0*
20,1,$1+$1,$6,$7,$8,$9,0*
20,1,$1+$1,$8,$9,$2,$3,0*%
G04 Aperture macros list end*
G04 #@! TA.AperFunction,ComponentPad*
%ADD10R,1.700000X1.700000*%
G04 #@! TD*
G04 #@! TA.AperFunction,ComponentPad*
%ADD11O,1.700000X1.700000*%
G04 #@! TD*
G04 #@! TA.AperFunction,ComponentPad*
%ADD12C,2.500000*%
G04 #@! TD*
G04 #@! TA.AperFunction,ComponentPad*
%ADD13R,2.400000X2.400000*%
G04 #@! TD*
G04 #@! TA.AperFunction,ComponentPad*
%ADD14C,2.400000*%
G04 #@! TD*
G04 #@! TA.AperFunction,ComponentPad*
%ADD15RoundRect,0.250000X0.600000X0.600000X-0.600000X0.600000X-0.600000X-0.600000X0.600000X-0.600000X0*%
G04 #@! TD*
G04 #@! TA.AperFunction,ComponentPad*
%ADD16C,1.700000*%
G04 #@! TD*
G04 #@! TA.AperFunction,ViaPad*
%ADD17C,0.800000*%
G04 #@! TD*
G04 #@! TA.AperFunction,Conductor*
%ADD18C,0.250000*%
G04 #@! TD*
G04 APERTURE END LIST*
D10*
X175500000Y-77830000D03*
D11*
X175500000Y-75290000D03*
X175500000Y-72750000D03*
D12*
X186250000Y-40500000D03*
X183750000Y-43000000D03*
X186250000Y-48000000D03*
X183750000Y-53000000D03*
X186250000Y-55500000D03*
X181250000Y-48000000D03*
X196250000Y-43000000D03*
X196250000Y-53000000D03*
D13*
X183350000Y-72305000D03*
D14*
X188250000Y-74210000D03*
X183350000Y-76115000D03*
X188250000Y-78020000D03*
X183350000Y-79925000D03*
X188250000Y-81830000D03*
X183350000Y-83735000D03*
X188250000Y-85640000D03*
X183350000Y-87545000D03*
X188250000Y-89450000D03*
X183350000Y-91355000D03*
X188250000Y-93260000D03*
X183350000Y-95165000D03*
X188250000Y-97070000D03*
X183350000Y-98975000D03*
X188250000Y-100880000D03*
X183350000Y-102785000D03*
X188250000Y-104690000D03*
X183350000Y-106595000D03*
X188250000Y-108500000D03*
X183350000Y-110405000D03*
D15*
X132790000Y-97750000D03*
D16*
X130250000Y-97750000D03*
X132790000Y-95210000D03*
X130250000Y-95210000D03*
X132790000Y-92670000D03*
X130250000Y-92670000D03*
X132790000Y-90130000D03*
X130250000Y-90130000D03*
X132790000Y-87590000D03*
X130250000Y-87590000D03*
X132790000Y-85050000D03*
X130250000Y-85050000D03*
X132790000Y-82510000D03*
X130250000Y-82510000D03*
X132790000Y-79970000D03*
X130250000Y-79970000D03*
X132790000Y-77430000D03*
X130250000Y-77430000D03*
X132790000Y-74890000D03*
X130250000Y-74890000D03*
X132790000Y-72350000D03*
X130250000Y-72350000D03*
X132790000Y-69810000D03*
X130250000Y-69810000D03*
X132790000Y-67270000D03*
X130250000Y-67270000D03*
X132790000Y-64730000D03*
X130250000Y-64730000D03*
X132790000Y-62190000D03*
X130250000Y-62190000D03*
X132790000Y-59650000D03*
X130250000Y-59650000D03*
X132790000Y-57110000D03*
X130250000Y-57110000D03*
D17*
X147750000Y-67000000D03*
X141500000Y-47750000D03*
X137000000Y-58750000D03*
X150250000Y-71000000D03*
X148500000Y-68500000D03*
X156000000Y-48500000D03*
X146750000Y-52000000D03*
X181500000Y-41250000D03*
X170500000Y-76750000D03*
X163250000Y-43500000D03*
X161500000Y-60500000D03*
X151250000Y-64750000D03*
X156250000Y-56500000D03*
X137250000Y-67000000D03*
X141500000Y-44250000D03*
X173250000Y-70250000D03*
X153000000Y-43250000D03*
X156250000Y-64750000D03*
X144000000Y-65500000D03*
X175750000Y-44500000D03*
X142500000Y-84000000D03*
X144000000Y-57000000D03*
X166500000Y-59500000D03*
X138500000Y-53500000D03*
X147250000Y-42500000D03*
X163250000Y-50000000D03*
X140250000Y-49500000D03*
X175750000Y-100750000D03*
X140250000Y-46000000D03*
X170250000Y-46250000D03*
X154000000Y-45500000D03*
X155250000Y-96690000D03*
X155250000Y-92690000D03*
X146892499Y-96582196D03*
X155250000Y-88690000D03*
X147025000Y-92690000D03*
X135750000Y-91025000D03*
X136250000Y-92500000D03*
X155250000Y-86690000D03*
X147025000Y-88690000D03*
X135750000Y-86865000D03*
X135750000Y-88315000D03*
X155250000Y-82690000D03*
X147025000Y-84690000D03*
X136000000Y-83250000D03*
X136000000Y-81785000D03*
X155250000Y-78690000D03*
X147025000Y-80695000D03*
X136000000Y-80695000D03*
X136000000Y-79245000D03*
X151440000Y-98500000D03*
X137250000Y-98475000D03*
X137250000Y-79245000D03*
X147025000Y-76690000D03*
X151440000Y-92690000D03*
X138250000Y-79245000D03*
X138250000Y-93250000D03*
X139000000Y-89250000D03*
X151440000Y-88690000D03*
X139000000Y-76000000D03*
X151440000Y-86690000D03*
X140000000Y-76000000D03*
X140000000Y-86250000D03*
X147057062Y-48497059D03*
X151440000Y-80695000D03*
X156500000Y-80750000D03*
X141000003Y-76000000D03*
X151440000Y-76690000D03*
X176250000Y-106500000D03*
X141250000Y-66000000D03*
X139500000Y-66000000D03*
X156500000Y-83750000D03*
X148750000Y-83750000D03*
X156500000Y-89750000D03*
X152500000Y-89750000D03*
X148750000Y-64250000D03*
X148500000Y-59200000D03*
X151500000Y-51250000D03*
X149750000Y-48500000D03*
X149750000Y-46725000D03*
X155275000Y-46500000D03*
D18*
X155250000Y-96690000D02*
X155250000Y-96000000D01*
X154940000Y-95690000D02*
X135810000Y-95690000D01*
X155250000Y-96000000D02*
X154940000Y-95690000D01*
X135810000Y-95690000D02*
X132790000Y-92670000D01*
X134410000Y-91750000D02*
X132790000Y-90130000D01*
X154500000Y-91750000D02*
X134410000Y-91750000D01*
X155250000Y-92690000D02*
X155250000Y-92500000D01*
X155250000Y-92500000D02*
X154500000Y-91750000D01*
X132303299Y-93845000D02*
X131615000Y-93156701D01*
X131615000Y-88955000D02*
X130250000Y-87590000D01*
X146450303Y-96140000D02*
X135623604Y-96140000D01*
X135623604Y-96140000D02*
X133328604Y-93845000D01*
X131615000Y-93156701D02*
X131615000Y-88955000D01*
X133328604Y-93845000D02*
X132303299Y-93845000D01*
X146892499Y-96582196D02*
X146450303Y-96140000D01*
X154150000Y-87590000D02*
X155250000Y-88690000D01*
X132790000Y-87590000D02*
X154150000Y-87590000D01*
X146835000Y-92500000D02*
X147025000Y-92690000D01*
X131425000Y-87886701D02*
X132303299Y-88765000D01*
X133490000Y-88765000D02*
X135750000Y-91025000D01*
X132303299Y-88765000D02*
X133490000Y-88765000D01*
X130250000Y-85050000D02*
X131425000Y-86225000D01*
X136250000Y-92500000D02*
X146835000Y-92500000D01*
X131425000Y-86225000D02*
X131425000Y-87886701D01*
X143750000Y-86000000D02*
X141000000Y-86000000D01*
X143785000Y-85965000D02*
X154525000Y-85965000D01*
X143750000Y-86000000D02*
X143785000Y-85965000D01*
X154525000Y-85965000D02*
X155250000Y-86690000D01*
X141000000Y-86000000D02*
X140500000Y-85500000D01*
X133800000Y-85050000D02*
X134250000Y-85500000D01*
X134250000Y-85500000D02*
X140500000Y-85500000D01*
X132790000Y-85050000D02*
X133800000Y-85050000D01*
X135750000Y-88315000D02*
X146650000Y-88315000D01*
X131425000Y-83685000D02*
X131425000Y-85425000D01*
X146650000Y-88315000D02*
X147025000Y-88690000D01*
X132415000Y-86415000D02*
X135300000Y-86415000D01*
X131425000Y-85425000D02*
X132415000Y-86415000D01*
X135300000Y-86415000D02*
X135750000Y-86865000D01*
X130250000Y-82510000D02*
X131425000Y-83685000D01*
X154310000Y-81750000D02*
X137260000Y-81750000D01*
X155250000Y-82690000D02*
X154310000Y-81750000D01*
X137260000Y-81750000D02*
X136500000Y-82510000D01*
X136500000Y-82510000D02*
X132790000Y-82510000D01*
X137446396Y-82200000D02*
X136396396Y-83250000D01*
X135550000Y-81335000D02*
X136000000Y-81785000D01*
X147025000Y-84690000D02*
X144535000Y-82200000D01*
X136396396Y-83250000D02*
X136000000Y-83250000D01*
X130250000Y-79970000D02*
X131615000Y-81335000D01*
X144535000Y-82200000D02*
X137446396Y-82200000D01*
X131615000Y-81335000D02*
X135550000Y-81335000D01*
X132790000Y-79970000D02*
X153970000Y-79970000D01*
X153970000Y-79970000D02*
X155250000Y-78690000D01*
X135360000Y-78605000D02*
X136000000Y-79245000D01*
X136000000Y-80695000D02*
X147025000Y-80695000D01*
X131425000Y-78605000D02*
X135360000Y-78605000D01*
X130250000Y-77430000D02*
X131425000Y-78605000D01*
X135435000Y-77430000D02*
X137250000Y-79245000D01*
X132790000Y-77430000D02*
X135435000Y-77430000D01*
X151415000Y-98475000D02*
X151440000Y-98500000D01*
X137250000Y-98475000D02*
X151415000Y-98475000D01*
X136750000Y-76750000D02*
X146965000Y-76750000D01*
X131425000Y-73715000D02*
X133715000Y-73715000D01*
X130250000Y-74890000D02*
X131425000Y-73715000D01*
X146965000Y-76750000D02*
X147025000Y-76690000D01*
X133715000Y-73715000D02*
X136750000Y-76750000D01*
X133992081Y-74890000D02*
X138250000Y-79147919D01*
X132790000Y-74890000D02*
X133992081Y-74890000D01*
X150715000Y-93415000D02*
X151440000Y-92690000D01*
X138250000Y-79147919D02*
X138250000Y-79245000D01*
X138415000Y-93415000D02*
X150715000Y-93415000D01*
X138250000Y-93250000D02*
X138415000Y-93415000D01*
X139165000Y-89415000D02*
X150715000Y-89415000D01*
X139000000Y-76000000D02*
X136636396Y-76000000D01*
X150715000Y-89415000D02*
X151440000Y-88690000D01*
X139000000Y-89250000D02*
X139165000Y-89415000D01*
X132986396Y-72350000D02*
X132790000Y-72350000D01*
X136636396Y-76000000D02*
X132986396Y-72350000D01*
X140000000Y-76000000D02*
X140000000Y-75974695D01*
X134261396Y-72988604D02*
X134261396Y-71281396D01*
X139275305Y-75250000D02*
X136522792Y-75250000D01*
X140000000Y-75974695D02*
X139275305Y-75250000D01*
X140890000Y-87140000D02*
X151000000Y-87140000D01*
X134261396Y-71281396D02*
X132790000Y-69810000D01*
X151000000Y-87140000D02*
X151000000Y-87130000D01*
X140000000Y-86250000D02*
X140890000Y-87140000D01*
X151000000Y-87130000D02*
X151440000Y-86690000D01*
X136522792Y-75250000D02*
X134261396Y-72988604D01*
X147057062Y-48497059D02*
X151560003Y-53000000D01*
X151560003Y-53000000D02*
X183750000Y-53000000D01*
X141000003Y-75974698D02*
X139775305Y-74750000D01*
X134711396Y-69191396D02*
X132790000Y-67270000D01*
X141000003Y-76000000D02*
X141000003Y-75974698D01*
X156500000Y-80750000D02*
X151495000Y-80750000D01*
X151495000Y-80750000D02*
X151440000Y-80695000D01*
X139775305Y-74750000D02*
X136659188Y-74750000D01*
X136659188Y-74750000D02*
X134711396Y-72802208D01*
X134711396Y-72802208D02*
X134711396Y-69191396D01*
X140750000Y-74250000D02*
X136795584Y-74250000D01*
X142000000Y-75500000D02*
X140750000Y-74250000D01*
X135522792Y-72977208D02*
X135522792Y-67462792D01*
X136795584Y-74250000D02*
X135522792Y-72977208D01*
X151440000Y-76690000D02*
X150250000Y-75500000D01*
X150250000Y-75500000D02*
X142000000Y-75500000D01*
X135522792Y-67462792D02*
X132790000Y-64730000D01*
X175025000Y-105275000D02*
X175025000Y-92200000D01*
X176250000Y-106500000D02*
X175025000Y-105275000D01*
X145015000Y-62190000D02*
X132790000Y-62190000D01*
X175025000Y-92200000D02*
X145015000Y-62190000D01*
X175500000Y-75290000D02*
X182525000Y-75290000D01*
X182525000Y-75290000D02*
X183350000Y-76115000D01*
X175500000Y-72750000D02*
X182905000Y-72750000D01*
X182905000Y-72750000D02*
X183350000Y-72305000D01*
X139500000Y-66000000D02*
X141250000Y-66000000D01*
X148750000Y-83750000D02*
X156500000Y-83750000D01*
X152500000Y-89750000D02*
X156500000Y-89750000D01*
X148500000Y-59200000D02*
X148500000Y-64000000D01*
X148500000Y-64000000D02*
X148750000Y-64250000D01*
X149750000Y-49500000D02*
X149750000Y-48500000D01*
X151500000Y-51250000D02*
X149750000Y-49500000D01*
X155275000Y-46500000D02*
X155750000Y-46500000D01*
X149975000Y-46500000D02*
X149750000Y-46725000D01*
X155750000Y-46500000D02*
X149975000Y-46500000D01*
G04 #@! TA.AperFunction,Conductor*
G36*
X131364925Y-95971373D02*
G01*
X131418119Y-95895405D01*
X131472696Y-95851781D01*
X131542195Y-95844588D01*
X131604549Y-95876110D01*
X131621269Y-95895405D01*
X131751505Y-96081401D01*
X131918599Y-96248495D01*
X131918604Y-96248499D01*
X131919968Y-96249643D01*
X131920407Y-96250303D01*
X131922427Y-96252323D01*
X131922021Y-96252728D01*
X131958669Y-96307815D01*
X131959776Y-96377676D01*
X131922937Y-96437046D01*
X131879267Y-96462336D01*
X131870669Y-96465184D01*
X131870663Y-96465187D01*
X131721342Y-96557289D01*
X131597289Y-96681342D01*
X131505187Y-96830663D01*
X131505182Y-96830674D01*
X131481205Y-96903032D01*
X131441432Y-96960477D01*
X131376916Y-96987299D01*
X131366138Y-96987412D01*
X130732962Y-97620589D01*
X130715925Y-97557007D01*
X130650099Y-97442993D01*
X130557007Y-97349901D01*
X130442993Y-97284075D01*
X130379410Y-97267037D01*
X131011373Y-96635073D01*
X130934969Y-96581576D01*
X130891344Y-96526999D01*
X130884150Y-96457501D01*
X130915672Y-96395146D01*
X130934968Y-96378425D01*
X131011373Y-96324925D01*
X130379409Y-95692962D01*
X130442993Y-95675925D01*
X130557007Y-95610099D01*
X130650099Y-95517007D01*
X130715925Y-95402993D01*
X130732962Y-95339410D01*
X131364925Y-95971373D01*
G37*
G04 #@! TD.AperFunction*
G04 #@! TA.AperFunction,Conductor*
G36*
X131254771Y-93691179D02*
G01*
X131289181Y-93715472D01*
X131744527Y-94170818D01*
X131778012Y-94232141D01*
X131773028Y-94301833D01*
X131754311Y-94333955D01*
X131754610Y-94334164D01*
X131752106Y-94337738D01*
X131751837Y-94338202D01*
X131751508Y-94338594D01*
X131621269Y-94524595D01*
X131566692Y-94568220D01*
X131497194Y-94575414D01*
X131434839Y-94543891D01*
X131418119Y-94524595D01*
X131364925Y-94448626D01*
X131364925Y-94448625D01*
X130732962Y-95080589D01*
X130715925Y-95017007D01*
X130650099Y-94902993D01*
X130557007Y-94809901D01*
X130442993Y-94744075D01*
X130379410Y-94727037D01*
X131011373Y-94095073D01*
X131011373Y-94095072D01*
X130935405Y-94041880D01*
X130891780Y-93987304D01*
X130884586Y-93917805D01*
X130916108Y-93855451D01*
X130935399Y-93838734D01*
X131121401Y-93708495D01*
X131121420Y-93708475D01*
X131121774Y-93708180D01*
X131121980Y-93708089D01*
X131125836Y-93705390D01*
X131126377Y-93706163D01*
X131185776Y-93680154D01*
X131254771Y-93691179D01*
G37*
G04 #@! TD.AperFunction*
G04 #@! TA.AperFunction,Conductor*
G36*
X144291587Y-82845185D02*
G01*
X144312229Y-82861819D01*
X146086038Y-84635628D01*
X146119523Y-84696951D01*
X146121678Y-84710347D01*
X146129139Y-84781338D01*
X146139326Y-84878256D01*
X146139327Y-84878259D01*
X146197818Y-85058277D01*
X146197821Y-85058284D01*
X146225143Y-85105608D01*
X146252794Y-85153500D01*
X146269267Y-85221400D01*
X146246414Y-85287427D01*
X146191493Y-85330618D01*
X146145407Y-85339500D01*
X143723388Y-85339500D01*
X143605815Y-85362886D01*
X143605816Y-85362887D01*
X143602552Y-85363536D01*
X143602544Y-85363538D01*
X143598869Y-85365061D01*
X143551417Y-85374500D01*
X141310452Y-85374500D01*
X141243413Y-85354815D01*
X141222771Y-85338181D01*
X140990198Y-85105608D01*
X140990178Y-85105586D01*
X140898733Y-85014141D01*
X140847509Y-84979915D01*
X140796287Y-84945689D01*
X140796286Y-84945688D01*
X140796283Y-84945686D01*
X140796280Y-84945685D01*
X140715792Y-84912347D01*
X140682453Y-84898537D01*
X140672427Y-84896543D01*
X140622029Y-84886518D01*
X140561610Y-84874500D01*
X140561607Y-84874500D01*
X140561606Y-84874500D01*
X134560452Y-84874500D01*
X134493413Y-84854815D01*
X134472771Y-84838181D01*
X134290198Y-84655608D01*
X134290178Y-84655586D01*
X134198735Y-84564143D01*
X134153848Y-84534151D01*
X134134358Y-84521128D01*
X134096286Y-84495688D01*
X134096284Y-84495687D01*
X134048311Y-84475816D01*
X133993908Y-84431975D01*
X133983382Y-84413660D01*
X133964035Y-84372171D01*
X133964034Y-84372169D01*
X133828494Y-84178597D01*
X133661402Y-84011506D01*
X133661396Y-84011501D01*
X133475842Y-83881575D01*
X133432217Y-83826998D01*
X133425023Y-83757500D01*
X133456546Y-83695145D01*
X133475842Y-83678425D01*
X133518252Y-83648729D01*
X133661401Y-83548495D01*
X133828495Y-83381401D01*
X133963652Y-83188377D01*
X134018229Y-83144752D01*
X134065227Y-83135500D01*
X134970856Y-83135500D01*
X135037895Y-83155185D01*
X135083650Y-83207989D01*
X135094177Y-83246539D01*
X135094540Y-83249996D01*
X135094540Y-83250000D01*
X135114326Y-83438256D01*
X135114327Y-83438259D01*
X135172818Y-83618277D01*
X135172821Y-83618284D01*
X135267467Y-83782216D01*
X135309463Y-83828857D01*
X135394129Y-83922888D01*
X135547265Y-84034148D01*
X135547270Y-84034151D01*
X135720192Y-84111142D01*
X135720197Y-84111144D01*
X135905354Y-84150500D01*
X135905355Y-84150500D01*
X136094644Y-84150500D01*
X136094646Y-84150500D01*
X136279803Y-84111144D01*
X136452730Y-84034151D01*
X136605871Y-83922888D01*
X136732410Y-83782351D01*
X136755666Y-83762225D01*
X136795129Y-83735858D01*
X136882254Y-83648733D01*
X136882255Y-83648731D01*
X136889321Y-83641665D01*
X136889323Y-83641661D01*
X137669167Y-82861819D01*
X137730490Y-82828334D01*
X137756848Y-82825500D01*
X144224548Y-82825500D01*
X144291587Y-82845185D01*
G37*
G04 #@! TD.AperFunction*
G04 #@! TA.AperFunction,Conductor*
G36*
X198693039Y-37319685D02*
G01*
X198738794Y-37372489D01*
X198750000Y-37424000D01*
X198750000Y-120126000D01*
X198730315Y-120193039D01*
X198677511Y-120238794D01*
X198626000Y-120250000D01*
X118874000Y-120250000D01*
X118806961Y-120230315D01*
X118761206Y-120177511D01*
X118750000Y-120126000D01*
X118750000Y-118855000D01*
X188350000Y-118855000D01*
X191850000Y-118855000D01*
X191850000Y-116355000D01*
X188350000Y-116355000D01*
X188350000Y-118855000D01*
X118750000Y-118855000D01*
X118750000Y-110404995D01*
X181645233Y-110404995D01*
X181645233Y-110405004D01*
X181664273Y-110659079D01*
X181720968Y-110907477D01*
X181720973Y-110907494D01*
X181814058Y-111144671D01*
X181814057Y-111144671D01*
X181941454Y-111365327D01*
X181941461Y-111365338D01*
X181983452Y-111417991D01*
X181983453Y-111417992D01*
X182785387Y-110616058D01*
X182790889Y-110636591D01*
X182869881Y-110773408D01*
X182981592Y-110885119D01*
X183118409Y-110964111D01*
X183138940Y-110969612D01*
X182336813Y-111771738D01*
X182497616Y-111881371D01*
X182497624Y-111881376D01*
X182727176Y-111991921D01*
X182727174Y-111991921D01*
X182970652Y-112067024D01*
X182970658Y-112067026D01*
X183222595Y-112104999D01*
X183222604Y-112105000D01*
X183477396Y-112105000D01*
X183477404Y-112104999D01*
X183729341Y-112067026D01*
X183729347Y-112067024D01*
X183972824Y-111991921D01*
X184202376Y-111881376D01*
X184202377Y-111881375D01*
X184363185Y-111771738D01*
X183561060Y-110969612D01*
X183581591Y-110964111D01*
X183718408Y-110885119D01*
X183830119Y-110773408D01*
X183909111Y-110636591D01*
X183914612Y-110616059D01*
X184716544Y-111417992D01*
X184716546Y-111417991D01*
X184758544Y-111365330D01*
X184885941Y-111144671D01*
X184979026Y-110907494D01*
X184979031Y-110907477D01*
X185035726Y-110659079D01*
X185054767Y-110405004D01*
X185054767Y-110404995D01*
X185035726Y-110150920D01*
X184979031Y-109902522D01*
X184979026Y-109902505D01*
X184885941Y-109665328D01*
X184885942Y-109665328D01*
X184758545Y-109444672D01*
X184716545Y-109392006D01*
X183914612Y-110193939D01*
X183909111Y-110173409D01*
X183830119Y-110036592D01*
X183718408Y-109924881D01*
X183581591Y-109845889D01*
X183561059Y-109840387D01*
X184363185Y-109038260D01*
X184202384Y-108928628D01*
X184202376Y-108928623D01*
X183972823Y-108818078D01*
X183972825Y-108818078D01*
X183729347Y-108742975D01*
X183729341Y-108742973D01*
X183477404Y-108705000D01*
X183222595Y-108705000D01*
X182970658Y-108742973D01*
X182970652Y-108742975D01*
X182727175Y-108818078D01*
X182497622Y-108928625D01*
X182497609Y-108928632D01*
X182336813Y-109038259D01*
X183138941Y-109840387D01*
X183118409Y-109845889D01*
X182981592Y-109924881D01*
X182869881Y-110036592D01*
X182790889Y-110173409D01*
X182785387Y-110193941D01*
X181983452Y-109392006D01*
X181941457Y-109444667D01*
X181814058Y-109665328D01*
X181720973Y-109902505D01*
X181720968Y-109902522D01*
X181664273Y-110150920D01*
X181645233Y-110404995D01*
X118750000Y-110404995D01*
X118750000Y-108499995D01*
X186544732Y-108499995D01*
X186544732Y-108500004D01*
X186563777Y-108754154D01*
X186603600Y-108928632D01*
X186620492Y-109002637D01*
X186713607Y-109239888D01*
X186841041Y-109460612D01*
X186999950Y-109659877D01*
X187186783Y-109833232D01*
X187397366Y-109976805D01*
X187397371Y-109976807D01*
X187397372Y-109976808D01*
X187397373Y-109976809D01*
X187519328Y-110035538D01*
X187626992Y-110087387D01*
X187626993Y-110087387D01*
X187626996Y-110087389D01*
X187870542Y-110162513D01*
X188122565Y-110200500D01*
X188377435Y-110200500D01*
X188629458Y-110162513D01*
X188873004Y-110087389D01*
X189102634Y-109976805D01*
X189313217Y-109833232D01*
X189500050Y-109659877D01*
X189658959Y-109460612D01*
X189786393Y-109239888D01*
X189879508Y-109002637D01*
X189936222Y-108754157D01*
X189955268Y-108500000D01*
X189936222Y-108245843D01*
X189879508Y-107997363D01*
X189786393Y-107760112D01*
X189658959Y-107539388D01*
X189500050Y-107340123D01*
X189313217Y-107166768D01*
X189102634Y-107023195D01*
X189102630Y-107023193D01*
X189102627Y-107023191D01*
X189102626Y-107023190D01*
X188873006Y-106912612D01*
X188873008Y-106912612D01*
X188629466Y-106837489D01*
X188629462Y-106837488D01*
X188629458Y-106837487D01*
X188508231Y-106819214D01*
X188377440Y-106799500D01*
X188377435Y-106799500D01*
X188122565Y-106799500D01*
X188122559Y-106799500D01*
X187965609Y-106823157D01*
X187870542Y-106837487D01*
X187870539Y-106837488D01*
X187870533Y-106837489D01*
X187626992Y-106912612D01*
X187397373Y-107023190D01*
X187397372Y-107023191D01*
X187186782Y-107166768D01*
X186999952Y-107340121D01*
X186999950Y-107340123D01*
X186841041Y-107539388D01*
X186713608Y-107760109D01*
X186620492Y-107997362D01*
X186620490Y-107997369D01*
X186563777Y-108245845D01*
X186544732Y-108499995D01*
X118750000Y-108499995D01*
X118750000Y-57109999D01*
X128894341Y-57109999D01*
X128894341Y-57110000D01*
X128914936Y-57345403D01*
X128914938Y-57345413D01*
X128976094Y-57573655D01*
X128976096Y-57573659D01*
X128976097Y-57573663D01*
X128980000Y-57582032D01*
X129075965Y-57787830D01*
X129075967Y-57787834D01*
X129184281Y-57942521D01*
X129211501Y-57981396D01*
X129211506Y-57981402D01*
X129378597Y-58148493D01*
X129378603Y-58148498D01*
X129564158Y-58278425D01*
X129607783Y-58333002D01*
X129614977Y-58402500D01*
X129583454Y-58464855D01*
X129564158Y-58481575D01*
X129378597Y-58611505D01*
X129211505Y-58778597D01*
X129075965Y-58972169D01*
X129075964Y-58972171D01*
X128976098Y-59186335D01*
X128976094Y-59186344D01*
X128914938Y-59414586D01*
X128914936Y-59414596D01*
X128894341Y-59649999D01*
X128894341Y-59650000D01*
X128914936Y-59885403D01*
X128914938Y-59885413D01*
X128976094Y-60113655D01*
X128976096Y-60113659D01*
X128976097Y-60113663D01*
X128980000Y-60122032D01*
X129075965Y-60327830D01*
X129075967Y-60327834D01*
X129184281Y-60482521D01*
X129211501Y-60521396D01*
X129211506Y-60521402D01*
X129378597Y-60688493D01*
X129378603Y-60688498D01*
X129564158Y-60818425D01*
X129607783Y-60873002D01*
X129614977Y-60942500D01*
X129583454Y-61004855D01*
X129564158Y-61021575D01*
X129378597Y-61151505D01*
X129211505Y-61318597D01*
X129075965Y-61512169D01*
X129075964Y-61512171D01*
X128976098Y-61726335D01*
X128976094Y-61726344D01*
X128914938Y-61954586D01*
X128914936Y-61954596D01*
X128894341Y-62189999D01*
X128894341Y-62190000D01*
X128914936Y-62425403D01*
X128914938Y-62425413D01*
X128976094Y-62653655D01*
X128976096Y-62653659D01*
X128976097Y-62653663D01*
X128980000Y-62662032D01*
X129075965Y-62867830D01*
X129075967Y-62867834D01*
X129184281Y-63022521D01*
X129211501Y-63061396D01*
X129211506Y-63061402D01*
X129378597Y-63228493D01*
X129378603Y-63228498D01*
X129564158Y-63358425D01*
X129607783Y-63413002D01*
X129614977Y-63482500D01*
X129583454Y-63544855D01*
X129564158Y-63561575D01*
X129378597Y-63691505D01*
X129211505Y-63858597D01*
X129075965Y-64052169D01*
X129075964Y-64052171D01*
X128976098Y-64266335D01*
X128976094Y-64266344D01*
X128914938Y-64494586D01*
X128914936Y-64494596D01*
X128894341Y-64729999D01*
X128894341Y-64730000D01*
X128914936Y-64965403D01*
X128914938Y-64965413D01*
X128976094Y-65193655D01*
X128976096Y-65193659D01*
X128976097Y-65193663D01*
X129041292Y-65333474D01*
X129075965Y-65407830D01*
X129075967Y-65407834D01*
X129184281Y-65562521D01*
X129211501Y-65601396D01*
X129211506Y-65601402D01*
X129378597Y-65768493D01*
X129378603Y-65768498D01*
X129564158Y-65898425D01*
X129607783Y-65953002D01*
X129614977Y-66022500D01*
X129583454Y-66084855D01*
X129564158Y-66101575D01*
X129378597Y-66231505D01*
X129211505Y-66398597D01*
X129075965Y-66592169D01*
X129075964Y-66592171D01*
X128976098Y-66806335D01*
X128976094Y-66806344D01*
X128914938Y-67034586D01*
X128914936Y-67034596D01*
X128894341Y-67269999D01*
X128894341Y-67270000D01*
X128914936Y-67505403D01*
X128914938Y-67505413D01*
X128976094Y-67733655D01*
X128976096Y-67733659D01*
X128976097Y-67733663D01*
X128994554Y-67773244D01*
X129075965Y-67947830D01*
X129075967Y-67947834D01*
X129184281Y-68102521D01*
X129211501Y-68141396D01*
X129211506Y-68141402D01*
X129378597Y-68308493D01*
X129378603Y-68308498D01*
X129564158Y-68438425D01*
X129607783Y-68493002D01*
X129614977Y-68562500D01*
X129583454Y-68624855D01*
X129564158Y-68641575D01*
X129378597Y-68771505D01*
X129211505Y-68938597D01*
X129075965Y-69132169D01*
X129075964Y-69132171D01*
X128976098Y-69346335D01*
X128976094Y-69346344D01*
X128914938Y-69574586D01*
X128914936Y-69574596D01*
X128894341Y-69809999D01*
X128894341Y-69810000D01*
X128914936Y-70045403D01*
X128914938Y-70045413D01*
X128976094Y-70273655D01*
X128976096Y-70273659D01*
X128976097Y-70273663D01*
X128980000Y-70282032D01*
X129075965Y-70487830D01*
X129075967Y-70487834D01*
X129157658Y-70604500D01*
X129211501Y-70681396D01*
X129211506Y-70681402D01*
X129378597Y-70848493D01*
X129378603Y-70848498D01*
X129564158Y-70978425D01*
X129607783Y-71033002D01*
X129614977Y-71102500D01*
X129583454Y-71164855D01*
X129564158Y-71181575D01*
X129378597Y-71311505D01*
X129211505Y-71478597D01*
X129075965Y-71672169D01*
X129075964Y-71672171D01*
X128976098Y-71886335D01*
X128976094Y-71886344D01*
X128914938Y-72114586D01*
X128914936Y-72114596D01*
X128894341Y-72349999D01*
X128894341Y-72350000D01*
X128914936Y-72585403D01*
X128914938Y-72585413D01*
X128976094Y-72813655D01*
X128976096Y-72813659D01*
X128976097Y-72813663D01*
X129056181Y-72985403D01*
X129075965Y-73027830D01*
X129075967Y-73027834D01*
X129184281Y-73182521D01*
X129206087Y-73213664D01*
X129211501Y-73221395D01*
X129211506Y-73221402D01*
X129378597Y-73388493D01*
X129378603Y-73388498D01*
X129564158Y-73518425D01*
X129607783Y-73573002D01*
X129614977Y-73642500D01*
X129583454Y-73704855D01*
X129564158Y-73721575D01*
X129378597Y-73851505D01*
X129211505Y-74018597D01*
X129075965Y-74212169D01*
X129075964Y-74212171D01*
X128976098Y-74426335D01*
X128976094Y-74426344D01*
X128914938Y-74654586D01*
X128914936Y-74654596D01*
X128894341Y-74889999D01*
X128894341Y-74890000D01*
X128914936Y-75125403D01*
X128914938Y-75125413D01*
X128976094Y-75353655D01*
X128976096Y-75353659D01*
X128976097Y-75353663D01*
X128986099Y-75375112D01*
X129075965Y-75567830D01*
X129075967Y-75567834D01*
X129149566Y-75672943D01*
X129211501Y-75761396D01*
X129211506Y-75761402D01*
X129378597Y-75928493D01*
X129378603Y-75928498D01*
X129564158Y-76058425D01*
X129607783Y-76113002D01*
X129614977Y-76182500D01*
X129583454Y-76244855D01*
X129564158Y-76261575D01*
X129378597Y-76391505D01*
X129211505Y-76558597D01*
X129075965Y-76752169D01*
X129075964Y-76752171D01*
X128976098Y-76966335D01*
X128976094Y-76966344D01*
X128914938Y-77194586D01*
X128914936Y-77194596D01*
X128894341Y-77429999D01*
X128894341Y-77430000D01*
X128914936Y-77665403D01*
X128914938Y-77665413D01*
X128976094Y-77893655D01*
X128976096Y-77893659D01*
X128976097Y-77893663D01*
X129035007Y-78019995D01*
X129075965Y-78107830D01*
X129075967Y-78107834D01*
X129211501Y-78301395D01*
X129211506Y-78301402D01*
X129378597Y-78468493D01*
X129378603Y-78468498D01*
X129564158Y-78598425D01*
X129607783Y-78653002D01*
X129614977Y-78722500D01*
X129583454Y-78784855D01*
X129564158Y-78801575D01*
X129378597Y-78931505D01*
X129211505Y-79098597D01*
X129075965Y-79292169D01*
X129075964Y-79292171D01*
X128976098Y-79506335D01*
X128976094Y-79506344D01*
X128914938Y-79734586D01*
X128914936Y-79734596D01*
X128894341Y-79969999D01*
X128894341Y-79970000D01*
X128914936Y-80205403D01*
X128914938Y-80205413D01*
X128976094Y-80433655D01*
X128976096Y-80433659D01*
X128976097Y-80433663D01*
X129051563Y-80595500D01*
X129075965Y-80647830D01*
X129075967Y-80647834D01*
X129211501Y-80841395D01*
X129211506Y-80841402D01*
X129378597Y-81008493D01*
X129378603Y-81008498D01*
X129564158Y-81138425D01*
X129607783Y-81193002D01*
X129614977Y-81262500D01*
X129583454Y-81324855D01*
X129564158Y-81341575D01*
X129378597Y-81471505D01*
X129211505Y-81638597D01*
X129075965Y-81832169D01*
X129075964Y-81832171D01*
X128976098Y-82046335D01*
X128976094Y-82046344D01*
X128914938Y-82274586D01*
X128914936Y-82274596D01*
X128894341Y-82509999D01*
X128894341Y-82510000D01*
X128914936Y-82745403D01*
X128914938Y-82745413D01*
X128976094Y-82973655D01*
X128976096Y-82973659D01*
X128976097Y-82973663D01*
X129045587Y-83122684D01*
X129075965Y-83187830D01*
X129075967Y-83187834D01*
X129159272Y-83306805D01*
X129211501Y-83381396D01*
X129211506Y-83381402D01*
X129378597Y-83548493D01*
X129378603Y-83548498D01*
X129564158Y-83678425D01*
X129607783Y-83733002D01*
X129614977Y-83802500D01*
X129583454Y-83864855D01*
X129564158Y-83881575D01*
X129378597Y-84011505D01*
X129211505Y-84178597D01*
X129075965Y-84372169D01*
X129075964Y-84372171D01*
X128976098Y-84586335D01*
X128976094Y-84586344D01*
X128914938Y-84814586D01*
X128914936Y-84814596D01*
X128894341Y-85049999D01*
X128894341Y-85050000D01*
X128914936Y-85285403D01*
X128914938Y-85285413D01*
X128976094Y-85513655D01*
X128976096Y-85513659D01*
X128976097Y-85513663D01*
X129002641Y-85570586D01*
X129075965Y-85727830D01*
X129075967Y-85727834D01*
X129211501Y-85921395D01*
X129211506Y-85921402D01*
X129378597Y-86088493D01*
X129378603Y-86088498D01*
X129564158Y-86218425D01*
X129607783Y-86273002D01*
X129614977Y-86342500D01*
X129583454Y-86404855D01*
X129564158Y-86421575D01*
X129378597Y-86551505D01*
X129211505Y-86718597D01*
X129075965Y-86912169D01*
X129075964Y-86912171D01*
X128976098Y-87126335D01*
X128976094Y-87126344D01*
X128914938Y-87354586D01*
X128914936Y-87354596D01*
X128894341Y-87589999D01*
X128894341Y-87590000D01*
X128914936Y-87825403D01*
X128914938Y-87825413D01*
X128976094Y-88053655D01*
X128976096Y-88053659D01*
X128976097Y-88053663D01*
X129052410Y-88217316D01*
X129075965Y-88267830D01*
X129075967Y-88267834D01*
X129138505Y-88357147D01*
X129211505Y-88461401D01*
X129378599Y-88628495D01*
X129544077Y-88744364D01*
X129564594Y-88758730D01*
X129608218Y-88813307D01*
X129615411Y-88882806D01*
X129583889Y-88945160D01*
X129564593Y-88961880D01*
X129488626Y-89015072D01*
X129488625Y-89015072D01*
X130120590Y-89647037D01*
X130057007Y-89664075D01*
X129942993Y-89729901D01*
X129849901Y-89822993D01*
X129784075Y-89937007D01*
X129767037Y-90000590D01*
X129135072Y-89368625D01*
X129076401Y-89452419D01*
X128976570Y-89666507D01*
X128976566Y-89666516D01*
X128915432Y-89894673D01*
X128915430Y-89894684D01*
X128894843Y-90129998D01*
X128894843Y-90130001D01*
X128915430Y-90365315D01*
X128915432Y-90365326D01*
X128976566Y-90593483D01*
X128976570Y-90593492D01*
X129076400Y-90807579D01*
X129076402Y-90807583D01*
X129135072Y-90891373D01*
X129135073Y-90891373D01*
X129767037Y-90259409D01*
X129784075Y-90322993D01*
X129849901Y-90437007D01*
X129942993Y-90530099D01*
X130057007Y-90595925D01*
X130120588Y-90612961D01*
X129488625Y-91244925D01*
X129564594Y-91298119D01*
X129608219Y-91352696D01*
X129615413Y-91422194D01*
X129583890Y-91484549D01*
X129564595Y-91501269D01*
X129378594Y-91631508D01*
X129211505Y-91798597D01*
X129075965Y-91992169D01*
X129075964Y-91992171D01*
X128976098Y-92206335D01*
X128976094Y-92206344D01*
X128914938Y-92434586D01*
X128914936Y-92434596D01*
X128894341Y-92669999D01*
X128894341Y-92670000D01*
X128914936Y-92905403D01*
X128914938Y-92905413D01*
X128976094Y-93133655D01*
X128976096Y-93133659D01*
X128976097Y-93133663D01*
X129006093Y-93197989D01*
X129075965Y-93347830D01*
X129075967Y-93347834D01*
X129139282Y-93438256D01*
X129211505Y-93541401D01*
X129378599Y-93708495D01*
X129564594Y-93838730D01*
X129608218Y-93893307D01*
X129615411Y-93962806D01*
X129583889Y-94025160D01*
X129564593Y-94041880D01*
X129488626Y-94095072D01*
X129488625Y-94095072D01*
X130120590Y-94727037D01*
X130057007Y-94744075D01*
X129942993Y-94809901D01*
X129849901Y-94902993D01*
X129784075Y-95017007D01*
X129767037Y-95080590D01*
X129135072Y-94448625D01*
X129076401Y-94532419D01*
X128976570Y-94746507D01*
X128976566Y-94746516D01*
X128915432Y-94974673D01*
X128915430Y-94974684D01*
X128894843Y-95209998D01*
X128894843Y-95210001D01*
X128915430Y-95445315D01*
X128915432Y-95445326D01*
X128976566Y-95673483D01*
X128976570Y-95673492D01*
X129076400Y-95887579D01*
X129076402Y-95887583D01*
X129135072Y-95971373D01*
X129135073Y-95971373D01*
X129767037Y-95339409D01*
X129784075Y-95402993D01*
X129849901Y-95517007D01*
X129942993Y-95610099D01*
X130057007Y-95675925D01*
X130120590Y-95692962D01*
X129488625Y-96324925D01*
X129565031Y-96378425D01*
X129608655Y-96433002D01*
X129615848Y-96502501D01*
X129584326Y-96564855D01*
X129565029Y-96581576D01*
X129488625Y-96635072D01*
X130120590Y-97267037D01*
X130057007Y-97284075D01*
X129942993Y-97349901D01*
X129849901Y-97442993D01*
X129784075Y-97557007D01*
X129767037Y-97620590D01*
X129135072Y-96988625D01*
X129076401Y-97072419D01*
X128976570Y-97286507D01*
X128976566Y-97286516D01*
X128915432Y-97514673D01*
X128915430Y-97514684D01*
X128894843Y-97749998D01*
X128894843Y-97750001D01*
X128915430Y-97985315D01*
X128915432Y-97985326D01*
X128976566Y-98213483D01*
X128976570Y-98213492D01*
X129076400Y-98427579D01*
X129076402Y-98427583D01*
X129135072Y-98511373D01*
X129135073Y-98511373D01*
X129767037Y-97879409D01*
X129784075Y-97942993D01*
X129849901Y-98057007D01*
X129942993Y-98150099D01*
X130057007Y-98215925D01*
X130120590Y-98232962D01*
X129488625Y-98864925D01*
X129572421Y-98923599D01*
X129786507Y-99023429D01*
X129786516Y-99023433D01*
X130014673Y-99084567D01*
X130014684Y-99084569D01*
X130249998Y-99105157D01*
X130250002Y-99105157D01*
X130485315Y-99084569D01*
X130485326Y-99084567D01*
X130713483Y-99023433D01*
X130713492Y-99023429D01*
X130927578Y-98923600D01*
X130927582Y-98923598D01*
X131011373Y-98864926D01*
X131011373Y-98864925D01*
X130379409Y-98232962D01*
X130442993Y-98215925D01*
X130557007Y-98150099D01*
X130650099Y-98057007D01*
X130715925Y-97942993D01*
X130732962Y-97879410D01*
X131369341Y-98515789D01*
X131421191Y-98526209D01*
X131471375Y-98574823D01*
X131481205Y-98596966D01*
X131505186Y-98669334D01*
X131597288Y-98818656D01*
X131721344Y-98942712D01*
X131870666Y-99034814D01*
X132037203Y-99089999D01*
X132139991Y-99100500D01*
X133440008Y-99100499D01*
X133542797Y-99089999D01*
X133709334Y-99034814D01*
X133858656Y-98942712D01*
X133982712Y-98818656D01*
X134074814Y-98669334D01*
X134129999Y-98502797D01*
X134132839Y-98475000D01*
X136344540Y-98475000D01*
X136364326Y-98663256D01*
X136364327Y-98663259D01*
X136422818Y-98843277D01*
X136422821Y-98843284D01*
X136517467Y-99007216D01*
X136605654Y-99105157D01*
X136644129Y-99147888D01*
X136797265Y-99259148D01*
X136797270Y-99259151D01*
X136970192Y-99336142D01*
X136970197Y-99336144D01*
X137155354Y-99375500D01*
X137155355Y-99375500D01*
X137344644Y-99375500D01*
X137344646Y-99375500D01*
X137529803Y-99336144D01*
X137702730Y-99259151D01*
X137855871Y-99147888D01*
X137858788Y-99144647D01*
X137861600Y-99141526D01*
X137921087Y-99104879D01*
X137953748Y-99100500D01*
X150713742Y-99100500D01*
X150780781Y-99120185D01*
X150805891Y-99141527D01*
X150834128Y-99172887D01*
X150834135Y-99172893D01*
X150987265Y-99284148D01*
X150987270Y-99284151D01*
X151160192Y-99361142D01*
X151160197Y-99361144D01*
X151345354Y-99400500D01*
X151345355Y-99400500D01*
X151534644Y-99400500D01*
X151534646Y-99400500D01*
X151719803Y-99361144D01*
X151892730Y-99284151D01*
X152045871Y-99172888D01*
X152172533Y-99032216D01*
X152267179Y-98868284D01*
X152325674Y-98688256D01*
X152345460Y-98500000D01*
X152325674Y-98311744D01*
X152267179Y-98131716D01*
X152172533Y-97967784D01*
X152045871Y-97827112D01*
X152044090Y-97825818D01*
X151892734Y-97715851D01*
X151892729Y-97715848D01*
X151719807Y-97638857D01*
X151719802Y-97638855D01*
X151574001Y-97607865D01*
X151534646Y-97599500D01*
X151345354Y-97599500D01*
X151312897Y-97606398D01*
X151160197Y-97638855D01*
X151160192Y-97638857D01*
X150987270Y-97715848D01*
X150987265Y-97715851D01*
X150835910Y-97825818D01*
X150770104Y-97849298D01*
X150763025Y-97849500D01*
X137953748Y-97849500D01*
X137886709Y-97829815D01*
X137861600Y-97808474D01*
X137855873Y-97802114D01*
X137855869Y-97802110D01*
X137702734Y-97690851D01*
X137702729Y-97690848D01*
X137529807Y-97613857D01*
X137529802Y-97613855D01*
X137384001Y-97582865D01*
X137344646Y-97574500D01*
X137155354Y-97574500D01*
X137122897Y-97581398D01*
X136970197Y-97613855D01*
X136970192Y-97613857D01*
X136797270Y-97690848D01*
X136797265Y-97690851D01*
X136644129Y-97802111D01*
X136517466Y-97942785D01*
X136422821Y-98106715D01*
X136422818Y-98106722D01*
X136364327Y-98286740D01*
X136364326Y-98286744D01*
X136344540Y-98475000D01*
X134132839Y-98475000D01*
X134140500Y-98400009D01*
X134140499Y-97099992D01*
X134136238Y-97058284D01*
X134129999Y-96997203D01*
X134129998Y-96997200D01*
X134074814Y-96830666D01*
X133982712Y-96681344D01*
X133858656Y-96557288D01*
X133709334Y-96465186D01*
X133700733Y-96462336D01*
X133643290Y-96422564D01*
X133616467Y-96358048D01*
X133628782Y-96289272D01*
X133657767Y-96252517D01*
X133657573Y-96252323D01*
X133659219Y-96250676D01*
X133660040Y-96249636D01*
X133661388Y-96248504D01*
X133661401Y-96248495D01*
X133828495Y-96081401D01*
X133964035Y-95887830D01*
X134055455Y-95691777D01*
X134101626Y-95639340D01*
X134168819Y-95620188D01*
X134235701Y-95640403D01*
X134255517Y-95656503D01*
X135134620Y-96535606D01*
X135134649Y-96535637D01*
X135224865Y-96625853D01*
X135224868Y-96625855D01*
X135224871Y-96625858D01*
X135251728Y-96643803D01*
X135327318Y-96694312D01*
X135407811Y-96727652D01*
X135441152Y-96741463D01*
X135455417Y-96744300D01*
X135481516Y-96749492D01*
X135481536Y-96749495D01*
X135481558Y-96749500D01*
X135561995Y-96765499D01*
X135561996Y-96765500D01*
X135561997Y-96765500D01*
X135561998Y-96765500D01*
X145915125Y-96765500D01*
X145982164Y-96785185D01*
X146027919Y-96837989D01*
X146033056Y-96851182D01*
X146065317Y-96950474D01*
X146065320Y-96950480D01*
X146159966Y-97114412D01*
X146282050Y-97250000D01*
X146286628Y-97255084D01*
X146439764Y-97366344D01*
X146439769Y-97366347D01*
X146612691Y-97443338D01*
X146612696Y-97443340D01*
X146797853Y-97482696D01*
X146797854Y-97482696D01*
X146987143Y-97482696D01*
X146987145Y-97482696D01*
X147172302Y-97443340D01*
X147345229Y-97366347D01*
X147498370Y-97255084D01*
X147625032Y-97114412D01*
X147719678Y-96950480D01*
X147778173Y-96770452D01*
X147797959Y-96582196D01*
X147784323Y-96452459D01*
X147796892Y-96383732D01*
X147844624Y-96332708D01*
X147907644Y-96315500D01*
X154254169Y-96315500D01*
X154321208Y-96335185D01*
X154366963Y-96387989D01*
X154376907Y-96457147D01*
X154372099Y-96477818D01*
X154364326Y-96501744D01*
X154344540Y-96690000D01*
X154364326Y-96878256D01*
X154364327Y-96878259D01*
X154422818Y-97058277D01*
X154422821Y-97058284D01*
X154517467Y-97222216D01*
X154609185Y-97324079D01*
X154644129Y-97362888D01*
X154797265Y-97474148D01*
X154797270Y-97474151D01*
X154970192Y-97551142D01*
X154970197Y-97551144D01*
X155155354Y-97590500D01*
X155155355Y-97590500D01*
X155344644Y-97590500D01*
X155344646Y-97590500D01*
X155529803Y-97551144D01*
X155702730Y-97474151D01*
X155855871Y-97362888D01*
X155982533Y-97222216D01*
X156077179Y-97058284D01*
X156135674Y-96878256D01*
X156155460Y-96690000D01*
X156135674Y-96501744D01*
X156077179Y-96321716D01*
X155982533Y-96157784D01*
X155907350Y-96074284D01*
X155877120Y-96011292D01*
X155875500Y-95991312D01*
X155875500Y-95938393D01*
X155875499Y-95938389D01*
X155865443Y-95887834D01*
X155851463Y-95817548D01*
X155804311Y-95703714D01*
X155804310Y-95703713D01*
X155804307Y-95703707D01*
X155735858Y-95601267D01*
X155735855Y-95601263D01*
X155645637Y-95511045D01*
X155645606Y-95511016D01*
X155430198Y-95295608D01*
X155430178Y-95295586D01*
X155338733Y-95204141D01*
X155287509Y-95169915D01*
X155280146Y-95164995D01*
X155236286Y-95135688D01*
X155236283Y-95135686D01*
X155236280Y-95135685D01*
X155155792Y-95102347D01*
X155122453Y-95088537D01*
X155109743Y-95086009D01*
X155062029Y-95076518D01*
X155001610Y-95064500D01*
X155001607Y-95064500D01*
X155001606Y-95064500D01*
X136120452Y-95064500D01*
X136053413Y-95044815D01*
X136032771Y-95028181D01*
X134130237Y-93125647D01*
X134096752Y-93064324D01*
X134098143Y-93005872D01*
X134125063Y-92905408D01*
X134145659Y-92670000D01*
X134130253Y-92493916D01*
X134144019Y-92425418D01*
X134152306Y-92416862D01*
X134152370Y-92416648D01*
X134153272Y-92415865D01*
X134192634Y-92375235D01*
X134202952Y-92372818D01*
X134205174Y-92370893D01*
X134220707Y-92368659D01*
X134260663Y-92359301D01*
X134274024Y-92360993D01*
X134274332Y-92360949D01*
X134276194Y-92361267D01*
X134277979Y-92361494D01*
X134280875Y-92362070D01*
X134348391Y-92375499D01*
X134348392Y-92375500D01*
X134348393Y-92375500D01*
X134348394Y-92375500D01*
X135220540Y-92375500D01*
X135287579Y-92395185D01*
X135333334Y-92447989D01*
X135343256Y-92493600D01*
X135343861Y-92493537D01*
X135344438Y-92499035D01*
X135344540Y-92499500D01*
X135344540Y-92499997D01*
X135344540Y-92500000D01*
X135364326Y-92688256D01*
X135364327Y-92688259D01*
X135422818Y-92868277D01*
X135422821Y-92868284D01*
X135517467Y-93032216D01*
X135619185Y-93145185D01*
X135644129Y-93172888D01*
X135797265Y-93284148D01*
X135797270Y-93284151D01*
X135970192Y-93361142D01*
X135970197Y-93361144D01*
X136155354Y-93400500D01*
X136155355Y-93400500D01*
X136344644Y-93400500D01*
X136344646Y-93400500D01*
X136529803Y-93361144D01*
X136702730Y-93284151D01*
X136855871Y-93172888D01*
X136858788Y-93169647D01*
X136861600Y-93166526D01*
X136921087Y-93129879D01*
X136953748Y-93125500D01*
X137220540Y-93125500D01*
X137287579Y-93145185D01*
X137333334Y-93197989D01*
X137343256Y-93243600D01*
X137343861Y-93243537D01*
X137344438Y-93249035D01*
X137344540Y-93249500D01*
X137344540Y-93249997D01*
X137344540Y-93250000D01*
X137364326Y-93438256D01*
X137364327Y-93438259D01*
X137422818Y-93618277D01*
X137422821Y-93618284D01*
X137517467Y-93782216D01*
X137617494Y-93893307D01*
X137644129Y-93922888D01*
X137797265Y-94034148D01*
X137797270Y-94034151D01*
X137970192Y-94111142D01*
X137970197Y-94111144D01*
X138155354Y-94150500D01*
X138155355Y-94150500D01*
X138344644Y-94150500D01*
X138344646Y-94150500D01*
X138529803Y-94111144D01*
X138664391Y-94051221D01*
X138714827Y-94040500D01*
X150776608Y-94040500D01*
X150776608Y-94040499D01*
X150851219Y-94025659D01*
X150851220Y-94025659D01*
X150874655Y-94020997D01*
X150897452Y-94016463D01*
X150937466Y-93999888D01*
X150937468Y-93999888D01*
X151011281Y-93969314D01*
X151011280Y-93969314D01*
X151011286Y-93969312D01*
X151062509Y-93935084D01*
X151113733Y-93900858D01*
X151200858Y-93813733D01*
X151200860Y-93813729D01*
X151387772Y-93626816D01*
X151449095Y-93593334D01*
X151475452Y-93590500D01*
X151534644Y-93590500D01*
X151534646Y-93590500D01*
X151719803Y-93551144D01*
X151892730Y-93474151D01*
X152045871Y-93362888D01*
X152172533Y-93222216D01*
X152267179Y-93058284D01*
X152325674Y-92878256D01*
X152345460Y-92690000D01*
X152326800Y-92512459D01*
X152339370Y-92443731D01*
X152387102Y-92392708D01*
X152450121Y-92375500D01*
X154189548Y-92375500D01*
X154256587Y-92395185D01*
X154277229Y-92411819D01*
X154322773Y-92457363D01*
X154356258Y-92518686D01*
X154358412Y-92558004D01*
X154344540Y-92690000D01*
X154364326Y-92878256D01*
X154364327Y-92878259D01*
X154422818Y-93058277D01*
X154422821Y-93058284D01*
X154517467Y-93222216D01*
X154551492Y-93260004D01*
X154644129Y-93362888D01*
X154797265Y-93474148D01*
X154797270Y-93474151D01*
X154970192Y-93551142D01*
X154970197Y-93551144D01*
X155155354Y-93590500D01*
X155155355Y-93590500D01*
X155344644Y-93590500D01*
X155344646Y-93590500D01*
X155529803Y-93551144D01*
X155702730Y-93474151D01*
X155855871Y-93362888D01*
X155982533Y-93222216D01*
X156077179Y-93058284D01*
X156135674Y-92878256D01*
X156155460Y-92690000D01*
X156135674Y-92501744D01*
X156077179Y-92321716D01*
X155982533Y-92157784D01*
X155855871Y-92017112D01*
X155821540Y-91992169D01*
X155702734Y-91905851D01*
X155702729Y-91905848D01*
X155529807Y-91828857D01*
X155529803Y-91828856D01*
X155481460Y-91818580D01*
X155419979Y-91785387D01*
X155419561Y-91784971D01*
X154990198Y-91355608D01*
X154990178Y-91355586D01*
X154898733Y-91264141D01*
X154847509Y-91229915D01*
X154796287Y-91195689D01*
X154796286Y-91195688D01*
X154796283Y-91195686D01*
X154796280Y-91195685D01*
X154715792Y-91162347D01*
X154687191Y-91150500D01*
X154682452Y-91148537D01*
X154682448Y-91148536D01*
X154682444Y-91148535D01*
X154591771Y-91130499D01*
X154591768Y-91130499D01*
X154561609Y-91124500D01*
X154561607Y-91124500D01*
X154561606Y-91124500D01*
X136777568Y-91124500D01*
X136710529Y-91104815D01*
X136664774Y-91052011D01*
X136654247Y-91013462D01*
X136653475Y-91006115D01*
X136635674Y-90836744D01*
X136577179Y-90656716D01*
X136482533Y-90492784D01*
X136355871Y-90352112D01*
X136355870Y-90352111D01*
X136202734Y-90240851D01*
X136202729Y-90240848D01*
X136029807Y-90163857D01*
X136029802Y-90163855D01*
X135870526Y-90130001D01*
X135844646Y-90124500D01*
X135844645Y-90124500D01*
X135785453Y-90124500D01*
X135718414Y-90104815D01*
X135697772Y-90088181D01*
X134978216Y-89368625D01*
X134036770Y-88427180D01*
X134003286Y-88365858D01*
X134008270Y-88296166D01*
X134050142Y-88240233D01*
X134115606Y-88215816D01*
X134124452Y-88215500D01*
X134722432Y-88215500D01*
X134789471Y-88235185D01*
X134835226Y-88287989D01*
X134845752Y-88326535D01*
X134864326Y-88503256D01*
X134866292Y-88509309D01*
X134922818Y-88683277D01*
X134922821Y-88683284D01*
X135017467Y-88847216D01*
X135119185Y-88960185D01*
X135144129Y-88987888D01*
X135297265Y-89099148D01*
X135297270Y-89099151D01*
X135470192Y-89176142D01*
X135470197Y-89176144D01*
X135655354Y-89215500D01*
X135655355Y-89215500D01*
X135844644Y-89215500D01*
X135844646Y-89215500D01*
X136029803Y-89176144D01*
X136202730Y-89099151D01*
X136355871Y-88987888D01*
X136358788Y-88984647D01*
X136361600Y-88981526D01*
X136421087Y-88944879D01*
X136453748Y-88940500D01*
X137989354Y-88940500D01*
X138056393Y-88960185D01*
X138102148Y-89012989D01*
X138112674Y-89077458D01*
X138094540Y-89250000D01*
X138114326Y-89438256D01*
X138114327Y-89438259D01*
X138172818Y-89618277D01*
X138172821Y-89618284D01*
X138267467Y-89782216D01*
X138304183Y-89822993D01*
X138394129Y-89922888D01*
X138547265Y-90034148D01*
X138547270Y-90034151D01*
X138720192Y-90111142D01*
X138720197Y-90111144D01*
X138905354Y-90150500D01*
X138905355Y-90150500D01*
X139094644Y-90150500D01*
X139094646Y-90150500D01*
X139279803Y-90111144D01*
X139414391Y-90051221D01*
X139464827Y-90040500D01*
X150776608Y-90040500D01*
X150776608Y-90040499D01*
X150870781Y-90021768D01*
X150870782Y-90021768D01*
X150897442Y-90016465D01*
X150897442Y-90016464D01*
X150897452Y-90016463D01*
X150930792Y-90002652D01*
X151011286Y-89969312D01*
X151066449Y-89932452D01*
X151113733Y-89900858D01*
X151200858Y-89813733D01*
X151200859Y-89813730D01*
X151207925Y-89806665D01*
X151207927Y-89806661D01*
X151385689Y-89628900D01*
X151447011Y-89595416D01*
X151516703Y-89600400D01*
X151572636Y-89642272D01*
X151597053Y-89707736D01*
X151596690Y-89729542D01*
X151594540Y-89750000D01*
X151614326Y-89938256D01*
X151614327Y-89938259D01*
X151672818Y-90118277D01*
X151672821Y-90118284D01*
X151767467Y-90282216D01*
X151869185Y-90395185D01*
X151894129Y-90422888D01*
X152047265Y-90534148D01*
X152047270Y-90534151D01*
X152220192Y-90611142D01*
X152220197Y-90611144D01*
X152405354Y-90650500D01*
X152405355Y-90650500D01*
X152594644Y-90650500D01*
X152594646Y-90650500D01*
X152779803Y-90611144D01*
X152952730Y-90534151D01*
X153105871Y-90422888D01*
X153108788Y-90419647D01*
X153111600Y-90416526D01*
X153171087Y-90379879D01*
X153203748Y-90375500D01*
X155796252Y-90375500D01*
X155863291Y-90395185D01*
X155888400Y-90416526D01*
X155894126Y-90422885D01*
X155894130Y-90422889D01*
X156047265Y-90534148D01*
X156047270Y-90534151D01*
X156220192Y-90611142D01*
X156220197Y-90611144D01*
X156405354Y-90650500D01*
X156405355Y-90650500D01*
X156594644Y-90650500D01*
X156594646Y-90650500D01*
X156779803Y-90611144D01*
X156952730Y-90534151D01*
X157105871Y-90422888D01*
X157232533Y-90282216D01*
X157327179Y-90118284D01*
X157385674Y-89938256D01*
X157405460Y-89750000D01*
X157385674Y-89561744D01*
X157327179Y-89381716D01*
X157232533Y-89217784D01*
X157105871Y-89077112D01*
X157105870Y-89077111D01*
X156952734Y-88965851D01*
X156952729Y-88965848D01*
X156779807Y-88888857D01*
X156779802Y-88888855D01*
X156634001Y-88857865D01*
X156594646Y-88849500D01*
X156405354Y-88849500D01*
X156405352Y-88849500D01*
X156299543Y-88871990D01*
X156229876Y-88866674D01*
X156174143Y-88824536D01*
X156150038Y-88758956D01*
X156150441Y-88737745D01*
X156155460Y-88690000D01*
X156135674Y-88501744D01*
X156077179Y-88321716D01*
X155982533Y-88157784D01*
X155855871Y-88017112D01*
X155855870Y-88017111D01*
X155702734Y-87905851D01*
X155702729Y-87905848D01*
X155529807Y-87828857D01*
X155529800Y-87828855D01*
X155447161Y-87811290D01*
X155385679Y-87778098D01*
X155351902Y-87716935D01*
X155356554Y-87647221D01*
X155398158Y-87591088D01*
X155447161Y-87568710D01*
X155453201Y-87567426D01*
X155529803Y-87551144D01*
X155702730Y-87474151D01*
X155855871Y-87362888D01*
X155982533Y-87222216D01*
X156077179Y-87058284D01*
X156135674Y-86878256D01*
X156155460Y-86690000D01*
X156135674Y-86501744D01*
X156077179Y-86321716D01*
X155982533Y-86157784D01*
X155855871Y-86017112D01*
X155855870Y-86017111D01*
X155702734Y-85905851D01*
X155702729Y-85905848D01*
X155529807Y-85828857D01*
X155529802Y-85828855D01*
X155384001Y-85797865D01*
X155344646Y-85789500D01*
X155344645Y-85789500D01*
X155285452Y-85789500D01*
X155218413Y-85769815D01*
X155197771Y-85753181D01*
X155015198Y-85570608D01*
X155015178Y-85570586D01*
X154923733Y-85479141D01*
X154872509Y-85444915D01*
X154858417Y-85435499D01*
X154821286Y-85410688D01*
X154733919Y-85374500D01*
X154733917Y-85374498D01*
X154707458Y-85363539D01*
X154707454Y-85363537D01*
X154707452Y-85363537D01*
X154707448Y-85363536D01*
X154707444Y-85363535D01*
X154620732Y-85346286D01*
X154620723Y-85346286D01*
X154586607Y-85339500D01*
X154586606Y-85339500D01*
X147904593Y-85339500D01*
X147837554Y-85319815D01*
X147791799Y-85267011D01*
X147781855Y-85197853D01*
X147797206Y-85153500D01*
X147806523Y-85137362D01*
X147852179Y-85058284D01*
X147910674Y-84878256D01*
X147930460Y-84690000D01*
X147910674Y-84501744D01*
X147910671Y-84501737D01*
X147910328Y-84498465D01*
X147922897Y-84429735D01*
X147970629Y-84378711D01*
X148038369Y-84361593D01*
X148104611Y-84383815D01*
X148125798Y-84402530D01*
X148144128Y-84422887D01*
X148144129Y-84422888D01*
X148297265Y-84534148D01*
X148297270Y-84534151D01*
X148470192Y-84611142D01*
X148470197Y-84611144D01*
X148655354Y-84650500D01*
X148655355Y-84650500D01*
X148844644Y-84650500D01*
X148844646Y-84650500D01*
X149029803Y-84611144D01*
X149202730Y-84534151D01*
X149355871Y-84422888D01*
X149358788Y-84419647D01*
X149361600Y-84416526D01*
X149421087Y-84379879D01*
X149453748Y-84375500D01*
X155796252Y-84375500D01*
X155863291Y-84395185D01*
X155888400Y-84416526D01*
X155894126Y-84422885D01*
X155894130Y-84422889D01*
X156047265Y-84534148D01*
X156047270Y-84534151D01*
X156220192Y-84611142D01*
X156220197Y-84611144D01*
X156405354Y-84650500D01*
X156405355Y-84650500D01*
X156594644Y-84650500D01*
X156594646Y-84650500D01*
X156779803Y-84611144D01*
X156952730Y-84534151D01*
X157105871Y-84422888D01*
X157232533Y-84282216D01*
X157327179Y-84118284D01*
X157385674Y-83938256D01*
X157405460Y-83750000D01*
X157385674Y-83561744D01*
X157327179Y-83381716D01*
X157232533Y-83217784D01*
X157105871Y-83077112D01*
X157105870Y-83077111D01*
X156952734Y-82965851D01*
X156952729Y-82965848D01*
X156779807Y-82888857D01*
X156779802Y-82888855D01*
X156634001Y-82857865D01*
X156594646Y-82849500D01*
X156405354Y-82849500D01*
X156405352Y-82849500D01*
X156299543Y-82871990D01*
X156229876Y-82866674D01*
X156174143Y-82824536D01*
X156150038Y-82758956D01*
X156150441Y-82737745D01*
X156155460Y-82690000D01*
X156135674Y-82501744D01*
X156077179Y-82321716D01*
X155982533Y-82157784D01*
X155855871Y-82017112D01*
X155855870Y-82017111D01*
X155702734Y-81905851D01*
X155702729Y-81905848D01*
X155529807Y-81828857D01*
X155529802Y-81828855D01*
X155384001Y-81797865D01*
X155344646Y-81789500D01*
X155344645Y-81789500D01*
X155285452Y-81789500D01*
X155218413Y-81769815D01*
X155197771Y-81753181D01*
X155031771Y-81587181D01*
X154998286Y-81525858D01*
X155003270Y-81456166D01*
X155045142Y-81400233D01*
X155110606Y-81375816D01*
X155119452Y-81375500D01*
X155796252Y-81375500D01*
X155863291Y-81395185D01*
X155888400Y-81416526D01*
X155894126Y-81422885D01*
X155894130Y-81422889D01*
X156047265Y-81534148D01*
X156047270Y-81534151D01*
X156220192Y-81611142D01*
X156220197Y-81611144D01*
X156405354Y-81650500D01*
X156405355Y-81650500D01*
X156594644Y-81650500D01*
X156594646Y-81650500D01*
X156779803Y-81611144D01*
X156952730Y-81534151D01*
X157105871Y-81422888D01*
X157232533Y-81282216D01*
X157327179Y-81118284D01*
X157385674Y-80938256D01*
X157405460Y-80750000D01*
X157385674Y-80561744D01*
X157327179Y-80381716D01*
X157232533Y-80217784D01*
X157105871Y-80077112D01*
X157105870Y-80077111D01*
X156952734Y-79965851D01*
X156952729Y-79965848D01*
X156779807Y-79888857D01*
X156779802Y-79888855D01*
X156634001Y-79857865D01*
X156594646Y-79849500D01*
X156405354Y-79849500D01*
X156372897Y-79856398D01*
X156220197Y-79888855D01*
X156220192Y-79888857D01*
X156047270Y-79965848D01*
X156047265Y-79965851D01*
X155894130Y-80077110D01*
X155894126Y-80077114D01*
X155888400Y-80083474D01*
X155828913Y-80120121D01*
X155796252Y-80124500D01*
X154999452Y-80124500D01*
X154932413Y-80104815D01*
X154886658Y-80052011D01*
X154876714Y-79982853D01*
X154905739Y-79919297D01*
X154911771Y-79912819D01*
X154975091Y-79849500D01*
X155197772Y-79626819D01*
X155259095Y-79593334D01*
X155285453Y-79590500D01*
X155344644Y-79590500D01*
X155344646Y-79590500D01*
X155529803Y-79551144D01*
X155702730Y-79474151D01*
X155855871Y-79362888D01*
X155982533Y-79222216D01*
X156077179Y-79058284D01*
X156135674Y-78878256D01*
X156155460Y-78690000D01*
X156135674Y-78501744D01*
X156077179Y-78321716D01*
X155982533Y-78157784D01*
X155855871Y-78017112D01*
X155855870Y-78017111D01*
X155702734Y-77905851D01*
X155702729Y-77905848D01*
X155529807Y-77828857D01*
X155529802Y-77828855D01*
X155384001Y-77797865D01*
X155344646Y-77789500D01*
X155155354Y-77789500D01*
X155122897Y-77796398D01*
X154970197Y-77828855D01*
X154970192Y-77828857D01*
X154797270Y-77905848D01*
X154797265Y-77905851D01*
X154644129Y-78017111D01*
X154517466Y-78157785D01*
X154422821Y-78321715D01*
X154422818Y-78321722D01*
X154377613Y-78460851D01*
X154364326Y-78501744D01*
X154356195Y-78579111D01*
X154346679Y-78669650D01*
X154320094Y-78734264D01*
X154311039Y-78744369D01*
X154143403Y-78912006D01*
X153870082Y-79185328D01*
X153747229Y-79308181D01*
X153685906Y-79341666D01*
X153659548Y-79344500D01*
X139277568Y-79344500D01*
X139210529Y-79324815D01*
X139164774Y-79272011D01*
X139154247Y-79233462D01*
X139148628Y-79179999D01*
X139135674Y-79056744D01*
X139077179Y-78876716D01*
X138982533Y-78712784D01*
X138855871Y-78572112D01*
X138855870Y-78572111D01*
X138702734Y-78460851D01*
X138702729Y-78460848D01*
X138529807Y-78383857D01*
X138529802Y-78383855D01*
X138363461Y-78348499D01*
X138301979Y-78315307D01*
X138301561Y-78314890D01*
X137573852Y-77587181D01*
X137540367Y-77525858D01*
X137545351Y-77456166D01*
X137587223Y-77400233D01*
X137652687Y-77375816D01*
X137661533Y-77375500D01*
X146396198Y-77375500D01*
X146463237Y-77395185D01*
X146469083Y-77399182D01*
X146572265Y-77474148D01*
X146572270Y-77474151D01*
X146745192Y-77551142D01*
X146745197Y-77551144D01*
X146930354Y-77590500D01*
X146930355Y-77590500D01*
X147119644Y-77590500D01*
X147119646Y-77590500D01*
X147304803Y-77551144D01*
X147477730Y-77474151D01*
X147630871Y-77362888D01*
X147757533Y-77222216D01*
X147852179Y-77058284D01*
X147910674Y-76878256D01*
X147930460Y-76690000D01*
X147910674Y-76501744D01*
X147852179Y-76321716D01*
X147846278Y-76311496D01*
X147829809Y-76243597D01*
X147852662Y-76177570D01*
X147907585Y-76134381D01*
X147953668Y-76125500D01*
X149939548Y-76125500D01*
X150006587Y-76145185D01*
X150027229Y-76161819D01*
X150501038Y-76635628D01*
X150534523Y-76696951D01*
X150536678Y-76710347D01*
X150541074Y-76752169D01*
X150554326Y-76878256D01*
X150554327Y-76878259D01*
X150612818Y-77058277D01*
X150612821Y-77058284D01*
X150707467Y-77222216D01*
X150834129Y-77362888D01*
X150987265Y-77474148D01*
X150987270Y-77474151D01*
X151160192Y-77551142D01*
X151160197Y-77551144D01*
X151345354Y-77590500D01*
X151345355Y-77590500D01*
X151534644Y-77590500D01*
X151534646Y-77590500D01*
X151719803Y-77551144D01*
X151892730Y-77474151D01*
X152045871Y-77362888D01*
X152172533Y-77222216D01*
X152267179Y-77058284D01*
X152325674Y-76878256D01*
X152345460Y-76690000D01*
X152325674Y-76501744D01*
X152267179Y-76321716D01*
X152172533Y-76157784D01*
X152045871Y-76017112D01*
X152045870Y-76017111D01*
X151892734Y-75905851D01*
X151892729Y-75905848D01*
X151719807Y-75828857D01*
X151719802Y-75828855D01*
X151571752Y-75797387D01*
X151534646Y-75789500D01*
X151534645Y-75789500D01*
X151475452Y-75789500D01*
X151408413Y-75769815D01*
X151387771Y-75753181D01*
X150740198Y-75105608D01*
X150740178Y-75105586D01*
X150648733Y-75014141D01*
X150597509Y-74979915D01*
X150560403Y-74955121D01*
X150546286Y-74945688D01*
X150546283Y-74945686D01*
X150546280Y-74945685D01*
X150465792Y-74912347D01*
X150432454Y-74898538D01*
X150432455Y-74898538D01*
X150432452Y-74898537D01*
X150432448Y-74898536D01*
X150432444Y-74898535D01*
X150316641Y-74875500D01*
X150316636Y-74875500D01*
X150311609Y-74874500D01*
X150311607Y-74874500D01*
X150311606Y-74874500D01*
X142310452Y-74874500D01*
X142243413Y-74854815D01*
X142222771Y-74838181D01*
X141240198Y-73855608D01*
X141240178Y-73855586D01*
X141148733Y-73764141D01*
X141097509Y-73729915D01*
X141046287Y-73695689D01*
X141046286Y-73695688D01*
X141046283Y-73695686D01*
X141046280Y-73695685D01*
X140965792Y-73662347D01*
X140932452Y-73648537D01*
X140932453Y-73648537D01*
X140917128Y-73645488D01*
X140855406Y-73633212D01*
X140833506Y-73628856D01*
X140811608Y-73624500D01*
X140811607Y-73624500D01*
X140811606Y-73624500D01*
X137106037Y-73624500D01*
X137038998Y-73604815D01*
X137018356Y-73588181D01*
X136184611Y-72754436D01*
X136151126Y-72693113D01*
X136148292Y-72666755D01*
X136148292Y-67530533D01*
X136148293Y-67530512D01*
X136148293Y-67401183D01*
X136124256Y-67280347D01*
X136124255Y-67280341D01*
X136077104Y-67166507D01*
X136008650Y-67064059D01*
X136008647Y-67064055D01*
X134944591Y-66000000D01*
X138594540Y-66000000D01*
X138614326Y-66188256D01*
X138614327Y-66188259D01*
X138672818Y-66368277D01*
X138672821Y-66368284D01*
X138767467Y-66532216D01*
X138857063Y-66631722D01*
X138894129Y-66672888D01*
X139047265Y-66784148D01*
X139047270Y-66784151D01*
X139220192Y-66861142D01*
X139220197Y-66861144D01*
X139405354Y-66900500D01*
X139405355Y-66900500D01*
X139594644Y-66900500D01*
X139594646Y-66900500D01*
X139779803Y-66861144D01*
X139952730Y-66784151D01*
X140105871Y-66672888D01*
X140108788Y-66669647D01*
X140111600Y-66666526D01*
X140171087Y-66629879D01*
X140203748Y-66625500D01*
X140546252Y-66625500D01*
X140613291Y-66645185D01*
X140638400Y-66666526D01*
X140644126Y-66672885D01*
X140644130Y-66672889D01*
X140797265Y-66784148D01*
X140797270Y-66784151D01*
X140970192Y-66861142D01*
X140970197Y-66861144D01*
X141155354Y-66900500D01*
X141155355Y-66900500D01*
X141344644Y-66900500D01*
X141344646Y-66900500D01*
X141529803Y-66861144D01*
X141702730Y-66784151D01*
X141855871Y-66672888D01*
X141982533Y-66532216D01*
X142077179Y-66368284D01*
X142135674Y-66188256D01*
X142155460Y-66000000D01*
X142135674Y-65811744D01*
X142077179Y-65631716D01*
X141982533Y-65467784D01*
X141855871Y-65327112D01*
X141855870Y-65327111D01*
X141702734Y-65215851D01*
X141702729Y-65215848D01*
X141529807Y-65138857D01*
X141529802Y-65138855D01*
X141384001Y-65107865D01*
X141344646Y-65099500D01*
X141155354Y-65099500D01*
X141122897Y-65106398D01*
X140970197Y-65138855D01*
X140970192Y-65138857D01*
X140797270Y-65215848D01*
X140797265Y-65215851D01*
X140644130Y-65327110D01*
X140644126Y-65327114D01*
X140638400Y-65333474D01*
X140578913Y-65370121D01*
X140546252Y-65374500D01*
X140203748Y-65374500D01*
X140136709Y-65354815D01*
X140111600Y-65333474D01*
X140105873Y-65327114D01*
X140105869Y-65327110D01*
X139952734Y-65215851D01*
X139952729Y-65215848D01*
X139779807Y-65138857D01*
X139779802Y-65138855D01*
X139634001Y-65107865D01*
X139594646Y-65099500D01*
X139405354Y-65099500D01*
X139372897Y-65106398D01*
X139220197Y-65138855D01*
X139220192Y-65138857D01*
X139047270Y-65215848D01*
X139047265Y-65215851D01*
X138894129Y-65327111D01*
X138767466Y-65467785D01*
X138672821Y-65631715D01*
X138672818Y-65631722D01*
X138614327Y-65811740D01*
X138614326Y-65811744D01*
X138594540Y-66000000D01*
X134944591Y-66000000D01*
X134130237Y-65185647D01*
X134096752Y-65124324D01*
X134098143Y-65065872D01*
X134106643Y-65034150D01*
X134125063Y-64965408D01*
X134145659Y-64730000D01*
X134125063Y-64494592D01*
X134063903Y-64266337D01*
X133964035Y-64052171D01*
X133958425Y-64044158D01*
X133828494Y-63858597D01*
X133661402Y-63691506D01*
X133661396Y-63691501D01*
X133475842Y-63561575D01*
X133432217Y-63506998D01*
X133425023Y-63437500D01*
X133456546Y-63375145D01*
X133475842Y-63358425D01*
X133498026Y-63342891D01*
X133661401Y-63228495D01*
X133828495Y-63061401D01*
X133963652Y-62868377D01*
X134018229Y-62824752D01*
X134065227Y-62815500D01*
X144704548Y-62815500D01*
X144771587Y-62835185D01*
X144792229Y-62851819D01*
X147828229Y-65887819D01*
X147861714Y-65949142D01*
X147856730Y-66018834D01*
X147814858Y-66074767D01*
X147749394Y-66099184D01*
X147740548Y-66099500D01*
X147655354Y-66099500D01*
X147622897Y-66106398D01*
X147470197Y-66138855D01*
X147470192Y-66138857D01*
X147297270Y-66215848D01*
X147297265Y-66215851D01*
X147144129Y-66327111D01*
X147017466Y-66467785D01*
X146922821Y-66631715D01*
X146922818Y-66631722D01*
X146864327Y-66811740D01*
X146864326Y-66811744D01*
X146844540Y-67000000D01*
X146864326Y-67188256D01*
X146864327Y-67188259D01*
X146922818Y-67368277D01*
X146922821Y-67368284D01*
X147017467Y-67532216D01*
X147136418Y-67664324D01*
X147144129Y-67672888D01*
X147297265Y-67784148D01*
X147297270Y-67784151D01*
X147470192Y-67861142D01*
X147470197Y-67861144D01*
X147655354Y-67900500D01*
X147655355Y-67900500D01*
X147844644Y-67900500D01*
X147844646Y-67900500D01*
X148029803Y-67861144D01*
X148202730Y-67784151D01*
X148355871Y-67672888D01*
X148482533Y-67532216D01*
X148577179Y-67368284D01*
X148635674Y-67188256D01*
X148655386Y-67000695D01*
X148681970Y-66936083D01*
X148739268Y-66896098D01*
X148809087Y-66893438D01*
X148866388Y-66925978D01*
X174363181Y-92422771D01*
X174396666Y-92484094D01*
X174399500Y-92510452D01*
X174399500Y-105336611D01*
X174423535Y-105457444D01*
X174423540Y-105457461D01*
X174470685Y-105571281D01*
X174470687Y-105571284D01*
X174470688Y-105571286D01*
X174473255Y-105575127D01*
X174473260Y-105575135D01*
X174473261Y-105575136D01*
X174539140Y-105673731D01*
X174539141Y-105673732D01*
X174539142Y-105673733D01*
X174626267Y-105760858D01*
X174626268Y-105760858D01*
X174633335Y-105767925D01*
X174633334Y-105767925D01*
X174633338Y-105767928D01*
X175311038Y-106445629D01*
X175344523Y-106506952D01*
X175346678Y-106520348D01*
X175354524Y-106594995D01*
X175364326Y-106688256D01*
X175364327Y-106688259D01*
X175422818Y-106868277D01*
X175422821Y-106868284D01*
X175517467Y-107032216D01*
X175576373Y-107097637D01*
X175644129Y-107172888D01*
X175797265Y-107284148D01*
X175797270Y-107284151D01*
X175970192Y-107361142D01*
X175970197Y-107361144D01*
X176155354Y-107400500D01*
X176155355Y-107400500D01*
X176344644Y-107400500D01*
X176344646Y-107400500D01*
X176529803Y-107361144D01*
X176702730Y-107284151D01*
X176855871Y-107172888D01*
X176982533Y-107032216D01*
X177077179Y-106868284D01*
X177135674Y-106688256D01*
X177145476Y-106594995D01*
X181644732Y-106594995D01*
X181644732Y-106595004D01*
X181663777Y-106849154D01*
X181705559Y-107032214D01*
X181720492Y-107097637D01*
X181813607Y-107334888D01*
X181941041Y-107555612D01*
X182099950Y-107754877D01*
X182286783Y-107928232D01*
X182497366Y-108071805D01*
X182497371Y-108071807D01*
X182497372Y-108071808D01*
X182497373Y-108071809D01*
X182619328Y-108130538D01*
X182726992Y-108182387D01*
X182726993Y-108182387D01*
X182726996Y-108182389D01*
X182970542Y-108257513D01*
X183222565Y-108295500D01*
X183477435Y-108295500D01*
X183729458Y-108257513D01*
X183973004Y-108182389D01*
X184202634Y-108071805D01*
X184413217Y-107928232D01*
X184600050Y-107754877D01*
X184758959Y-107555612D01*
X184886393Y-107334888D01*
X184979508Y-107097637D01*
X185036222Y-106849157D01*
X185055268Y-106595000D01*
X185044074Y-106445629D01*
X185036222Y-106340845D01*
X184996400Y-106166375D01*
X184979508Y-106092363D01*
X184886393Y-105855112D01*
X184758959Y-105634388D01*
X184600050Y-105435123D01*
X184413217Y-105261768D01*
X184202634Y-105118195D01*
X184202630Y-105118193D01*
X184202627Y-105118191D01*
X184202626Y-105118190D01*
X183973006Y-105007612D01*
X183973008Y-105007612D01*
X183729466Y-104932489D01*
X183729462Y-104932488D01*
X183729458Y-104932487D01*
X183608231Y-104914214D01*
X183477440Y-104894500D01*
X183477435Y-104894500D01*
X183222565Y-104894500D01*
X183222559Y-104894500D01*
X183065609Y-104918157D01*
X182970542Y-104932487D01*
X182970539Y-104932488D01*
X182970533Y-104932489D01*
X182726992Y-105007612D01*
X182497373Y-105118190D01*
X182497372Y-105118191D01*
X182286782Y-105261768D01*
X182099952Y-105435121D01*
X182099950Y-105435123D01*
X181941041Y-105634388D01*
X181813608Y-105855109D01*
X181720492Y-106092362D01*
X181720490Y-106092369D01*
X181663777Y-106340845D01*
X181644732Y-106594995D01*
X177145476Y-106594995D01*
X177155460Y-106500000D01*
X177135674Y-106311744D01*
X177077179Y-106131716D01*
X176982533Y-105967784D01*
X176855871Y-105827112D01*
X176855870Y-105827111D01*
X176702734Y-105715851D01*
X176702729Y-105715848D01*
X176529807Y-105638857D01*
X176529802Y-105638855D01*
X176384001Y-105607865D01*
X176344646Y-105599500D01*
X176344645Y-105599500D01*
X176285453Y-105599500D01*
X176218414Y-105579815D01*
X176197772Y-105563181D01*
X175686819Y-105052228D01*
X175653334Y-104990905D01*
X175650500Y-104964547D01*
X175650500Y-104689995D01*
X186545233Y-104689995D01*
X186545233Y-104690004D01*
X186564273Y-104944079D01*
X186620968Y-105192477D01*
X186620973Y-105192494D01*
X186714058Y-105429671D01*
X186714057Y-105429671D01*
X186841454Y-105650327D01*
X186841461Y-105650338D01*
X186883452Y-105702991D01*
X186883453Y-105702992D01*
X187685387Y-104901058D01*
X187690889Y-104921591D01*
X187769881Y-105058408D01*
X187881592Y-105170119D01*
X188018409Y-105249111D01*
X188038940Y-105254612D01*
X187236813Y-106056738D01*
X187397616Y-106166371D01*
X187397624Y-106166376D01*
X187627176Y-106276921D01*
X187627174Y-106276921D01*
X187870652Y-106352024D01*
X187870658Y-106352026D01*
X188122595Y-106389999D01*
X188122604Y-106390000D01*
X188377396Y-106390000D01*
X188377404Y-106389999D01*
X188629341Y-106352026D01*
X188629347Y-106352024D01*
X188872824Y-106276921D01*
X189102376Y-106166376D01*
X189102377Y-106166375D01*
X189263185Y-106056738D01*
X188461060Y-105254612D01*
X188481591Y-105249111D01*
X188618408Y-105170119D01*
X188730119Y-105058408D01*
X188809111Y-104921591D01*
X188814612Y-104901059D01*
X189616544Y-105702992D01*
X189616546Y-105702991D01*
X189658544Y-105650330D01*
X189785941Y-105429671D01*
X189879026Y-105192494D01*
X189879031Y-105192477D01*
X189935726Y-104944079D01*
X189954767Y-104690004D01*
X189954767Y-104689995D01*
X189935726Y-104435920D01*
X189879031Y-104187522D01*
X189879026Y-104187505D01*
X189785941Y-103950328D01*
X189785942Y-103950328D01*
X189658545Y-103729672D01*
X189616545Y-103677006D01*
X188814612Y-104478939D01*
X188809111Y-104458409D01*
X188730119Y-104321592D01*
X188618408Y-104209881D01*
X188481591Y-104130889D01*
X188461059Y-104125387D01*
X189263185Y-103323260D01*
X189102384Y-103213628D01*
X189102376Y-103213623D01*
X188872823Y-103103078D01*
X188872825Y-103103078D01*
X188629347Y-103027975D01*
X188629341Y-103027973D01*
X188377404Y-102990000D01*
X188122595Y-102990000D01*
X187870658Y-103027973D01*
X187870652Y-103027975D01*
X187627175Y-103103078D01*
X187397622Y-103213625D01*
X187397609Y-103213632D01*
X187236813Y-103323259D01*
X188038941Y-104125387D01*
X188018409Y-104130889D01*
X187881592Y-104209881D01*
X187769881Y-104321592D01*
X187690889Y-104458409D01*
X187685387Y-104478941D01*
X186883452Y-103677006D01*
X186841457Y-103729667D01*
X186714058Y-103950328D01*
X186620973Y-104187505D01*
X186620968Y-104187522D01*
X186564273Y-104435920D01*
X186545233Y-104689995D01*
X175650500Y-104689995D01*
X175650500Y-102784995D01*
X181645233Y-102784995D01*
X181645233Y-102785004D01*
X181664273Y-103039079D01*
X181720968Y-103287477D01*
X181720973Y-103287494D01*
X181814058Y-103524671D01*
X181814057Y-103524671D01*
X181941454Y-103745327D01*
X181941461Y-103745338D01*
X181983452Y-103797991D01*
X181983453Y-103797992D01*
X182785387Y-102996058D01*
X182790889Y-103016591D01*
X182869881Y-103153408D01*
X182981592Y-103265119D01*
X183118409Y-103344111D01*
X183138940Y-103349612D01*
X182336813Y-104151738D01*
X182497616Y-104261371D01*
X182497624Y-104261376D01*
X182727176Y-104371921D01*
X182727174Y-104371921D01*
X182970652Y-104447024D01*
X182970658Y-104447026D01*
X183222595Y-104484999D01*
X183222604Y-104485000D01*
X183477396Y-104485000D01*
X183477404Y-104484999D01*
X183729341Y-104447026D01*
X183729347Y-104447024D01*
X183972824Y-104371921D01*
X184202376Y-104261376D01*
X184202377Y-104261375D01*
X184363185Y-104151738D01*
X183561060Y-103349612D01*
X183581591Y-103344111D01*
X183718408Y-103265119D01*
X183830119Y-103153408D01*
X183909111Y-103016591D01*
X183914612Y-102996059D01*
X184716544Y-103797992D01*
X184716546Y-103797991D01*
X184758544Y-103745330D01*
X184885941Y-103524671D01*
X184979026Y-103287494D01*
X184979031Y-103287477D01*
X185035726Y-103039079D01*
X185054767Y-102785004D01*
X185054767Y-102784995D01*
X185035726Y-102530920D01*
X184979031Y-102282522D01*
X184979026Y-102282505D01*
X184885941Y-102045328D01*
X184885942Y-102045328D01*
X184758545Y-101824672D01*
X184716545Y-101772006D01*
X183914612Y-102573939D01*
X183909111Y-102553409D01*
X183830119Y-102416592D01*
X183718408Y-102304881D01*
X183581591Y-102225889D01*
X183561059Y-102220387D01*
X184363185Y-101418260D01*
X184202384Y-101308628D01*
X184202376Y-101308623D01*
X183972823Y-101198078D01*
X183972825Y-101198078D01*
X183729347Y-101122975D01*
X183729341Y-101122973D01*
X183477404Y-101085000D01*
X183222595Y-101085000D01*
X182970658Y-101122973D01*
X182970652Y-101122975D01*
X182727175Y-101198078D01*
X182497622Y-101308625D01*
X182497609Y-101308632D01*
X182336813Y-101418259D01*
X183138941Y-102220387D01*
X183118409Y-102225889D01*
X182981592Y-102304881D01*
X182869881Y-102416592D01*
X182790889Y-102553409D01*
X182785387Y-102573941D01*
X181983452Y-101772006D01*
X181941457Y-101824667D01*
X181814058Y-102045328D01*
X181720973Y-102282505D01*
X181720968Y-102282522D01*
X181664273Y-102530920D01*
X181645233Y-102784995D01*
X175650500Y-102784995D01*
X175650500Y-101774500D01*
X175670185Y-101707461D01*
X175722989Y-101661706D01*
X175774500Y-101650500D01*
X175844644Y-101650500D01*
X175844646Y-101650500D01*
X176029803Y-101611144D01*
X176202730Y-101534151D01*
X176355871Y-101422888D01*
X176482533Y-101282216D01*
X176577179Y-101118284D01*
X176635674Y-100938256D01*
X176641797Y-100879995D01*
X186544732Y-100879995D01*
X186544732Y-100880004D01*
X186563777Y-101134154D01*
X186603600Y-101308632D01*
X186620492Y-101382637D01*
X186713607Y-101619888D01*
X186841041Y-101840612D01*
X186999950Y-102039877D01*
X187186783Y-102213232D01*
X187397366Y-102356805D01*
X187397371Y-102356807D01*
X187397372Y-102356808D01*
X187397373Y-102356809D01*
X187519328Y-102415538D01*
X187626992Y-102467387D01*
X187626993Y-102467387D01*
X187626996Y-102467389D01*
X187870542Y-102542513D01*
X188122565Y-102580500D01*
X188377435Y-102580500D01*
X188629458Y-102542513D01*
X188873004Y-102467389D01*
X189102634Y-102356805D01*
X189313217Y-102213232D01*
X189500050Y-102039877D01*
X189658959Y-101840612D01*
X189786393Y-101619888D01*
X189879508Y-101382637D01*
X189936222Y-101134157D01*
X189950902Y-100938259D01*
X189955268Y-100880004D01*
X189955268Y-100879995D01*
X189939943Y-100675499D01*
X189936222Y-100625843D01*
X189879508Y-100377363D01*
X189786393Y-100140112D01*
X189658959Y-99919388D01*
X189500050Y-99720123D01*
X189313217Y-99546768D01*
X189102634Y-99403195D01*
X189102630Y-99403193D01*
X189102627Y-99403191D01*
X189102626Y-99403190D01*
X188873006Y-99292612D01*
X188873008Y-99292612D01*
X188629466Y-99217489D01*
X188629462Y-99217488D01*
X188629458Y-99217487D01*
X188508231Y-99199214D01*
X188377440Y-99179500D01*
X188377435Y-99179500D01*
X188122565Y-99179500D01*
X188122559Y-99179500D01*
X187965609Y-99203157D01*
X187870542Y-99217487D01*
X187870539Y-99217488D01*
X187870533Y-99217489D01*
X187626992Y-99292612D01*
X187397373Y-99403190D01*
X187397372Y-99403191D01*
X187186782Y-99546768D01*
X186999952Y-99720121D01*
X186999950Y-99720123D01*
X186841041Y-99919388D01*
X186713608Y-100140109D01*
X186620492Y-100377362D01*
X186620490Y-100377369D01*
X186563777Y-100625845D01*
X186544732Y-100879995D01*
X176641797Y-100879995D01*
X176655460Y-100750000D01*
X176635674Y-100561744D01*
X176577179Y-100381716D01*
X176482533Y-100217784D01*
X176355871Y-100077112D01*
X176355870Y-100077111D01*
X176202734Y-99965851D01*
X176202729Y-99965848D01*
X176029807Y-99888857D01*
X176029802Y-99888855D01*
X175884001Y-99857865D01*
X175844646Y-99849500D01*
X175774500Y-99849500D01*
X175707461Y-99829815D01*
X175661706Y-99777011D01*
X175650500Y-99725500D01*
X175650500Y-98974995D01*
X181644732Y-98974995D01*
X181644732Y-98975004D01*
X181663777Y-99229154D01*
X181693902Y-99361142D01*
X181720492Y-99477637D01*
X181813607Y-99714888D01*
X181941041Y-99935612D01*
X182099950Y-100134877D01*
X182286783Y-100308232D01*
X182497366Y-100451805D01*
X182497371Y-100451807D01*
X182497372Y-100451808D01*
X182497373Y-100451809D01*
X182619328Y-100510538D01*
X182726992Y-100562387D01*
X182726993Y-100562387D01*
X182726996Y-100562389D01*
X182970542Y-100637513D01*
X183222565Y-100675500D01*
X183477435Y-100675500D01*
X183729458Y-100637513D01*
X183973004Y-100562389D01*
X184202634Y-100451805D01*
X184413217Y-100308232D01*
X184600050Y-100134877D01*
X184758959Y-99935612D01*
X184886393Y-99714888D01*
X184979508Y-99477637D01*
X185036222Y-99229157D01*
X185050786Y-99034812D01*
X185055268Y-98975004D01*
X185055268Y-98974995D01*
X185036222Y-98720845D01*
X185028784Y-98688259D01*
X184979508Y-98472363D01*
X184886393Y-98235112D01*
X184758959Y-98014388D01*
X184600050Y-97815123D01*
X184413217Y-97641768D01*
X184202634Y-97498195D01*
X184202630Y-97498193D01*
X184202627Y-97498191D01*
X184202626Y-97498190D01*
X183973006Y-97387612D01*
X183973008Y-97387612D01*
X183729466Y-97312489D01*
X183729462Y-97312488D01*
X183729458Y-97312487D01*
X183608231Y-97294214D01*
X183477440Y-97274500D01*
X183477435Y-97274500D01*
X183222565Y-97274500D01*
X183222559Y-97274500D01*
X183065609Y-97298157D01*
X182970542Y-97312487D01*
X182970539Y-97312488D01*
X182970533Y-97312489D01*
X182726992Y-97387612D01*
X182497373Y-97498190D01*
X182497372Y-97498191D01*
X182286782Y-97641768D01*
X182099952Y-97815121D01*
X182099950Y-97815123D01*
X181941041Y-98014388D01*
X181813608Y-98235109D01*
X181720492Y-98472362D01*
X181720490Y-98472369D01*
X181663777Y-98720845D01*
X181644732Y-98974995D01*
X175650500Y-98974995D01*
X175650500Y-97069995D01*
X186545233Y-97069995D01*
X186545233Y-97070004D01*
X186564273Y-97324079D01*
X186620968Y-97572477D01*
X186620973Y-97572494D01*
X186714058Y-97809671D01*
X186714057Y-97809671D01*
X186841454Y-98030327D01*
X186841461Y-98030338D01*
X186883452Y-98082991D01*
X186883453Y-98082992D01*
X187685387Y-97281058D01*
X187690889Y-97301591D01*
X187769881Y-97438408D01*
X187881592Y-97550119D01*
X188018409Y-97629111D01*
X188038940Y-97634612D01*
X187236813Y-98436738D01*
X187397616Y-98546371D01*
X187397624Y-98546376D01*
X187627176Y-98656921D01*
X187627174Y-98656921D01*
X187870652Y-98732024D01*
X187870658Y-98732026D01*
X188122595Y-98769999D01*
X188122604Y-98770000D01*
X188377396Y-98770000D01*
X188377404Y-98769999D01*
X188629341Y-98732026D01*
X188629347Y-98732024D01*
X188872824Y-98656921D01*
X189102376Y-98546376D01*
X189102377Y-98546375D01*
X189263185Y-98436738D01*
X188461060Y-97634612D01*
X188481591Y-97629111D01*
X188618408Y-97550119D01*
X188730119Y-97438408D01*
X188809111Y-97301591D01*
X188814612Y-97281059D01*
X189616544Y-98082992D01*
X189616546Y-98082991D01*
X189658544Y-98030330D01*
X189785941Y-97809671D01*
X189879026Y-97572494D01*
X189879031Y-97572477D01*
X189935726Y-97324079D01*
X189954767Y-97070004D01*
X189954767Y-97069995D01*
X189935726Y-96815920D01*
X189879031Y-96567522D01*
X189879026Y-96567505D01*
X189785941Y-96330328D01*
X189785942Y-96330328D01*
X189658545Y-96109672D01*
X189616545Y-96057006D01*
X188814612Y-96858939D01*
X188809111Y-96838409D01*
X188730119Y-96701592D01*
X188618408Y-96589881D01*
X188481591Y-96510889D01*
X188461059Y-96505387D01*
X189263185Y-95703260D01*
X189102384Y-95593628D01*
X189102376Y-95593623D01*
X188872823Y-95483078D01*
X188872825Y-95483078D01*
X188629347Y-95407975D01*
X188629341Y-95407973D01*
X188377404Y-95370000D01*
X188122595Y-95370000D01*
X187870658Y-95407973D01*
X187870652Y-95407975D01*
X187627175Y-95483078D01*
X187397622Y-95593625D01*
X187397609Y-95593632D01*
X187236813Y-95703259D01*
X188038941Y-96505387D01*
X188018409Y-96510889D01*
X187881592Y-96589881D01*
X187769881Y-96701592D01*
X187690889Y-96838409D01*
X187685387Y-96858941D01*
X186883452Y-96057006D01*
X186841457Y-96109667D01*
X186714058Y-96330328D01*
X186620973Y-96567505D01*
X186620968Y-96567522D01*
X186564273Y-96815920D01*
X186545233Y-97069995D01*
X175650500Y-97069995D01*
X175650500Y-95164995D01*
X181645233Y-95164995D01*
X181645233Y-95165004D01*
X181664273Y-95419079D01*
X181720968Y-95667477D01*
X181720973Y-95667494D01*
X181814058Y-95904671D01*
X181814057Y-95904671D01*
X181941454Y-96125327D01*
X181941461Y-96125338D01*
X181983452Y-96177991D01*
X181983453Y-96177992D01*
X182785387Y-95376058D01*
X182790889Y-95396591D01*
X182869881Y-95533408D01*
X182981592Y-95645119D01*
X183118409Y-95724111D01*
X183138940Y-95729612D01*
X182336813Y-96531738D01*
X182497616Y-96641371D01*
X182497624Y-96641376D01*
X182727176Y-96751921D01*
X182727174Y-96751921D01*
X182970652Y-96827024D01*
X182970658Y-96827026D01*
X183222595Y-96864999D01*
X183222604Y-96865000D01*
X183477396Y-96865000D01*
X183477404Y-96864999D01*
X183729341Y-96827026D01*
X183729347Y-96827024D01*
X183972824Y-96751921D01*
X184202376Y-96641376D01*
X184202377Y-96641375D01*
X184363185Y-96531738D01*
X183561060Y-95729612D01*
X183581591Y-95724111D01*
X183718408Y-95645119D01*
X183830119Y-95533408D01*
X183909111Y-95396591D01*
X183914612Y-95376059D01*
X184716544Y-96177992D01*
X184716546Y-96177991D01*
X184758544Y-96125330D01*
X184885941Y-95904671D01*
X184979026Y-95667494D01*
X184979031Y-95667477D01*
X185035726Y-95419079D01*
X185054767Y-95165004D01*
X185054767Y-95164995D01*
X185035726Y-94910920D01*
X184979031Y-94662522D01*
X184979026Y-94662505D01*
X184885941Y-94425328D01*
X184885942Y-94425328D01*
X184758545Y-94204672D01*
X184716545Y-94152006D01*
X183914612Y-94953939D01*
X183909111Y-94933409D01*
X183830119Y-94796592D01*
X183718408Y-94684881D01*
X183581591Y-94605889D01*
X183561059Y-94600387D01*
X184363185Y-93798260D01*
X184202384Y-93688628D01*
X184202376Y-93688623D01*
X183972823Y-93578078D01*
X183972825Y-93578078D01*
X183729347Y-93502975D01*
X183729341Y-93502973D01*
X183477404Y-93465000D01*
X183222595Y-93465000D01*
X182970658Y-93502973D01*
X182970652Y-93502975D01*
X182727175Y-93578078D01*
X182497622Y-93688625D01*
X182497609Y-93688632D01*
X182336813Y-93798259D01*
X183138941Y-94600387D01*
X183118409Y-94605889D01*
X182981592Y-94684881D01*
X182869881Y-94796592D01*
X182790889Y-94933409D01*
X182785387Y-94953941D01*
X181983452Y-94152006D01*
X181941457Y-94204667D01*
X181814058Y-94425328D01*
X181720973Y-94662505D01*
X181720968Y-94662522D01*
X181664273Y-94910920D01*
X181645233Y-95164995D01*
X175650500Y-95164995D01*
X175650500Y-93259995D01*
X186544732Y-93259995D01*
X186544732Y-93260004D01*
X186563777Y-93514154D01*
X186609726Y-93715472D01*
X186620492Y-93762637D01*
X186701607Y-93969314D01*
X186713608Y-93999890D01*
X186723177Y-94016464D01*
X186841041Y-94220612D01*
X186999950Y-94419877D01*
X187186783Y-94593232D01*
X187397366Y-94736805D01*
X187397371Y-94736807D01*
X187397372Y-94736808D01*
X187397373Y-94736809D01*
X187519328Y-94795538D01*
X187626992Y-94847387D01*
X187626993Y-94847387D01*
X187626996Y-94847389D01*
X187870542Y-94922513D01*
X188122565Y-94960500D01*
X188377435Y-94960500D01*
X188629458Y-94922513D01*
X188873004Y-94847389D01*
X189102634Y-94736805D01*
X189313217Y-94593232D01*
X189500050Y-94419877D01*
X189658959Y-94220612D01*
X189786393Y-93999888D01*
X189879508Y-93762637D01*
X189936222Y-93514157D01*
X189947558Y-93362888D01*
X189955268Y-93260004D01*
X189955268Y-93259995D01*
X189938198Y-93032214D01*
X189936222Y-93005843D01*
X189879508Y-92757363D01*
X189786393Y-92520112D01*
X189658959Y-92299388D01*
X189500050Y-92100123D01*
X189313217Y-91926768D01*
X189102634Y-91783195D01*
X189102630Y-91783193D01*
X189102627Y-91783191D01*
X189102626Y-91783190D01*
X188873006Y-91672612D01*
X188873008Y-91672612D01*
X188629466Y-91597489D01*
X188629462Y-91597488D01*
X188629458Y-91597487D01*
X188508231Y-91579214D01*
X188377440Y-91559500D01*
X188377435Y-91559500D01*
X188122565Y-91559500D01*
X188122559Y-91559500D01*
X187965609Y-91583157D01*
X187870542Y-91597487D01*
X187870539Y-91597488D01*
X187870533Y-91597489D01*
X187626992Y-91672612D01*
X187397373Y-91783190D01*
X187397372Y-91783191D01*
X187186782Y-91926768D01*
X186999952Y-92100121D01*
X186999950Y-92100123D01*
X186841041Y-92299388D01*
X186713608Y-92520109D01*
X186620492Y-92757362D01*
X186620490Y-92757369D01*
X186563777Y-93005845D01*
X186544732Y-93259995D01*
X175650500Y-93259995D01*
X175650500Y-92138393D01*
X175650499Y-92138389D01*
X175626464Y-92017555D01*
X175626463Y-92017548D01*
X175596698Y-91945689D01*
X175579312Y-91903714D01*
X175528127Y-91827112D01*
X175510858Y-91801267D01*
X175510855Y-91801263D01*
X175420637Y-91711045D01*
X175420606Y-91711016D01*
X175064585Y-91354995D01*
X181644732Y-91354995D01*
X181644732Y-91355004D01*
X181663777Y-91609154D01*
X181713524Y-91827112D01*
X181720492Y-91857637D01*
X181813607Y-92094888D01*
X181941041Y-92315612D01*
X182099950Y-92514877D01*
X182286783Y-92688232D01*
X182497366Y-92831805D01*
X182497371Y-92831807D01*
X182497372Y-92831808D01*
X182497373Y-92831809D01*
X182619328Y-92890538D01*
X182726992Y-92942387D01*
X182726993Y-92942387D01*
X182726996Y-92942389D01*
X182970542Y-93017513D01*
X183222565Y-93055500D01*
X183477435Y-93055500D01*
X183729458Y-93017513D01*
X183973004Y-92942389D01*
X184202634Y-92831805D01*
X184413217Y-92688232D01*
X184600050Y-92514877D01*
X184758959Y-92315612D01*
X184886393Y-92094888D01*
X184979508Y-91857637D01*
X185036222Y-91609157D01*
X185054603Y-91363876D01*
X185055268Y-91355004D01*
X185055268Y-91354995D01*
X185037995Y-91124500D01*
X185036222Y-91100843D01*
X184979508Y-90852363D01*
X184886393Y-90615112D01*
X184758959Y-90394388D01*
X184600050Y-90195123D01*
X184413217Y-90021768D01*
X184202634Y-89878195D01*
X184202630Y-89878193D01*
X184202627Y-89878191D01*
X184202626Y-89878190D01*
X183973006Y-89767612D01*
X183973008Y-89767612D01*
X183729466Y-89692489D01*
X183729462Y-89692488D01*
X183729458Y-89692487D01*
X183608231Y-89674214D01*
X183477440Y-89654500D01*
X183477435Y-89654500D01*
X183222565Y-89654500D01*
X183222559Y-89654500D01*
X183065609Y-89678157D01*
X182970542Y-89692487D01*
X182970539Y-89692488D01*
X182970533Y-89692489D01*
X182726992Y-89767612D01*
X182497373Y-89878190D01*
X182497372Y-89878191D01*
X182286782Y-90021768D01*
X182099952Y-90195121D01*
X182099950Y-90195123D01*
X181941041Y-90394388D01*
X181813608Y-90615109D01*
X181720492Y-90852362D01*
X181720490Y-90852369D01*
X181663777Y-91100845D01*
X181644732Y-91354995D01*
X175064585Y-91354995D01*
X173159585Y-89449995D01*
X186544732Y-89449995D01*
X186544732Y-89450004D01*
X186563777Y-89704154D01*
X186617209Y-89938256D01*
X186620492Y-89952637D01*
X186713607Y-90189888D01*
X186841041Y-90410612D01*
X186999950Y-90609877D01*
X187186783Y-90783232D01*
X187397366Y-90926805D01*
X187397371Y-90926807D01*
X187397372Y-90926808D01*
X187397373Y-90926809D01*
X187519328Y-90985538D01*
X187626992Y-91037387D01*
X187626993Y-91037387D01*
X187626996Y-91037389D01*
X187870542Y-91112513D01*
X188122565Y-91150500D01*
X188377435Y-91150500D01*
X188629458Y-91112513D01*
X188873004Y-91037389D01*
X189102634Y-90926805D01*
X189313217Y-90783232D01*
X189500050Y-90609877D01*
X189658959Y-90410612D01*
X189786393Y-90189888D01*
X189879508Y-89952637D01*
X189936222Y-89704157D01*
X189946894Y-89561744D01*
X189955268Y-89450004D01*
X189955268Y-89449995D01*
X189936222Y-89195845D01*
X189931725Y-89176144D01*
X189879508Y-88947363D01*
X189786393Y-88710112D01*
X189658959Y-88489388D01*
X189500050Y-88290123D01*
X189313217Y-88116768D01*
X189102634Y-87973195D01*
X189102630Y-87973193D01*
X189102627Y-87973191D01*
X189102626Y-87973190D01*
X188873006Y-87862612D01*
X188873008Y-87862612D01*
X188629466Y-87787489D01*
X188629462Y-87787488D01*
X188629458Y-87787487D01*
X188508231Y-87769214D01*
X188377440Y-87749500D01*
X188377435Y-87749500D01*
X188122565Y-87749500D01*
X188122559Y-87749500D01*
X187965609Y-87773157D01*
X187870542Y-87787487D01*
X187870539Y-87787488D01*
X187870533Y-87787489D01*
X187626992Y-87862612D01*
X187397373Y-87973190D01*
X187397372Y-87973191D01*
X187186782Y-88116768D01*
X186999952Y-88290121D01*
X186999950Y-88290123D01*
X186841041Y-88489388D01*
X186713608Y-88710109D01*
X186620492Y-88947362D01*
X186620490Y-88947369D01*
X186563777Y-89195845D01*
X186544732Y-89449995D01*
X173159585Y-89449995D01*
X171254585Y-87544995D01*
X181645233Y-87544995D01*
X181645233Y-87545004D01*
X181664273Y-87799079D01*
X181720968Y-88047477D01*
X181720973Y-88047494D01*
X181814058Y-88284671D01*
X181814057Y-88284671D01*
X181941454Y-88505327D01*
X181941461Y-88505338D01*
X181983452Y-88557991D01*
X181983453Y-88557992D01*
X182785387Y-87756058D01*
X182790889Y-87776591D01*
X182869881Y-87913408D01*
X182981592Y-88025119D01*
X183118409Y-88104111D01*
X183138940Y-88109612D01*
X182336813Y-88911738D01*
X182497616Y-89021371D01*
X182497624Y-89021376D01*
X182727176Y-89131921D01*
X182727174Y-89131921D01*
X182970652Y-89207024D01*
X182970658Y-89207026D01*
X183222595Y-89244999D01*
X183222604Y-89245000D01*
X183477396Y-89245000D01*
X183477404Y-89244999D01*
X183729341Y-89207026D01*
X183729347Y-89207024D01*
X183972824Y-89131921D01*
X184202376Y-89021376D01*
X184202377Y-89021375D01*
X184363185Y-88911738D01*
X183561060Y-88109612D01*
X183581591Y-88104111D01*
X183718408Y-88025119D01*
X183830119Y-87913408D01*
X183909111Y-87776591D01*
X183914612Y-87756059D01*
X184716544Y-88557992D01*
X184716546Y-88557991D01*
X184758544Y-88505330D01*
X184885941Y-88284671D01*
X184979026Y-88047494D01*
X184979031Y-88047477D01*
X185035726Y-87799079D01*
X185054767Y-87545004D01*
X185054767Y-87544995D01*
X185035726Y-87290920D01*
X184979031Y-87042522D01*
X184979026Y-87042505D01*
X184885941Y-86805328D01*
X184885942Y-86805328D01*
X184758545Y-86584672D01*
X184716545Y-86532006D01*
X183914612Y-87333939D01*
X183909111Y-87313409D01*
X183830119Y-87176592D01*
X183718408Y-87064881D01*
X183581591Y-86985889D01*
X183561059Y-86980387D01*
X184363185Y-86178260D01*
X184202384Y-86068628D01*
X184202376Y-86068623D01*
X183972823Y-85958078D01*
X183972825Y-85958078D01*
X183729347Y-85882975D01*
X183729341Y-85882973D01*
X183477404Y-85845000D01*
X183222595Y-85845000D01*
X182970658Y-85882973D01*
X182970652Y-85882975D01*
X182727175Y-85958078D01*
X182497622Y-86068625D01*
X182497609Y-86068632D01*
X182336813Y-86178259D01*
X183138941Y-86980387D01*
X183118409Y-86985889D01*
X182981592Y-87064881D01*
X182869881Y-87176592D01*
X182790889Y-87313409D01*
X182785387Y-87333941D01*
X181983452Y-86532006D01*
X181941457Y-86584667D01*
X181814058Y-86805328D01*
X181720973Y-87042505D01*
X181720968Y-87042522D01*
X181664273Y-87290920D01*
X181645233Y-87544995D01*
X171254585Y-87544995D01*
X169349585Y-85639995D01*
X186544732Y-85639995D01*
X186544732Y-85640004D01*
X186563777Y-85894154D01*
X186616585Y-86125522D01*
X186620492Y-86142637D01*
X186713607Y-86379888D01*
X186841041Y-86600612D01*
X186999950Y-86799877D01*
X187186783Y-86973232D01*
X187397366Y-87116805D01*
X187397371Y-87116807D01*
X187397372Y-87116808D01*
X187397373Y-87116809D01*
X187519328Y-87175538D01*
X187626992Y-87227387D01*
X187626993Y-87227387D01*
X187626996Y-87227389D01*
X187870542Y-87302513D01*
X188122565Y-87340500D01*
X188377435Y-87340500D01*
X188629458Y-87302513D01*
X188873004Y-87227389D01*
X189102634Y-87116805D01*
X189313217Y-86973232D01*
X189500050Y-86799877D01*
X189658959Y-86600612D01*
X189786393Y-86379888D01*
X189879508Y-86142637D01*
X189936222Y-85894157D01*
X189945540Y-85769815D01*
X189955268Y-85640004D01*
X189955268Y-85639995D01*
X189938084Y-85410687D01*
X189936222Y-85385843D01*
X189879508Y-85137363D01*
X189786393Y-84900112D01*
X189658959Y-84679388D01*
X189500050Y-84480123D01*
X189313217Y-84306768D01*
X189102634Y-84163195D01*
X189102630Y-84163193D01*
X189102627Y-84163191D01*
X189102626Y-84163190D01*
X188873006Y-84052612D01*
X188873008Y-84052612D01*
X188629466Y-83977489D01*
X188629462Y-83977488D01*
X188629458Y-83977487D01*
X188508231Y-83959214D01*
X188377440Y-83939500D01*
X188377435Y-83939500D01*
X188122565Y-83939500D01*
X188122559Y-83939500D01*
X187965609Y-83963157D01*
X187870542Y-83977487D01*
X187870539Y-83977488D01*
X187870533Y-83977489D01*
X187626992Y-84052612D01*
X187397373Y-84163190D01*
X187397372Y-84163191D01*
X187186782Y-84306768D01*
X186999952Y-84480121D01*
X186999950Y-84480123D01*
X186841041Y-84679388D01*
X186713608Y-84900109D01*
X186620492Y-85137362D01*
X186620490Y-85137369D01*
X186563777Y-85385845D01*
X186544732Y-85639995D01*
X169349585Y-85639995D01*
X167444585Y-83734995D01*
X181644732Y-83734995D01*
X181644732Y-83735004D01*
X181663777Y-83989154D01*
X181700603Y-84150500D01*
X181720492Y-84237637D01*
X181813607Y-84474888D01*
X181941041Y-84695612D01*
X182099950Y-84894877D01*
X182286783Y-85068232D01*
X182497366Y-85211805D01*
X182497371Y-85211807D01*
X182497372Y-85211808D01*
X182497373Y-85211809D01*
X182612002Y-85267011D01*
X182726992Y-85322387D01*
X182726993Y-85322387D01*
X182726996Y-85322389D01*
X182970542Y-85397513D01*
X183222565Y-85435500D01*
X183477435Y-85435500D01*
X183729458Y-85397513D01*
X183973004Y-85322389D01*
X184154458Y-85235005D01*
X184202626Y-85211809D01*
X184202626Y-85211808D01*
X184202634Y-85211805D01*
X184413217Y-85068232D01*
X184600050Y-84894877D01*
X184758959Y-84695612D01*
X184886393Y-84474888D01*
X184979508Y-84237637D01*
X185036222Y-83989157D01*
X185051184Y-83789500D01*
X185055268Y-83735004D01*
X185055268Y-83734995D01*
X185039943Y-83530499D01*
X185036222Y-83480843D01*
X184979508Y-83232363D01*
X184886393Y-82995112D01*
X184758959Y-82774388D01*
X184600050Y-82575123D01*
X184413217Y-82401768D01*
X184202634Y-82258195D01*
X184202630Y-82258193D01*
X184202627Y-82258191D01*
X184202626Y-82258190D01*
X183973006Y-82147612D01*
X183973008Y-82147612D01*
X183729466Y-82072489D01*
X183729462Y-82072488D01*
X183729458Y-82072487D01*
X183608231Y-82054214D01*
X183477440Y-82034500D01*
X183477435Y-82034500D01*
X183222565Y-82034500D01*
X183222559Y-82034500D01*
X183065609Y-82058157D01*
X182970542Y-82072487D01*
X182970539Y-82072488D01*
X182970533Y-82072489D01*
X182726992Y-82147612D01*
X182497373Y-82258190D01*
X182497372Y-82258191D01*
X182286782Y-82401768D01*
X182099952Y-82575121D01*
X182099950Y-82575123D01*
X181941041Y-82774388D01*
X181813608Y-82995109D01*
X181720492Y-83232362D01*
X181720490Y-83232369D01*
X181663777Y-83480845D01*
X181644732Y-83734995D01*
X167444585Y-83734995D01*
X165539585Y-81829995D01*
X186544732Y-81829995D01*
X186544732Y-81830004D01*
X186563777Y-82084154D01*
X186618000Y-82321722D01*
X186620492Y-82332637D01*
X186713607Y-82569888D01*
X186841041Y-82790612D01*
X186999950Y-82989877D01*
X187186783Y-83163232D01*
X187397366Y-83306805D01*
X187397371Y-83306807D01*
X187397372Y-83306808D01*
X187397373Y-83306809D01*
X187519328Y-83365538D01*
X187626992Y-83417387D01*
X187626993Y-83417387D01*
X187626996Y-83417389D01*
X187870542Y-83492513D01*
X188122565Y-83530500D01*
X188377435Y-83530500D01*
X188629458Y-83492513D01*
X188873004Y-83417389D01*
X189102634Y-83306805D01*
X189313217Y-83163232D01*
X189500050Y-82989877D01*
X189658959Y-82790612D01*
X189786393Y-82569888D01*
X189879508Y-82332637D01*
X189936222Y-82084157D01*
X189949584Y-81905848D01*
X189955268Y-81830004D01*
X189955268Y-81829995D01*
X189936222Y-81575845D01*
X189912407Y-81471505D01*
X189879508Y-81327363D01*
X189786393Y-81090112D01*
X189658959Y-80869388D01*
X189500050Y-80670123D01*
X189313217Y-80496768D01*
X189102634Y-80353195D01*
X189102630Y-80353193D01*
X189102627Y-80353191D01*
X189102626Y-80353190D01*
X188873006Y-80242612D01*
X188873008Y-80242612D01*
X188629466Y-80167489D01*
X188629462Y-80167488D01*
X188629458Y-80167487D01*
X188508231Y-80149214D01*
X188377440Y-80129500D01*
X188377435Y-80129500D01*
X188122565Y-80129500D01*
X188122559Y-80129500D01*
X187965609Y-80153157D01*
X187870542Y-80167487D01*
X187870539Y-80167488D01*
X187870533Y-80167489D01*
X187626992Y-80242612D01*
X187397373Y-80353190D01*
X187397372Y-80353191D01*
X187186782Y-80496768D01*
X186999952Y-80670121D01*
X186999950Y-80670123D01*
X186841041Y-80869388D01*
X186713608Y-81090109D01*
X186620492Y-81327362D01*
X186620490Y-81327369D01*
X186563777Y-81575845D01*
X186544732Y-81829995D01*
X165539585Y-81829995D01*
X163634585Y-79924995D01*
X181645233Y-79924995D01*
X181645233Y-79925004D01*
X181664273Y-80179079D01*
X181720968Y-80427477D01*
X181720973Y-80427494D01*
X181814058Y-80664671D01*
X181814057Y-80664671D01*
X181941454Y-80885327D01*
X181941461Y-80885338D01*
X181983452Y-80937991D01*
X181983453Y-80937992D01*
X182785387Y-80136058D01*
X182790889Y-80156591D01*
X182869881Y-80293408D01*
X182981592Y-80405119D01*
X183118409Y-80484111D01*
X183138940Y-80489612D01*
X182336813Y-81291738D01*
X182497616Y-81401371D01*
X182497624Y-81401376D01*
X182727176Y-81511921D01*
X182727174Y-81511921D01*
X182970652Y-81587024D01*
X182970658Y-81587026D01*
X183222595Y-81624999D01*
X183222604Y-81625000D01*
X183477396Y-81625000D01*
X183477404Y-81624999D01*
X183729341Y-81587026D01*
X183729347Y-81587024D01*
X183972824Y-81511921D01*
X184202376Y-81401376D01*
X184202377Y-81401375D01*
X184363185Y-81291738D01*
X183561060Y-80489612D01*
X183581591Y-80484111D01*
X183718408Y-80405119D01*
X183830119Y-80293408D01*
X183909111Y-80156591D01*
X183914612Y-80136059D01*
X184716544Y-80937992D01*
X184716546Y-80937991D01*
X184758544Y-80885330D01*
X184885941Y-80664671D01*
X184979026Y-80427494D01*
X184979031Y-80427477D01*
X185035726Y-80179079D01*
X185054767Y-79925004D01*
X185054767Y-79924995D01*
X185035726Y-79670920D01*
X184979031Y-79422522D01*
X184979026Y-79422505D01*
X184885941Y-79185328D01*
X184885942Y-79185328D01*
X184758545Y-78964672D01*
X184716545Y-78912006D01*
X183914612Y-79713939D01*
X183909111Y-79693409D01*
X183830119Y-79556592D01*
X183718408Y-79444881D01*
X183581591Y-79365889D01*
X183561059Y-79360387D01*
X184363185Y-78558260D01*
X184202384Y-78448628D01*
X184202376Y-78448623D01*
X183972823Y-78338078D01*
X183972825Y-78338078D01*
X183729347Y-78262975D01*
X183729341Y-78262973D01*
X183477404Y-78225000D01*
X183222595Y-78225000D01*
X182970658Y-78262973D01*
X182970652Y-78262975D01*
X182727175Y-78338078D01*
X182497622Y-78448625D01*
X182497609Y-78448632D01*
X182336813Y-78558259D01*
X183138941Y-79360387D01*
X183118409Y-79365889D01*
X182981592Y-79444881D01*
X182869881Y-79556592D01*
X182790889Y-79693409D01*
X182785387Y-79713941D01*
X181983452Y-78912006D01*
X181941457Y-78964667D01*
X181814058Y-79185328D01*
X181720973Y-79422505D01*
X181720968Y-79422522D01*
X181664273Y-79670920D01*
X181645233Y-79924995D01*
X163634585Y-79924995D01*
X156459589Y-72749999D01*
X174144341Y-72749999D01*
X174144341Y-72750000D01*
X174164936Y-72985403D01*
X174164938Y-72985413D01*
X174226094Y-73213655D01*
X174226096Y-73213659D01*
X174226097Y-73213663D01*
X174229706Y-73221402D01*
X174325965Y-73427830D01*
X174325967Y-73427834D01*
X174413515Y-73552864D01*
X174461501Y-73621396D01*
X174461506Y-73621402D01*
X174628597Y-73788493D01*
X174628603Y-73788498D01*
X174814158Y-73918425D01*
X174857783Y-73973002D01*
X174864977Y-74042500D01*
X174833454Y-74104855D01*
X174814158Y-74121575D01*
X174628597Y-74251505D01*
X174461505Y-74418597D01*
X174325965Y-74612169D01*
X174325964Y-74612171D01*
X174226098Y-74826335D01*
X174226094Y-74826344D01*
X174164938Y-75054586D01*
X174164936Y-75054596D01*
X174144341Y-75289999D01*
X174144341Y-75290000D01*
X174164936Y-75525403D01*
X174164938Y-75525413D01*
X174226094Y-75753655D01*
X174226096Y-75753659D01*
X174226097Y-75753663D01*
X174281517Y-75872511D01*
X174325965Y-75967830D01*
X174325967Y-75967834D01*
X174401108Y-76075145D01*
X174461501Y-76161396D01*
X174461506Y-76161402D01*
X174583818Y-76283714D01*
X174617303Y-76345037D01*
X174612319Y-76414729D01*
X174570447Y-76470662D01*
X174539471Y-76487577D01*
X174407912Y-76536646D01*
X174407906Y-76536649D01*
X174292812Y-76622809D01*
X174292809Y-76622812D01*
X174206649Y-76737906D01*
X174206645Y-76737913D01*
X174156403Y-76872620D01*
X174156401Y-76872627D01*
X174150000Y-76932155D01*
X174150000Y-77580000D01*
X175066988Y-77580000D01*
X175034075Y-77637007D01*
X175000000Y-77764174D01*
X175000000Y-77895826D01*
X175034075Y-78022993D01*
X175066988Y-78080000D01*
X174150000Y-78080000D01*
X174150000Y-78727844D01*
X174156401Y-78787372D01*
X174156403Y-78787379D01*
X174206645Y-78922086D01*
X174206649Y-78922093D01*
X174292809Y-79037187D01*
X174292812Y-79037190D01*
X174407906Y-79123350D01*
X174407913Y-79123354D01*
X174542620Y-79173596D01*
X174542627Y-79173598D01*
X174602155Y-79179999D01*
X174602172Y-79180000D01*
X175250000Y-79180000D01*
X175250000Y-78263012D01*
X175307007Y-78295925D01*
X175434174Y-78330000D01*
X175565826Y-78330000D01*
X175692993Y-78295925D01*
X175750000Y-78263012D01*
X175750000Y-79180000D01*
X176397828Y-79180000D01*
X176397844Y-79179999D01*
X176457372Y-79173598D01*
X176457379Y-79173596D01*
X176592086Y-79123354D01*
X176592093Y-79123350D01*
X176707187Y-79037190D01*
X176707190Y-79037187D01*
X176793350Y-78922093D01*
X176793354Y-78922086D01*
X176843596Y-78787379D01*
X176843598Y-78787372D01*
X176849999Y-78727844D01*
X176850000Y-78727827D01*
X176850000Y-78080000D01*
X175933012Y-78080000D01*
X175965925Y-78022993D01*
X175966728Y-78019995D01*
X186545233Y-78019995D01*
X186545233Y-78020004D01*
X186564273Y-78274079D01*
X186620968Y-78522477D01*
X186620973Y-78522494D01*
X186714058Y-78759671D01*
X186714057Y-78759671D01*
X186841454Y-78980327D01*
X186841461Y-78980338D01*
X186883452Y-79032991D01*
X186883453Y-79032992D01*
X187685387Y-78231058D01*
X187690889Y-78251591D01*
X187769881Y-78388408D01*
X187881592Y-78500119D01*
X188018409Y-78579111D01*
X188038940Y-78584612D01*
X187236813Y-79386738D01*
X187397616Y-79496371D01*
X187397624Y-79496376D01*
X187627176Y-79606921D01*
X187627174Y-79606921D01*
X187870652Y-79682024D01*
X187870658Y-79682026D01*
X188122595Y-79719999D01*
X188122604Y-79720000D01*
X188377396Y-79720000D01*
X188377404Y-79719999D01*
X188629341Y-79682026D01*
X188629347Y-79682024D01*
X188872824Y-79606921D01*
X189102376Y-79496376D01*
X189102377Y-79496375D01*
X189263185Y-79386738D01*
X188461060Y-78584612D01*
X188481591Y-78579111D01*
X188618408Y-78500119D01*
X188730119Y-78388408D01*
X188809111Y-78251591D01*
X188814612Y-78231059D01*
X189616544Y-79032992D01*
X189616546Y-79032991D01*
X189658544Y-78980330D01*
X189785941Y-78759671D01*
X189879026Y-78522494D01*
X189879031Y-78522477D01*
X189935726Y-78274079D01*
X189954767Y-78020004D01*
X189954767Y-78019995D01*
X189935726Y-77765920D01*
X189879031Y-77517522D01*
X189879026Y-77517505D01*
X189785941Y-77280328D01*
X189785942Y-77280328D01*
X189658545Y-77059672D01*
X189616545Y-77007006D01*
X188814612Y-77808939D01*
X188809111Y-77788409D01*
X188730119Y-77651592D01*
X188618408Y-77539881D01*
X188481591Y-77460889D01*
X188461059Y-77455387D01*
X189263185Y-76653260D01*
X189102384Y-76543628D01*
X189102376Y-76543623D01*
X188872823Y-76433078D01*
X188872825Y-76433078D01*
X188629347Y-76357975D01*
X188629341Y-76357973D01*
X188377404Y-76320000D01*
X188122595Y-76320000D01*
X187870658Y-76357973D01*
X187870652Y-76357975D01*
X187627175Y-76433078D01*
X187397622Y-76543625D01*
X187397609Y-76543632D01*
X187236813Y-76653259D01*
X188038941Y-77455387D01*
X188018409Y-77460889D01*
X187881592Y-77539881D01*
X187769881Y-77651592D01*
X187690889Y-77788409D01*
X187685387Y-77808941D01*
X186883452Y-77007006D01*
X186841457Y-77059667D01*
X186714058Y-77280328D01*
X186620973Y-77517505D01*
X186620968Y-77517522D01*
X186564273Y-77765920D01*
X186545233Y-78019995D01*
X175966728Y-78019995D01*
X176000000Y-77895826D01*
X176000000Y-77764174D01*
X175965925Y-77637007D01*
X175933012Y-77580000D01*
X176850000Y-77580000D01*
X176850000Y-76932172D01*
X176849999Y-76932155D01*
X176843598Y-76872627D01*
X176843596Y-76872620D01*
X176793354Y-76737913D01*
X176793350Y-76737906D01*
X176707190Y-76622812D01*
X176707187Y-76622809D01*
X176592093Y-76536649D01*
X176592088Y-76536646D01*
X176460528Y-76487577D01*
X176404595Y-76445705D01*
X176380178Y-76380241D01*
X176395030Y-76311968D01*
X176416175Y-76283720D01*
X176538495Y-76161401D01*
X176673652Y-75968377D01*
X176728229Y-75924752D01*
X176775227Y-75915500D01*
X181526042Y-75915500D01*
X181593081Y-75935185D01*
X181638836Y-75987989D01*
X181649695Y-76048766D01*
X181644732Y-76114995D01*
X181644732Y-76115004D01*
X181663777Y-76369154D01*
X181708227Y-76563903D01*
X181720492Y-76617637D01*
X181790093Y-76794977D01*
X181813608Y-76854890D01*
X181827098Y-76878256D01*
X181941041Y-77075612D01*
X182099950Y-77274877D01*
X182286783Y-77448232D01*
X182497366Y-77591805D01*
X182497371Y-77591807D01*
X182497372Y-77591808D01*
X182497373Y-77591809D01*
X182591229Y-77637007D01*
X182726992Y-77702387D01*
X182726993Y-77702387D01*
X182726996Y-77702389D01*
X182970542Y-77777513D01*
X183222565Y-77815500D01*
X183477435Y-77815500D01*
X183729458Y-77777513D01*
X183973004Y-77702389D01*
X184202634Y-77591805D01*
X184413217Y-77448232D01*
X184600050Y-77274877D01*
X184758959Y-77075612D01*
X184886393Y-76854888D01*
X184979508Y-76617637D01*
X185036222Y-76369157D01*
X185050579Y-76177570D01*
X185055268Y-76115004D01*
X185055268Y-76114995D01*
X185039595Y-75905848D01*
X185036222Y-75860843D01*
X184979508Y-75612363D01*
X184886393Y-75375112D01*
X184758959Y-75154388D01*
X184600050Y-74955123D01*
X184413217Y-74781768D01*
X184202634Y-74638195D01*
X184202630Y-74638193D01*
X184202627Y-74638191D01*
X184202626Y-74638190D01*
X183973006Y-74527612D01*
X183973008Y-74527612D01*
X183729466Y-74452489D01*
X183729462Y-74452488D01*
X183729458Y-74452487D01*
X183608231Y-74434214D01*
X183477440Y-74414500D01*
X183477435Y-74414500D01*
X183222565Y-74414500D01*
X183222559Y-74414500D01*
X183065609Y-74438157D01*
X182970542Y-74452487D01*
X182970539Y-74452488D01*
X182970533Y-74452489D01*
X182726992Y-74527612D01*
X182497373Y-74638190D01*
X182497365Y-74638195D01*
X182490386Y-74642954D01*
X182423906Y-74664454D01*
X182420535Y-74664500D01*
X176775227Y-74664500D01*
X176708188Y-74644815D01*
X176673652Y-74611623D01*
X176538494Y-74418597D01*
X176371402Y-74251506D01*
X176371396Y-74251501D01*
X176312119Y-74209995D01*
X186544732Y-74209995D01*
X186544732Y-74210004D01*
X186563777Y-74464154D01*
X186609494Y-74664454D01*
X186620492Y-74712637D01*
X186713607Y-74949888D01*
X186841041Y-75170612D01*
X186999950Y-75369877D01*
X187186783Y-75543232D01*
X187397366Y-75686805D01*
X187397371Y-75686807D01*
X187397372Y-75686808D01*
X187397373Y-75686809D01*
X187508653Y-75740398D01*
X187626992Y-75797387D01*
X187626993Y-75797387D01*
X187626996Y-75797389D01*
X187870542Y-75872513D01*
X188122565Y-75910500D01*
X188377435Y-75910500D01*
X188629458Y-75872513D01*
X188873004Y-75797389D01*
X189102634Y-75686805D01*
X189313217Y-75543232D01*
X189500050Y-75369877D01*
X189658959Y-75170612D01*
X189786393Y-74949888D01*
X189879508Y-74712637D01*
X189936222Y-74464157D01*
X189952158Y-74251501D01*
X189955268Y-74210004D01*
X189955268Y-74209995D01*
X189936222Y-73955845D01*
X189934613Y-73948797D01*
X189879508Y-73707363D01*
X189786393Y-73470112D01*
X189658959Y-73249388D01*
X189500050Y-73050123D01*
X189313217Y-72876768D01*
X189102634Y-72733195D01*
X189102630Y-72733193D01*
X189102627Y-72733191D01*
X189102626Y-72733190D01*
X188873006Y-72622612D01*
X188873008Y-72622612D01*
X188629466Y-72547489D01*
X188629462Y-72547488D01*
X188629458Y-72547487D01*
X188508231Y-72529214D01*
X188377440Y-72509500D01*
X188377435Y-72509500D01*
X188122565Y-72509500D01*
X188122559Y-72509500D01*
X187965609Y-72533157D01*
X187870542Y-72547487D01*
X187870539Y-72547488D01*
X187870533Y-72547489D01*
X187626992Y-72622612D01*
X187397373Y-72733190D01*
X187397372Y-72733191D01*
X187186782Y-72876768D01*
X186999952Y-73050121D01*
X186999950Y-73050123D01*
X186841041Y-73249388D01*
X186713608Y-73470109D01*
X186620492Y-73707362D01*
X186620490Y-73707369D01*
X186563777Y-73955845D01*
X186544732Y-74209995D01*
X176312119Y-74209995D01*
X176185842Y-74121575D01*
X176142217Y-74066998D01*
X176135023Y-73997500D01*
X176166546Y-73935145D01*
X176185842Y-73918425D01*
X176265648Y-73862544D01*
X176371401Y-73788495D01*
X176538495Y-73621401D01*
X176673652Y-73428377D01*
X176728229Y-73384752D01*
X176775227Y-73375500D01*
X181525501Y-73375500D01*
X181592540Y-73395185D01*
X181638295Y-73447989D01*
X181649501Y-73499500D01*
X181649501Y-73552876D01*
X181655908Y-73612483D01*
X181706202Y-73747328D01*
X181706206Y-73747335D01*
X181792452Y-73862544D01*
X181792455Y-73862547D01*
X181907664Y-73948793D01*
X181907671Y-73948797D01*
X182042517Y-73999091D01*
X182042516Y-73999091D01*
X182049444Y-73999835D01*
X182102127Y-74005500D01*
X184597872Y-74005499D01*
X184657483Y-73999091D01*
X184792331Y-73948796D01*
X184907546Y-73862546D01*
X184993796Y-73747331D01*
X185044091Y-73612483D01*
X185050500Y-73552873D01*
X185050499Y-71057128D01*
X185044091Y-70997517D01*
X185043206Y-70995145D01*
X184993797Y-70862671D01*
X184993793Y-70862664D01*
X184907547Y-70747455D01*
X184907544Y-70747452D01*
X184792335Y-70661206D01*
X184792328Y-70661202D01*
X184657482Y-70610908D01*
X184657483Y-70610908D01*
X184597883Y-70604501D01*
X184597881Y-70604500D01*
X184597873Y-70604500D01*
X184597864Y-70604500D01*
X182102129Y-70604500D01*
X182102123Y-70604501D01*
X182042516Y-70610908D01*
X181907671Y-70661202D01*
X181907664Y-70661206D01*
X181792455Y-70747452D01*
X181792452Y-70747455D01*
X181706206Y-70862664D01*
X181706202Y-70862671D01*
X181655908Y-70997517D01*
X181649501Y-71057116D01*
X181649501Y-71057123D01*
X181649500Y-71057135D01*
X181649500Y-72000500D01*
X181629815Y-72067539D01*
X181577011Y-72113294D01*
X181525500Y-72124500D01*
X176775227Y-72124500D01*
X176708188Y-72104815D01*
X176673652Y-72071623D01*
X176538494Y-71878597D01*
X176371402Y-71711506D01*
X176371395Y-71711501D01*
X176177834Y-71575967D01*
X176177830Y-71575965D01*
X176177828Y-71575964D01*
X175963663Y-71476097D01*
X175963659Y-71476096D01*
X175963655Y-71476094D01*
X175735413Y-71414938D01*
X175735403Y-71414936D01*
X175500001Y-71394341D01*
X175499999Y-71394341D01*
X175264596Y-71414936D01*
X175264586Y-71414938D01*
X175036344Y-71476094D01*
X175036337Y-71476096D01*
X175036337Y-71476097D01*
X175022816Y-71482401D01*
X174822171Y-71575964D01*
X174822169Y-71575965D01*
X174628597Y-71711505D01*
X174461505Y-71878597D01*
X174325965Y-72072169D01*
X174325964Y-72072171D01*
X174226098Y-72286335D01*
X174226094Y-72286344D01*
X174164938Y-72514586D01*
X174164936Y-72514596D01*
X174144341Y-72749999D01*
X156459589Y-72749999D01*
X150014590Y-66305000D01*
X188350000Y-66305000D01*
X191850000Y-66305000D01*
X191850000Y-63805000D01*
X188350000Y-63805000D01*
X188350000Y-66305000D01*
X150014590Y-66305000D01*
X149012718Y-65303128D01*
X148979233Y-65241805D01*
X148984217Y-65172113D01*
X149026089Y-65116180D01*
X149049963Y-65102168D01*
X149202730Y-65034151D01*
X149355871Y-64922888D01*
X149482533Y-64782216D01*
X149577179Y-64618284D01*
X149635674Y-64438256D01*
X149655460Y-64250000D01*
X149635674Y-64061744D01*
X149577179Y-63881716D01*
X149482533Y-63717784D01*
X149355871Y-63577112D01*
X149311473Y-63544855D01*
X149202732Y-63465850D01*
X149199060Y-63464215D01*
X149197278Y-63462701D01*
X149197104Y-63462600D01*
X149197122Y-63462567D01*
X149145825Y-63418962D01*
X149125506Y-63352112D01*
X149125500Y-63350937D01*
X149125500Y-59898687D01*
X149145185Y-59831648D01*
X149157350Y-59815715D01*
X149175891Y-59795122D01*
X149232533Y-59732216D01*
X149327179Y-59568284D01*
X149385674Y-59388256D01*
X149405460Y-59200000D01*
X149385674Y-59011744D01*
X149327179Y-58831716D01*
X149232533Y-58667784D01*
X149105871Y-58527112D01*
X149105870Y-58527111D01*
X148952734Y-58415851D01*
X148952729Y-58415848D01*
X148779807Y-58338857D01*
X148779802Y-58338855D01*
X148634001Y-58307865D01*
X148594646Y-58299500D01*
X148405354Y-58299500D01*
X148372897Y-58306398D01*
X148220197Y-58338855D01*
X148220192Y-58338857D01*
X148047270Y-58415848D01*
X148047265Y-58415851D01*
X147894129Y-58527111D01*
X147767466Y-58667785D01*
X147672821Y-58831715D01*
X147672818Y-58831722D01*
X147627184Y-58972171D01*
X147614326Y-59011744D01*
X147594540Y-59200000D01*
X147614326Y-59388256D01*
X147614327Y-59388259D01*
X147672818Y-59568277D01*
X147672821Y-59568284D01*
X147767467Y-59732216D01*
X147810772Y-59780310D01*
X147842650Y-59815715D01*
X147872880Y-59878706D01*
X147874500Y-59898687D01*
X147874500Y-63865548D01*
X147854815Y-63932587D01*
X147802011Y-63978342D01*
X147732853Y-63988286D01*
X147669297Y-63959261D01*
X147662819Y-63953229D01*
X145505198Y-61795608D01*
X145505178Y-61795586D01*
X145413733Y-61704141D01*
X145362509Y-61669915D01*
X145311287Y-61635689D01*
X145311286Y-61635688D01*
X145311283Y-61635686D01*
X145311280Y-61635685D01*
X145230792Y-61602347D01*
X145197453Y-61588537D01*
X145187427Y-61586543D01*
X145137029Y-61576518D01*
X145076610Y-61564500D01*
X145076607Y-61564500D01*
X145076606Y-61564500D01*
X134065227Y-61564500D01*
X133998188Y-61544815D01*
X133963652Y-61511623D01*
X133828494Y-61318597D01*
X133661402Y-61151506D01*
X133661396Y-61151501D01*
X133475842Y-61021575D01*
X133432217Y-60966998D01*
X133425023Y-60897500D01*
X133456546Y-60835145D01*
X133475842Y-60818425D01*
X133498026Y-60802891D01*
X133661401Y-60688495D01*
X133828495Y-60521401D01*
X133964035Y-60327830D01*
X134063903Y-60113663D01*
X134125063Y-59885408D01*
X134145659Y-59650000D01*
X134125063Y-59414592D01*
X134063903Y-59186337D01*
X133964035Y-58972171D01*
X133958425Y-58964158D01*
X133828494Y-58778597D01*
X133661402Y-58611506D01*
X133661396Y-58611501D01*
X133475842Y-58481575D01*
X133432217Y-58426998D01*
X133425023Y-58357500D01*
X133456546Y-58295145D01*
X133475842Y-58278425D01*
X133498026Y-58262891D01*
X133661401Y-58148495D01*
X133828495Y-57981401D01*
X133964035Y-57787830D01*
X134063903Y-57573663D01*
X134125063Y-57345408D01*
X134145659Y-57110000D01*
X134125063Y-56874592D01*
X134063903Y-56646337D01*
X133964035Y-56432171D01*
X133958425Y-56424158D01*
X133828494Y-56238597D01*
X133661402Y-56071506D01*
X133661395Y-56071501D01*
X133467834Y-55935967D01*
X133467830Y-55935965D01*
X133467828Y-55935964D01*
X133253663Y-55836097D01*
X133253659Y-55836096D01*
X133253655Y-55836094D01*
X133025413Y-55774938D01*
X133025403Y-55774936D01*
X132790001Y-55754341D01*
X132789999Y-55754341D01*
X132554596Y-55774936D01*
X132554586Y-55774938D01*
X132326344Y-55836094D01*
X132326335Y-55836098D01*
X132112171Y-55935964D01*
X132112169Y-55935965D01*
X131918597Y-56071505D01*
X131751505Y-56238597D01*
X131621575Y-56424158D01*
X131566998Y-56467783D01*
X131497500Y-56474977D01*
X131435145Y-56443454D01*
X131418425Y-56424158D01*
X131288494Y-56238597D01*
X131121402Y-56071506D01*
X131121395Y-56071501D01*
X130927834Y-55935967D01*
X130927830Y-55935965D01*
X130927828Y-55935964D01*
X130713663Y-55836097D01*
X130713659Y-55836096D01*
X130713655Y-55836094D01*
X130485413Y-55774938D01*
X130485403Y-55774936D01*
X130250001Y-55754341D01*
X130249999Y-55754341D01*
X130014596Y-55774936D01*
X130014586Y-55774938D01*
X129786344Y-55836094D01*
X129786335Y-55836098D01*
X129572171Y-55935964D01*
X129572169Y-55935965D01*
X129378597Y-56071505D01*
X129211505Y-56238597D01*
X129075965Y-56432169D01*
X129075964Y-56432171D01*
X128976098Y-56646335D01*
X128976094Y-56646344D01*
X128914938Y-56874586D01*
X128914936Y-56874596D01*
X128894341Y-57109999D01*
X118750000Y-57109999D01*
X118750000Y-49500000D01*
X139344540Y-49500000D01*
X139364326Y-49688256D01*
X139364327Y-49688259D01*
X139422818Y-49868277D01*
X139422821Y-49868284D01*
X139517467Y-50032216D01*
X139644129Y-50172888D01*
X139797265Y-50284148D01*
X139797270Y-50284151D01*
X139970192Y-50361142D01*
X139970197Y-50361144D01*
X140155354Y-50400500D01*
X140155355Y-50400500D01*
X140344644Y-50400500D01*
X140344646Y-50400500D01*
X140529803Y-50361144D01*
X140702730Y-50284151D01*
X140855871Y-50172888D01*
X140982533Y-50032216D01*
X141077179Y-49868284D01*
X141135674Y-49688256D01*
X141155460Y-49500000D01*
X141135674Y-49311744D01*
X141077179Y-49131716D01*
X140982533Y-48967784D01*
X140855871Y-48827112D01*
X140855870Y-48827111D01*
X140702734Y-48715851D01*
X140702729Y-48715848D01*
X140529807Y-48638857D01*
X140529802Y-48638855D01*
X140384001Y-48607865D01*
X140344646Y-48599500D01*
X140155354Y-48599500D01*
X140122897Y-48606398D01*
X139970197Y-48638855D01*
X139970192Y-48638857D01*
X139797270Y-48715848D01*
X139797265Y-48715851D01*
X139644129Y-48827111D01*
X139517466Y-48967785D01*
X139422821Y-49131715D01*
X139422818Y-49131722D01*
X139364327Y-49311740D01*
X139364326Y-49311744D01*
X139344540Y-49500000D01*
X118750000Y-49500000D01*
X118750000Y-48497059D01*
X146151602Y-48497059D01*
X146171388Y-48685315D01*
X146171389Y-48685318D01*
X146229880Y-48865336D01*
X146229883Y-48865343D01*
X146324529Y-49029275D01*
X146434209Y-49151087D01*
X146451191Y-49169947D01*
X146604327Y-49281207D01*
X146604332Y-49281210D01*
X146777254Y-49358201D01*
X146777259Y-49358203D01*
X146962416Y-49397559D01*
X147021610Y-49397559D01*
X147088649Y-49417244D01*
X147109291Y-49433878D01*
X151071019Y-53395606D01*
X151071048Y-53395637D01*
X151161266Y-53485855D01*
X151161270Y-53485858D01*
X151263710Y-53554307D01*
X151263716Y-53554310D01*
X151263717Y-53554311D01*
X151377551Y-53601463D01*
X151437974Y-53613481D01*
X151498396Y-53625500D01*
X151498397Y-53625500D01*
X182030459Y-53625500D01*
X182097498Y-53645185D01*
X182143253Y-53697989D01*
X182145874Y-53704166D01*
X182168347Y-53761426D01*
X182168434Y-53761647D01*
X182214204Y-53840923D01*
X182299614Y-53988857D01*
X182386077Y-54097278D01*
X182463198Y-54193985D01*
X182644753Y-54362441D01*
X182655521Y-54372433D01*
X182872296Y-54520228D01*
X182872301Y-54520230D01*
X182872302Y-54520231D01*
X182872303Y-54520232D01*
X182976938Y-54570621D01*
X183108673Y-54634061D01*
X183108674Y-54634061D01*
X183108677Y-54634063D01*
X183359385Y-54711396D01*
X183618818Y-54750500D01*
X183881182Y-54750500D01*
X184140615Y-54711396D01*
X184391323Y-54634063D01*
X184499490Y-54581972D01*
X184568428Y-54570621D01*
X184632563Y-54598343D01*
X184671529Y-54656338D01*
X184672954Y-54726193D01*
X184668717Y-54738995D01*
X184573058Y-54982729D01*
X184514693Y-55238449D01*
X184514692Y-55238454D01*
X184495093Y-55499995D01*
X184495093Y-55500004D01*
X184514692Y-55761545D01*
X184514693Y-55761550D01*
X184573058Y-56017270D01*
X184668883Y-56261426D01*
X184668882Y-56261426D01*
X184800027Y-56488573D01*
X184847874Y-56548571D01*
X185610689Y-55785756D01*
X185629668Y-55831574D01*
X185706274Y-55946224D01*
X185803776Y-56043726D01*
X185918426Y-56120332D01*
X185964242Y-56139309D01*
X185200830Y-56902720D01*
X185372546Y-57019793D01*
X185372550Y-57019795D01*
X185608854Y-57133594D01*
X185608858Y-57133595D01*
X185859494Y-57210907D01*
X185859500Y-57210909D01*
X186118848Y-57249999D01*
X186118857Y-57250000D01*
X186381143Y-57250000D01*
X186381151Y-57249999D01*
X186640499Y-57210909D01*
X186640505Y-57210907D01*
X186891143Y-57133595D01*
X187127445Y-57019798D01*
X187127447Y-57019797D01*
X187299168Y-56902720D01*
X186535757Y-56139309D01*
X186581574Y-56120332D01*
X186696224Y-56043726D01*
X186793726Y-55946224D01*
X186870332Y-55831574D01*
X186889309Y-55785756D01*
X187652125Y-56548572D01*
X187699971Y-56488573D01*
X187831116Y-56261426D01*
X187926941Y-56017270D01*
X187985306Y-55761550D01*
X187985307Y-55761545D01*
X188004907Y-55500004D01*
X188004907Y-55499995D01*
X187985307Y-55238454D01*
X187985306Y-55238449D01*
X187926941Y-54982729D01*
X187831116Y-54738573D01*
X187831117Y-54738573D01*
X187699972Y-54511426D01*
X187652124Y-54451427D01*
X186889309Y-55214242D01*
X186870332Y-55168426D01*
X186793726Y-55053776D01*
X186696224Y-54956274D01*
X186581574Y-54879668D01*
X186535756Y-54860690D01*
X187299168Y-54097278D01*
X187127454Y-53980206D01*
X187127445Y-53980201D01*
X186891142Y-53866404D01*
X186891144Y-53866404D01*
X186640505Y-53789092D01*
X186640499Y-53789090D01*
X186381151Y-53750000D01*
X186118848Y-53750000D01*
X185859500Y-53789090D01*
X185859494Y-53789092D01*
X185608858Y-53866404D01*
X185608849Y-53866407D01*
X185500904Y-53918391D01*
X185431963Y-53929743D01*
X185367829Y-53902021D01*
X185328863Y-53844025D01*
X185327438Y-53774170D01*
X185331672Y-53761377D01*
X185427420Y-53517416D01*
X185485802Y-53261630D01*
X185485808Y-53261550D01*
X185505408Y-53000004D01*
X185505408Y-52999995D01*
X194495093Y-52999995D01*
X194495093Y-53000004D01*
X194514692Y-53261545D01*
X194514693Y-53261550D01*
X194573058Y-53517270D01*
X194668883Y-53761426D01*
X194668882Y-53761426D01*
X194800027Y-53988573D01*
X194847874Y-54048571D01*
X195610689Y-53285756D01*
X195629668Y-53331574D01*
X195706274Y-53446224D01*
X195803776Y-53543726D01*
X195918426Y-53620332D01*
X195964242Y-53639309D01*
X195200830Y-54402720D01*
X195372546Y-54519793D01*
X195372550Y-54519795D01*
X195608854Y-54633594D01*
X195608858Y-54633595D01*
X195859494Y-54710907D01*
X195859500Y-54710909D01*
X196118848Y-54749999D01*
X196118857Y-54750000D01*
X196381143Y-54750000D01*
X196381151Y-54749999D01*
X196640499Y-54710909D01*
X196640505Y-54710907D01*
X196891143Y-54633595D01*
X197127445Y-54519798D01*
X197127447Y-54519797D01*
X197299168Y-54402720D01*
X196535757Y-53639309D01*
X196581574Y-53620332D01*
X196696224Y-53543726D01*
X196793726Y-53446224D01*
X196870332Y-53331574D01*
X196889309Y-53285756D01*
X197652125Y-54048572D01*
X197699971Y-53988573D01*
X197831116Y-53761426D01*
X197926941Y-53517270D01*
X197985306Y-53261550D01*
X197985307Y-53261545D01*
X198004907Y-53000004D01*
X198004907Y-52999995D01*
X197985307Y-52738454D01*
X197985306Y-52738449D01*
X197926941Y-52482729D01*
X197831116Y-52238573D01*
X197831117Y-52238573D01*
X197699972Y-52011426D01*
X197652124Y-51951427D01*
X196889309Y-52714242D01*
X196870332Y-52668426D01*
X196793726Y-52553776D01*
X196696224Y-52456274D01*
X196581574Y-52379668D01*
X196535757Y-52360690D01*
X197299168Y-51597278D01*
X197127454Y-51480206D01*
X197127445Y-51480201D01*
X196891142Y-51366404D01*
X196891144Y-51366404D01*
X196640505Y-51289092D01*
X196640499Y-51289090D01*
X196381151Y-51250000D01*
X196118848Y-51250000D01*
X195859500Y-51289090D01*
X195859494Y-51289092D01*
X195608858Y-51366404D01*
X195608854Y-51366405D01*
X195372547Y-51480205D01*
X195372539Y-51480210D01*
X195200830Y-51597277D01*
X195964243Y-52360690D01*
X195918426Y-52379668D01*
X195803776Y-52456274D01*
X195706274Y-52553776D01*
X195629668Y-52668426D01*
X195610690Y-52714242D01*
X194847874Y-51951427D01*
X194800028Y-52011425D01*
X194668883Y-52238573D01*
X194573058Y-52482729D01*
X194514693Y-52738449D01*
X194514692Y-52738454D01*
X194495093Y-52999995D01*
X185505408Y-52999995D01*
X185485803Y-52738379D01*
X185485802Y-52738374D01*
X185485802Y-52738370D01*
X185427420Y-52482584D01*
X185331568Y-52238357D01*
X185200386Y-52011143D01*
X185036805Y-51806019D01*
X185036804Y-51806018D01*
X185036801Y-51806014D01*
X184844479Y-51627567D01*
X184800052Y-51597277D01*
X184627704Y-51479772D01*
X184627700Y-51479770D01*
X184627697Y-51479768D01*
X184627696Y-51479767D01*
X184391325Y-51365938D01*
X184391327Y-51365938D01*
X184140623Y-51288606D01*
X184140619Y-51288605D01*
X184140615Y-51288604D01*
X184015823Y-51269794D01*
X183881187Y-51249500D01*
X183881182Y-51249500D01*
X183618818Y-51249500D01*
X183618812Y-51249500D01*
X183457247Y-51273853D01*
X183359385Y-51288604D01*
X183359382Y-51288605D01*
X183359376Y-51288606D01*
X183108673Y-51365938D01*
X182872303Y-51479767D01*
X182872302Y-51479768D01*
X182872296Y-51479771D01*
X182872296Y-51479772D01*
X182871654Y-51480210D01*
X182655520Y-51627567D01*
X182463198Y-51806014D01*
X182299614Y-52011143D01*
X182168434Y-52238352D01*
X182168432Y-52238356D01*
X182168432Y-52238357D01*
X182145885Y-52295803D01*
X182103072Y-52351015D01*
X182037202Y-52374317D01*
X182030459Y-52374500D01*
X151870455Y-52374500D01*
X151803416Y-52354815D01*
X151782774Y-52338181D01*
X151752341Y-52307748D01*
X151718856Y-52246425D01*
X151723840Y-52176733D01*
X151765712Y-52120800D01*
X151789584Y-52106789D01*
X151952730Y-52034151D01*
X152105871Y-51922888D01*
X152232533Y-51782216D01*
X152327179Y-51618284D01*
X152385674Y-51438256D01*
X152405460Y-51250000D01*
X152385674Y-51061744D01*
X152327179Y-50881716D01*
X152232533Y-50717784D01*
X152105871Y-50577112D01*
X152105870Y-50577111D01*
X151952734Y-50465851D01*
X151952729Y-50465848D01*
X151779807Y-50388857D01*
X151779802Y-50388855D01*
X151634001Y-50357865D01*
X151594646Y-50349500D01*
X151594645Y-50349500D01*
X151535452Y-50349500D01*
X151468413Y-50329815D01*
X151447771Y-50313181D01*
X150416149Y-49281559D01*
X150382664Y-49220236D01*
X150387648Y-49150544D01*
X150411680Y-49110906D01*
X150427152Y-49093721D01*
X150482533Y-49032216D01*
X150577179Y-48868284D01*
X150635674Y-48688256D01*
X150655460Y-48500000D01*
X150635674Y-48311744D01*
X150577179Y-48131716D01*
X150501130Y-47999995D01*
X179494592Y-47999995D01*
X179494592Y-48000004D01*
X179514196Y-48261620D01*
X179514197Y-48261625D01*
X179572576Y-48517402D01*
X179572578Y-48517411D01*
X179572580Y-48517416D01*
X179668432Y-48761643D01*
X179799614Y-48988857D01*
X179834192Y-49032216D01*
X179963198Y-49193985D01*
X180140185Y-49358203D01*
X180155521Y-49372433D01*
X180372296Y-49520228D01*
X180372301Y-49520230D01*
X180372302Y-49520231D01*
X180372303Y-49520232D01*
X180458220Y-49561607D01*
X180608673Y-49634061D01*
X180608674Y-49634061D01*
X180608677Y-49634063D01*
X180859385Y-49711396D01*
X181118818Y-49750500D01*
X181381182Y-49750500D01*
X181640615Y-49711396D01*
X181891323Y-49634063D01*
X182127704Y-49520228D01*
X182344479Y-49372433D01*
X182536805Y-49193981D01*
X182700386Y-48988857D01*
X182831568Y-48761643D01*
X182927420Y-48517416D01*
X182985802Y-48261630D01*
X182995537Y-48131722D01*
X183005408Y-48000004D01*
X183005408Y-47999995D01*
X184494592Y-47999995D01*
X184494592Y-48000004D01*
X184514196Y-48261620D01*
X184514197Y-48261625D01*
X184572576Y-48517402D01*
X184572578Y-48517411D01*
X184572580Y-48517416D01*
X184668432Y-48761643D01*
X184799614Y-48988857D01*
X184834192Y-49032216D01*
X184963198Y-49193985D01*
X185140185Y-49358203D01*
X185155521Y-49372433D01*
X185372296Y-49520228D01*
X185372301Y-49520230D01*
X185372302Y-49520231D01*
X185372303Y-49520232D01*
X185458220Y-49561607D01*
X185608673Y-49634061D01*
X185608674Y-49634061D01*
X185608677Y-49634063D01*
X185859385Y-49711396D01*
X186118818Y-49750500D01*
X186381182Y-49750500D01*
X186640615Y-49711396D01*
X186891323Y-49634063D01*
X187127704Y-49520228D01*
X187344479Y-49372433D01*
X187536805Y-49193981D01*
X187700386Y-48988857D01*
X187831568Y-48761643D01*
X187927420Y-48517416D01*
X187985802Y-48261630D01*
X187995537Y-48131722D01*
X188005408Y-48000004D01*
X188005408Y-47999995D01*
X187985803Y-47738379D01*
X187985802Y-47738374D01*
X187985802Y-47738370D01*
X187927420Y-47482584D01*
X187831568Y-47238357D01*
X187700386Y-47011143D01*
X187536805Y-46806019D01*
X187536804Y-46806018D01*
X187536801Y-46806014D01*
X187344479Y-46627567D01*
X187247738Y-46561610D01*
X187127704Y-46479772D01*
X187127700Y-46479770D01*
X187127697Y-46479768D01*
X187127696Y-46479767D01*
X186891325Y-46365938D01*
X186891327Y-46365938D01*
X186640623Y-46288606D01*
X186640619Y-46288605D01*
X186640615Y-46288604D01*
X186515823Y-46269794D01*
X186381187Y-46249500D01*
X186381182Y-46249500D01*
X186118818Y-46249500D01*
X186118812Y-46249500D01*
X185957247Y-46273853D01*
X185859385Y-46288604D01*
X185859382Y-46288605D01*
X185859376Y-46288606D01*
X185608673Y-46365938D01*
X185372303Y-46479767D01*
X185372302Y-46479768D01*
X185155520Y-46627567D01*
X184963198Y-46806014D01*
X184799614Y-47011143D01*
X184668432Y-47238356D01*
X184572582Y-47482578D01*
X184572576Y-47482597D01*
X184514197Y-47738374D01*
X184514196Y-47738379D01*
X184494592Y-47999995D01*
X183005408Y-47999995D01*
X182985803Y-47738379D01*
X182985802Y-47738374D01*
X182985802Y-47738370D01*
X182927420Y-47482584D01*
X182831568Y-47238357D01*
X182700386Y-47011143D01*
X182536805Y-46806019D01*
X182536804Y-46806018D01*
X182536801Y-46806014D01*
X182344479Y-46627567D01*
X182247738Y-46561610D01*
X182127704Y-46479772D01*
X182127700Y-46479770D01*
X182127697Y-46479768D01*
X182127696Y-46479767D01*
X181891325Y-46365938D01*
X181891327Y-46365938D01*
X181640623Y-46288606D01*
X181640619Y-46288605D01*
X181640615Y-46288604D01*
X181515823Y-46269794D01*
X181381187Y-46249500D01*
X181381182Y-46249500D01*
X181118818Y-46249500D01*
X181118812Y-46249500D01*
X180957247Y-46273853D01*
X180859385Y-46288604D01*
X180859382Y-46288605D01*
X180859376Y-46288606D01*
X180608673Y-46365938D01*
X180372303Y-46479767D01*
X180372302Y-46479768D01*
X180155520Y-46627567D01*
X179963198Y-46806014D01*
X179799614Y-47011143D01*
X179668432Y-47238356D01*
X179572582Y-47482578D01*
X179572576Y-47482597D01*
X179514197Y-47738374D01*
X179514196Y-47738379D01*
X179494592Y-47999995D01*
X150501130Y-47999995D01*
X150482533Y-47967784D01*
X150355871Y-47827112D01*
X150202730Y-47715849D01*
X150202729Y-47715848D01*
X150198558Y-47712818D01*
X150155892Y-47657489D01*
X150149913Y-47587875D01*
X150182518Y-47526080D01*
X150198558Y-47512182D01*
X150202730Y-47509151D01*
X150355871Y-47397888D01*
X150482533Y-47257216D01*
X150493422Y-47238356D01*
X150522784Y-47187500D01*
X150573351Y-47139284D01*
X150630171Y-47125500D01*
X154571252Y-47125500D01*
X154638291Y-47145185D01*
X154663400Y-47166526D01*
X154669126Y-47172885D01*
X154669130Y-47172889D01*
X154822265Y-47284148D01*
X154822270Y-47284151D01*
X154995192Y-47361142D01*
X154995197Y-47361144D01*
X155180354Y-47400500D01*
X155180355Y-47400500D01*
X155369644Y-47400500D01*
X155369646Y-47400500D01*
X155554803Y-47361144D01*
X155727730Y-47284151D01*
X155880871Y-47172888D01*
X155933980Y-47113903D01*
X155978674Y-47082316D01*
X156046286Y-47054311D01*
X156148733Y-46985858D01*
X156235858Y-46898733D01*
X156304311Y-46796286D01*
X156351463Y-46682452D01*
X156375500Y-46561606D01*
X156375500Y-46438394D01*
X156351463Y-46317548D01*
X156323483Y-46250000D01*
X169344540Y-46250000D01*
X169364326Y-46438256D01*
X169364327Y-46438259D01*
X169422818Y-46618277D01*
X169422821Y-46618284D01*
X169517467Y-46782216D01*
X169623971Y-46900500D01*
X169644129Y-46922888D01*
X169797265Y-47034148D01*
X169797270Y-47034151D01*
X169970192Y-47111142D01*
X169970197Y-47111144D01*
X170155354Y-47150500D01*
X170155355Y-47150500D01*
X170344644Y-47150500D01*
X170344646Y-47150500D01*
X170529803Y-47111144D01*
X170702730Y-47034151D01*
X170855871Y-46922888D01*
X170982533Y-46782216D01*
X171077179Y-46618284D01*
X171135674Y-46438256D01*
X171155460Y-46250000D01*
X171135674Y-46061744D01*
X171077179Y-45881716D01*
X170982533Y-45717784D01*
X170855871Y-45577112D01*
X170855870Y-45577111D01*
X170702734Y-45465851D01*
X170702729Y-45465848D01*
X170529807Y-45388857D01*
X170529802Y-45388855D01*
X170384001Y-45357865D01*
X170344646Y-45349500D01*
X170155354Y-45349500D01*
X170122897Y-45356398D01*
X169970197Y-45388855D01*
X169970192Y-45388857D01*
X169797270Y-45465848D01*
X169797265Y-45465851D01*
X169644129Y-45577111D01*
X169517466Y-45717785D01*
X169422821Y-45881715D01*
X169422818Y-45881722D01*
X169364327Y-46061740D01*
X169364326Y-46061744D01*
X169344540Y-46250000D01*
X156323483Y-46250000D01*
X156304311Y-46203714D01*
X156304310Y-46203713D01*
X156304307Y-46203707D01*
X156235858Y-46101267D01*
X156235855Y-46101263D01*
X156148736Y-46014144D01*
X156148728Y-46014138D01*
X156046288Y-45945690D01*
X156046282Y-45945687D01*
X155978673Y-45917681D01*
X155933978Y-45886093D01*
X155880870Y-45827111D01*
X155727734Y-45715851D01*
X155727729Y-45715848D01*
X155554807Y-45638857D01*
X155554802Y-45638855D01*
X155409001Y-45607865D01*
X155369646Y-45599500D01*
X155180354Y-45599500D01*
X155180352Y-45599500D01*
X155055240Y-45626093D01*
X154985573Y-45620777D01*
X154929840Y-45578639D01*
X154905735Y-45513059D01*
X154905460Y-45504803D01*
X154905460Y-45500002D01*
X154902074Y-45467784D01*
X154885674Y-45311744D01*
X154827179Y-45131716D01*
X154732533Y-44967784D01*
X154605871Y-44827112D01*
X154605870Y-44827111D01*
X154452734Y-44715851D01*
X154452729Y-44715848D01*
X154279807Y-44638857D01*
X154279802Y-44638855D01*
X154134001Y-44607865D01*
X154094646Y-44599500D01*
X153905354Y-44599500D01*
X153872897Y-44606398D01*
X153720197Y-44638855D01*
X153720192Y-44638857D01*
X153547270Y-44715848D01*
X153547265Y-44715851D01*
X153394129Y-44827111D01*
X153267466Y-44967785D01*
X153172821Y-45131715D01*
X153172818Y-45131722D01*
X153114327Y-45311740D01*
X153114326Y-45311744D01*
X153094540Y-45500000D01*
X153114326Y-45688256D01*
X153114327Y-45688259D01*
X153122100Y-45712182D01*
X153124095Y-45782023D01*
X153088015Y-45841856D01*
X153025314Y-45872684D01*
X153004169Y-45874500D01*
X150080067Y-45874500D01*
X150036209Y-45865178D01*
X150035986Y-45865865D01*
X150029801Y-45863855D01*
X149894624Y-45835123D01*
X149844646Y-45824500D01*
X149655354Y-45824500D01*
X149622897Y-45831398D01*
X149470197Y-45863855D01*
X149470192Y-45863857D01*
X149297270Y-45940848D01*
X149297265Y-45940851D01*
X149144129Y-46052111D01*
X149017466Y-46192785D01*
X148922821Y-46356715D01*
X148922818Y-46356722D01*
X148882837Y-46479772D01*
X148864326Y-46536744D01*
X148844540Y-46725000D01*
X148864326Y-46913256D01*
X148864327Y-46913259D01*
X148922818Y-47093277D01*
X148922821Y-47093284D01*
X149017467Y-47257216D01*
X149144129Y-47397888D01*
X149301441Y-47512182D01*
X149344107Y-47567512D01*
X149350086Y-47637125D01*
X149317480Y-47698920D01*
X149301441Y-47712818D01*
X149144129Y-47827111D01*
X149017466Y-47967785D01*
X148922821Y-48131715D01*
X148922818Y-48131722D01*
X148864327Y-48311740D01*
X148864326Y-48311744D01*
X148844540Y-48500000D01*
X148864326Y-48688256D01*
X148864327Y-48688259D01*
X148922818Y-48868277D01*
X148922821Y-48868284D01*
X149017467Y-49032216D01*
X149060772Y-49080310D01*
X149092650Y-49115715D01*
X149122880Y-49178706D01*
X149124500Y-49198687D01*
X149124500Y-49380545D01*
X149104815Y-49447584D01*
X149052011Y-49493339D01*
X148982853Y-49503283D01*
X148919297Y-49474258D01*
X148912819Y-49468226D01*
X147996022Y-48551429D01*
X147962537Y-48490106D01*
X147960385Y-48476730D01*
X147942736Y-48308803D01*
X147884241Y-48128775D01*
X147789595Y-47964843D01*
X147662933Y-47824171D01*
X147662932Y-47824170D01*
X147509796Y-47712910D01*
X147509791Y-47712907D01*
X147336869Y-47635916D01*
X147336864Y-47635914D01*
X147191063Y-47604924D01*
X147151708Y-47596559D01*
X146962416Y-47596559D01*
X146929959Y-47603457D01*
X146777259Y-47635914D01*
X146777254Y-47635916D01*
X146604332Y-47712907D01*
X146604327Y-47712910D01*
X146451191Y-47824170D01*
X146324528Y-47964844D01*
X146229883Y-48128774D01*
X146229880Y-48128781D01*
X146171389Y-48308799D01*
X146171388Y-48308803D01*
X146151602Y-48497059D01*
X118750000Y-48497059D01*
X118750000Y-46000000D01*
X139344540Y-46000000D01*
X139364326Y-46188256D01*
X139364327Y-46188259D01*
X139422818Y-46368277D01*
X139422821Y-46368284D01*
X139517467Y-46532216D01*
X139603322Y-46627567D01*
X139644129Y-46672888D01*
X139797265Y-46784148D01*
X139797270Y-46784151D01*
X139970192Y-46861142D01*
X139970197Y-46861144D01*
X140155354Y-46900500D01*
X140155355Y-46900500D01*
X140344644Y-46900500D01*
X140344646Y-46900500D01*
X140529803Y-46861144D01*
X140702730Y-46784151D01*
X140855871Y-46672888D01*
X140982533Y-46532216D01*
X141077179Y-46368284D01*
X141135674Y-46188256D01*
X141155460Y-46000000D01*
X141135674Y-45811744D01*
X141077179Y-45631716D01*
X140982533Y-45467784D01*
X140855871Y-45327112D01*
X140834719Y-45311744D01*
X140702734Y-45215851D01*
X140702729Y-45215848D01*
X140529807Y-45138857D01*
X140529802Y-45138855D01*
X140384001Y-45107865D01*
X140344646Y-45099500D01*
X140155354Y-45099500D01*
X140122897Y-45106398D01*
X139970197Y-45138855D01*
X139970192Y-45138857D01*
X139797270Y-45215848D01*
X139797265Y-45215851D01*
X139644129Y-45327111D01*
X139517466Y-45467785D01*
X139422821Y-45631715D01*
X139422818Y-45631722D01*
X139394855Y-45717785D01*
X139364326Y-45811744D01*
X139344540Y-46000000D01*
X118750000Y-46000000D01*
X118750000Y-42999995D01*
X181994592Y-42999995D01*
X181994592Y-43000004D01*
X182014196Y-43261620D01*
X182014197Y-43261625D01*
X182072576Y-43517402D01*
X182072578Y-43517411D01*
X182072580Y-43517416D01*
X182168432Y-43761643D01*
X182299614Y-43988857D01*
X182431736Y-44154533D01*
X182463198Y-44193985D01*
X182644753Y-44362441D01*
X182655521Y-44372433D01*
X182872296Y-44520228D01*
X182872301Y-44520230D01*
X182872302Y-44520231D01*
X182872303Y-44520232D01*
X182997843Y-44580688D01*
X183108673Y-44634061D01*
X183108674Y-44634061D01*
X183108677Y-44634063D01*
X183359385Y-44711396D01*
X183618818Y-44750500D01*
X183881182Y-44750500D01*
X184140615Y-44711396D01*
X184391323Y-44634063D01*
X184627704Y-44520228D01*
X184844479Y-44372433D01*
X185036805Y-44193981D01*
X185200386Y-43988857D01*
X185331568Y-43761643D01*
X185427420Y-43517416D01*
X185485802Y-43261630D01*
X185485808Y-43261550D01*
X185505408Y-43000004D01*
X185505408Y-42999995D01*
X194495093Y-42999995D01*
X194495093Y-43000004D01*
X194514692Y-43261545D01*
X194514693Y-43261550D01*
X194573058Y-43517270D01*
X194668883Y-43761426D01*
X194668882Y-43761426D01*
X194800027Y-43988573D01*
X194847874Y-44048571D01*
X195610689Y-43285756D01*
X195629668Y-43331574D01*
X195706274Y-43446224D01*
X195803776Y-43543726D01*
X195918426Y-43620332D01*
X195964242Y-43639309D01*
X195200830Y-44402720D01*
X195372546Y-44519793D01*
X195372550Y-44519795D01*
X195608854Y-44633594D01*
X195608858Y-44633595D01*
X195859494Y-44710907D01*
X195859500Y-44710909D01*
X196118848Y-44749999D01*
X196118857Y-44750000D01*
X196381143Y-44750000D01*
X196381151Y-44749999D01*
X196640499Y-44710909D01*
X196640505Y-44710907D01*
X196891143Y-44633595D01*
X197127445Y-44519798D01*
X197127447Y-44519797D01*
X197299168Y-44402720D01*
X196535757Y-43639309D01*
X196581574Y-43620332D01*
X196696224Y-43543726D01*
X196793726Y-43446224D01*
X196870332Y-43331574D01*
X196889309Y-43285756D01*
X197652125Y-44048572D01*
X197699971Y-43988573D01*
X197831116Y-43761426D01*
X197926941Y-43517270D01*
X197985306Y-43261550D01*
X197985307Y-43261545D01*
X198004907Y-43000004D01*
X198004907Y-42999995D01*
X197985307Y-42738454D01*
X197985306Y-42738449D01*
X197926941Y-42482729D01*
X197831116Y-42238573D01*
X197831117Y-42238573D01*
X197699972Y-42011426D01*
X197652124Y-41951427D01*
X196889309Y-42714242D01*
X196870332Y-42668426D01*
X196793726Y-42553776D01*
X196696224Y-42456274D01*
X196581574Y-42379668D01*
X196535757Y-42360690D01*
X197299168Y-41597278D01*
X197127454Y-41480206D01*
X197127445Y-41480201D01*
X196891142Y-41366404D01*
X196891144Y-41366404D01*
X196640505Y-41289092D01*
X196640499Y-41289090D01*
X196381151Y-41250000D01*
X196118848Y-41250000D01*
X195859500Y-41289090D01*
X195859494Y-41289092D01*
X195608858Y-41366404D01*
X195608854Y-41366405D01*
X195372547Y-41480205D01*
X195372539Y-41480210D01*
X195200830Y-41597277D01*
X195964243Y-42360690D01*
X195918426Y-42379668D01*
X195803776Y-42456274D01*
X195706274Y-42553776D01*
X195629668Y-42668426D01*
X195610690Y-42714242D01*
X194847874Y-41951427D01*
X194800028Y-42011425D01*
X194668883Y-42238573D01*
X194573058Y-42482729D01*
X194514693Y-42738449D01*
X194514692Y-42738454D01*
X194495093Y-42999995D01*
X185505408Y-42999995D01*
X185485803Y-42738379D01*
X185485802Y-42738374D01*
X185485802Y-42738370D01*
X185427420Y-42482584D01*
X185331942Y-42239312D01*
X185325774Y-42169716D01*
X185358212Y-42107833D01*
X185418957Y-42073310D01*
X185488723Y-42077109D01*
X185501160Y-42082285D01*
X185608677Y-42134063D01*
X185859385Y-42211396D01*
X186118818Y-42250500D01*
X186381182Y-42250500D01*
X186640615Y-42211396D01*
X186891323Y-42134063D01*
X187127704Y-42020228D01*
X187344479Y-41872433D01*
X187536805Y-41693981D01*
X187700386Y-41488857D01*
X187831568Y-41261643D01*
X187927420Y-41017416D01*
X187985802Y-40761630D01*
X188005408Y-40500000D01*
X187985802Y-40238370D01*
X187927420Y-39982584D01*
X187831568Y-39738357D01*
X187700386Y-39511143D01*
X187536805Y-39306019D01*
X187536804Y-39306018D01*
X187536801Y-39306014D01*
X187344479Y-39127567D01*
X187127704Y-38979772D01*
X187127700Y-38979770D01*
X187127697Y-38979768D01*
X187127696Y-38979767D01*
X186891325Y-38865938D01*
X186891327Y-38865938D01*
X186640623Y-38788606D01*
X186640619Y-38788605D01*
X186640615Y-38788604D01*
X186515823Y-38769794D01*
X186381187Y-38749500D01*
X186381182Y-38749500D01*
X186118818Y-38749500D01*
X186118812Y-38749500D01*
X185957247Y-38773853D01*
X185859385Y-38788604D01*
X185859382Y-38788605D01*
X185859376Y-38788606D01*
X185608673Y-38865938D01*
X185372303Y-38979767D01*
X185372302Y-38979768D01*
X185155520Y-39127567D01*
X184963198Y-39306014D01*
X184799614Y-39511143D01*
X184668432Y-39738356D01*
X184572582Y-39982578D01*
X184572576Y-39982597D01*
X184514197Y-40238374D01*
X184514196Y-40238379D01*
X184494592Y-40499995D01*
X184494592Y-40500004D01*
X184514196Y-40761620D01*
X184514197Y-40761625D01*
X184572576Y-41017402D01*
X184572582Y-41017421D01*
X184668056Y-41260686D01*
X184674225Y-41330283D01*
X184641787Y-41392166D01*
X184581042Y-41426689D01*
X184511275Y-41422890D01*
X184498827Y-41417708D01*
X184391325Y-41365938D01*
X184391327Y-41365938D01*
X184140623Y-41288606D01*
X184140619Y-41288605D01*
X184140615Y-41288604D01*
X184015823Y-41269794D01*
X183881187Y-41249500D01*
X183881182Y-41249500D01*
X183618818Y-41249500D01*
X183618812Y-41249500D01*
X183457247Y-41273853D01*
X183359385Y-41288604D01*
X183359382Y-41288605D01*
X183359376Y-41288606D01*
X183108673Y-41365938D01*
X182872303Y-41479767D01*
X182872302Y-41479768D01*
X182872296Y-41479771D01*
X182872296Y-41479772D01*
X182871654Y-41480210D01*
X182655520Y-41627567D01*
X182463198Y-41806014D01*
X182299614Y-42011143D01*
X182168432Y-42238356D01*
X182072582Y-42482578D01*
X182072576Y-42482597D01*
X182014197Y-42738374D01*
X182014196Y-42738379D01*
X181994592Y-42999995D01*
X118750000Y-42999995D01*
X118750000Y-37424000D01*
X118769685Y-37356961D01*
X118822489Y-37311206D01*
X118874000Y-37300000D01*
X198626000Y-37300000D01*
X198693039Y-37319685D01*
G37*
G04 #@! TD.AperFunction*
M02*
