G04 #@! TF.GenerationSoftware,KiCad,Pcbnew,8.0.4+dfsg-1*
G04 #@! TF.CreationDate,2025-03-15T13:20:52+01:00*
G04 #@! TF.ProjectId,olimex-ice40-scart-header,6f6c696d-6578-42d6-9963-6534302d7363,rev?*
G04 #@! TF.SameCoordinates,Original*
G04 #@! TF.FileFunction,Legend,Bot*
G04 #@! TF.FilePolarity,Positive*
%FSLAX46Y46*%
G04 Gerber Fmt 4.6, Leading zero omitted, Abs format (unit mm)*
G04 Created by KiCad (PCBNEW 8.0.4+dfsg-1) date 2025-03-15 13:20:52*
%MOMM*%
%LPD*%
G01*
G04 APERTURE LIST*
G04 Aperture macros list*
%AMRoundRect*
0 Rectangle with rounded corners*
0 $1 Rounding radius*
0 $2 $3 $4 $5 $6 $7 $8 $9 X,Y pos of 4 corners*
0 Add a 4 corners polygon primitive as box body*
4,1,4,$2,$3,$4,$5,$6,$7,$8,$9,$2,$3,0*
0 Add four circle primitives for the rounded corners*
1,1,$1+$1,$2,$3*
1,1,$1+$1,$4,$5*
1,1,$1+$1,$6,$7*
1,1,$1+$1,$8,$9*
0 Add four rect primitives between the rounded corners*
20,1,$1+$1,$2,$3,$4,$5,0*
20,1,$1+$1,$4,$5,$6,$7,0*
20,1,$1+$1,$6,$7,$8,$9,0*
20,1,$1+$1,$8,$9,$2,$3,0*%
G04 Aperture macros list end*
%ADD10R,1.700000X1.700000*%
%ADD11O,1.700000X1.700000*%
%ADD12C,2.500000*%
%ADD13R,2.400000X2.400000*%
%ADD14C,2.400000*%
%ADD15RoundRect,0.250000X0.600000X0.600000X-0.600000X0.600000X-0.600000X-0.600000X0.600000X-0.600000X0*%
%ADD16C,1.700000*%
G04 APERTURE END LIST*
%LPC*%
D10*
X175500000Y-77830000D03*
D11*
X175500000Y-75290000D03*
X175500000Y-72750000D03*
D12*
X186250000Y-40500000D03*
X183750000Y-43000000D03*
X186250000Y-48000000D03*
X183750000Y-53000000D03*
X186250000Y-55500000D03*
X181250000Y-48000000D03*
X196250000Y-43000000D03*
X196250000Y-53000000D03*
D13*
X183350000Y-72305000D03*
D14*
X188250000Y-74210000D03*
X183350000Y-76115000D03*
X188250000Y-78020000D03*
X183350000Y-79925000D03*
X188250000Y-81830000D03*
X183350000Y-83735000D03*
X188250000Y-85640000D03*
X183350000Y-87545000D03*
X188250000Y-89450000D03*
X183350000Y-91355000D03*
X188250000Y-93260000D03*
X183350000Y-95165000D03*
X188250000Y-97070000D03*
X183350000Y-98975000D03*
X188250000Y-100880000D03*
X183350000Y-102785000D03*
X188250000Y-104690000D03*
X183350000Y-106595000D03*
X188250000Y-108500000D03*
X183350000Y-110405000D03*
D15*
X132790000Y-97750000D03*
D16*
X130250000Y-97750000D03*
X132790000Y-95210000D03*
X130250000Y-95210000D03*
X132790000Y-92670000D03*
X130250000Y-92670000D03*
X132790000Y-90130000D03*
X130250000Y-90130000D03*
X132790000Y-87590000D03*
X130250000Y-87590000D03*
X132790000Y-85050000D03*
X130250000Y-85050000D03*
X132790000Y-82510000D03*
X130250000Y-82510000D03*
X132790000Y-79970000D03*
X130250000Y-79970000D03*
X132790000Y-77430000D03*
X130250000Y-77430000D03*
X132790000Y-74890000D03*
X130250000Y-74890000D03*
X132790000Y-72350000D03*
X130250000Y-72350000D03*
X132790000Y-69810000D03*
X130250000Y-69810000D03*
X132790000Y-67270000D03*
X130250000Y-67270000D03*
X132790000Y-64730000D03*
X130250000Y-64730000D03*
X132790000Y-62190000D03*
X130250000Y-62190000D03*
X132790000Y-59650000D03*
X130250000Y-59650000D03*
X132790000Y-57110000D03*
X130250000Y-57110000D03*
%LPD*%
M02*
