G04 #@! TF.GenerationSoftware,KiCad,Pcbnew,8.0.4+dfsg-1*
G04 #@! TF.CreationDate,2025-03-15T13:20:51+01:00*
G04 #@! TF.ProjectId,olimex-ice40-scart-header,6f6c696d-6578-42d6-9963-6534302d7363,rev?*
G04 #@! TF.SameCoordinates,Original*
G04 #@! TF.FileFunction,Copper,L3,Inr*
G04 #@! TF.FilePolarity,Positive*
%FSLAX46Y46*%
G04 Gerber Fmt 4.6, Leading zero omitted, Abs format (unit mm)*
G04 Created by KiCad (PCBNEW 8.0.4+dfsg-1) date 2025-03-15 13:20:51*
%MOMM*%
%LPD*%
G01*
G04 APERTURE LIST*
G04 Aperture macros list*
%AMRoundRect*
0 Rectangle with rounded corners*
0 $1 Rounding radius*
0 $2 $3 $4 $5 $6 $7 $8 $9 X,Y pos of 4 corners*
0 Add a 4 corners polygon primitive as box body*
4,1,4,$2,$3,$4,$5,$6,$7,$8,$9,$2,$3,0*
0 Add four circle primitives for the rounded corners*
1,1,$1+$1,$2,$3*
1,1,$1+$1,$4,$5*
1,1,$1+$1,$6,$7*
1,1,$1+$1,$8,$9*
0 Add four rect primitives between the rounded corners*
20,1,$1+$1,$2,$3,$4,$5,0*
20,1,$1+$1,$4,$5,$6,$7,0*
20,1,$1+$1,$6,$7,$8,$9,0*
20,1,$1+$1,$8,$9,$2,$3,0*%
G04 Aperture macros list end*
G04 #@! TA.AperFunction,ComponentPad*
%ADD10R,1.700000X1.700000*%
G04 #@! TD*
G04 #@! TA.AperFunction,ComponentPad*
%ADD11O,1.700000X1.700000*%
G04 #@! TD*
G04 #@! TA.AperFunction,ComponentPad*
%ADD12C,2.500000*%
G04 #@! TD*
G04 #@! TA.AperFunction,ComponentPad*
%ADD13R,2.400000X2.400000*%
G04 #@! TD*
G04 #@! TA.AperFunction,ComponentPad*
%ADD14C,2.400000*%
G04 #@! TD*
G04 #@! TA.AperFunction,ComponentPad*
%ADD15RoundRect,0.250000X0.600000X0.600000X-0.600000X0.600000X-0.600000X-0.600000X0.600000X-0.600000X0*%
G04 #@! TD*
G04 #@! TA.AperFunction,ComponentPad*
%ADD16C,1.700000*%
G04 #@! TD*
G04 #@! TA.AperFunction,ViaPad*
%ADD17C,0.800000*%
G04 #@! TD*
G04 #@! TA.AperFunction,Conductor*
%ADD18C,0.250000*%
G04 #@! TD*
G04 APERTURE END LIST*
D10*
X175500000Y-77830000D03*
D11*
X175500000Y-75290000D03*
X175500000Y-72750000D03*
D12*
X186250000Y-40500000D03*
X183750000Y-43000000D03*
X186250000Y-48000000D03*
X183750000Y-53000000D03*
X186250000Y-55500000D03*
X181250000Y-48000000D03*
X196250000Y-43000000D03*
X196250000Y-53000000D03*
D13*
X183350000Y-72305000D03*
D14*
X188250000Y-74210000D03*
X183350000Y-76115000D03*
X188250000Y-78020000D03*
X183350000Y-79925000D03*
X188250000Y-81830000D03*
X183350000Y-83735000D03*
X188250000Y-85640000D03*
X183350000Y-87545000D03*
X188250000Y-89450000D03*
X183350000Y-91355000D03*
X188250000Y-93260000D03*
X183350000Y-95165000D03*
X188250000Y-97070000D03*
X183350000Y-98975000D03*
X188250000Y-100880000D03*
X183350000Y-102785000D03*
X188250000Y-104690000D03*
X183350000Y-106595000D03*
X188250000Y-108500000D03*
X183350000Y-110405000D03*
D15*
X132790000Y-97750000D03*
D16*
X130250000Y-97750000D03*
X132790000Y-95210000D03*
X130250000Y-95210000D03*
X132790000Y-92670000D03*
X130250000Y-92670000D03*
X132790000Y-90130000D03*
X130250000Y-90130000D03*
X132790000Y-87590000D03*
X130250000Y-87590000D03*
X132790000Y-85050000D03*
X130250000Y-85050000D03*
X132790000Y-82510000D03*
X130250000Y-82510000D03*
X132790000Y-79970000D03*
X130250000Y-79970000D03*
X132790000Y-77430000D03*
X130250000Y-77430000D03*
X132790000Y-74890000D03*
X130250000Y-74890000D03*
X132790000Y-72350000D03*
X130250000Y-72350000D03*
X132790000Y-69810000D03*
X130250000Y-69810000D03*
X132790000Y-67270000D03*
X130250000Y-67270000D03*
X132790000Y-64730000D03*
X130250000Y-64730000D03*
X132790000Y-62190000D03*
X130250000Y-62190000D03*
X132790000Y-59650000D03*
X130250000Y-59650000D03*
X132790000Y-57110000D03*
X130250000Y-57110000D03*
D17*
X147750000Y-67000000D03*
X141500000Y-47750000D03*
X137000000Y-58750000D03*
X150250000Y-71000000D03*
X148500000Y-68500000D03*
X156000000Y-48500000D03*
X146750000Y-52000000D03*
X181500000Y-41250000D03*
X170500000Y-76750000D03*
X163250000Y-43500000D03*
X161500000Y-60500000D03*
X151250000Y-64750000D03*
X156250000Y-56500000D03*
X137250000Y-67000000D03*
X141500000Y-44250000D03*
X173250000Y-70250000D03*
X153000000Y-43250000D03*
X156250000Y-64750000D03*
X144000000Y-65500000D03*
X175750000Y-44500000D03*
X142500000Y-84000000D03*
X144000000Y-57000000D03*
X166500000Y-59500000D03*
X138500000Y-53500000D03*
X147250000Y-42500000D03*
X163250000Y-50000000D03*
X140250000Y-49500000D03*
X175750000Y-100750000D03*
X140250000Y-46000000D03*
X170250000Y-46250000D03*
X154000000Y-45500000D03*
X155250000Y-96690000D03*
X155250000Y-92690000D03*
X146892499Y-96582196D03*
X155250000Y-88690000D03*
X147025000Y-92690000D03*
X135750000Y-91025000D03*
X136250000Y-92500000D03*
X155250000Y-86690000D03*
X147025000Y-88690000D03*
X135750000Y-86865000D03*
X135750000Y-88315000D03*
X155250000Y-82690000D03*
X147025000Y-84690000D03*
X136000000Y-83250000D03*
X136000000Y-81785000D03*
X155250000Y-78690000D03*
X147025000Y-80695000D03*
X136000000Y-80695000D03*
X136000000Y-79245000D03*
X151440000Y-98500000D03*
X137250000Y-98475000D03*
X137250000Y-79245000D03*
X147025000Y-76690000D03*
X151440000Y-92690000D03*
X138250000Y-79245000D03*
X138250000Y-93250000D03*
X139000000Y-89250000D03*
X151440000Y-88690000D03*
X139000000Y-76000000D03*
X151440000Y-86690000D03*
X140000000Y-76000000D03*
X140000000Y-86250000D03*
X147057062Y-48497059D03*
X151440000Y-80695000D03*
X156500000Y-80750000D03*
X141000003Y-76000000D03*
X151440000Y-76690000D03*
X176250000Y-106500000D03*
X141250000Y-66000000D03*
X139500000Y-66000000D03*
X156500000Y-83750000D03*
X148750000Y-83750000D03*
X156500000Y-89750000D03*
X152500000Y-89750000D03*
X148750000Y-64250000D03*
X148500000Y-59200000D03*
X151500000Y-51250000D03*
X149750000Y-48500000D03*
X149750000Y-46725000D03*
X155275000Y-46500000D03*
D18*
X196250000Y-70020000D02*
X188250000Y-78020000D01*
X184875000Y-101260000D02*
X184875000Y-96690000D01*
X129075000Y-91305000D02*
X130250000Y-90130000D01*
X192000000Y-38750000D02*
X157500000Y-38750000D01*
X193750000Y-55500000D02*
X196250000Y-53000000D01*
X188250000Y-105505000D02*
X188250000Y-104690000D01*
X196250000Y-43000000D02*
X196250000Y-53000000D01*
X183350000Y-110405000D02*
X188250000Y-105505000D01*
X150250000Y-71000000D02*
X142500000Y-78750000D01*
X144000000Y-65500000D02*
X144000000Y-57000000D01*
X184875000Y-81450000D02*
X184875000Y-86020000D01*
X147250000Y-42500000D02*
X156000000Y-42500000D01*
X141500000Y-44250000D02*
X141500000Y-47750000D01*
X147000000Y-68500000D02*
X144000000Y-65500000D01*
X185255000Y-78020000D02*
X183350000Y-79925000D01*
X156000000Y-76750000D02*
X170500000Y-76750000D01*
X177595000Y-79925000D02*
X175500000Y-77830000D01*
X142500000Y-78750000D02*
X142500000Y-84000000D01*
X186250000Y-55500000D02*
X193750000Y-55500000D01*
X143250000Y-42500000D02*
X147250000Y-42500000D01*
X196250000Y-53000000D02*
X196250000Y-70020000D01*
X184875000Y-89070000D02*
X183350000Y-87545000D01*
X188250000Y-104690000D02*
X186345000Y-102785000D01*
X156000000Y-48500000D02*
X156000000Y-56250000D01*
X188250000Y-78020000D02*
X185255000Y-78020000D01*
X170500000Y-55500000D02*
X186250000Y-55500000D01*
X171580000Y-77830000D02*
X170500000Y-76750000D01*
X156000000Y-42500000D02*
X156000000Y-48500000D01*
X183350000Y-79925000D02*
X177595000Y-79925000D01*
X148500000Y-68500000D02*
X147000000Y-68500000D01*
X130250000Y-97750000D02*
X130250000Y-95210000D01*
X188250000Y-97070000D02*
X185255000Y-97070000D01*
X183350000Y-95165000D02*
X184875000Y-93640000D01*
X183350000Y-102785000D02*
X184875000Y-101260000D01*
X151250000Y-64750000D02*
X156250000Y-64750000D01*
X184875000Y-86020000D02*
X183350000Y-87545000D01*
X186345000Y-102785000D02*
X183350000Y-102785000D01*
X156000000Y-40250000D02*
X156000000Y-42500000D01*
X185255000Y-97070000D02*
X183350000Y-95165000D01*
X196250000Y-43000000D02*
X192000000Y-38750000D01*
X156000000Y-56250000D02*
X156250000Y-56500000D01*
X184875000Y-93640000D02*
X184875000Y-89070000D01*
X150250000Y-71000000D02*
X156000000Y-76750000D01*
X183350000Y-79925000D02*
X184875000Y-81450000D01*
X166500000Y-59500000D02*
X170500000Y-55500000D01*
X156250000Y-56500000D02*
X156250000Y-64750000D01*
X141500000Y-44250000D02*
X143250000Y-42500000D01*
X135285000Y-102785000D02*
X130250000Y-97750000D01*
X157500000Y-38750000D02*
X156000000Y-40250000D01*
X129075000Y-94035000D02*
X129075000Y-91305000D01*
X183350000Y-102785000D02*
X135285000Y-102785000D01*
X175500000Y-77830000D02*
X171580000Y-77830000D01*
X130250000Y-95210000D02*
X129075000Y-94035000D01*
X184875000Y-96690000D02*
X183350000Y-95165000D01*
G04 #@! TA.AperFunction,Conductor*
G36*
X131364925Y-95971373D02*
G01*
X131418119Y-95895405D01*
X131472696Y-95851781D01*
X131542195Y-95844588D01*
X131604549Y-95876110D01*
X131621269Y-95895405D01*
X131751505Y-96081401D01*
X131918599Y-96248495D01*
X131918604Y-96248499D01*
X131919968Y-96249643D01*
X131920407Y-96250303D01*
X131922427Y-96252323D01*
X131922021Y-96252728D01*
X131958669Y-96307815D01*
X131959776Y-96377676D01*
X131922937Y-96437046D01*
X131879267Y-96462336D01*
X131870669Y-96465184D01*
X131870663Y-96465187D01*
X131721342Y-96557289D01*
X131597289Y-96681342D01*
X131505187Y-96830663D01*
X131505182Y-96830674D01*
X131481205Y-96903032D01*
X131441432Y-96960477D01*
X131376916Y-96987299D01*
X131366138Y-96987412D01*
X130732962Y-97620589D01*
X130715925Y-97557007D01*
X130650099Y-97442993D01*
X130557007Y-97349901D01*
X130442993Y-97284075D01*
X130379410Y-97267037D01*
X131011373Y-96635073D01*
X130934969Y-96581576D01*
X130891344Y-96526999D01*
X130884150Y-96457501D01*
X130915672Y-96395146D01*
X130934968Y-96378425D01*
X131011373Y-96324925D01*
X130379409Y-95692962D01*
X130442993Y-95675925D01*
X130557007Y-95610099D01*
X130650099Y-95517007D01*
X130715925Y-95402993D01*
X130732962Y-95339410D01*
X131364925Y-95971373D01*
G37*
G04 #@! TD.AperFunction*
G04 #@! TA.AperFunction,Conductor*
G36*
X131604855Y-93336546D02*
G01*
X131621575Y-93355842D01*
X131751501Y-93541396D01*
X131751506Y-93541402D01*
X131918597Y-93708493D01*
X131918603Y-93708498D01*
X132104158Y-93838425D01*
X132147783Y-93893002D01*
X132154977Y-93962500D01*
X132123454Y-94024855D01*
X132104158Y-94041575D01*
X131918597Y-94171505D01*
X131751505Y-94338597D01*
X131621269Y-94524595D01*
X131566692Y-94568220D01*
X131497194Y-94575414D01*
X131434839Y-94543891D01*
X131418119Y-94524595D01*
X131364925Y-94448626D01*
X131364925Y-94448625D01*
X130732962Y-95080589D01*
X130715925Y-95017007D01*
X130650099Y-94902993D01*
X130557007Y-94809901D01*
X130442993Y-94744075D01*
X130379410Y-94727037D01*
X131011373Y-94095073D01*
X131011373Y-94095072D01*
X130935405Y-94041880D01*
X130891780Y-93987304D01*
X130884586Y-93917805D01*
X130916108Y-93855451D01*
X130935399Y-93838734D01*
X131121401Y-93708495D01*
X131288495Y-93541401D01*
X131418425Y-93355842D01*
X131473002Y-93312217D01*
X131542500Y-93305023D01*
X131604855Y-93336546D01*
G37*
G04 #@! TD.AperFunction*
G04 #@! TA.AperFunction,Conductor*
G36*
X131364925Y-90891373D02*
G01*
X131418119Y-90815405D01*
X131472696Y-90771781D01*
X131542195Y-90764588D01*
X131604549Y-90796110D01*
X131621269Y-90815405D01*
X131751505Y-91001401D01*
X131751506Y-91001402D01*
X131918597Y-91168493D01*
X131918603Y-91168498D01*
X132104158Y-91298425D01*
X132147783Y-91353002D01*
X132154977Y-91422500D01*
X132123454Y-91484855D01*
X132104158Y-91501575D01*
X131918597Y-91631505D01*
X131751505Y-91798597D01*
X131621575Y-91984158D01*
X131566998Y-92027783D01*
X131497500Y-92034977D01*
X131435145Y-92003454D01*
X131418425Y-91984158D01*
X131288494Y-91798597D01*
X131121402Y-91631506D01*
X131121401Y-91631505D01*
X130935405Y-91501269D01*
X130891781Y-91446692D01*
X130884588Y-91377193D01*
X130916110Y-91314839D01*
X130935405Y-91298119D01*
X131011373Y-91244925D01*
X130379409Y-90612962D01*
X130442993Y-90595925D01*
X130557007Y-90530099D01*
X130650099Y-90437007D01*
X130715925Y-90322993D01*
X130732962Y-90259410D01*
X131364925Y-90891373D01*
G37*
G04 #@! TD.AperFunction*
G04 #@! TA.AperFunction,Conductor*
G36*
X131604855Y-88256546D02*
G01*
X131621575Y-88275842D01*
X131751501Y-88461396D01*
X131751506Y-88461402D01*
X131918597Y-88628493D01*
X131918603Y-88628498D01*
X132104158Y-88758425D01*
X132147783Y-88813002D01*
X132154977Y-88882500D01*
X132123454Y-88944855D01*
X132104158Y-88961575D01*
X131918597Y-89091505D01*
X131751505Y-89258597D01*
X131621269Y-89444595D01*
X131566692Y-89488220D01*
X131497194Y-89495414D01*
X131434839Y-89463891D01*
X131418119Y-89444595D01*
X131364925Y-89368626D01*
X131364925Y-89368625D01*
X130732962Y-90000589D01*
X130715925Y-89937007D01*
X130650099Y-89822993D01*
X130557007Y-89729901D01*
X130442993Y-89664075D01*
X130379410Y-89647037D01*
X131011373Y-89015073D01*
X131011373Y-89015072D01*
X130935405Y-88961880D01*
X130891780Y-88907304D01*
X130884586Y-88837805D01*
X130916108Y-88775451D01*
X130935399Y-88758734D01*
X131121401Y-88628495D01*
X131288495Y-88461401D01*
X131418425Y-88275842D01*
X131473002Y-88232217D01*
X131542500Y-88225023D01*
X131604855Y-88256546D01*
G37*
G04 #@! TD.AperFunction*
G04 #@! TA.AperFunction,Conductor*
G36*
X198693039Y-37319685D02*
G01*
X198738794Y-37372489D01*
X198750000Y-37424000D01*
X198750000Y-120126000D01*
X198730315Y-120193039D01*
X198677511Y-120238794D01*
X198626000Y-120250000D01*
X118874000Y-120250000D01*
X118806961Y-120230315D01*
X118761206Y-120177511D01*
X118750000Y-120126000D01*
X118750000Y-118855000D01*
X188350000Y-118855000D01*
X191850000Y-118855000D01*
X191850000Y-116355000D01*
X188350000Y-116355000D01*
X188350000Y-118855000D01*
X118750000Y-118855000D01*
X118750000Y-110404995D01*
X181645233Y-110404995D01*
X181645233Y-110405004D01*
X181664273Y-110659079D01*
X181720968Y-110907477D01*
X181720973Y-110907494D01*
X181814058Y-111144671D01*
X181814057Y-111144671D01*
X181941454Y-111365327D01*
X181941461Y-111365338D01*
X181983452Y-111417991D01*
X181983453Y-111417992D01*
X182785387Y-110616058D01*
X182790889Y-110636591D01*
X182869881Y-110773408D01*
X182981592Y-110885119D01*
X183118409Y-110964111D01*
X183138940Y-110969612D01*
X182336813Y-111771738D01*
X182497616Y-111881371D01*
X182497624Y-111881376D01*
X182727176Y-111991921D01*
X182727174Y-111991921D01*
X182970652Y-112067024D01*
X182970658Y-112067026D01*
X183222595Y-112104999D01*
X183222604Y-112105000D01*
X183477396Y-112105000D01*
X183477404Y-112104999D01*
X183729341Y-112067026D01*
X183729347Y-112067024D01*
X183972824Y-111991921D01*
X184202376Y-111881376D01*
X184202377Y-111881375D01*
X184363185Y-111771738D01*
X183561060Y-110969612D01*
X183581591Y-110964111D01*
X183718408Y-110885119D01*
X183830119Y-110773408D01*
X183909111Y-110636591D01*
X183914612Y-110616059D01*
X184716544Y-111417992D01*
X184716546Y-111417991D01*
X184758544Y-111365330D01*
X184885941Y-111144671D01*
X184979026Y-110907494D01*
X184979031Y-110907477D01*
X185035726Y-110659079D01*
X185054767Y-110405004D01*
X185054767Y-110404995D01*
X185035726Y-110150920D01*
X184979031Y-109902522D01*
X184979026Y-109902505D01*
X184885941Y-109665328D01*
X184885942Y-109665328D01*
X184758545Y-109444672D01*
X184716545Y-109392006D01*
X183914612Y-110193939D01*
X183909111Y-110173409D01*
X183830119Y-110036592D01*
X183718408Y-109924881D01*
X183581591Y-109845889D01*
X183561059Y-109840387D01*
X184363185Y-109038260D01*
X184202384Y-108928628D01*
X184202376Y-108928623D01*
X183972823Y-108818078D01*
X183972825Y-108818078D01*
X183729347Y-108742975D01*
X183729341Y-108742973D01*
X183477404Y-108705000D01*
X183222595Y-108705000D01*
X182970658Y-108742973D01*
X182970652Y-108742975D01*
X182727175Y-108818078D01*
X182497622Y-108928625D01*
X182497609Y-108928632D01*
X182336813Y-109038259D01*
X183138941Y-109840387D01*
X183118409Y-109845889D01*
X182981592Y-109924881D01*
X182869881Y-110036592D01*
X182790889Y-110173409D01*
X182785387Y-110193941D01*
X181983452Y-109392006D01*
X181941457Y-109444667D01*
X181814058Y-109665328D01*
X181720973Y-109902505D01*
X181720968Y-109902522D01*
X181664273Y-110150920D01*
X181645233Y-110404995D01*
X118750000Y-110404995D01*
X118750000Y-108499995D01*
X186544732Y-108499995D01*
X186544732Y-108500004D01*
X186563777Y-108754154D01*
X186603600Y-108928632D01*
X186620492Y-109002637D01*
X186713607Y-109239888D01*
X186841041Y-109460612D01*
X186999950Y-109659877D01*
X187186783Y-109833232D01*
X187397366Y-109976805D01*
X187397371Y-109976807D01*
X187397372Y-109976808D01*
X187397373Y-109976809D01*
X187519328Y-110035538D01*
X187626992Y-110087387D01*
X187626993Y-110087387D01*
X187626996Y-110087389D01*
X187870542Y-110162513D01*
X188122565Y-110200500D01*
X188377435Y-110200500D01*
X188629458Y-110162513D01*
X188873004Y-110087389D01*
X189102634Y-109976805D01*
X189313217Y-109833232D01*
X189500050Y-109659877D01*
X189658959Y-109460612D01*
X189786393Y-109239888D01*
X189879508Y-109002637D01*
X189936222Y-108754157D01*
X189955268Y-108500000D01*
X189936222Y-108245843D01*
X189879508Y-107997363D01*
X189786393Y-107760112D01*
X189658959Y-107539388D01*
X189500050Y-107340123D01*
X189313217Y-107166768D01*
X189102634Y-107023195D01*
X189102630Y-107023193D01*
X189102627Y-107023191D01*
X189102626Y-107023190D01*
X188873006Y-106912612D01*
X188873008Y-106912612D01*
X188629466Y-106837489D01*
X188629462Y-106837488D01*
X188629458Y-106837487D01*
X188508231Y-106819214D01*
X188377440Y-106799500D01*
X188377435Y-106799500D01*
X188122565Y-106799500D01*
X188122559Y-106799500D01*
X187965609Y-106823157D01*
X187870542Y-106837487D01*
X187870539Y-106837488D01*
X187870533Y-106837489D01*
X187626992Y-106912612D01*
X187397373Y-107023190D01*
X187397372Y-107023191D01*
X187186782Y-107166768D01*
X186999952Y-107340121D01*
X186999950Y-107340123D01*
X186841041Y-107539388D01*
X186713608Y-107760109D01*
X186620492Y-107997362D01*
X186620490Y-107997369D01*
X186563777Y-108245845D01*
X186544732Y-108499995D01*
X118750000Y-108499995D01*
X118750000Y-106500000D01*
X175344540Y-106500000D01*
X175364326Y-106688256D01*
X175364327Y-106688259D01*
X175422818Y-106868277D01*
X175422821Y-106868284D01*
X175517467Y-107032216D01*
X175576373Y-107097637D01*
X175644129Y-107172888D01*
X175797265Y-107284148D01*
X175797270Y-107284151D01*
X175970192Y-107361142D01*
X175970197Y-107361144D01*
X176155354Y-107400500D01*
X176155355Y-107400500D01*
X176344644Y-107400500D01*
X176344646Y-107400500D01*
X176529803Y-107361144D01*
X176702730Y-107284151D01*
X176855871Y-107172888D01*
X176982533Y-107032216D01*
X177077179Y-106868284D01*
X177135674Y-106688256D01*
X177145476Y-106594995D01*
X181644732Y-106594995D01*
X181644732Y-106595004D01*
X181663777Y-106849154D01*
X181705559Y-107032214D01*
X181720492Y-107097637D01*
X181813607Y-107334888D01*
X181941041Y-107555612D01*
X182099950Y-107754877D01*
X182286783Y-107928232D01*
X182497366Y-108071805D01*
X182497371Y-108071807D01*
X182497372Y-108071808D01*
X182497373Y-108071809D01*
X182619328Y-108130538D01*
X182726992Y-108182387D01*
X182726993Y-108182387D01*
X182726996Y-108182389D01*
X182970542Y-108257513D01*
X183222565Y-108295500D01*
X183477435Y-108295500D01*
X183729458Y-108257513D01*
X183973004Y-108182389D01*
X184202634Y-108071805D01*
X184413217Y-107928232D01*
X184600050Y-107754877D01*
X184758959Y-107555612D01*
X184886393Y-107334888D01*
X184979508Y-107097637D01*
X185036222Y-106849157D01*
X185055268Y-106595000D01*
X185036222Y-106340843D01*
X184979508Y-106092363D01*
X184886393Y-105855112D01*
X184758959Y-105634388D01*
X184600050Y-105435123D01*
X184413217Y-105261768D01*
X184202634Y-105118195D01*
X184202630Y-105118193D01*
X184202627Y-105118191D01*
X184202626Y-105118190D01*
X183973006Y-105007612D01*
X183973008Y-105007612D01*
X183729466Y-104932489D01*
X183729462Y-104932488D01*
X183729458Y-104932487D01*
X183608231Y-104914214D01*
X183477440Y-104894500D01*
X183477435Y-104894500D01*
X183222565Y-104894500D01*
X183222559Y-104894500D01*
X183065609Y-104918157D01*
X182970542Y-104932487D01*
X182970539Y-104932488D01*
X182970533Y-104932489D01*
X182726992Y-105007612D01*
X182497373Y-105118190D01*
X182497372Y-105118191D01*
X182286782Y-105261768D01*
X182099952Y-105435121D01*
X182099950Y-105435123D01*
X181941041Y-105634388D01*
X181813608Y-105855109D01*
X181720492Y-106092362D01*
X181720490Y-106092369D01*
X181663777Y-106340845D01*
X181644732Y-106594995D01*
X177145476Y-106594995D01*
X177155460Y-106500000D01*
X177135674Y-106311744D01*
X177077179Y-106131716D01*
X176982533Y-105967784D01*
X176855871Y-105827112D01*
X176855870Y-105827111D01*
X176702734Y-105715851D01*
X176702729Y-105715848D01*
X176529807Y-105638857D01*
X176529802Y-105638855D01*
X176384001Y-105607865D01*
X176344646Y-105599500D01*
X176155354Y-105599500D01*
X176122897Y-105606398D01*
X175970197Y-105638855D01*
X175970192Y-105638857D01*
X175797270Y-105715848D01*
X175797265Y-105715851D01*
X175644129Y-105827111D01*
X175517466Y-105967785D01*
X175422821Y-106131715D01*
X175422818Y-106131722D01*
X175364327Y-106311740D01*
X175364326Y-106311744D01*
X175344540Y-106500000D01*
X118750000Y-106500000D01*
X118750000Y-104689995D01*
X186545233Y-104689995D01*
X186545233Y-104690004D01*
X186564273Y-104944079D01*
X186620968Y-105192477D01*
X186620973Y-105192494D01*
X186714058Y-105429671D01*
X186714057Y-105429671D01*
X186841454Y-105650327D01*
X186841461Y-105650338D01*
X186883452Y-105702991D01*
X186883453Y-105702992D01*
X187685387Y-104901058D01*
X187690889Y-104921591D01*
X187769881Y-105058408D01*
X187881592Y-105170119D01*
X188018409Y-105249111D01*
X188038940Y-105254612D01*
X187236813Y-106056738D01*
X187397616Y-106166371D01*
X187397624Y-106166376D01*
X187627176Y-106276921D01*
X187627174Y-106276921D01*
X187870652Y-106352024D01*
X187870658Y-106352026D01*
X188122595Y-106389999D01*
X188122604Y-106390000D01*
X188377396Y-106390000D01*
X188377404Y-106389999D01*
X188629341Y-106352026D01*
X188629347Y-106352024D01*
X188872824Y-106276921D01*
X189102376Y-106166376D01*
X189102377Y-106166375D01*
X189263185Y-106056738D01*
X188461060Y-105254612D01*
X188481591Y-105249111D01*
X188618408Y-105170119D01*
X188730119Y-105058408D01*
X188809111Y-104921591D01*
X188814612Y-104901059D01*
X189616544Y-105702992D01*
X189616546Y-105702991D01*
X189658544Y-105650330D01*
X189785941Y-105429671D01*
X189879026Y-105192494D01*
X189879031Y-105192477D01*
X189935726Y-104944079D01*
X189954767Y-104690004D01*
X189954767Y-104689995D01*
X189935726Y-104435920D01*
X189879031Y-104187522D01*
X189879026Y-104187505D01*
X189785941Y-103950328D01*
X189785942Y-103950328D01*
X189658545Y-103729672D01*
X189616545Y-103677006D01*
X188814612Y-104478939D01*
X188809111Y-104458409D01*
X188730119Y-104321592D01*
X188618408Y-104209881D01*
X188481591Y-104130889D01*
X188461059Y-104125387D01*
X189263185Y-103323260D01*
X189102384Y-103213628D01*
X189102376Y-103213623D01*
X188872823Y-103103078D01*
X188872825Y-103103078D01*
X188629347Y-103027975D01*
X188629341Y-103027973D01*
X188377404Y-102990000D01*
X188122595Y-102990000D01*
X187870658Y-103027973D01*
X187870652Y-103027975D01*
X187627175Y-103103078D01*
X187397622Y-103213625D01*
X187397609Y-103213632D01*
X187236813Y-103323259D01*
X188038941Y-104125387D01*
X188018409Y-104130889D01*
X187881592Y-104209881D01*
X187769881Y-104321592D01*
X187690889Y-104458409D01*
X187685387Y-104478941D01*
X186883452Y-103677006D01*
X186841457Y-103729667D01*
X186714058Y-103950328D01*
X186620973Y-104187505D01*
X186620968Y-104187522D01*
X186564273Y-104435920D01*
X186545233Y-104689995D01*
X118750000Y-104689995D01*
X118750000Y-102784995D01*
X181645233Y-102784995D01*
X181645233Y-102785004D01*
X181664273Y-103039079D01*
X181720968Y-103287477D01*
X181720973Y-103287494D01*
X181814058Y-103524671D01*
X181814057Y-103524671D01*
X181941454Y-103745327D01*
X181941461Y-103745338D01*
X181983452Y-103797991D01*
X181983453Y-103797992D01*
X182785387Y-102996058D01*
X182790889Y-103016591D01*
X182869881Y-103153408D01*
X182981592Y-103265119D01*
X183118409Y-103344111D01*
X183138940Y-103349612D01*
X182336813Y-104151738D01*
X182497616Y-104261371D01*
X182497624Y-104261376D01*
X182727176Y-104371921D01*
X182727174Y-104371921D01*
X182970652Y-104447024D01*
X182970658Y-104447026D01*
X183222595Y-104484999D01*
X183222604Y-104485000D01*
X183477396Y-104485000D01*
X183477404Y-104484999D01*
X183729341Y-104447026D01*
X183729347Y-104447024D01*
X183972824Y-104371921D01*
X184202376Y-104261376D01*
X184202377Y-104261375D01*
X184363185Y-104151738D01*
X183561060Y-103349612D01*
X183581591Y-103344111D01*
X183718408Y-103265119D01*
X183830119Y-103153408D01*
X183909111Y-103016591D01*
X183914612Y-102996059D01*
X184716544Y-103797992D01*
X184716546Y-103797991D01*
X184758544Y-103745330D01*
X184885941Y-103524671D01*
X184979026Y-103287494D01*
X184979031Y-103287477D01*
X185035726Y-103039079D01*
X185054767Y-102785004D01*
X185054767Y-102784995D01*
X185035726Y-102530920D01*
X184979031Y-102282522D01*
X184979026Y-102282505D01*
X184885941Y-102045328D01*
X184885942Y-102045328D01*
X184758545Y-101824672D01*
X184716545Y-101772006D01*
X183914612Y-102573939D01*
X183909111Y-102553409D01*
X183830119Y-102416592D01*
X183718408Y-102304881D01*
X183581591Y-102225889D01*
X183561059Y-102220387D01*
X184363185Y-101418260D01*
X184202384Y-101308628D01*
X184202376Y-101308623D01*
X183972823Y-101198078D01*
X183972825Y-101198078D01*
X183729347Y-101122975D01*
X183729341Y-101122973D01*
X183477404Y-101085000D01*
X183222595Y-101085000D01*
X182970658Y-101122973D01*
X182970652Y-101122975D01*
X182727175Y-101198078D01*
X182497622Y-101308625D01*
X182497609Y-101308632D01*
X182336813Y-101418259D01*
X183138941Y-102220387D01*
X183118409Y-102225889D01*
X182981592Y-102304881D01*
X182869881Y-102416592D01*
X182790889Y-102553409D01*
X182785387Y-102573941D01*
X181983452Y-101772006D01*
X181941457Y-101824667D01*
X181814058Y-102045328D01*
X181720973Y-102282505D01*
X181720968Y-102282522D01*
X181664273Y-102530920D01*
X181645233Y-102784995D01*
X118750000Y-102784995D01*
X118750000Y-100750000D01*
X174844540Y-100750000D01*
X174864326Y-100938256D01*
X174864327Y-100938259D01*
X174922818Y-101118277D01*
X174922821Y-101118284D01*
X175017467Y-101282216D01*
X175107887Y-101382637D01*
X175144129Y-101422888D01*
X175297265Y-101534148D01*
X175297270Y-101534151D01*
X175470192Y-101611142D01*
X175470197Y-101611144D01*
X175655354Y-101650500D01*
X175655355Y-101650500D01*
X175844644Y-101650500D01*
X175844646Y-101650500D01*
X176029803Y-101611144D01*
X176202730Y-101534151D01*
X176355871Y-101422888D01*
X176482533Y-101282216D01*
X176577179Y-101118284D01*
X176635674Y-100938256D01*
X176641797Y-100879995D01*
X186544732Y-100879995D01*
X186544732Y-100880004D01*
X186563777Y-101134154D01*
X186603600Y-101308632D01*
X186620492Y-101382637D01*
X186713607Y-101619888D01*
X186841041Y-101840612D01*
X186999950Y-102039877D01*
X187186783Y-102213232D01*
X187397366Y-102356805D01*
X187397371Y-102356807D01*
X187397372Y-102356808D01*
X187397373Y-102356809D01*
X187519328Y-102415538D01*
X187626992Y-102467387D01*
X187626993Y-102467387D01*
X187626996Y-102467389D01*
X187870542Y-102542513D01*
X188122565Y-102580500D01*
X188377435Y-102580500D01*
X188629458Y-102542513D01*
X188873004Y-102467389D01*
X189102634Y-102356805D01*
X189313217Y-102213232D01*
X189500050Y-102039877D01*
X189658959Y-101840612D01*
X189786393Y-101619888D01*
X189879508Y-101382637D01*
X189936222Y-101134157D01*
X189950902Y-100938259D01*
X189955268Y-100880004D01*
X189955268Y-100879995D01*
X189939943Y-100675499D01*
X189936222Y-100625843D01*
X189879508Y-100377363D01*
X189786393Y-100140112D01*
X189658959Y-99919388D01*
X189500050Y-99720123D01*
X189313217Y-99546768D01*
X189102634Y-99403195D01*
X189102630Y-99403193D01*
X189102627Y-99403191D01*
X189102626Y-99403190D01*
X188873006Y-99292612D01*
X188873008Y-99292612D01*
X188629466Y-99217489D01*
X188629462Y-99217488D01*
X188629458Y-99217487D01*
X188508231Y-99199214D01*
X188377440Y-99179500D01*
X188377435Y-99179500D01*
X188122565Y-99179500D01*
X188122559Y-99179500D01*
X187965609Y-99203157D01*
X187870542Y-99217487D01*
X187870539Y-99217488D01*
X187870533Y-99217489D01*
X187626992Y-99292612D01*
X187397373Y-99403190D01*
X187397372Y-99403191D01*
X187186782Y-99546768D01*
X186999952Y-99720121D01*
X186999950Y-99720123D01*
X186841041Y-99919388D01*
X186713608Y-100140109D01*
X186620492Y-100377362D01*
X186620490Y-100377369D01*
X186563777Y-100625845D01*
X186544732Y-100879995D01*
X176641797Y-100879995D01*
X176655460Y-100750000D01*
X176635674Y-100561744D01*
X176577179Y-100381716D01*
X176482533Y-100217784D01*
X176355871Y-100077112D01*
X176355870Y-100077111D01*
X176202734Y-99965851D01*
X176202729Y-99965848D01*
X176029807Y-99888857D01*
X176029802Y-99888855D01*
X175884001Y-99857865D01*
X175844646Y-99849500D01*
X175655354Y-99849500D01*
X175622897Y-99856398D01*
X175470197Y-99888855D01*
X175470192Y-99888857D01*
X175297270Y-99965848D01*
X175297265Y-99965851D01*
X175144129Y-100077111D01*
X175017466Y-100217785D01*
X174922821Y-100381715D01*
X174922818Y-100381722D01*
X174900046Y-100451809D01*
X174864326Y-100561744D01*
X174844540Y-100750000D01*
X118750000Y-100750000D01*
X118750000Y-57109999D01*
X128894341Y-57109999D01*
X128894341Y-57110000D01*
X128914936Y-57345403D01*
X128914938Y-57345413D01*
X128976094Y-57573655D01*
X128976096Y-57573659D01*
X128976097Y-57573663D01*
X128980000Y-57582032D01*
X129075965Y-57787830D01*
X129075967Y-57787834D01*
X129184281Y-57942521D01*
X129211501Y-57981396D01*
X129211506Y-57981402D01*
X129378597Y-58148493D01*
X129378603Y-58148498D01*
X129564158Y-58278425D01*
X129607783Y-58333002D01*
X129614977Y-58402500D01*
X129583454Y-58464855D01*
X129564158Y-58481575D01*
X129378597Y-58611505D01*
X129211505Y-58778597D01*
X129075965Y-58972169D01*
X129075964Y-58972171D01*
X128976098Y-59186335D01*
X128976094Y-59186344D01*
X128914938Y-59414586D01*
X128914936Y-59414596D01*
X128894341Y-59649999D01*
X128894341Y-59650000D01*
X128914936Y-59885403D01*
X128914938Y-59885413D01*
X128976094Y-60113655D01*
X128976096Y-60113659D01*
X128976097Y-60113663D01*
X128980000Y-60122032D01*
X129075965Y-60327830D01*
X129075967Y-60327834D01*
X129184281Y-60482521D01*
X129211501Y-60521396D01*
X129211506Y-60521402D01*
X129378597Y-60688493D01*
X129378603Y-60688498D01*
X129564158Y-60818425D01*
X129607783Y-60873002D01*
X129614977Y-60942500D01*
X129583454Y-61004855D01*
X129564158Y-61021575D01*
X129378597Y-61151505D01*
X129211505Y-61318597D01*
X129075965Y-61512169D01*
X129075964Y-61512171D01*
X128976098Y-61726335D01*
X128976094Y-61726344D01*
X128914938Y-61954586D01*
X128914936Y-61954596D01*
X128894341Y-62189999D01*
X128894341Y-62190000D01*
X128914936Y-62425403D01*
X128914938Y-62425413D01*
X128976094Y-62653655D01*
X128976096Y-62653659D01*
X128976097Y-62653663D01*
X128980000Y-62662032D01*
X129075965Y-62867830D01*
X129075967Y-62867834D01*
X129184281Y-63022521D01*
X129211501Y-63061396D01*
X129211506Y-63061402D01*
X129378597Y-63228493D01*
X129378603Y-63228498D01*
X129564158Y-63358425D01*
X129607783Y-63413002D01*
X129614977Y-63482500D01*
X129583454Y-63544855D01*
X129564158Y-63561575D01*
X129378597Y-63691505D01*
X129211505Y-63858597D01*
X129075965Y-64052169D01*
X129075964Y-64052171D01*
X128976098Y-64266335D01*
X128976094Y-64266344D01*
X128914938Y-64494586D01*
X128914936Y-64494596D01*
X128894341Y-64729999D01*
X128894341Y-64730000D01*
X128914936Y-64965403D01*
X128914938Y-64965413D01*
X128976094Y-65193655D01*
X128976096Y-65193659D01*
X128976097Y-65193663D01*
X129056004Y-65365023D01*
X129075965Y-65407830D01*
X129075967Y-65407834D01*
X129160490Y-65528544D01*
X129211501Y-65601396D01*
X129211506Y-65601402D01*
X129378597Y-65768493D01*
X129378603Y-65768498D01*
X129564158Y-65898425D01*
X129607783Y-65953002D01*
X129614977Y-66022500D01*
X129583454Y-66084855D01*
X129564158Y-66101575D01*
X129378597Y-66231505D01*
X129211505Y-66398597D01*
X129075965Y-66592169D01*
X129075964Y-66592171D01*
X128976098Y-66806335D01*
X128976094Y-66806344D01*
X128914938Y-67034586D01*
X128914936Y-67034596D01*
X128894341Y-67269999D01*
X128894341Y-67270000D01*
X128914936Y-67505403D01*
X128914938Y-67505413D01*
X128976094Y-67733655D01*
X128976096Y-67733659D01*
X128976097Y-67733663D01*
X128980000Y-67742032D01*
X129075965Y-67947830D01*
X129075967Y-67947834D01*
X129184281Y-68102521D01*
X129211501Y-68141396D01*
X129211506Y-68141402D01*
X129378597Y-68308493D01*
X129378603Y-68308498D01*
X129564158Y-68438425D01*
X129607783Y-68493002D01*
X129614977Y-68562500D01*
X129583454Y-68624855D01*
X129564158Y-68641575D01*
X129378597Y-68771505D01*
X129211505Y-68938597D01*
X129075965Y-69132169D01*
X129075964Y-69132171D01*
X128976098Y-69346335D01*
X128976094Y-69346344D01*
X128914938Y-69574586D01*
X128914936Y-69574596D01*
X128894341Y-69809999D01*
X128894341Y-69810000D01*
X128914936Y-70045403D01*
X128914938Y-70045413D01*
X128976094Y-70273655D01*
X128976096Y-70273659D01*
X128976097Y-70273663D01*
X128980000Y-70282032D01*
X129075965Y-70487830D01*
X129075967Y-70487834D01*
X129157658Y-70604500D01*
X129211501Y-70681396D01*
X129211506Y-70681402D01*
X129378597Y-70848493D01*
X129378603Y-70848498D01*
X129564158Y-70978425D01*
X129607783Y-71033002D01*
X129614977Y-71102500D01*
X129583454Y-71164855D01*
X129564158Y-71181575D01*
X129378597Y-71311505D01*
X129211505Y-71478597D01*
X129075965Y-71672169D01*
X129075964Y-71672171D01*
X128976098Y-71886335D01*
X128976094Y-71886344D01*
X128914938Y-72114586D01*
X128914936Y-72114596D01*
X128894341Y-72349999D01*
X128894341Y-72350000D01*
X128914936Y-72585403D01*
X128914938Y-72585413D01*
X128976094Y-72813655D01*
X128976096Y-72813659D01*
X128976097Y-72813663D01*
X129056004Y-72985023D01*
X129075965Y-73027830D01*
X129075967Y-73027834D01*
X129184281Y-73182521D01*
X129211501Y-73221396D01*
X129211506Y-73221402D01*
X129378597Y-73388493D01*
X129378603Y-73388498D01*
X129564158Y-73518425D01*
X129607783Y-73573002D01*
X129614977Y-73642500D01*
X129583454Y-73704855D01*
X129564158Y-73721575D01*
X129378597Y-73851505D01*
X129211505Y-74018597D01*
X129075965Y-74212169D01*
X129075964Y-74212171D01*
X128976098Y-74426335D01*
X128976094Y-74426344D01*
X128914938Y-74654586D01*
X128914936Y-74654596D01*
X128894341Y-74889999D01*
X128894341Y-74890000D01*
X128914936Y-75125403D01*
X128914938Y-75125413D01*
X128976094Y-75353655D01*
X128976096Y-75353659D01*
X128976097Y-75353663D01*
X128986099Y-75375112D01*
X129075965Y-75567830D01*
X129075967Y-75567834D01*
X129159272Y-75686805D01*
X129211501Y-75761396D01*
X129211506Y-75761402D01*
X129378597Y-75928493D01*
X129378603Y-75928498D01*
X129564158Y-76058425D01*
X129607783Y-76113002D01*
X129614977Y-76182500D01*
X129583454Y-76244855D01*
X129564158Y-76261575D01*
X129378597Y-76391505D01*
X129211505Y-76558597D01*
X129075965Y-76752169D01*
X129075964Y-76752171D01*
X128976098Y-76966335D01*
X128976094Y-76966344D01*
X128914938Y-77194586D01*
X128914936Y-77194596D01*
X128894341Y-77429999D01*
X128894341Y-77430000D01*
X128914936Y-77665403D01*
X128914938Y-77665413D01*
X128976094Y-77893655D01*
X128976096Y-77893659D01*
X128976097Y-77893663D01*
X129035007Y-78019995D01*
X129075965Y-78107830D01*
X129075967Y-78107834D01*
X129158008Y-78225000D01*
X129211501Y-78301396D01*
X129211506Y-78301402D01*
X129378597Y-78468493D01*
X129378603Y-78468498D01*
X129564158Y-78598425D01*
X129607783Y-78653002D01*
X129614977Y-78722500D01*
X129583454Y-78784855D01*
X129564158Y-78801575D01*
X129378597Y-78931505D01*
X129211505Y-79098597D01*
X129075965Y-79292169D01*
X129075964Y-79292171D01*
X128976098Y-79506335D01*
X128976094Y-79506344D01*
X128914938Y-79734586D01*
X128914936Y-79734596D01*
X128894341Y-79969999D01*
X128894341Y-79970000D01*
X128914936Y-80205403D01*
X128914938Y-80205413D01*
X128976094Y-80433655D01*
X128976096Y-80433659D01*
X128976097Y-80433663D01*
X129056004Y-80605023D01*
X129075965Y-80647830D01*
X129075967Y-80647834D01*
X129147505Y-80750000D01*
X129211501Y-80841396D01*
X129211506Y-80841402D01*
X129378597Y-81008493D01*
X129378603Y-81008498D01*
X129564158Y-81138425D01*
X129607783Y-81193002D01*
X129614977Y-81262500D01*
X129583454Y-81324855D01*
X129564158Y-81341575D01*
X129378597Y-81471505D01*
X129211505Y-81638597D01*
X129075965Y-81832169D01*
X129075964Y-81832171D01*
X128976098Y-82046335D01*
X128976094Y-82046344D01*
X128914938Y-82274586D01*
X128914936Y-82274596D01*
X128894341Y-82509999D01*
X128894341Y-82510000D01*
X128914936Y-82745403D01*
X128914938Y-82745413D01*
X128976094Y-82973655D01*
X128976096Y-82973659D01*
X128976097Y-82973663D01*
X129015557Y-83058284D01*
X129075965Y-83187830D01*
X129075967Y-83187834D01*
X129159272Y-83306805D01*
X129211501Y-83381396D01*
X129211506Y-83381402D01*
X129378597Y-83548493D01*
X129378603Y-83548498D01*
X129564158Y-83678425D01*
X129607783Y-83733002D01*
X129614977Y-83802500D01*
X129583454Y-83864855D01*
X129564158Y-83881575D01*
X129378597Y-84011505D01*
X129211505Y-84178597D01*
X129075965Y-84372169D01*
X129075964Y-84372171D01*
X128976098Y-84586335D01*
X128976094Y-84586344D01*
X128914938Y-84814586D01*
X128914936Y-84814596D01*
X128894341Y-85049999D01*
X128894341Y-85050000D01*
X128914936Y-85285403D01*
X128914938Y-85285413D01*
X128976094Y-85513655D01*
X128976096Y-85513659D01*
X128976097Y-85513663D01*
X129005684Y-85577112D01*
X129075965Y-85727830D01*
X129075967Y-85727834D01*
X129146704Y-85828856D01*
X129211501Y-85921396D01*
X129211506Y-85921402D01*
X129378597Y-86088493D01*
X129378603Y-86088498D01*
X129564158Y-86218425D01*
X129607783Y-86273002D01*
X129614977Y-86342500D01*
X129583454Y-86404855D01*
X129564158Y-86421575D01*
X129378597Y-86551505D01*
X129211505Y-86718597D01*
X129075965Y-86912169D01*
X129075964Y-86912171D01*
X128976098Y-87126335D01*
X128976094Y-87126344D01*
X128914938Y-87354586D01*
X128914936Y-87354596D01*
X128894341Y-87589999D01*
X128894341Y-87590000D01*
X128914936Y-87825403D01*
X128914938Y-87825413D01*
X128976094Y-88053655D01*
X128976096Y-88053659D01*
X128976097Y-88053663D01*
X129024650Y-88157784D01*
X129075965Y-88267830D01*
X129075967Y-88267834D01*
X129133151Y-88349500D01*
X129211505Y-88461401D01*
X129378599Y-88628495D01*
X129564158Y-88758425D01*
X129564594Y-88758730D01*
X129608218Y-88813307D01*
X129615411Y-88882806D01*
X129583889Y-88945160D01*
X129564593Y-88961880D01*
X129488626Y-89015072D01*
X129488625Y-89015072D01*
X130120590Y-89647037D01*
X130057007Y-89664075D01*
X129942993Y-89729901D01*
X129849901Y-89822993D01*
X129784075Y-89937007D01*
X129767037Y-90000590D01*
X129135072Y-89368625D01*
X129076401Y-89452419D01*
X128976570Y-89666507D01*
X128976566Y-89666516D01*
X128915432Y-89894673D01*
X128915430Y-89894684D01*
X128894843Y-90129998D01*
X128894843Y-90130001D01*
X128915430Y-90365315D01*
X128915432Y-90365326D01*
X128976566Y-90593483D01*
X128976570Y-90593492D01*
X129076400Y-90807579D01*
X129076402Y-90807583D01*
X129135072Y-90891373D01*
X129135073Y-90891373D01*
X129767037Y-90259409D01*
X129784075Y-90322993D01*
X129849901Y-90437007D01*
X129942993Y-90530099D01*
X130057007Y-90595925D01*
X130120590Y-90612962D01*
X129488625Y-91244925D01*
X129564594Y-91298119D01*
X129608219Y-91352696D01*
X129615413Y-91422194D01*
X129583890Y-91484549D01*
X129564595Y-91501269D01*
X129378594Y-91631508D01*
X129211505Y-91798597D01*
X129075965Y-91992169D01*
X129075964Y-91992171D01*
X128976098Y-92206335D01*
X128976094Y-92206344D01*
X128914938Y-92434586D01*
X128914936Y-92434596D01*
X128894341Y-92669999D01*
X128894341Y-92670000D01*
X128914936Y-92905403D01*
X128914938Y-92905413D01*
X128976094Y-93133655D01*
X128976096Y-93133659D01*
X128976097Y-93133663D01*
X128980000Y-93142032D01*
X129075965Y-93347830D01*
X129075967Y-93347834D01*
X129139282Y-93438256D01*
X129211505Y-93541401D01*
X129378599Y-93708495D01*
X129506797Y-93798260D01*
X129564594Y-93838730D01*
X129608218Y-93893307D01*
X129615411Y-93962806D01*
X129583889Y-94025160D01*
X129564593Y-94041880D01*
X129488626Y-94095072D01*
X129488625Y-94095072D01*
X130120590Y-94727037D01*
X130057007Y-94744075D01*
X129942993Y-94809901D01*
X129849901Y-94902993D01*
X129784075Y-95017007D01*
X129767037Y-95080590D01*
X129135072Y-94448625D01*
X129076401Y-94532419D01*
X128976570Y-94746507D01*
X128976566Y-94746516D01*
X128915432Y-94974673D01*
X128915430Y-94974684D01*
X128894843Y-95209998D01*
X128894843Y-95210001D01*
X128915430Y-95445315D01*
X128915432Y-95445326D01*
X128976566Y-95673483D01*
X128976570Y-95673492D01*
X129076400Y-95887579D01*
X129076402Y-95887583D01*
X129135072Y-95971373D01*
X129135073Y-95971373D01*
X129767037Y-95339409D01*
X129784075Y-95402993D01*
X129849901Y-95517007D01*
X129942993Y-95610099D01*
X130057007Y-95675925D01*
X130120590Y-95692962D01*
X129488625Y-96324925D01*
X129565031Y-96378425D01*
X129608655Y-96433002D01*
X129615848Y-96502501D01*
X129584326Y-96564855D01*
X129565029Y-96581576D01*
X129488625Y-96635072D01*
X130120590Y-97267037D01*
X130057007Y-97284075D01*
X129942993Y-97349901D01*
X129849901Y-97442993D01*
X129784075Y-97557007D01*
X129767037Y-97620590D01*
X129135072Y-96988625D01*
X129076401Y-97072419D01*
X128976570Y-97286507D01*
X128976566Y-97286516D01*
X128915432Y-97514673D01*
X128915430Y-97514684D01*
X128894843Y-97749998D01*
X128894843Y-97750001D01*
X128915430Y-97985315D01*
X128915432Y-97985326D01*
X128976566Y-98213483D01*
X128976570Y-98213492D01*
X129076400Y-98427579D01*
X129076402Y-98427583D01*
X129135072Y-98511373D01*
X129135073Y-98511373D01*
X129767037Y-97879409D01*
X129784075Y-97942993D01*
X129849901Y-98057007D01*
X129942993Y-98150099D01*
X130057007Y-98215925D01*
X130120590Y-98232962D01*
X129488625Y-98864925D01*
X129572421Y-98923599D01*
X129786507Y-99023429D01*
X129786516Y-99023433D01*
X130014673Y-99084567D01*
X130014684Y-99084569D01*
X130249998Y-99105157D01*
X130250002Y-99105157D01*
X130485315Y-99084569D01*
X130485326Y-99084567D01*
X130713483Y-99023433D01*
X130713492Y-99023429D01*
X130927578Y-98923600D01*
X130927582Y-98923598D01*
X131011373Y-98864926D01*
X131011373Y-98864925D01*
X130379409Y-98232962D01*
X130442993Y-98215925D01*
X130557007Y-98150099D01*
X130650099Y-98057007D01*
X130715925Y-97942993D01*
X130732962Y-97879410D01*
X131369341Y-98515789D01*
X131421191Y-98526209D01*
X131471375Y-98574823D01*
X131481205Y-98596966D01*
X131505186Y-98669334D01*
X131597288Y-98818656D01*
X131721344Y-98942712D01*
X131870666Y-99034814D01*
X132037203Y-99089999D01*
X132139991Y-99100500D01*
X133440008Y-99100499D01*
X133542797Y-99089999D01*
X133709334Y-99034814D01*
X133858656Y-98942712D01*
X133982712Y-98818656D01*
X134074814Y-98669334D01*
X134129999Y-98502797D01*
X134132839Y-98475000D01*
X136344540Y-98475000D01*
X136364326Y-98663256D01*
X136364327Y-98663259D01*
X136422818Y-98843277D01*
X136422821Y-98843284D01*
X136517467Y-99007216D01*
X136601459Y-99100498D01*
X136644129Y-99147888D01*
X136797265Y-99259148D01*
X136797270Y-99259151D01*
X136970192Y-99336142D01*
X136970197Y-99336144D01*
X137155354Y-99375500D01*
X137155355Y-99375500D01*
X137344644Y-99375500D01*
X137344646Y-99375500D01*
X137529803Y-99336144D01*
X137702730Y-99259151D01*
X137855871Y-99147888D01*
X137982533Y-99007216D01*
X138077179Y-98843284D01*
X138135674Y-98663256D01*
X138152832Y-98500000D01*
X150534540Y-98500000D01*
X150554326Y-98688256D01*
X150554327Y-98688259D01*
X150612818Y-98868277D01*
X150612821Y-98868284D01*
X150707467Y-99032216D01*
X150773144Y-99105157D01*
X150834129Y-99172888D01*
X150987265Y-99284148D01*
X150987270Y-99284151D01*
X151160192Y-99361142D01*
X151160197Y-99361144D01*
X151345354Y-99400500D01*
X151345355Y-99400500D01*
X151534644Y-99400500D01*
X151534646Y-99400500D01*
X151719803Y-99361144D01*
X151892730Y-99284151D01*
X152045871Y-99172888D01*
X152172533Y-99032216D01*
X152205569Y-98974995D01*
X181644732Y-98974995D01*
X181644732Y-98975004D01*
X181663777Y-99229154D01*
X181693902Y-99361142D01*
X181720492Y-99477637D01*
X181813607Y-99714888D01*
X181941041Y-99935612D01*
X182099950Y-100134877D01*
X182286783Y-100308232D01*
X182497366Y-100451805D01*
X182497371Y-100451807D01*
X182497372Y-100451808D01*
X182497373Y-100451809D01*
X182619328Y-100510538D01*
X182726992Y-100562387D01*
X182726993Y-100562387D01*
X182726996Y-100562389D01*
X182970542Y-100637513D01*
X183222565Y-100675500D01*
X183477435Y-100675500D01*
X183729458Y-100637513D01*
X183973004Y-100562389D01*
X184202634Y-100451805D01*
X184413217Y-100308232D01*
X184600050Y-100134877D01*
X184758959Y-99935612D01*
X184886393Y-99714888D01*
X184979508Y-99477637D01*
X185036222Y-99229157D01*
X185050786Y-99034812D01*
X185055268Y-98975004D01*
X185055268Y-98974995D01*
X185036222Y-98720845D01*
X185028784Y-98688259D01*
X184979508Y-98472363D01*
X184886393Y-98235112D01*
X184758959Y-98014388D01*
X184600050Y-97815123D01*
X184413217Y-97641768D01*
X184202634Y-97498195D01*
X184202630Y-97498193D01*
X184202627Y-97498191D01*
X184202626Y-97498190D01*
X183973006Y-97387612D01*
X183973008Y-97387612D01*
X183729466Y-97312489D01*
X183729462Y-97312488D01*
X183729458Y-97312487D01*
X183608231Y-97294214D01*
X183477440Y-97274500D01*
X183477435Y-97274500D01*
X183222565Y-97274500D01*
X183222559Y-97274500D01*
X183065609Y-97298157D01*
X182970542Y-97312487D01*
X182970539Y-97312488D01*
X182970533Y-97312489D01*
X182726992Y-97387612D01*
X182497373Y-97498190D01*
X182497372Y-97498191D01*
X182286782Y-97641768D01*
X182099952Y-97815121D01*
X182099950Y-97815123D01*
X181941041Y-98014388D01*
X181813608Y-98235109D01*
X181720492Y-98472362D01*
X181720490Y-98472369D01*
X181663777Y-98720845D01*
X181644732Y-98974995D01*
X152205569Y-98974995D01*
X152267179Y-98868284D01*
X152325674Y-98688256D01*
X152345460Y-98500000D01*
X152325674Y-98311744D01*
X152267179Y-98131716D01*
X152172533Y-97967784D01*
X152045871Y-97827112D01*
X152045870Y-97827111D01*
X151892734Y-97715851D01*
X151892729Y-97715848D01*
X151719807Y-97638857D01*
X151719802Y-97638855D01*
X151574001Y-97607865D01*
X151534646Y-97599500D01*
X151345354Y-97599500D01*
X151312897Y-97606398D01*
X151160197Y-97638855D01*
X151160192Y-97638857D01*
X150987270Y-97715848D01*
X150987265Y-97715851D01*
X150834129Y-97827111D01*
X150707466Y-97967785D01*
X150612821Y-98131715D01*
X150612818Y-98131722D01*
X150562450Y-98286740D01*
X150554326Y-98311744D01*
X150534540Y-98500000D01*
X138152832Y-98500000D01*
X138155460Y-98475000D01*
X138135674Y-98286744D01*
X138077179Y-98106716D01*
X137982533Y-97942784D01*
X137855871Y-97802112D01*
X137855870Y-97802111D01*
X137702734Y-97690851D01*
X137702729Y-97690848D01*
X137529807Y-97613857D01*
X137529802Y-97613855D01*
X137384001Y-97582865D01*
X137344646Y-97574500D01*
X137155354Y-97574500D01*
X137122897Y-97581398D01*
X136970197Y-97613855D01*
X136970192Y-97613857D01*
X136797270Y-97690848D01*
X136797265Y-97690851D01*
X136644129Y-97802111D01*
X136517466Y-97942785D01*
X136422821Y-98106715D01*
X136422818Y-98106722D01*
X136364327Y-98286740D01*
X136364326Y-98286744D01*
X136344540Y-98475000D01*
X134132839Y-98475000D01*
X134140500Y-98400009D01*
X134140499Y-97099992D01*
X134136238Y-97058284D01*
X134129999Y-96997203D01*
X134129998Y-96997200D01*
X134074814Y-96830666D01*
X133982712Y-96681344D01*
X133883564Y-96582196D01*
X145987039Y-96582196D01*
X146006825Y-96770452D01*
X146006826Y-96770455D01*
X146065317Y-96950473D01*
X146065320Y-96950480D01*
X146159966Y-97114412D01*
X146282050Y-97250000D01*
X146286628Y-97255084D01*
X146439764Y-97366344D01*
X146439769Y-97366347D01*
X146612691Y-97443338D01*
X146612696Y-97443340D01*
X146797853Y-97482696D01*
X146797854Y-97482696D01*
X146987143Y-97482696D01*
X146987145Y-97482696D01*
X147172302Y-97443340D01*
X147345229Y-97366347D01*
X147498370Y-97255084D01*
X147625032Y-97114412D01*
X147719678Y-96950480D01*
X147778173Y-96770452D01*
X147786629Y-96690000D01*
X154344540Y-96690000D01*
X154364326Y-96878256D01*
X154364327Y-96878259D01*
X154422818Y-97058277D01*
X154422821Y-97058284D01*
X154517467Y-97222216D01*
X154609185Y-97324079D01*
X154644129Y-97362888D01*
X154797265Y-97474148D01*
X154797270Y-97474151D01*
X154970192Y-97551142D01*
X154970197Y-97551144D01*
X155155354Y-97590500D01*
X155155355Y-97590500D01*
X155344644Y-97590500D01*
X155344646Y-97590500D01*
X155529803Y-97551144D01*
X155702730Y-97474151D01*
X155855871Y-97362888D01*
X155982533Y-97222216D01*
X156070418Y-97069995D01*
X186545233Y-97069995D01*
X186545233Y-97070004D01*
X186564273Y-97324079D01*
X186620968Y-97572477D01*
X186620973Y-97572494D01*
X186714058Y-97809671D01*
X186714057Y-97809671D01*
X186841454Y-98030327D01*
X186841461Y-98030338D01*
X186883452Y-98082991D01*
X186883453Y-98082992D01*
X187685387Y-97281058D01*
X187690889Y-97301591D01*
X187769881Y-97438408D01*
X187881592Y-97550119D01*
X188018409Y-97629111D01*
X188038940Y-97634612D01*
X187236813Y-98436738D01*
X187397616Y-98546371D01*
X187397624Y-98546376D01*
X187627176Y-98656921D01*
X187627174Y-98656921D01*
X187870652Y-98732024D01*
X187870658Y-98732026D01*
X188122595Y-98769999D01*
X188122604Y-98770000D01*
X188377396Y-98770000D01*
X188377404Y-98769999D01*
X188629341Y-98732026D01*
X188629347Y-98732024D01*
X188872824Y-98656921D01*
X189102376Y-98546376D01*
X189102377Y-98546375D01*
X189263185Y-98436738D01*
X188461060Y-97634612D01*
X188481591Y-97629111D01*
X188618408Y-97550119D01*
X188730119Y-97438408D01*
X188809111Y-97301591D01*
X188814612Y-97281059D01*
X189616544Y-98082992D01*
X189616546Y-98082991D01*
X189658544Y-98030330D01*
X189785941Y-97809671D01*
X189879026Y-97572494D01*
X189879031Y-97572477D01*
X189935726Y-97324079D01*
X189954767Y-97070004D01*
X189954767Y-97069995D01*
X189935726Y-96815920D01*
X189879031Y-96567522D01*
X189879026Y-96567505D01*
X189785941Y-96330328D01*
X189785942Y-96330328D01*
X189658545Y-96109672D01*
X189616545Y-96057006D01*
X188814612Y-96858939D01*
X188809111Y-96838409D01*
X188730119Y-96701592D01*
X188618408Y-96589881D01*
X188481591Y-96510889D01*
X188461059Y-96505387D01*
X189263185Y-95703260D01*
X189102384Y-95593628D01*
X189102376Y-95593623D01*
X188872823Y-95483078D01*
X188872825Y-95483078D01*
X188629347Y-95407975D01*
X188629341Y-95407973D01*
X188377404Y-95370000D01*
X188122595Y-95370000D01*
X187870658Y-95407973D01*
X187870652Y-95407975D01*
X187627175Y-95483078D01*
X187397622Y-95593625D01*
X187397609Y-95593632D01*
X187236813Y-95703259D01*
X188038941Y-96505387D01*
X188018409Y-96510889D01*
X187881592Y-96589881D01*
X187769881Y-96701592D01*
X187690889Y-96838409D01*
X187685387Y-96858941D01*
X186883452Y-96057006D01*
X186841457Y-96109667D01*
X186714058Y-96330328D01*
X186620973Y-96567505D01*
X186620968Y-96567522D01*
X186564273Y-96815920D01*
X186545233Y-97069995D01*
X156070418Y-97069995D01*
X156077179Y-97058284D01*
X156135674Y-96878256D01*
X156155460Y-96690000D01*
X156135674Y-96501744D01*
X156077179Y-96321716D01*
X155982533Y-96157784D01*
X155855871Y-96017112D01*
X155855870Y-96017111D01*
X155702734Y-95905851D01*
X155702729Y-95905848D01*
X155529807Y-95828857D01*
X155529802Y-95828855D01*
X155384001Y-95797865D01*
X155344646Y-95789500D01*
X155155354Y-95789500D01*
X155122897Y-95796398D01*
X154970197Y-95828855D01*
X154970192Y-95828857D01*
X154797270Y-95905848D01*
X154797265Y-95905851D01*
X154644129Y-96017111D01*
X154517466Y-96157785D01*
X154422821Y-96321715D01*
X154422818Y-96321722D01*
X154376204Y-96465186D01*
X154364326Y-96501744D01*
X154344540Y-96690000D01*
X147786629Y-96690000D01*
X147797959Y-96582196D01*
X147778173Y-96393940D01*
X147719678Y-96213912D01*
X147625032Y-96049980D01*
X147498370Y-95909308D01*
X147491988Y-95904671D01*
X147345233Y-95798047D01*
X147345228Y-95798044D01*
X147172306Y-95721053D01*
X147172301Y-95721051D01*
X147026500Y-95690061D01*
X146987145Y-95681696D01*
X146797853Y-95681696D01*
X146765396Y-95688594D01*
X146612696Y-95721051D01*
X146612691Y-95721053D01*
X146439769Y-95798044D01*
X146439764Y-95798047D01*
X146286628Y-95909307D01*
X146159965Y-96049981D01*
X146065320Y-96213911D01*
X146065317Y-96213918D01*
X146011866Y-96378425D01*
X146006825Y-96393940D01*
X145987039Y-96582196D01*
X133883564Y-96582196D01*
X133858656Y-96557288D01*
X133709334Y-96465186D01*
X133700733Y-96462336D01*
X133643290Y-96422564D01*
X133616467Y-96358048D01*
X133628782Y-96289272D01*
X133657767Y-96252517D01*
X133657573Y-96252323D01*
X133659219Y-96250676D01*
X133660040Y-96249636D01*
X133661388Y-96248504D01*
X133661401Y-96248495D01*
X133828495Y-96081401D01*
X133964035Y-95887830D01*
X134063903Y-95673663D01*
X134125063Y-95445408D01*
X134145659Y-95210000D01*
X134141721Y-95164995D01*
X181645233Y-95164995D01*
X181645233Y-95165004D01*
X181664273Y-95419079D01*
X181720968Y-95667477D01*
X181720973Y-95667494D01*
X181814058Y-95904671D01*
X181814057Y-95904671D01*
X181941454Y-96125327D01*
X181941461Y-96125338D01*
X181983452Y-96177991D01*
X181983453Y-96177992D01*
X182785387Y-95376058D01*
X182790889Y-95396591D01*
X182869881Y-95533408D01*
X182981592Y-95645119D01*
X183118409Y-95724111D01*
X183138940Y-95729612D01*
X182336813Y-96531738D01*
X182497616Y-96641371D01*
X182497624Y-96641376D01*
X182727176Y-96751921D01*
X182727174Y-96751921D01*
X182970652Y-96827024D01*
X182970658Y-96827026D01*
X183222595Y-96864999D01*
X183222604Y-96865000D01*
X183477396Y-96865000D01*
X183477404Y-96864999D01*
X183729341Y-96827026D01*
X183729347Y-96827024D01*
X183972824Y-96751921D01*
X184202376Y-96641376D01*
X184202377Y-96641375D01*
X184363185Y-96531738D01*
X183561060Y-95729612D01*
X183581591Y-95724111D01*
X183718408Y-95645119D01*
X183830119Y-95533408D01*
X183909111Y-95396591D01*
X183914612Y-95376059D01*
X184716544Y-96177992D01*
X184716546Y-96177991D01*
X184758544Y-96125330D01*
X184885941Y-95904671D01*
X184979026Y-95667494D01*
X184979031Y-95667477D01*
X185035726Y-95419079D01*
X185054767Y-95165004D01*
X185054767Y-95164995D01*
X185035726Y-94910920D01*
X184979031Y-94662522D01*
X184979026Y-94662505D01*
X184885941Y-94425328D01*
X184885942Y-94425328D01*
X184758545Y-94204672D01*
X184716545Y-94152006D01*
X183914612Y-94953939D01*
X183909111Y-94933409D01*
X183830119Y-94796592D01*
X183718408Y-94684881D01*
X183581591Y-94605889D01*
X183561059Y-94600387D01*
X184363185Y-93798260D01*
X184202384Y-93688628D01*
X184202376Y-93688623D01*
X183972823Y-93578078D01*
X183972825Y-93578078D01*
X183729347Y-93502975D01*
X183729341Y-93502973D01*
X183477404Y-93465000D01*
X183222595Y-93465000D01*
X182970658Y-93502973D01*
X182970652Y-93502975D01*
X182727175Y-93578078D01*
X182497622Y-93688625D01*
X182497609Y-93688632D01*
X182336813Y-93798259D01*
X183138941Y-94600387D01*
X183118409Y-94605889D01*
X182981592Y-94684881D01*
X182869881Y-94796592D01*
X182790889Y-94933409D01*
X182785387Y-94953941D01*
X181983452Y-94152006D01*
X181941457Y-94204667D01*
X181814058Y-94425328D01*
X181720973Y-94662505D01*
X181720968Y-94662522D01*
X181664273Y-94910920D01*
X181645233Y-95164995D01*
X134141721Y-95164995D01*
X134125063Y-94974592D01*
X134063903Y-94746337D01*
X133964035Y-94532171D01*
X133958731Y-94524595D01*
X133828494Y-94338597D01*
X133661402Y-94171506D01*
X133661396Y-94171501D01*
X133475842Y-94041575D01*
X133432217Y-93986998D01*
X133425023Y-93917500D01*
X133456546Y-93855145D01*
X133475842Y-93838425D01*
X133533205Y-93798259D01*
X133661401Y-93708495D01*
X133828495Y-93541401D01*
X133964035Y-93347830D01*
X134063903Y-93133663D01*
X134125063Y-92905408D01*
X134145659Y-92670000D01*
X134125063Y-92434592D01*
X134063903Y-92206337D01*
X133964035Y-91992171D01*
X133958425Y-91984158D01*
X133828494Y-91798597D01*
X133661402Y-91631506D01*
X133661396Y-91631501D01*
X133475842Y-91501575D01*
X133432217Y-91446998D01*
X133425023Y-91377500D01*
X133456546Y-91315145D01*
X133475842Y-91298425D01*
X133597471Y-91213259D01*
X133661401Y-91168495D01*
X133804896Y-91025000D01*
X134844540Y-91025000D01*
X134864326Y-91213256D01*
X134864327Y-91213259D01*
X134922818Y-91393277D01*
X134922819Y-91393279D01*
X134922821Y-91393284D01*
X135017467Y-91557216D01*
X135121370Y-91672612D01*
X135144129Y-91697888D01*
X135297265Y-91809148D01*
X135297270Y-91809151D01*
X135419488Y-91863567D01*
X135472725Y-91908817D01*
X135493046Y-91975666D01*
X135476440Y-92038844D01*
X135444083Y-92094890D01*
X135422820Y-92131718D01*
X135422818Y-92131722D01*
X135364327Y-92311740D01*
X135364326Y-92311744D01*
X135344540Y-92500000D01*
X135364326Y-92688256D01*
X135364327Y-92688259D01*
X135422818Y-92868277D01*
X135422821Y-92868284D01*
X135517467Y-93032216D01*
X135616346Y-93142032D01*
X135644129Y-93172888D01*
X135797265Y-93284148D01*
X135797270Y-93284151D01*
X135970192Y-93361142D01*
X135970197Y-93361144D01*
X136155354Y-93400500D01*
X136155355Y-93400500D01*
X136344644Y-93400500D01*
X136344646Y-93400500D01*
X136529803Y-93361144D01*
X136702730Y-93284151D01*
X136749735Y-93250000D01*
X137344540Y-93250000D01*
X137364326Y-93438256D01*
X137364327Y-93438259D01*
X137422818Y-93618277D01*
X137422821Y-93618284D01*
X137517467Y-93782216D01*
X137617494Y-93893307D01*
X137644129Y-93922888D01*
X137797265Y-94034148D01*
X137797270Y-94034151D01*
X137970192Y-94111142D01*
X137970197Y-94111144D01*
X138155354Y-94150500D01*
X138155355Y-94150500D01*
X138344644Y-94150500D01*
X138344646Y-94150500D01*
X138529803Y-94111144D01*
X138702730Y-94034151D01*
X138855871Y-93922888D01*
X138982533Y-93782216D01*
X139077179Y-93618284D01*
X139135674Y-93438256D01*
X139155460Y-93250000D01*
X139135674Y-93061744D01*
X139077179Y-92881716D01*
X138982533Y-92717784D01*
X138957516Y-92690000D01*
X146119540Y-92690000D01*
X146139326Y-92878256D01*
X146139327Y-92878259D01*
X146197818Y-93058277D01*
X146197821Y-93058284D01*
X146292467Y-93222216D01*
X146405571Y-93347830D01*
X146419129Y-93362888D01*
X146572265Y-93474148D01*
X146572270Y-93474151D01*
X146745192Y-93551142D01*
X146745197Y-93551144D01*
X146930354Y-93590500D01*
X146930355Y-93590500D01*
X147119644Y-93590500D01*
X147119646Y-93590500D01*
X147304803Y-93551144D01*
X147477730Y-93474151D01*
X147630871Y-93362888D01*
X147757533Y-93222216D01*
X147852179Y-93058284D01*
X147910674Y-92878256D01*
X147930460Y-92690000D01*
X150534540Y-92690000D01*
X150554326Y-92878256D01*
X150554327Y-92878259D01*
X150612818Y-93058277D01*
X150612821Y-93058284D01*
X150707467Y-93222216D01*
X150820571Y-93347830D01*
X150834129Y-93362888D01*
X150987265Y-93474148D01*
X150987270Y-93474151D01*
X151160192Y-93551142D01*
X151160197Y-93551144D01*
X151345354Y-93590500D01*
X151345355Y-93590500D01*
X151534644Y-93590500D01*
X151534646Y-93590500D01*
X151719803Y-93551144D01*
X151892730Y-93474151D01*
X152045871Y-93362888D01*
X152172533Y-93222216D01*
X152267179Y-93058284D01*
X152325674Y-92878256D01*
X152345460Y-92690000D01*
X154344540Y-92690000D01*
X154364326Y-92878256D01*
X154364327Y-92878259D01*
X154422818Y-93058277D01*
X154422821Y-93058284D01*
X154517467Y-93222216D01*
X154630571Y-93347830D01*
X154644129Y-93362888D01*
X154797265Y-93474148D01*
X154797270Y-93474151D01*
X154970192Y-93551142D01*
X154970197Y-93551144D01*
X155155354Y-93590500D01*
X155155355Y-93590500D01*
X155344644Y-93590500D01*
X155344646Y-93590500D01*
X155529803Y-93551144D01*
X155702730Y-93474151D01*
X155855871Y-93362888D01*
X155948517Y-93259995D01*
X186544732Y-93259995D01*
X186544732Y-93260004D01*
X186563777Y-93514154D01*
X186603600Y-93688632D01*
X186620492Y-93762637D01*
X186713607Y-93999888D01*
X186841041Y-94220612D01*
X186999950Y-94419877D01*
X187186783Y-94593232D01*
X187397366Y-94736805D01*
X187397371Y-94736807D01*
X187397372Y-94736808D01*
X187397373Y-94736809D01*
X187519328Y-94795538D01*
X187626992Y-94847387D01*
X187626993Y-94847387D01*
X187626996Y-94847389D01*
X187870542Y-94922513D01*
X188122565Y-94960500D01*
X188377435Y-94960500D01*
X188629458Y-94922513D01*
X188873004Y-94847389D01*
X189102634Y-94736805D01*
X189313217Y-94593232D01*
X189500050Y-94419877D01*
X189658959Y-94220612D01*
X189786393Y-93999888D01*
X189879508Y-93762637D01*
X189936222Y-93514157D01*
X189947558Y-93362888D01*
X189955268Y-93260004D01*
X189955268Y-93259995D01*
X189938198Y-93032214D01*
X189936222Y-93005843D01*
X189879508Y-92757363D01*
X189786393Y-92520112D01*
X189658959Y-92299388D01*
X189500050Y-92100123D01*
X189313217Y-91926768D01*
X189102634Y-91783195D01*
X189102630Y-91783193D01*
X189102627Y-91783191D01*
X189102626Y-91783190D01*
X188873006Y-91672612D01*
X188873008Y-91672612D01*
X188629466Y-91597489D01*
X188629462Y-91597488D01*
X188629458Y-91597487D01*
X188508231Y-91579214D01*
X188377440Y-91559500D01*
X188377435Y-91559500D01*
X188122565Y-91559500D01*
X188122559Y-91559500D01*
X187965609Y-91583157D01*
X187870542Y-91597487D01*
X187870539Y-91597488D01*
X187870533Y-91597489D01*
X187626992Y-91672612D01*
X187397373Y-91783190D01*
X187397372Y-91783191D01*
X187186782Y-91926768D01*
X186999952Y-92100121D01*
X186999950Y-92100123D01*
X186841041Y-92299388D01*
X186713608Y-92520109D01*
X186620492Y-92757362D01*
X186620490Y-92757369D01*
X186563777Y-93005845D01*
X186544732Y-93259995D01*
X155948517Y-93259995D01*
X155982533Y-93222216D01*
X156077179Y-93058284D01*
X156135674Y-92878256D01*
X156155460Y-92690000D01*
X156135674Y-92501744D01*
X156077179Y-92321716D01*
X155982533Y-92157784D01*
X155855871Y-92017112D01*
X155855870Y-92017111D01*
X155702734Y-91905851D01*
X155702729Y-91905848D01*
X155529807Y-91828857D01*
X155529802Y-91828855D01*
X155384001Y-91797865D01*
X155344646Y-91789500D01*
X155155354Y-91789500D01*
X155122897Y-91796398D01*
X154970197Y-91828855D01*
X154970192Y-91828857D01*
X154797270Y-91905848D01*
X154797265Y-91905851D01*
X154644129Y-92017111D01*
X154517466Y-92157785D01*
X154422821Y-92321715D01*
X154422818Y-92321722D01*
X154364327Y-92501740D01*
X154364326Y-92501744D01*
X154344540Y-92690000D01*
X152345460Y-92690000D01*
X152325674Y-92501744D01*
X152267179Y-92321716D01*
X152172533Y-92157784D01*
X152045871Y-92017112D01*
X152045870Y-92017111D01*
X151892734Y-91905851D01*
X151892729Y-91905848D01*
X151719807Y-91828857D01*
X151719802Y-91828855D01*
X151574001Y-91797865D01*
X151534646Y-91789500D01*
X151345354Y-91789500D01*
X151312897Y-91796398D01*
X151160197Y-91828855D01*
X151160192Y-91828857D01*
X150987270Y-91905848D01*
X150987265Y-91905851D01*
X150834129Y-92017111D01*
X150707466Y-92157785D01*
X150612821Y-92321715D01*
X150612818Y-92321722D01*
X150554327Y-92501740D01*
X150554326Y-92501744D01*
X150534540Y-92690000D01*
X147930460Y-92690000D01*
X147910674Y-92501744D01*
X147852179Y-92321716D01*
X147757533Y-92157784D01*
X147630871Y-92017112D01*
X147630870Y-92017111D01*
X147477734Y-91905851D01*
X147477729Y-91905848D01*
X147304807Y-91828857D01*
X147304802Y-91828855D01*
X147159001Y-91797865D01*
X147119646Y-91789500D01*
X146930354Y-91789500D01*
X146897897Y-91796398D01*
X146745197Y-91828855D01*
X146745192Y-91828857D01*
X146572270Y-91905848D01*
X146572265Y-91905851D01*
X146419129Y-92017111D01*
X146292466Y-92157785D01*
X146197821Y-92321715D01*
X146197818Y-92321722D01*
X146139327Y-92501740D01*
X146139326Y-92501744D01*
X146119540Y-92690000D01*
X138957516Y-92690000D01*
X138855871Y-92577112D01*
X138855870Y-92577111D01*
X138702734Y-92465851D01*
X138702729Y-92465848D01*
X138529807Y-92388857D01*
X138529802Y-92388855D01*
X138384001Y-92357865D01*
X138344646Y-92349500D01*
X138155354Y-92349500D01*
X138122897Y-92356398D01*
X137970197Y-92388855D01*
X137970192Y-92388857D01*
X137797270Y-92465848D01*
X137797265Y-92465851D01*
X137644129Y-92577111D01*
X137517466Y-92717785D01*
X137422821Y-92881715D01*
X137422818Y-92881722D01*
X137365450Y-93058284D01*
X137364326Y-93061744D01*
X137344540Y-93250000D01*
X136749735Y-93250000D01*
X136855871Y-93172888D01*
X136982533Y-93032216D01*
X137077179Y-92868284D01*
X137135674Y-92688256D01*
X137155460Y-92500000D01*
X137135674Y-92311744D01*
X137077179Y-92131716D01*
X136982533Y-91967784D01*
X136855871Y-91827112D01*
X136831146Y-91809148D01*
X136702734Y-91715851D01*
X136702732Y-91715850D01*
X136580510Y-91661432D01*
X136527274Y-91616181D01*
X136506953Y-91549332D01*
X136523558Y-91486157D01*
X136577179Y-91393284D01*
X136589620Y-91354995D01*
X181644732Y-91354995D01*
X181644732Y-91355004D01*
X181663777Y-91609154D01*
X181713922Y-91828855D01*
X181720492Y-91857637D01*
X181813607Y-92094888D01*
X181941041Y-92315612D01*
X182099950Y-92514877D01*
X182286783Y-92688232D01*
X182497366Y-92831805D01*
X182497371Y-92831807D01*
X182497372Y-92831808D01*
X182497373Y-92831809D01*
X182601005Y-92881715D01*
X182726992Y-92942387D01*
X182726993Y-92942387D01*
X182726996Y-92942389D01*
X182970542Y-93017513D01*
X183222565Y-93055500D01*
X183477435Y-93055500D01*
X183729458Y-93017513D01*
X183973004Y-92942389D01*
X184202634Y-92831805D01*
X184413217Y-92688232D01*
X184600050Y-92514877D01*
X184758959Y-92315612D01*
X184886393Y-92094888D01*
X184979508Y-91857637D01*
X185036222Y-91609157D01*
X185052399Y-91393284D01*
X185055268Y-91355004D01*
X185055268Y-91354995D01*
X185039943Y-91150499D01*
X185036222Y-91100843D01*
X184979508Y-90852363D01*
X184886393Y-90615112D01*
X184758959Y-90394388D01*
X184600050Y-90195123D01*
X184413217Y-90021768D01*
X184202634Y-89878195D01*
X184202630Y-89878193D01*
X184202627Y-89878191D01*
X184202626Y-89878190D01*
X183973006Y-89767612D01*
X183973008Y-89767612D01*
X183729466Y-89692489D01*
X183729462Y-89692488D01*
X183729458Y-89692487D01*
X183608231Y-89674214D01*
X183477440Y-89654500D01*
X183477435Y-89654500D01*
X183222565Y-89654500D01*
X183222559Y-89654500D01*
X183065609Y-89678157D01*
X182970542Y-89692487D01*
X182970539Y-89692488D01*
X182970533Y-89692489D01*
X182726992Y-89767612D01*
X182497373Y-89878190D01*
X182497372Y-89878191D01*
X182286782Y-90021768D01*
X182099952Y-90195121D01*
X182099950Y-90195123D01*
X181941041Y-90394388D01*
X181813608Y-90615109D01*
X181720492Y-90852362D01*
X181720490Y-90852369D01*
X181663777Y-91100845D01*
X181644732Y-91354995D01*
X136589620Y-91354995D01*
X136635674Y-91213256D01*
X136655460Y-91025000D01*
X136635674Y-90836744D01*
X136577179Y-90656716D01*
X136482533Y-90492784D01*
X136355871Y-90352112D01*
X136355870Y-90352111D01*
X136202734Y-90240851D01*
X136202729Y-90240848D01*
X136029807Y-90163857D01*
X136029802Y-90163855D01*
X135870526Y-90130001D01*
X135844646Y-90124500D01*
X135655354Y-90124500D01*
X135629474Y-90130001D01*
X135470197Y-90163855D01*
X135470192Y-90163857D01*
X135297270Y-90240848D01*
X135297265Y-90240851D01*
X135144129Y-90352111D01*
X135017466Y-90492785D01*
X134922821Y-90656715D01*
X134922818Y-90656722D01*
X134864327Y-90836740D01*
X134864326Y-90836744D01*
X134844540Y-91025000D01*
X133804896Y-91025000D01*
X133828495Y-91001401D01*
X133964035Y-90807830D01*
X134063903Y-90593663D01*
X134125063Y-90365408D01*
X134145659Y-90130000D01*
X134125063Y-89894592D01*
X134063903Y-89666337D01*
X133964035Y-89452171D01*
X133962512Y-89449995D01*
X133828494Y-89258597D01*
X133819897Y-89250000D01*
X138094540Y-89250000D01*
X138114326Y-89438256D01*
X138114327Y-89438259D01*
X138172818Y-89618277D01*
X138172821Y-89618284D01*
X138267467Y-89782216D01*
X138304183Y-89822993D01*
X138394129Y-89922888D01*
X138547265Y-90034148D01*
X138547270Y-90034151D01*
X138720192Y-90111142D01*
X138720197Y-90111144D01*
X138905354Y-90150500D01*
X138905355Y-90150500D01*
X139094644Y-90150500D01*
X139094646Y-90150500D01*
X139279803Y-90111144D01*
X139452730Y-90034151D01*
X139605871Y-89922888D01*
X139732533Y-89782216D01*
X139827179Y-89618284D01*
X139885674Y-89438256D01*
X139905460Y-89250000D01*
X139885674Y-89061744D01*
X139827179Y-88881716D01*
X139732533Y-88717784D01*
X139707516Y-88690000D01*
X146119540Y-88690000D01*
X146139326Y-88878256D01*
X146139327Y-88878259D01*
X146197818Y-89058277D01*
X146197821Y-89058284D01*
X146292467Y-89222216D01*
X146419129Y-89362888D01*
X146572265Y-89474148D01*
X146572270Y-89474151D01*
X146745192Y-89551142D01*
X146745197Y-89551144D01*
X146930354Y-89590500D01*
X146930355Y-89590500D01*
X147119644Y-89590500D01*
X147119646Y-89590500D01*
X147304803Y-89551144D01*
X147477730Y-89474151D01*
X147630871Y-89362888D01*
X147757533Y-89222216D01*
X147852179Y-89058284D01*
X147910674Y-88878256D01*
X147930460Y-88690000D01*
X147910674Y-88501744D01*
X147852179Y-88321716D01*
X147757533Y-88157784D01*
X147630871Y-88017112D01*
X147630870Y-88017111D01*
X147477734Y-87905851D01*
X147477729Y-87905848D01*
X147304807Y-87828857D01*
X147304802Y-87828855D01*
X147159001Y-87797865D01*
X147119646Y-87789500D01*
X146930354Y-87789500D01*
X146897897Y-87796398D01*
X146745197Y-87828855D01*
X146745192Y-87828857D01*
X146572270Y-87905848D01*
X146572265Y-87905851D01*
X146419129Y-88017111D01*
X146292466Y-88157785D01*
X146197821Y-88321715D01*
X146197818Y-88321722D01*
X146139327Y-88501740D01*
X146139326Y-88501744D01*
X146119540Y-88690000D01*
X139707516Y-88690000D01*
X139605871Y-88577112D01*
X139605870Y-88577111D01*
X139452734Y-88465851D01*
X139452729Y-88465848D01*
X139279807Y-88388857D01*
X139279802Y-88388855D01*
X139134001Y-88357865D01*
X139094646Y-88349500D01*
X138905354Y-88349500D01*
X138872897Y-88356398D01*
X138720197Y-88388855D01*
X138720192Y-88388857D01*
X138547270Y-88465848D01*
X138547265Y-88465851D01*
X138394129Y-88577111D01*
X138267466Y-88717785D01*
X138172821Y-88881715D01*
X138172818Y-88881722D01*
X138115450Y-89058284D01*
X138114326Y-89061744D01*
X138094540Y-89250000D01*
X133819897Y-89250000D01*
X133661402Y-89091506D01*
X133661396Y-89091501D01*
X133475842Y-88961575D01*
X133432217Y-88906998D01*
X133425023Y-88837500D01*
X133456546Y-88775145D01*
X133475842Y-88758425D01*
X133583164Y-88683277D01*
X133661401Y-88628495D01*
X133828495Y-88461401D01*
X133964035Y-88267830D01*
X134063903Y-88053663D01*
X134125063Y-87825408D01*
X134145659Y-87590000D01*
X134125063Y-87354592D01*
X134063903Y-87126337D01*
X133964035Y-86912171D01*
X133958425Y-86904158D01*
X133931006Y-86865000D01*
X134844540Y-86865000D01*
X134864326Y-87053256D01*
X134864327Y-87053259D01*
X134922818Y-87233277D01*
X134922821Y-87233284D01*
X135017467Y-87397216D01*
X135079409Y-87466009D01*
X135116342Y-87507028D01*
X135146572Y-87570020D01*
X135137947Y-87639355D01*
X135116342Y-87672972D01*
X135017466Y-87782785D01*
X134922821Y-87946715D01*
X134922818Y-87946722D01*
X134888071Y-88053664D01*
X134864326Y-88126744D01*
X134844540Y-88315000D01*
X134864326Y-88503256D01*
X134866292Y-88509309D01*
X134922818Y-88683277D01*
X134922821Y-88683284D01*
X135017467Y-88847216D01*
X135120437Y-88961575D01*
X135144129Y-88987888D01*
X135297265Y-89099148D01*
X135297270Y-89099151D01*
X135470192Y-89176142D01*
X135470197Y-89176144D01*
X135655354Y-89215500D01*
X135655355Y-89215500D01*
X135844644Y-89215500D01*
X135844646Y-89215500D01*
X136029803Y-89176144D01*
X136202730Y-89099151D01*
X136355871Y-88987888D01*
X136482533Y-88847216D01*
X136577179Y-88683284D01*
X136635674Y-88503256D01*
X136655460Y-88315000D01*
X136635674Y-88126744D01*
X136577179Y-87946716D01*
X136491941Y-87799079D01*
X136482535Y-87782787D01*
X136482534Y-87782786D01*
X136482533Y-87782784D01*
X136383655Y-87672969D01*
X136353427Y-87609981D01*
X136362052Y-87540646D01*
X136383653Y-87507032D01*
X136482533Y-87397216D01*
X136577179Y-87233284D01*
X136635674Y-87053256D01*
X136655460Y-86865000D01*
X136635674Y-86676744D01*
X136577179Y-86496716D01*
X136482533Y-86332784D01*
X136407994Y-86250000D01*
X139094540Y-86250000D01*
X139114326Y-86438256D01*
X139114327Y-86438259D01*
X139172818Y-86618277D01*
X139172821Y-86618284D01*
X139267467Y-86782216D01*
X139353942Y-86878256D01*
X139394129Y-86922888D01*
X139547265Y-87034148D01*
X139547270Y-87034151D01*
X139720192Y-87111142D01*
X139720197Y-87111144D01*
X139905354Y-87150500D01*
X139905355Y-87150500D01*
X140094644Y-87150500D01*
X140094646Y-87150500D01*
X140279803Y-87111144D01*
X140452730Y-87034151D01*
X140605871Y-86922888D01*
X140732533Y-86782216D01*
X140785774Y-86690000D01*
X150534540Y-86690000D01*
X150554326Y-86878256D01*
X150554327Y-86878259D01*
X150612818Y-87058277D01*
X150612821Y-87058284D01*
X150707467Y-87222216D01*
X150779765Y-87302511D01*
X150834129Y-87362888D01*
X150987265Y-87474148D01*
X150987270Y-87474151D01*
X151160192Y-87551142D01*
X151160197Y-87551144D01*
X151242839Y-87568710D01*
X151304321Y-87601902D01*
X151338097Y-87663065D01*
X151333445Y-87732780D01*
X151291840Y-87788912D01*
X151242839Y-87811290D01*
X151160197Y-87828855D01*
X151160192Y-87828857D01*
X150987270Y-87905848D01*
X150987265Y-87905851D01*
X150834129Y-88017111D01*
X150707466Y-88157785D01*
X150612821Y-88321715D01*
X150612818Y-88321722D01*
X150554327Y-88501740D01*
X150554326Y-88501744D01*
X150534540Y-88690000D01*
X150554326Y-88878256D01*
X150554327Y-88878259D01*
X150612818Y-89058277D01*
X150612821Y-89058284D01*
X150707467Y-89222216D01*
X150834129Y-89362888D01*
X150987265Y-89474148D01*
X150987270Y-89474151D01*
X151160192Y-89551142D01*
X151160197Y-89551144D01*
X151345354Y-89590500D01*
X151345355Y-89590500D01*
X151473588Y-89590500D01*
X151540627Y-89610185D01*
X151586382Y-89662989D01*
X151596908Y-89727460D01*
X151594540Y-89750000D01*
X151614326Y-89938256D01*
X151614327Y-89938259D01*
X151672818Y-90118277D01*
X151672821Y-90118284D01*
X151767467Y-90282216D01*
X151883075Y-90410611D01*
X151894129Y-90422888D01*
X152047265Y-90534148D01*
X152047270Y-90534151D01*
X152220192Y-90611142D01*
X152220197Y-90611144D01*
X152405354Y-90650500D01*
X152405355Y-90650500D01*
X152594644Y-90650500D01*
X152594646Y-90650500D01*
X152779803Y-90611144D01*
X152952730Y-90534151D01*
X153105871Y-90422888D01*
X153232533Y-90282216D01*
X153327179Y-90118284D01*
X153385674Y-89938256D01*
X153405460Y-89750000D01*
X153385674Y-89561744D01*
X153327179Y-89381716D01*
X153232533Y-89217784D01*
X153105871Y-89077112D01*
X153084719Y-89061744D01*
X152952734Y-88965851D01*
X152952729Y-88965848D01*
X152779807Y-88888857D01*
X152779802Y-88888855D01*
X152634001Y-88857865D01*
X152594646Y-88849500D01*
X152466412Y-88849500D01*
X152399373Y-88829815D01*
X152353618Y-88777011D01*
X152343091Y-88712539D01*
X152343346Y-88710109D01*
X152345460Y-88690000D01*
X152325674Y-88501744D01*
X152267179Y-88321716D01*
X152172533Y-88157784D01*
X152045871Y-88017112D01*
X152045870Y-88017111D01*
X151892734Y-87905851D01*
X151892729Y-87905848D01*
X151719807Y-87828857D01*
X151719800Y-87828855D01*
X151637161Y-87811290D01*
X151575679Y-87778098D01*
X151541902Y-87716935D01*
X151546554Y-87647221D01*
X151588158Y-87591088D01*
X151637161Y-87568710D01*
X151643201Y-87567426D01*
X151719803Y-87551144D01*
X151892730Y-87474151D01*
X152045871Y-87362888D01*
X152172533Y-87222216D01*
X152267179Y-87058284D01*
X152325674Y-86878256D01*
X152345460Y-86690000D01*
X154344540Y-86690000D01*
X154364326Y-86878256D01*
X154364327Y-86878259D01*
X154422818Y-87058277D01*
X154422821Y-87058284D01*
X154517467Y-87222216D01*
X154589765Y-87302511D01*
X154644129Y-87362888D01*
X154797265Y-87474148D01*
X154797270Y-87474151D01*
X154970192Y-87551142D01*
X154970197Y-87551144D01*
X155052839Y-87568710D01*
X155114321Y-87601902D01*
X155148097Y-87663065D01*
X155143445Y-87732780D01*
X155101840Y-87788912D01*
X155052839Y-87811290D01*
X154970197Y-87828855D01*
X154970192Y-87828857D01*
X154797270Y-87905848D01*
X154797265Y-87905851D01*
X154644129Y-88017111D01*
X154517466Y-88157785D01*
X154422821Y-88321715D01*
X154422818Y-88321722D01*
X154364327Y-88501740D01*
X154364326Y-88501744D01*
X154344540Y-88690000D01*
X154364326Y-88878256D01*
X154364327Y-88878259D01*
X154422818Y-89058277D01*
X154422821Y-89058284D01*
X154517467Y-89222216D01*
X154644129Y-89362888D01*
X154797265Y-89474148D01*
X154797270Y-89474151D01*
X154970192Y-89551142D01*
X154970197Y-89551144D01*
X155155354Y-89590500D01*
X155155355Y-89590500D01*
X155344644Y-89590500D01*
X155344646Y-89590500D01*
X155450457Y-89568009D01*
X155520122Y-89573325D01*
X155575855Y-89615462D01*
X155599961Y-89681041D01*
X155599557Y-89702258D01*
X155596652Y-89729901D01*
X155594540Y-89750000D01*
X155614326Y-89938256D01*
X155614327Y-89938259D01*
X155672818Y-90118277D01*
X155672821Y-90118284D01*
X155767467Y-90282216D01*
X155883075Y-90410611D01*
X155894129Y-90422888D01*
X156047265Y-90534148D01*
X156047270Y-90534151D01*
X156220192Y-90611142D01*
X156220197Y-90611144D01*
X156405354Y-90650500D01*
X156405355Y-90650500D01*
X156594644Y-90650500D01*
X156594646Y-90650500D01*
X156779803Y-90611144D01*
X156952730Y-90534151D01*
X157105871Y-90422888D01*
X157232533Y-90282216D01*
X157327179Y-90118284D01*
X157385674Y-89938256D01*
X157405460Y-89750000D01*
X157385674Y-89561744D01*
X157349364Y-89449995D01*
X186544732Y-89449995D01*
X186544732Y-89450004D01*
X186563777Y-89704154D01*
X186617209Y-89938256D01*
X186620492Y-89952637D01*
X186713607Y-90189888D01*
X186841041Y-90410612D01*
X186999950Y-90609877D01*
X187186783Y-90783232D01*
X187397366Y-90926805D01*
X187397371Y-90926807D01*
X187397372Y-90926808D01*
X187397373Y-90926809D01*
X187519328Y-90985538D01*
X187626992Y-91037387D01*
X187626993Y-91037387D01*
X187626996Y-91037389D01*
X187870542Y-91112513D01*
X188122565Y-91150500D01*
X188377435Y-91150500D01*
X188629458Y-91112513D01*
X188873004Y-91037389D01*
X189102634Y-90926805D01*
X189313217Y-90783232D01*
X189500050Y-90609877D01*
X189658959Y-90410612D01*
X189786393Y-90189888D01*
X189879508Y-89952637D01*
X189936222Y-89704157D01*
X189946894Y-89561744D01*
X189955268Y-89450004D01*
X189955268Y-89449995D01*
X189936222Y-89195845D01*
X189931725Y-89176144D01*
X189879508Y-88947363D01*
X189786393Y-88710112D01*
X189658959Y-88489388D01*
X189500050Y-88290123D01*
X189313217Y-88116768D01*
X189102634Y-87973195D01*
X189102630Y-87973193D01*
X189102627Y-87973191D01*
X189102626Y-87973190D01*
X188873006Y-87862612D01*
X188873008Y-87862612D01*
X188629466Y-87787489D01*
X188629462Y-87787488D01*
X188629458Y-87787487D01*
X188508231Y-87769214D01*
X188377440Y-87749500D01*
X188377435Y-87749500D01*
X188122565Y-87749500D01*
X188122559Y-87749500D01*
X187965609Y-87773157D01*
X187870542Y-87787487D01*
X187870539Y-87787488D01*
X187870533Y-87787489D01*
X187626992Y-87862612D01*
X187397373Y-87973190D01*
X187397372Y-87973191D01*
X187186782Y-88116768D01*
X186999952Y-88290121D01*
X186999950Y-88290123D01*
X186841041Y-88489388D01*
X186713608Y-88710109D01*
X186620492Y-88947362D01*
X186620490Y-88947369D01*
X186563777Y-89195845D01*
X186544732Y-89449995D01*
X157349364Y-89449995D01*
X157327179Y-89381716D01*
X157232533Y-89217784D01*
X157105871Y-89077112D01*
X157084719Y-89061744D01*
X156952734Y-88965851D01*
X156952729Y-88965848D01*
X156779807Y-88888857D01*
X156779802Y-88888855D01*
X156634001Y-88857865D01*
X156594646Y-88849500D01*
X156405354Y-88849500D01*
X156405352Y-88849500D01*
X156299543Y-88871990D01*
X156229876Y-88866674D01*
X156174143Y-88824536D01*
X156150038Y-88758956D01*
X156150441Y-88737745D01*
X156155460Y-88690000D01*
X156135674Y-88501744D01*
X156077179Y-88321716D01*
X155982533Y-88157784D01*
X155855871Y-88017112D01*
X155855870Y-88017111D01*
X155702734Y-87905851D01*
X155702729Y-87905848D01*
X155529807Y-87828857D01*
X155529800Y-87828855D01*
X155447161Y-87811290D01*
X155385679Y-87778098D01*
X155351902Y-87716935D01*
X155356554Y-87647221D01*
X155398158Y-87591088D01*
X155447161Y-87568710D01*
X155453201Y-87567426D01*
X155529803Y-87551144D01*
X155543614Y-87544995D01*
X181645233Y-87544995D01*
X181645233Y-87545004D01*
X181664273Y-87799079D01*
X181720968Y-88047477D01*
X181720973Y-88047494D01*
X181814058Y-88284671D01*
X181814057Y-88284671D01*
X181941454Y-88505327D01*
X181941461Y-88505338D01*
X181983452Y-88557991D01*
X181983453Y-88557992D01*
X182785387Y-87756058D01*
X182790889Y-87776591D01*
X182869881Y-87913408D01*
X182981592Y-88025119D01*
X183118409Y-88104111D01*
X183138940Y-88109612D01*
X182336813Y-88911738D01*
X182497616Y-89021371D01*
X182497624Y-89021376D01*
X182727176Y-89131921D01*
X182727174Y-89131921D01*
X182970652Y-89207024D01*
X182970658Y-89207026D01*
X183222595Y-89244999D01*
X183222604Y-89245000D01*
X183477396Y-89245000D01*
X183477404Y-89244999D01*
X183729341Y-89207026D01*
X183729347Y-89207024D01*
X183972824Y-89131921D01*
X184202376Y-89021376D01*
X184202377Y-89021375D01*
X184363185Y-88911738D01*
X183561060Y-88109612D01*
X183581591Y-88104111D01*
X183718408Y-88025119D01*
X183830119Y-87913408D01*
X183909111Y-87776591D01*
X183914612Y-87756059D01*
X184716544Y-88557992D01*
X184716546Y-88557991D01*
X184758544Y-88505330D01*
X184885941Y-88284671D01*
X184979026Y-88047494D01*
X184979031Y-88047477D01*
X185035726Y-87799079D01*
X185054767Y-87545004D01*
X185054767Y-87544995D01*
X185035726Y-87290920D01*
X184979031Y-87042522D01*
X184979026Y-87042505D01*
X184885941Y-86805328D01*
X184885942Y-86805328D01*
X184758545Y-86584672D01*
X184716545Y-86532006D01*
X183914612Y-87333939D01*
X183909111Y-87313409D01*
X183830119Y-87176592D01*
X183718408Y-87064881D01*
X183581591Y-86985889D01*
X183561059Y-86980387D01*
X184363185Y-86178260D01*
X184202384Y-86068628D01*
X184202376Y-86068623D01*
X183972823Y-85958078D01*
X183972825Y-85958078D01*
X183729347Y-85882975D01*
X183729341Y-85882973D01*
X183477404Y-85845000D01*
X183222595Y-85845000D01*
X182970658Y-85882973D01*
X182970652Y-85882975D01*
X182727175Y-85958078D01*
X182497622Y-86068625D01*
X182497609Y-86068632D01*
X182336813Y-86178259D01*
X183138941Y-86980387D01*
X183118409Y-86985889D01*
X182981592Y-87064881D01*
X182869881Y-87176592D01*
X182790889Y-87313409D01*
X182785387Y-87333941D01*
X181983452Y-86532006D01*
X181941457Y-86584667D01*
X181814058Y-86805328D01*
X181720973Y-87042505D01*
X181720968Y-87042522D01*
X181664273Y-87290920D01*
X181645233Y-87544995D01*
X155543614Y-87544995D01*
X155702730Y-87474151D01*
X155855871Y-87362888D01*
X155982533Y-87222216D01*
X156077179Y-87058284D01*
X156135674Y-86878256D01*
X156155460Y-86690000D01*
X156135674Y-86501744D01*
X156077179Y-86321716D01*
X155982533Y-86157784D01*
X155855871Y-86017112D01*
X155837626Y-86003856D01*
X155702734Y-85905851D01*
X155702729Y-85905848D01*
X155529807Y-85828857D01*
X155529802Y-85828855D01*
X155384001Y-85797865D01*
X155344646Y-85789500D01*
X155155354Y-85789500D01*
X155122897Y-85796398D01*
X154970197Y-85828855D01*
X154970192Y-85828857D01*
X154797270Y-85905848D01*
X154797265Y-85905851D01*
X154644129Y-86017111D01*
X154517466Y-86157785D01*
X154422821Y-86321715D01*
X154422818Y-86321722D01*
X154364327Y-86501740D01*
X154364326Y-86501744D01*
X154344540Y-86690000D01*
X152345460Y-86690000D01*
X152325674Y-86501744D01*
X152267179Y-86321716D01*
X152172533Y-86157784D01*
X152045871Y-86017112D01*
X152027626Y-86003856D01*
X151892734Y-85905851D01*
X151892729Y-85905848D01*
X151719807Y-85828857D01*
X151719802Y-85828855D01*
X151574001Y-85797865D01*
X151534646Y-85789500D01*
X151345354Y-85789500D01*
X151312897Y-85796398D01*
X151160197Y-85828855D01*
X151160192Y-85828857D01*
X150987270Y-85905848D01*
X150987265Y-85905851D01*
X150834129Y-86017111D01*
X150707466Y-86157785D01*
X150612821Y-86321715D01*
X150612818Y-86321722D01*
X150554327Y-86501740D01*
X150554326Y-86501744D01*
X150534540Y-86690000D01*
X140785774Y-86690000D01*
X140827179Y-86618284D01*
X140885674Y-86438256D01*
X140905460Y-86250000D01*
X140885674Y-86061744D01*
X140827179Y-85881716D01*
X140732533Y-85717784D01*
X140662491Y-85639995D01*
X186544732Y-85639995D01*
X186544732Y-85640004D01*
X186563777Y-85894154D01*
X186606389Y-86080851D01*
X186620492Y-86142637D01*
X186713607Y-86379888D01*
X186841041Y-86600612D01*
X186999950Y-86799877D01*
X187186783Y-86973232D01*
X187397366Y-87116805D01*
X187397371Y-87116807D01*
X187397372Y-87116808D01*
X187397373Y-87116809D01*
X187467334Y-87150500D01*
X187626992Y-87227387D01*
X187626993Y-87227387D01*
X187626996Y-87227389D01*
X187870542Y-87302513D01*
X188122565Y-87340500D01*
X188377435Y-87340500D01*
X188629458Y-87302513D01*
X188873004Y-87227389D01*
X189102634Y-87116805D01*
X189313217Y-86973232D01*
X189500050Y-86799877D01*
X189658959Y-86600612D01*
X189786393Y-86379888D01*
X189879508Y-86142637D01*
X189936222Y-85894157D01*
X189955268Y-85640000D01*
X189950555Y-85577112D01*
X189939943Y-85435499D01*
X189936222Y-85385843D01*
X189879508Y-85137363D01*
X189786393Y-84900112D01*
X189658959Y-84679388D01*
X189500050Y-84480123D01*
X189313217Y-84306768D01*
X189102634Y-84163195D01*
X189102630Y-84163193D01*
X189102627Y-84163191D01*
X189102626Y-84163190D01*
X188873006Y-84052612D01*
X188873008Y-84052612D01*
X188629466Y-83977489D01*
X188629462Y-83977488D01*
X188629458Y-83977487D01*
X188508231Y-83959214D01*
X188377440Y-83939500D01*
X188377435Y-83939500D01*
X188122565Y-83939500D01*
X188122559Y-83939500D01*
X187965609Y-83963157D01*
X187870542Y-83977487D01*
X187870539Y-83977488D01*
X187870533Y-83977489D01*
X187626992Y-84052612D01*
X187397373Y-84163190D01*
X187397372Y-84163191D01*
X187186782Y-84306768D01*
X186999952Y-84480121D01*
X186999950Y-84480123D01*
X186841041Y-84679388D01*
X186713608Y-84900109D01*
X186620492Y-85137362D01*
X186620490Y-85137369D01*
X186563777Y-85385845D01*
X186544732Y-85639995D01*
X140662491Y-85639995D01*
X140605871Y-85577112D01*
X140605870Y-85577111D01*
X140452734Y-85465851D01*
X140452729Y-85465848D01*
X140279807Y-85388857D01*
X140279802Y-85388855D01*
X140134001Y-85357865D01*
X140094646Y-85349500D01*
X139905354Y-85349500D01*
X139872897Y-85356398D01*
X139720197Y-85388855D01*
X139720192Y-85388857D01*
X139547270Y-85465848D01*
X139547265Y-85465851D01*
X139394129Y-85577111D01*
X139267466Y-85717785D01*
X139172821Y-85881715D01*
X139172818Y-85881722D01*
X139114327Y-86061740D01*
X139114326Y-86061744D01*
X139094540Y-86250000D01*
X136407994Y-86250000D01*
X136355871Y-86192112D01*
X136355870Y-86192111D01*
X136202734Y-86080851D01*
X136202729Y-86080848D01*
X136029807Y-86003857D01*
X136029802Y-86003855D01*
X135884001Y-85972865D01*
X135844646Y-85964500D01*
X135655354Y-85964500D01*
X135622897Y-85971398D01*
X135470197Y-86003855D01*
X135470192Y-86003857D01*
X135297270Y-86080848D01*
X135297265Y-86080851D01*
X135144129Y-86192111D01*
X135017466Y-86332785D01*
X134922821Y-86496715D01*
X134922818Y-86496722D01*
X134864327Y-86676740D01*
X134864326Y-86676744D01*
X134844540Y-86865000D01*
X133931006Y-86865000D01*
X133828494Y-86718597D01*
X133661402Y-86551506D01*
X133661396Y-86551501D01*
X133475842Y-86421575D01*
X133432217Y-86366998D01*
X133425023Y-86297500D01*
X133456546Y-86235145D01*
X133475842Y-86218425D01*
X133533205Y-86178259D01*
X133661401Y-86088495D01*
X133828495Y-85921401D01*
X133964035Y-85727830D01*
X134063903Y-85513663D01*
X134125063Y-85285408D01*
X134145659Y-85050000D01*
X134125063Y-84814592D01*
X134091679Y-84690000D01*
X146119540Y-84690000D01*
X146139326Y-84878256D01*
X146139327Y-84878259D01*
X146197818Y-85058277D01*
X146197821Y-85058284D01*
X146292467Y-85222216D01*
X146407074Y-85349500D01*
X146419129Y-85362888D01*
X146572265Y-85474148D01*
X146572270Y-85474151D01*
X146745192Y-85551142D01*
X146745197Y-85551144D01*
X146930354Y-85590500D01*
X146930355Y-85590500D01*
X147119644Y-85590500D01*
X147119646Y-85590500D01*
X147304803Y-85551144D01*
X147477730Y-85474151D01*
X147630871Y-85362888D01*
X147757533Y-85222216D01*
X147852179Y-85058284D01*
X147910674Y-84878256D01*
X147930460Y-84690000D01*
X147910674Y-84501744D01*
X147910671Y-84501737D01*
X147910328Y-84498465D01*
X147922897Y-84429735D01*
X147970629Y-84378711D01*
X148038369Y-84361593D01*
X148104611Y-84383815D01*
X148125798Y-84402530D01*
X148144128Y-84422887D01*
X148144129Y-84422888D01*
X148297265Y-84534148D01*
X148297270Y-84534151D01*
X148470192Y-84611142D01*
X148470197Y-84611144D01*
X148655354Y-84650500D01*
X148655355Y-84650500D01*
X148844644Y-84650500D01*
X148844646Y-84650500D01*
X149029803Y-84611144D01*
X149202730Y-84534151D01*
X149355871Y-84422888D01*
X149482533Y-84282216D01*
X149577179Y-84118284D01*
X149635674Y-83938256D01*
X149655460Y-83750000D01*
X149635674Y-83561744D01*
X149577179Y-83381716D01*
X149482533Y-83217784D01*
X149355871Y-83077112D01*
X149334719Y-83061744D01*
X149202734Y-82965851D01*
X149202729Y-82965848D01*
X149029807Y-82888857D01*
X149029802Y-82888855D01*
X148884001Y-82857865D01*
X148844646Y-82849500D01*
X148655354Y-82849500D01*
X148622897Y-82856398D01*
X148470197Y-82888855D01*
X148470192Y-82888857D01*
X148297270Y-82965848D01*
X148297265Y-82965851D01*
X148144129Y-83077111D01*
X148017466Y-83217785D01*
X147922821Y-83381715D01*
X147922818Y-83381722D01*
X147867770Y-83551144D01*
X147864326Y-83561744D01*
X147844540Y-83750000D01*
X147856611Y-83864855D01*
X147864671Y-83941535D01*
X147852101Y-84010265D01*
X147804369Y-84061288D01*
X147736629Y-84078406D01*
X147670388Y-84056183D01*
X147649201Y-84037469D01*
X147630871Y-84017112D01*
X147630870Y-84017111D01*
X147477734Y-83905851D01*
X147477729Y-83905848D01*
X147304807Y-83828857D01*
X147304802Y-83828855D01*
X147159001Y-83797865D01*
X147119646Y-83789500D01*
X146930354Y-83789500D01*
X146897897Y-83796398D01*
X146745197Y-83828855D01*
X146745192Y-83828857D01*
X146572270Y-83905848D01*
X146572265Y-83905851D01*
X146419129Y-84017111D01*
X146292466Y-84157785D01*
X146197821Y-84321715D01*
X146197818Y-84321722D01*
X146146351Y-84480123D01*
X146139326Y-84501744D01*
X146119540Y-84690000D01*
X134091679Y-84690000D01*
X134063903Y-84586337D01*
X133964035Y-84372171D01*
X133958425Y-84364158D01*
X133828494Y-84178597D01*
X133661402Y-84011506D01*
X133661396Y-84011501D01*
X133475842Y-83881575D01*
X133432217Y-83826998D01*
X133425023Y-83757500D01*
X133456546Y-83695145D01*
X133475842Y-83678425D01*
X133565762Y-83615462D01*
X133661401Y-83548495D01*
X133828495Y-83381401D01*
X133964035Y-83187830D01*
X134063903Y-82973663D01*
X134125063Y-82745408D01*
X134145659Y-82510000D01*
X134125063Y-82274592D01*
X134063903Y-82046337D01*
X133964035Y-81832171D01*
X133962512Y-81829995D01*
X133828494Y-81638597D01*
X133661402Y-81471506D01*
X133661396Y-81471501D01*
X133475842Y-81341575D01*
X133432217Y-81286998D01*
X133425023Y-81217500D01*
X133456546Y-81155145D01*
X133475842Y-81138425D01*
X133583164Y-81063277D01*
X133661401Y-81008495D01*
X133828495Y-80841401D01*
X133964035Y-80647830D01*
X134063903Y-80433663D01*
X134125063Y-80205408D01*
X134145659Y-79970000D01*
X134125063Y-79734592D01*
X134063903Y-79506337D01*
X133964035Y-79292171D01*
X133958425Y-79284158D01*
X133931006Y-79245000D01*
X135094540Y-79245000D01*
X135114326Y-79433256D01*
X135114327Y-79433259D01*
X135172818Y-79613277D01*
X135172821Y-79613284D01*
X135267467Y-79777216D01*
X135283030Y-79794500D01*
X135366342Y-79887028D01*
X135396572Y-79950020D01*
X135387947Y-80019355D01*
X135366342Y-80052972D01*
X135267466Y-80162785D01*
X135172821Y-80326715D01*
X135172818Y-80326722D01*
X135138071Y-80433664D01*
X135114326Y-80506744D01*
X135094540Y-80695000D01*
X135114326Y-80883256D01*
X135116292Y-80889309D01*
X135172818Y-81063277D01*
X135172821Y-81063284D01*
X135239052Y-81178000D01*
X135255525Y-81245901D01*
X135239052Y-81302000D01*
X135172821Y-81416715D01*
X135172818Y-81416722D01*
X135114730Y-81595500D01*
X135114326Y-81596744D01*
X135094540Y-81785000D01*
X135114326Y-81973256D01*
X135114327Y-81973259D01*
X135172818Y-82153277D01*
X135172821Y-82153284D01*
X135267467Y-82317216D01*
X135332425Y-82389359D01*
X135373095Y-82434528D01*
X135403325Y-82497520D01*
X135394700Y-82566855D01*
X135373095Y-82600472D01*
X135267466Y-82717785D01*
X135172821Y-82881715D01*
X135172818Y-82881722D01*
X135115450Y-83058284D01*
X135114326Y-83061744D01*
X135094540Y-83250000D01*
X135114326Y-83438256D01*
X135114327Y-83438259D01*
X135172818Y-83618277D01*
X135172821Y-83618284D01*
X135267467Y-83782216D01*
X135309463Y-83828857D01*
X135394129Y-83922888D01*
X135547265Y-84034148D01*
X135547270Y-84034151D01*
X135720192Y-84111142D01*
X135720197Y-84111144D01*
X135905354Y-84150500D01*
X135905355Y-84150500D01*
X136094644Y-84150500D01*
X136094646Y-84150500D01*
X136279803Y-84111144D01*
X136452730Y-84034151D01*
X136605871Y-83922888D01*
X136732533Y-83782216D01*
X136827179Y-83618284D01*
X136885674Y-83438256D01*
X136905460Y-83250000D01*
X136885674Y-83061744D01*
X136827179Y-82881716D01*
X136748479Y-82745403D01*
X136732535Y-82717787D01*
X136732534Y-82717786D01*
X136732533Y-82717784D01*
X136707516Y-82690000D01*
X154344540Y-82690000D01*
X154364326Y-82878256D01*
X154364327Y-82878259D01*
X154422818Y-83058277D01*
X154422821Y-83058284D01*
X154517467Y-83222216D01*
X154593635Y-83306809D01*
X154644129Y-83362888D01*
X154797265Y-83474148D01*
X154797270Y-83474151D01*
X154970192Y-83551142D01*
X154970197Y-83551144D01*
X155155354Y-83590500D01*
X155155355Y-83590500D01*
X155344644Y-83590500D01*
X155344646Y-83590500D01*
X155450457Y-83568009D01*
X155520122Y-83573325D01*
X155575855Y-83615462D01*
X155599961Y-83681041D01*
X155599557Y-83702258D01*
X155596116Y-83735004D01*
X155594540Y-83750000D01*
X155614326Y-83938256D01*
X155614327Y-83938259D01*
X155672818Y-84118277D01*
X155672821Y-84118284D01*
X155767467Y-84282216D01*
X155875799Y-84402530D01*
X155894129Y-84422888D01*
X156047265Y-84534148D01*
X156047270Y-84534151D01*
X156220192Y-84611142D01*
X156220197Y-84611144D01*
X156405354Y-84650500D01*
X156405355Y-84650500D01*
X156594644Y-84650500D01*
X156594646Y-84650500D01*
X156779803Y-84611144D01*
X156952730Y-84534151D01*
X157105871Y-84422888D01*
X157232533Y-84282216D01*
X157327179Y-84118284D01*
X157385674Y-83938256D01*
X157405460Y-83750000D01*
X157403883Y-83734995D01*
X181644732Y-83734995D01*
X181644732Y-83735004D01*
X181663777Y-83989154D01*
X181700603Y-84150500D01*
X181720492Y-84237637D01*
X181813607Y-84474888D01*
X181941041Y-84695612D01*
X182099950Y-84894877D01*
X182286783Y-85068232D01*
X182497366Y-85211805D01*
X182497371Y-85211807D01*
X182497372Y-85211808D01*
X182497373Y-85211809D01*
X182619328Y-85270538D01*
X182726992Y-85322387D01*
X182726993Y-85322387D01*
X182726996Y-85322389D01*
X182970542Y-85397513D01*
X183222565Y-85435500D01*
X183477435Y-85435500D01*
X183729458Y-85397513D01*
X183973004Y-85322389D01*
X184154458Y-85235005D01*
X184202626Y-85211809D01*
X184202626Y-85211808D01*
X184202634Y-85211805D01*
X184413217Y-85068232D01*
X184600050Y-84894877D01*
X184758959Y-84695612D01*
X184886393Y-84474888D01*
X184979508Y-84237637D01*
X185036222Y-83989157D01*
X185055268Y-83735000D01*
X185055118Y-83733002D01*
X185038059Y-83505353D01*
X185036222Y-83480843D01*
X184979508Y-83232363D01*
X184886393Y-82995112D01*
X184758959Y-82774388D01*
X184600050Y-82575123D01*
X184413217Y-82401768D01*
X184202634Y-82258195D01*
X184202630Y-82258193D01*
X184202627Y-82258191D01*
X184202626Y-82258190D01*
X183973006Y-82147612D01*
X183973008Y-82147612D01*
X183729466Y-82072489D01*
X183729462Y-82072488D01*
X183729458Y-82072487D01*
X183608231Y-82054214D01*
X183477440Y-82034500D01*
X183477435Y-82034500D01*
X183222565Y-82034500D01*
X183222559Y-82034500D01*
X183065609Y-82058157D01*
X182970542Y-82072487D01*
X182970539Y-82072488D01*
X182970533Y-82072489D01*
X182726992Y-82147612D01*
X182497373Y-82258190D01*
X182497372Y-82258191D01*
X182286782Y-82401768D01*
X182099952Y-82575121D01*
X182099950Y-82575123D01*
X181941041Y-82774388D01*
X181813608Y-82995109D01*
X181720492Y-83232362D01*
X181720490Y-83232369D01*
X181663777Y-83480845D01*
X181644732Y-83734995D01*
X157403883Y-83734995D01*
X157385674Y-83561744D01*
X157327179Y-83381716D01*
X157232533Y-83217784D01*
X157105871Y-83077112D01*
X157084719Y-83061744D01*
X156952734Y-82965851D01*
X156952729Y-82965848D01*
X156779807Y-82888857D01*
X156779802Y-82888855D01*
X156634001Y-82857865D01*
X156594646Y-82849500D01*
X156405354Y-82849500D01*
X156405352Y-82849500D01*
X156299543Y-82871990D01*
X156229876Y-82866674D01*
X156174143Y-82824536D01*
X156150038Y-82758956D01*
X156150441Y-82737745D01*
X156155460Y-82690000D01*
X156135674Y-82501744D01*
X156077179Y-82321716D01*
X155982533Y-82157784D01*
X155855871Y-82017112D01*
X155855870Y-82017111D01*
X155702734Y-81905851D01*
X155702729Y-81905848D01*
X155532363Y-81829995D01*
X186544732Y-81829995D01*
X186544732Y-81830004D01*
X186563777Y-82084154D01*
X186618000Y-82321722D01*
X186620492Y-82332637D01*
X186690102Y-82510000D01*
X186713608Y-82569890D01*
X186731265Y-82600473D01*
X186841041Y-82790612D01*
X186999950Y-82989877D01*
X187186783Y-83163232D01*
X187397366Y-83306805D01*
X187397371Y-83306807D01*
X187397372Y-83306808D01*
X187397373Y-83306809D01*
X187519328Y-83365538D01*
X187626992Y-83417387D01*
X187626993Y-83417387D01*
X187626996Y-83417389D01*
X187870542Y-83492513D01*
X188122565Y-83530500D01*
X188377435Y-83530500D01*
X188629458Y-83492513D01*
X188873004Y-83417389D01*
X189102634Y-83306805D01*
X189313217Y-83163232D01*
X189500050Y-82989877D01*
X189658959Y-82790612D01*
X189786393Y-82569888D01*
X189879508Y-82332637D01*
X189936222Y-82084157D01*
X189954260Y-81843454D01*
X189955268Y-81830004D01*
X189955268Y-81829995D01*
X189936222Y-81575845D01*
X189931725Y-81556144D01*
X189879508Y-81327363D01*
X189786393Y-81090112D01*
X189658959Y-80869388D01*
X189500050Y-80670123D01*
X189313217Y-80496768D01*
X189102634Y-80353195D01*
X189102630Y-80353193D01*
X189102627Y-80353191D01*
X189102626Y-80353190D01*
X188873006Y-80242612D01*
X188873008Y-80242612D01*
X188629466Y-80167489D01*
X188629462Y-80167488D01*
X188629458Y-80167487D01*
X188508231Y-80149214D01*
X188377440Y-80129500D01*
X188377435Y-80129500D01*
X188122565Y-80129500D01*
X188122559Y-80129500D01*
X187965609Y-80153157D01*
X187870542Y-80167487D01*
X187870539Y-80167488D01*
X187870533Y-80167489D01*
X187626992Y-80242612D01*
X187397373Y-80353190D01*
X187397372Y-80353191D01*
X187186782Y-80496768D01*
X186999952Y-80670121D01*
X186999950Y-80670123D01*
X186841041Y-80869388D01*
X186713608Y-81090109D01*
X186620492Y-81327362D01*
X186620490Y-81327369D01*
X186563777Y-81575845D01*
X186544732Y-81829995D01*
X155532363Y-81829995D01*
X155529807Y-81828857D01*
X155529802Y-81828855D01*
X155384001Y-81797865D01*
X155344646Y-81789500D01*
X155155354Y-81789500D01*
X155122897Y-81796398D01*
X154970197Y-81828855D01*
X154970192Y-81828857D01*
X154797270Y-81905848D01*
X154797265Y-81905851D01*
X154644129Y-82017111D01*
X154517466Y-82157785D01*
X154422821Y-82321715D01*
X154422818Y-82321722D01*
X154365698Y-82497520D01*
X154364326Y-82501744D01*
X154344540Y-82690000D01*
X136707516Y-82690000D01*
X136626902Y-82600469D01*
X136596674Y-82537481D01*
X136605299Y-82468146D01*
X136626900Y-82434532D01*
X136732533Y-82317216D01*
X136827179Y-82153284D01*
X136885674Y-81973256D01*
X136905460Y-81785000D01*
X136885674Y-81596744D01*
X136827179Y-81416716D01*
X136760946Y-81301997D01*
X136744474Y-81234100D01*
X136760946Y-81178002D01*
X136827179Y-81063284D01*
X136885674Y-80883256D01*
X136905460Y-80695000D01*
X146119540Y-80695000D01*
X146139326Y-80883256D01*
X146141292Y-80889309D01*
X146197818Y-81063277D01*
X146197821Y-81063284D01*
X146292467Y-81227216D01*
X146395437Y-81341575D01*
X146419129Y-81367888D01*
X146572265Y-81479148D01*
X146572270Y-81479151D01*
X146745192Y-81556142D01*
X146745197Y-81556144D01*
X146930354Y-81595500D01*
X146930355Y-81595500D01*
X147119644Y-81595500D01*
X147119646Y-81595500D01*
X147304803Y-81556144D01*
X147477730Y-81479151D01*
X147630871Y-81367888D01*
X147757533Y-81227216D01*
X147852179Y-81063284D01*
X147910674Y-80883256D01*
X147930460Y-80695000D01*
X150534540Y-80695000D01*
X150554326Y-80883256D01*
X150556292Y-80889309D01*
X150612818Y-81063277D01*
X150612821Y-81063284D01*
X150707467Y-81227216D01*
X150810437Y-81341575D01*
X150834129Y-81367888D01*
X150987265Y-81479148D01*
X150987270Y-81479151D01*
X151160192Y-81556142D01*
X151160197Y-81556144D01*
X151345354Y-81595500D01*
X151345355Y-81595500D01*
X151534644Y-81595500D01*
X151534646Y-81595500D01*
X151719803Y-81556144D01*
X151892730Y-81479151D01*
X152045871Y-81367888D01*
X152172533Y-81227216D01*
X152267179Y-81063284D01*
X152325674Y-80883256D01*
X152339679Y-80750000D01*
X155594540Y-80750000D01*
X155614326Y-80938256D01*
X155614327Y-80938259D01*
X155672818Y-81118277D01*
X155672821Y-81118284D01*
X155767467Y-81282216D01*
X155888571Y-81416715D01*
X155894129Y-81422888D01*
X156047265Y-81534148D01*
X156047270Y-81534151D01*
X156220192Y-81611142D01*
X156220197Y-81611144D01*
X156405354Y-81650500D01*
X156405355Y-81650500D01*
X156594644Y-81650500D01*
X156594646Y-81650500D01*
X156779803Y-81611144D01*
X156952730Y-81534151D01*
X157105871Y-81422888D01*
X157232533Y-81282216D01*
X157327179Y-81118284D01*
X157385674Y-80938256D01*
X157405460Y-80750000D01*
X157385674Y-80561744D01*
X157327179Y-80381716D01*
X157232533Y-80217784D01*
X157105871Y-80077112D01*
X157105870Y-80077111D01*
X156952734Y-79965851D01*
X156952729Y-79965848D01*
X156860973Y-79924995D01*
X181645233Y-79924995D01*
X181645233Y-79925004D01*
X181664273Y-80179079D01*
X181720968Y-80427477D01*
X181720973Y-80427494D01*
X181814058Y-80664671D01*
X181814057Y-80664671D01*
X181941454Y-80885327D01*
X181941461Y-80885338D01*
X181983452Y-80937991D01*
X181983453Y-80937992D01*
X182785387Y-80136058D01*
X182790889Y-80156591D01*
X182869881Y-80293408D01*
X182981592Y-80405119D01*
X183118409Y-80484111D01*
X183138940Y-80489612D01*
X182336813Y-81291738D01*
X182497616Y-81401371D01*
X182497624Y-81401376D01*
X182727176Y-81511921D01*
X182727174Y-81511921D01*
X182970652Y-81587024D01*
X182970658Y-81587026D01*
X183222595Y-81624999D01*
X183222604Y-81625000D01*
X183477396Y-81625000D01*
X183477404Y-81624999D01*
X183729341Y-81587026D01*
X183729347Y-81587024D01*
X183972824Y-81511921D01*
X184202376Y-81401376D01*
X184202377Y-81401375D01*
X184363185Y-81291738D01*
X183561060Y-80489612D01*
X183581591Y-80484111D01*
X183718408Y-80405119D01*
X183830119Y-80293408D01*
X183909111Y-80156591D01*
X183914612Y-80136059D01*
X184716544Y-80937992D01*
X184716546Y-80937991D01*
X184758544Y-80885330D01*
X184885941Y-80664671D01*
X184979026Y-80427494D01*
X184979031Y-80427477D01*
X185035726Y-80179079D01*
X185054767Y-79925004D01*
X185054767Y-79924995D01*
X185035726Y-79670920D01*
X184979031Y-79422522D01*
X184979026Y-79422505D01*
X184885941Y-79185328D01*
X184885942Y-79185328D01*
X184758545Y-78964672D01*
X184716545Y-78912006D01*
X183914612Y-79713939D01*
X183909111Y-79693409D01*
X183830119Y-79556592D01*
X183718408Y-79444881D01*
X183581591Y-79365889D01*
X183561059Y-79360387D01*
X184363185Y-78558260D01*
X184202384Y-78448628D01*
X184202376Y-78448623D01*
X183972823Y-78338078D01*
X183972825Y-78338078D01*
X183729347Y-78262975D01*
X183729341Y-78262973D01*
X183477404Y-78225000D01*
X183222595Y-78225000D01*
X182970658Y-78262973D01*
X182970652Y-78262975D01*
X182727175Y-78338078D01*
X182497622Y-78448625D01*
X182497609Y-78448632D01*
X182336813Y-78558259D01*
X183138941Y-79360387D01*
X183118409Y-79365889D01*
X182981592Y-79444881D01*
X182869881Y-79556592D01*
X182790889Y-79693409D01*
X182785387Y-79713941D01*
X181983452Y-78912006D01*
X181941457Y-78964667D01*
X181814058Y-79185328D01*
X181720973Y-79422505D01*
X181720968Y-79422522D01*
X181664273Y-79670920D01*
X181645233Y-79924995D01*
X156860973Y-79924995D01*
X156779807Y-79888857D01*
X156779802Y-79888855D01*
X156634001Y-79857865D01*
X156594646Y-79849500D01*
X156405354Y-79849500D01*
X156372897Y-79856398D01*
X156220197Y-79888855D01*
X156220192Y-79888857D01*
X156047270Y-79965848D01*
X156047265Y-79965851D01*
X155894129Y-80077111D01*
X155767466Y-80217785D01*
X155672821Y-80381715D01*
X155672818Y-80381722D01*
X155614327Y-80561740D01*
X155614326Y-80561744D01*
X155594540Y-80750000D01*
X152339679Y-80750000D01*
X152345460Y-80695000D01*
X152325674Y-80506744D01*
X152267179Y-80326716D01*
X152172533Y-80162784D01*
X152045871Y-80022112D01*
X152044719Y-80021275D01*
X151892734Y-79910851D01*
X151892729Y-79910848D01*
X151719807Y-79833857D01*
X151719802Y-79833855D01*
X151574001Y-79802865D01*
X151534646Y-79794500D01*
X151345354Y-79794500D01*
X151312897Y-79801398D01*
X151160197Y-79833855D01*
X151160192Y-79833857D01*
X150987270Y-79910848D01*
X150987265Y-79910851D01*
X150834129Y-80022111D01*
X150707466Y-80162785D01*
X150612821Y-80326715D01*
X150612818Y-80326722D01*
X150578071Y-80433664D01*
X150554326Y-80506744D01*
X150534540Y-80695000D01*
X147930460Y-80695000D01*
X147910674Y-80506744D01*
X147852179Y-80326716D01*
X147757533Y-80162784D01*
X147630871Y-80022112D01*
X147629719Y-80021275D01*
X147477734Y-79910851D01*
X147477729Y-79910848D01*
X147304807Y-79833857D01*
X147304802Y-79833855D01*
X147159001Y-79802865D01*
X147119646Y-79794500D01*
X146930354Y-79794500D01*
X146897897Y-79801398D01*
X146745197Y-79833855D01*
X146745192Y-79833857D01*
X146572270Y-79910848D01*
X146572265Y-79910851D01*
X146419129Y-80022111D01*
X146292466Y-80162785D01*
X146197821Y-80326715D01*
X146197818Y-80326722D01*
X146163071Y-80433664D01*
X146139326Y-80506744D01*
X146119540Y-80695000D01*
X136905460Y-80695000D01*
X136885674Y-80506744D01*
X136827179Y-80326716D01*
X136797102Y-80274622D01*
X136780632Y-80206723D01*
X136803484Y-80140696D01*
X136858406Y-80097506D01*
X136927959Y-80090865D01*
X136954922Y-80099343D01*
X136970197Y-80106144D01*
X137155354Y-80145500D01*
X137155355Y-80145500D01*
X137344644Y-80145500D01*
X137344646Y-80145500D01*
X137529803Y-80106144D01*
X137699566Y-80030559D01*
X137768813Y-80021275D01*
X137800430Y-80030557D01*
X137970197Y-80106144D01*
X138155354Y-80145500D01*
X138155355Y-80145500D01*
X138344644Y-80145500D01*
X138344646Y-80145500D01*
X138529803Y-80106144D01*
X138702730Y-80029151D01*
X138855871Y-79917888D01*
X138982533Y-79777216D01*
X139077179Y-79613284D01*
X139135674Y-79433256D01*
X139155460Y-79245000D01*
X139135674Y-79056744D01*
X139077179Y-78876716D01*
X138982533Y-78712784D01*
X138962018Y-78690000D01*
X154344540Y-78690000D01*
X154364326Y-78878256D01*
X154364327Y-78878259D01*
X154422818Y-79058277D01*
X154422821Y-79058284D01*
X154517467Y-79222216D01*
X154612520Y-79327783D01*
X154644129Y-79362888D01*
X154797265Y-79474148D01*
X154797270Y-79474151D01*
X154970192Y-79551142D01*
X154970197Y-79551144D01*
X155155354Y-79590500D01*
X155155355Y-79590500D01*
X155344644Y-79590500D01*
X155344646Y-79590500D01*
X155529803Y-79551144D01*
X155702730Y-79474151D01*
X155855871Y-79362888D01*
X155982533Y-79222216D01*
X156077179Y-79058284D01*
X156135674Y-78878256D01*
X156155460Y-78690000D01*
X156135674Y-78501744D01*
X156077179Y-78321716D01*
X155982533Y-78157784D01*
X155855871Y-78017112D01*
X155855870Y-78017111D01*
X155702734Y-77905851D01*
X155702729Y-77905848D01*
X155529807Y-77828857D01*
X155529802Y-77828855D01*
X155384001Y-77797865D01*
X155344646Y-77789500D01*
X155155354Y-77789500D01*
X155122897Y-77796398D01*
X154970197Y-77828855D01*
X154970192Y-77828857D01*
X154797270Y-77905848D01*
X154797265Y-77905851D01*
X154644129Y-78017111D01*
X154517466Y-78157785D01*
X154422821Y-78321715D01*
X154422818Y-78321722D01*
X154366455Y-78495192D01*
X154364326Y-78501744D01*
X154344540Y-78690000D01*
X138962018Y-78690000D01*
X138855871Y-78572112D01*
X138855870Y-78572111D01*
X138702734Y-78460851D01*
X138702729Y-78460848D01*
X138529807Y-78383857D01*
X138529802Y-78383855D01*
X138384001Y-78352865D01*
X138344646Y-78344500D01*
X138155354Y-78344500D01*
X138122897Y-78351398D01*
X137970197Y-78383855D01*
X137970192Y-78383857D01*
X137800436Y-78459439D01*
X137731186Y-78468724D01*
X137699564Y-78459439D01*
X137529807Y-78383857D01*
X137529802Y-78383855D01*
X137384001Y-78352865D01*
X137344646Y-78344500D01*
X137155354Y-78344500D01*
X137122897Y-78351398D01*
X136970197Y-78383855D01*
X136970192Y-78383857D01*
X136797271Y-78460848D01*
X136697885Y-78533056D01*
X136632078Y-78556535D01*
X136564025Y-78540709D01*
X136552115Y-78533056D01*
X136463569Y-78468724D01*
X136452730Y-78460849D01*
X136452728Y-78460848D01*
X136452729Y-78460848D01*
X136279807Y-78383857D01*
X136279802Y-78383855D01*
X136134001Y-78352865D01*
X136094646Y-78344500D01*
X135905354Y-78344500D01*
X135872897Y-78351398D01*
X135720197Y-78383855D01*
X135720192Y-78383857D01*
X135547270Y-78460848D01*
X135547265Y-78460851D01*
X135394129Y-78572111D01*
X135267466Y-78712785D01*
X135172821Y-78876715D01*
X135172818Y-78876722D01*
X135114327Y-79056740D01*
X135114326Y-79056744D01*
X135094540Y-79245000D01*
X133931006Y-79245000D01*
X133828494Y-79098597D01*
X133661402Y-78931506D01*
X133661396Y-78931501D01*
X133475842Y-78801575D01*
X133432217Y-78746998D01*
X133425023Y-78677500D01*
X133456546Y-78615145D01*
X133475842Y-78598425D01*
X133569198Y-78533056D01*
X133661401Y-78468495D01*
X133828495Y-78301401D01*
X133964035Y-78107830D01*
X134063903Y-77893663D01*
X134125063Y-77665408D01*
X134145659Y-77430000D01*
X134125063Y-77194592D01*
X134063903Y-76966337D01*
X133964035Y-76752171D01*
X133958425Y-76744158D01*
X133828494Y-76558597D01*
X133661402Y-76391506D01*
X133661396Y-76391501D01*
X133475842Y-76261575D01*
X133432217Y-76206998D01*
X133425023Y-76137500D01*
X133456546Y-76075145D01*
X133475842Y-76058425D01*
X133559281Y-76000000D01*
X138094540Y-76000000D01*
X138114326Y-76188256D01*
X138114327Y-76188259D01*
X138172818Y-76368277D01*
X138172821Y-76368284D01*
X138267467Y-76532216D01*
X138351067Y-76625063D01*
X138394129Y-76672888D01*
X138547265Y-76784148D01*
X138547270Y-76784151D01*
X138720192Y-76861142D01*
X138720197Y-76861144D01*
X138905354Y-76900500D01*
X138905355Y-76900500D01*
X139094644Y-76900500D01*
X139094646Y-76900500D01*
X139279803Y-76861144D01*
X139449566Y-76785559D01*
X139518813Y-76776275D01*
X139550430Y-76785557D01*
X139720197Y-76861144D01*
X139905354Y-76900500D01*
X139905355Y-76900500D01*
X140094644Y-76900500D01*
X140094646Y-76900500D01*
X140279803Y-76861144D01*
X140449565Y-76785559D01*
X140518815Y-76776275D01*
X140550437Y-76785560D01*
X140720195Y-76861142D01*
X140720200Y-76861144D01*
X140905357Y-76900500D01*
X140905358Y-76900500D01*
X141094647Y-76900500D01*
X141094649Y-76900500D01*
X141279806Y-76861144D01*
X141452733Y-76784151D01*
X141582321Y-76690000D01*
X146119540Y-76690000D01*
X146139326Y-76878256D01*
X146139327Y-76878259D01*
X146197818Y-77058277D01*
X146197821Y-77058284D01*
X146292467Y-77222216D01*
X146419129Y-77362888D01*
X146572265Y-77474148D01*
X146572270Y-77474151D01*
X146745192Y-77551142D01*
X146745197Y-77551144D01*
X146930354Y-77590500D01*
X146930355Y-77590500D01*
X147119644Y-77590500D01*
X147119646Y-77590500D01*
X147304803Y-77551144D01*
X147477730Y-77474151D01*
X147630871Y-77362888D01*
X147757533Y-77222216D01*
X147852179Y-77058284D01*
X147910674Y-76878256D01*
X147930460Y-76690000D01*
X150534540Y-76690000D01*
X150554326Y-76878256D01*
X150554327Y-76878259D01*
X150612818Y-77058277D01*
X150612821Y-77058284D01*
X150707467Y-77222216D01*
X150834129Y-77362888D01*
X150987265Y-77474148D01*
X150987270Y-77474151D01*
X151160192Y-77551142D01*
X151160197Y-77551144D01*
X151345354Y-77590500D01*
X151345355Y-77590500D01*
X151534644Y-77590500D01*
X151534646Y-77590500D01*
X151719803Y-77551144D01*
X151892730Y-77474151D01*
X152045871Y-77362888D01*
X152172533Y-77222216D01*
X152267179Y-77058284D01*
X152325674Y-76878256D01*
X152345460Y-76690000D01*
X152325674Y-76501744D01*
X152267179Y-76321716D01*
X152172533Y-76157784D01*
X152045871Y-76017112D01*
X152045870Y-76017111D01*
X151892734Y-75905851D01*
X151892729Y-75905848D01*
X151719807Y-75828857D01*
X151719802Y-75828855D01*
X151571752Y-75797387D01*
X151534646Y-75789500D01*
X151345354Y-75789500D01*
X151312897Y-75796398D01*
X151160197Y-75828855D01*
X151160192Y-75828857D01*
X150987270Y-75905848D01*
X150987265Y-75905851D01*
X150834129Y-76017111D01*
X150707466Y-76157785D01*
X150612821Y-76321715D01*
X150612818Y-76321722D01*
X150572534Y-76445705D01*
X150554326Y-76501744D01*
X150534540Y-76690000D01*
X147930460Y-76690000D01*
X147910674Y-76501744D01*
X147852179Y-76321716D01*
X147757533Y-76157784D01*
X147630871Y-76017112D01*
X147630870Y-76017111D01*
X147477734Y-75905851D01*
X147477729Y-75905848D01*
X147304807Y-75828857D01*
X147304802Y-75828855D01*
X147156752Y-75797387D01*
X147119646Y-75789500D01*
X146930354Y-75789500D01*
X146897897Y-75796398D01*
X146745197Y-75828855D01*
X146745192Y-75828857D01*
X146572270Y-75905848D01*
X146572265Y-75905851D01*
X146419129Y-76017111D01*
X146292466Y-76157785D01*
X146197821Y-76321715D01*
X146197818Y-76321722D01*
X146157534Y-76445705D01*
X146139326Y-76501744D01*
X146119540Y-76690000D01*
X141582321Y-76690000D01*
X141605874Y-76672888D01*
X141732536Y-76532216D01*
X141827182Y-76368284D01*
X141885677Y-76188256D01*
X141905463Y-76000000D01*
X141885677Y-75811744D01*
X141827182Y-75631716D01*
X141732536Y-75467784D01*
X141605874Y-75327112D01*
X141554794Y-75290000D01*
X141452737Y-75215851D01*
X141452732Y-75215848D01*
X141279810Y-75138857D01*
X141279805Y-75138855D01*
X141134004Y-75107865D01*
X141094649Y-75099500D01*
X140905357Y-75099500D01*
X140872900Y-75106398D01*
X140720200Y-75138855D01*
X140720195Y-75138857D01*
X140550437Y-75214440D01*
X140481187Y-75223725D01*
X140449565Y-75214440D01*
X140279806Y-75138857D01*
X140279802Y-75138855D01*
X140134001Y-75107865D01*
X140094646Y-75099500D01*
X139905354Y-75099500D01*
X139872897Y-75106398D01*
X139720197Y-75138855D01*
X139720192Y-75138857D01*
X139550436Y-75214439D01*
X139481186Y-75223724D01*
X139449564Y-75214439D01*
X139279807Y-75138857D01*
X139279802Y-75138855D01*
X139134001Y-75107865D01*
X139094646Y-75099500D01*
X138905354Y-75099500D01*
X138872897Y-75106398D01*
X138720197Y-75138855D01*
X138720192Y-75138857D01*
X138547270Y-75215848D01*
X138547265Y-75215851D01*
X138394129Y-75327111D01*
X138267466Y-75467785D01*
X138172821Y-75631715D01*
X138172818Y-75631722D01*
X138118991Y-75797387D01*
X138114326Y-75811744D01*
X138094540Y-76000000D01*
X133559281Y-76000000D01*
X133605219Y-75967834D01*
X133661401Y-75928495D01*
X133828495Y-75761401D01*
X133964035Y-75567830D01*
X134063903Y-75353663D01*
X134125063Y-75125408D01*
X134145659Y-74890000D01*
X134125063Y-74654592D01*
X134063903Y-74426337D01*
X133964035Y-74212171D01*
X133962512Y-74209995D01*
X133828494Y-74018597D01*
X133661402Y-73851506D01*
X133661396Y-73851501D01*
X133475842Y-73721575D01*
X133432217Y-73666998D01*
X133425023Y-73597500D01*
X133456546Y-73535145D01*
X133475842Y-73518425D01*
X133605219Y-73427834D01*
X133661401Y-73388495D01*
X133828495Y-73221401D01*
X133964035Y-73027830D01*
X134063903Y-72813663D01*
X134080962Y-72749999D01*
X174144341Y-72749999D01*
X174144341Y-72750000D01*
X174164936Y-72985403D01*
X174164938Y-72985413D01*
X174226094Y-73213655D01*
X174226096Y-73213659D01*
X174226097Y-73213663D01*
X174229706Y-73221402D01*
X174325965Y-73427830D01*
X174325967Y-73427834D01*
X174461501Y-73621395D01*
X174461506Y-73621402D01*
X174628597Y-73788493D01*
X174628603Y-73788498D01*
X174814158Y-73918425D01*
X174857783Y-73973002D01*
X174864977Y-74042500D01*
X174833454Y-74104855D01*
X174814158Y-74121575D01*
X174628597Y-74251505D01*
X174461505Y-74418597D01*
X174325965Y-74612169D01*
X174325964Y-74612171D01*
X174226098Y-74826335D01*
X174226094Y-74826344D01*
X174164938Y-75054586D01*
X174164936Y-75054596D01*
X174144341Y-75289999D01*
X174144341Y-75290000D01*
X174164936Y-75525403D01*
X174164938Y-75525413D01*
X174226094Y-75753655D01*
X174226096Y-75753659D01*
X174226097Y-75753663D01*
X174281517Y-75872511D01*
X174325965Y-75967830D01*
X174325967Y-75967834D01*
X174401108Y-76075145D01*
X174461501Y-76161396D01*
X174461506Y-76161402D01*
X174583818Y-76283714D01*
X174617303Y-76345037D01*
X174612319Y-76414729D01*
X174570447Y-76470662D01*
X174539471Y-76487577D01*
X174407912Y-76536646D01*
X174407906Y-76536649D01*
X174292812Y-76622809D01*
X174292809Y-76622812D01*
X174206649Y-76737906D01*
X174206645Y-76737913D01*
X174156403Y-76872620D01*
X174156401Y-76872627D01*
X174150000Y-76932155D01*
X174150000Y-77580000D01*
X175066988Y-77580000D01*
X175034075Y-77637007D01*
X175000000Y-77764174D01*
X175000000Y-77895826D01*
X175034075Y-78022993D01*
X175066988Y-78080000D01*
X174150000Y-78080000D01*
X174150000Y-78727844D01*
X174156401Y-78787372D01*
X174156403Y-78787379D01*
X174206645Y-78922086D01*
X174206649Y-78922093D01*
X174292809Y-79037187D01*
X174292812Y-79037190D01*
X174407906Y-79123350D01*
X174407913Y-79123354D01*
X174542620Y-79173596D01*
X174542627Y-79173598D01*
X174602155Y-79179999D01*
X174602172Y-79180000D01*
X175250000Y-79180000D01*
X175250000Y-78263012D01*
X175307007Y-78295925D01*
X175434174Y-78330000D01*
X175565826Y-78330000D01*
X175692993Y-78295925D01*
X175750000Y-78263012D01*
X175750000Y-79180000D01*
X176397828Y-79180000D01*
X176397844Y-79179999D01*
X176457372Y-79173598D01*
X176457379Y-79173596D01*
X176592086Y-79123354D01*
X176592093Y-79123350D01*
X176707187Y-79037190D01*
X176707190Y-79037187D01*
X176793350Y-78922093D01*
X176793354Y-78922086D01*
X176843596Y-78787379D01*
X176843598Y-78787372D01*
X176849999Y-78727844D01*
X176850000Y-78727827D01*
X176850000Y-78080000D01*
X175933012Y-78080000D01*
X175965925Y-78022993D01*
X175966728Y-78019995D01*
X186545233Y-78019995D01*
X186545233Y-78020004D01*
X186564273Y-78274079D01*
X186620968Y-78522477D01*
X186620973Y-78522494D01*
X186714058Y-78759671D01*
X186714057Y-78759671D01*
X186841454Y-78980327D01*
X186841461Y-78980338D01*
X186883452Y-79032991D01*
X186883453Y-79032992D01*
X187685387Y-78231058D01*
X187690889Y-78251591D01*
X187769881Y-78388408D01*
X187881592Y-78500119D01*
X188018409Y-78579111D01*
X188038940Y-78584612D01*
X187236813Y-79386738D01*
X187397616Y-79496371D01*
X187397624Y-79496376D01*
X187627176Y-79606921D01*
X187627174Y-79606921D01*
X187870652Y-79682024D01*
X187870658Y-79682026D01*
X188122595Y-79719999D01*
X188122604Y-79720000D01*
X188377396Y-79720000D01*
X188377404Y-79719999D01*
X188629341Y-79682026D01*
X188629347Y-79682024D01*
X188872824Y-79606921D01*
X189102376Y-79496376D01*
X189102377Y-79496375D01*
X189263185Y-79386738D01*
X188461060Y-78584612D01*
X188481591Y-78579111D01*
X188618408Y-78500119D01*
X188730119Y-78388408D01*
X188809111Y-78251591D01*
X188814612Y-78231059D01*
X189616544Y-79032992D01*
X189616546Y-79032991D01*
X189658544Y-78980330D01*
X189785941Y-78759671D01*
X189879026Y-78522494D01*
X189879031Y-78522477D01*
X189935726Y-78274079D01*
X189954767Y-78020004D01*
X189954767Y-78019995D01*
X189935726Y-77765920D01*
X189879031Y-77517522D01*
X189879026Y-77517505D01*
X189785941Y-77280328D01*
X189785942Y-77280328D01*
X189658545Y-77059672D01*
X189616545Y-77007006D01*
X188814612Y-77808939D01*
X188809111Y-77788409D01*
X188730119Y-77651592D01*
X188618408Y-77539881D01*
X188481591Y-77460889D01*
X188461059Y-77455387D01*
X189263185Y-76653260D01*
X189102384Y-76543628D01*
X189102376Y-76543623D01*
X188872823Y-76433078D01*
X188872825Y-76433078D01*
X188629347Y-76357975D01*
X188629341Y-76357973D01*
X188377404Y-76320000D01*
X188122595Y-76320000D01*
X187870658Y-76357973D01*
X187870652Y-76357975D01*
X187627175Y-76433078D01*
X187397622Y-76543625D01*
X187397609Y-76543632D01*
X187236813Y-76653259D01*
X188038941Y-77455387D01*
X188018409Y-77460889D01*
X187881592Y-77539881D01*
X187769881Y-77651592D01*
X187690889Y-77788409D01*
X187685387Y-77808941D01*
X186883452Y-77007006D01*
X186841457Y-77059667D01*
X186714058Y-77280328D01*
X186620973Y-77517505D01*
X186620968Y-77517522D01*
X186564273Y-77765920D01*
X186545233Y-78019995D01*
X175966728Y-78019995D01*
X176000000Y-77895826D01*
X176000000Y-77764174D01*
X175965925Y-77637007D01*
X175933012Y-77580000D01*
X176850000Y-77580000D01*
X176850000Y-76932172D01*
X176849999Y-76932155D01*
X176843598Y-76872627D01*
X176843596Y-76872620D01*
X176793354Y-76737913D01*
X176793350Y-76737906D01*
X176707190Y-76622812D01*
X176707187Y-76622809D01*
X176592093Y-76536649D01*
X176592088Y-76536646D01*
X176460528Y-76487577D01*
X176404595Y-76445705D01*
X176380178Y-76380241D01*
X176395030Y-76311968D01*
X176416175Y-76283720D01*
X176538495Y-76161401D01*
X176570989Y-76114995D01*
X181644732Y-76114995D01*
X181644732Y-76115004D01*
X181663777Y-76369154D01*
X181708227Y-76563903D01*
X181720492Y-76617637D01*
X181790093Y-76794977D01*
X181813608Y-76854890D01*
X181827098Y-76878256D01*
X181941041Y-77075612D01*
X182099950Y-77274877D01*
X182286783Y-77448232D01*
X182497366Y-77591805D01*
X182497371Y-77591807D01*
X182497372Y-77591808D01*
X182497373Y-77591809D01*
X182591229Y-77637007D01*
X182726992Y-77702387D01*
X182726993Y-77702387D01*
X182726996Y-77702389D01*
X182970542Y-77777513D01*
X183222565Y-77815500D01*
X183477435Y-77815500D01*
X183729458Y-77777513D01*
X183973004Y-77702389D01*
X184202634Y-77591805D01*
X184413217Y-77448232D01*
X184600050Y-77274877D01*
X184758959Y-77075612D01*
X184886393Y-76854888D01*
X184979508Y-76617637D01*
X185036222Y-76369157D01*
X185055268Y-76115000D01*
X185055118Y-76113002D01*
X185039595Y-75905848D01*
X185036222Y-75860843D01*
X184979508Y-75612363D01*
X184886393Y-75375112D01*
X184758959Y-75154388D01*
X184600050Y-74955123D01*
X184413217Y-74781768D01*
X184202634Y-74638195D01*
X184202630Y-74638193D01*
X184202627Y-74638191D01*
X184202626Y-74638190D01*
X183973006Y-74527612D01*
X183973008Y-74527612D01*
X183729466Y-74452489D01*
X183729462Y-74452488D01*
X183729458Y-74452487D01*
X183608231Y-74434214D01*
X183477440Y-74414500D01*
X183477435Y-74414500D01*
X183222565Y-74414500D01*
X183222559Y-74414500D01*
X183065609Y-74438157D01*
X182970542Y-74452487D01*
X182970539Y-74452488D01*
X182970533Y-74452489D01*
X182726992Y-74527612D01*
X182497373Y-74638190D01*
X182497372Y-74638191D01*
X182286782Y-74781768D01*
X182099952Y-74955121D01*
X182099950Y-74955123D01*
X181941041Y-75154388D01*
X181813608Y-75375109D01*
X181720492Y-75612362D01*
X181720490Y-75612369D01*
X181663777Y-75860845D01*
X181644732Y-76114995D01*
X176570989Y-76114995D01*
X176674035Y-75967830D01*
X176773903Y-75753663D01*
X176835063Y-75525408D01*
X176855659Y-75290000D01*
X176835063Y-75054592D01*
X176773903Y-74826337D01*
X176674035Y-74612171D01*
X176614827Y-74527612D01*
X176538494Y-74418597D01*
X176371402Y-74251506D01*
X176371396Y-74251501D01*
X176312119Y-74209995D01*
X186544732Y-74209995D01*
X186544732Y-74210004D01*
X186563777Y-74464154D01*
X186607244Y-74654596D01*
X186620492Y-74712637D01*
X186713607Y-74949888D01*
X186841041Y-75170612D01*
X186999950Y-75369877D01*
X187186783Y-75543232D01*
X187397366Y-75686805D01*
X187397371Y-75686807D01*
X187397372Y-75686808D01*
X187397373Y-75686809D01*
X187519328Y-75745538D01*
X187626992Y-75797387D01*
X187626993Y-75797387D01*
X187626996Y-75797389D01*
X187870542Y-75872513D01*
X188122565Y-75910500D01*
X188377435Y-75910500D01*
X188629458Y-75872513D01*
X188873004Y-75797389D01*
X189102634Y-75686805D01*
X189313217Y-75543232D01*
X189500050Y-75369877D01*
X189658959Y-75170612D01*
X189786393Y-74949888D01*
X189879508Y-74712637D01*
X189936222Y-74464157D01*
X189954260Y-74223454D01*
X189955268Y-74210004D01*
X189955268Y-74209995D01*
X189936222Y-73955845D01*
X189934613Y-73948797D01*
X189879508Y-73707363D01*
X189786393Y-73470112D01*
X189658959Y-73249388D01*
X189500050Y-73050123D01*
X189313217Y-72876768D01*
X189102634Y-72733195D01*
X189102630Y-72733193D01*
X189102627Y-72733191D01*
X189102626Y-72733190D01*
X188873006Y-72622612D01*
X188873008Y-72622612D01*
X188629466Y-72547489D01*
X188629462Y-72547488D01*
X188629458Y-72547487D01*
X188508231Y-72529214D01*
X188377440Y-72509500D01*
X188377435Y-72509500D01*
X188122565Y-72509500D01*
X188122559Y-72509500D01*
X187965609Y-72533157D01*
X187870542Y-72547487D01*
X187870539Y-72547488D01*
X187870533Y-72547489D01*
X187626992Y-72622612D01*
X187397373Y-72733190D01*
X187397372Y-72733191D01*
X187186782Y-72876768D01*
X186999952Y-73050121D01*
X186999950Y-73050123D01*
X186841041Y-73249388D01*
X186713608Y-73470109D01*
X186620492Y-73707362D01*
X186620490Y-73707369D01*
X186563777Y-73955845D01*
X186544732Y-74209995D01*
X176312119Y-74209995D01*
X176185842Y-74121575D01*
X176142217Y-74066998D01*
X176135023Y-73997500D01*
X176166546Y-73935145D01*
X176185842Y-73918425D01*
X176281419Y-73851501D01*
X176371401Y-73788495D01*
X176538495Y-73621401D01*
X176674035Y-73427830D01*
X176773903Y-73213663D01*
X176835063Y-72985408D01*
X176855659Y-72750000D01*
X176835063Y-72514592D01*
X176773903Y-72286337D01*
X176674035Y-72072171D01*
X176543914Y-71886337D01*
X176538494Y-71878597D01*
X176371402Y-71711506D01*
X176371395Y-71711501D01*
X176177834Y-71575967D01*
X176177830Y-71575965D01*
X176177828Y-71575964D01*
X175963663Y-71476097D01*
X175963659Y-71476096D01*
X175963655Y-71476094D01*
X175735413Y-71414938D01*
X175735403Y-71414936D01*
X175500001Y-71394341D01*
X175499999Y-71394341D01*
X175264596Y-71414936D01*
X175264586Y-71414938D01*
X175036344Y-71476094D01*
X175036337Y-71476096D01*
X175036337Y-71476097D01*
X175022816Y-71482401D01*
X174822171Y-71575964D01*
X174822169Y-71575965D01*
X174628597Y-71711505D01*
X174461505Y-71878597D01*
X174325965Y-72072169D01*
X174325964Y-72072171D01*
X174226098Y-72286335D01*
X174226094Y-72286344D01*
X174164938Y-72514586D01*
X174164936Y-72514596D01*
X174144341Y-72749999D01*
X134080962Y-72749999D01*
X134125063Y-72585408D01*
X134145659Y-72350000D01*
X134125063Y-72114592D01*
X134063903Y-71886337D01*
X133964035Y-71672171D01*
X133958425Y-71664158D01*
X133828494Y-71478597D01*
X133661402Y-71311506D01*
X133661396Y-71311501D01*
X133475842Y-71181575D01*
X133432217Y-71126998D01*
X133425023Y-71057500D01*
X133425208Y-71057135D01*
X181649500Y-71057135D01*
X181649500Y-73552870D01*
X181649501Y-73552876D01*
X181655908Y-73612483D01*
X181706202Y-73747328D01*
X181706206Y-73747335D01*
X181792452Y-73862544D01*
X181792455Y-73862547D01*
X181907664Y-73948793D01*
X181907671Y-73948797D01*
X182042517Y-73999091D01*
X182042516Y-73999091D01*
X182049444Y-73999835D01*
X182102127Y-74005500D01*
X184597872Y-74005499D01*
X184657483Y-73999091D01*
X184792331Y-73948796D01*
X184907546Y-73862546D01*
X184993796Y-73747331D01*
X185044091Y-73612483D01*
X185050500Y-73552873D01*
X185050499Y-71057128D01*
X185044091Y-70997517D01*
X185043206Y-70995145D01*
X184993797Y-70862671D01*
X184993793Y-70862664D01*
X184907547Y-70747455D01*
X184907544Y-70747452D01*
X184792335Y-70661206D01*
X184792328Y-70661202D01*
X184657482Y-70610908D01*
X184657483Y-70610908D01*
X184597883Y-70604501D01*
X184597881Y-70604500D01*
X184597873Y-70604500D01*
X184597864Y-70604500D01*
X182102129Y-70604500D01*
X182102123Y-70604501D01*
X182042516Y-70610908D01*
X181907671Y-70661202D01*
X181907664Y-70661206D01*
X181792455Y-70747452D01*
X181792452Y-70747455D01*
X181706206Y-70862664D01*
X181706202Y-70862671D01*
X181655908Y-70997517D01*
X181649501Y-71057116D01*
X181649501Y-71057123D01*
X181649500Y-71057135D01*
X133425208Y-71057135D01*
X133456546Y-70995145D01*
X133475842Y-70978425D01*
X133498026Y-70962891D01*
X133661401Y-70848495D01*
X133828495Y-70681401D01*
X133964035Y-70487830D01*
X134063903Y-70273663D01*
X134125063Y-70045408D01*
X134145659Y-69810000D01*
X134125063Y-69574592D01*
X134063903Y-69346337D01*
X133964035Y-69132171D01*
X133958425Y-69124158D01*
X133828494Y-68938597D01*
X133661402Y-68771506D01*
X133661396Y-68771501D01*
X133475842Y-68641575D01*
X133432217Y-68586998D01*
X133425023Y-68517500D01*
X133456546Y-68455145D01*
X133475842Y-68438425D01*
X133498026Y-68422891D01*
X133661401Y-68308495D01*
X133828495Y-68141401D01*
X133964035Y-67947830D01*
X134063903Y-67733663D01*
X134125063Y-67505408D01*
X134145659Y-67270000D01*
X134125063Y-67034592D01*
X134115794Y-67000000D01*
X146844540Y-67000000D01*
X146864326Y-67188256D01*
X146864327Y-67188259D01*
X146922818Y-67368277D01*
X146922821Y-67368284D01*
X147017467Y-67532216D01*
X147144129Y-67672888D01*
X147297265Y-67784148D01*
X147297270Y-67784151D01*
X147470192Y-67861142D01*
X147470197Y-67861144D01*
X147655354Y-67900500D01*
X147655355Y-67900500D01*
X147844644Y-67900500D01*
X147844646Y-67900500D01*
X148029803Y-67861144D01*
X148202730Y-67784151D01*
X148355871Y-67672888D01*
X148482533Y-67532216D01*
X148577179Y-67368284D01*
X148635674Y-67188256D01*
X148655460Y-67000000D01*
X148635674Y-66811744D01*
X148577179Y-66631716D01*
X148482533Y-66467784D01*
X148355871Y-66327112D01*
X148355870Y-66327111D01*
X148325437Y-66305000D01*
X188350000Y-66305000D01*
X191850000Y-66305000D01*
X191850000Y-63805000D01*
X188350000Y-63805000D01*
X188350000Y-66305000D01*
X148325437Y-66305000D01*
X148202734Y-66215851D01*
X148202729Y-66215848D01*
X148029807Y-66138857D01*
X148029802Y-66138855D01*
X147884001Y-66107865D01*
X147844646Y-66099500D01*
X147655354Y-66099500D01*
X147622897Y-66106398D01*
X147470197Y-66138855D01*
X147470192Y-66138857D01*
X147297270Y-66215848D01*
X147297265Y-66215851D01*
X147144129Y-66327111D01*
X147017466Y-66467785D01*
X146922821Y-66631715D01*
X146922818Y-66631722D01*
X146864327Y-66811740D01*
X146864326Y-66811744D01*
X146844540Y-67000000D01*
X134115794Y-67000000D01*
X134063903Y-66806337D01*
X133964035Y-66592171D01*
X133958425Y-66584158D01*
X133828494Y-66398597D01*
X133661402Y-66231506D01*
X133661396Y-66231501D01*
X133475842Y-66101575D01*
X133432217Y-66046998D01*
X133427352Y-66000000D01*
X138594540Y-66000000D01*
X138614326Y-66188256D01*
X138614327Y-66188259D01*
X138672818Y-66368277D01*
X138672821Y-66368284D01*
X138767467Y-66532216D01*
X138857063Y-66631722D01*
X138894129Y-66672888D01*
X139047265Y-66784148D01*
X139047270Y-66784151D01*
X139220192Y-66861142D01*
X139220197Y-66861144D01*
X139405354Y-66900500D01*
X139405355Y-66900500D01*
X139594644Y-66900500D01*
X139594646Y-66900500D01*
X139779803Y-66861144D01*
X139952730Y-66784151D01*
X140105871Y-66672888D01*
X140232533Y-66532216D01*
X140267613Y-66471454D01*
X140318179Y-66423240D01*
X140386786Y-66410016D01*
X140451651Y-66435984D01*
X140482385Y-66471453D01*
X140517466Y-66532214D01*
X140517467Y-66532216D01*
X140644129Y-66672888D01*
X140797265Y-66784148D01*
X140797270Y-66784151D01*
X140970192Y-66861142D01*
X140970197Y-66861144D01*
X141155354Y-66900500D01*
X141155355Y-66900500D01*
X141344644Y-66900500D01*
X141344646Y-66900500D01*
X141529803Y-66861144D01*
X141702730Y-66784151D01*
X141855871Y-66672888D01*
X141982533Y-66532216D01*
X142077179Y-66368284D01*
X142135674Y-66188256D01*
X142155460Y-66000000D01*
X142135674Y-65811744D01*
X142077179Y-65631716D01*
X141982533Y-65467784D01*
X141855871Y-65327112D01*
X141855870Y-65327111D01*
X141702734Y-65215851D01*
X141702729Y-65215848D01*
X141529807Y-65138857D01*
X141529802Y-65138855D01*
X141384001Y-65107865D01*
X141344646Y-65099500D01*
X141155354Y-65099500D01*
X141122897Y-65106398D01*
X140970197Y-65138855D01*
X140970192Y-65138857D01*
X140797270Y-65215848D01*
X140797265Y-65215851D01*
X140644129Y-65327111D01*
X140517466Y-65467785D01*
X140482387Y-65528544D01*
X140431820Y-65576760D01*
X140363213Y-65589983D01*
X140298348Y-65564015D01*
X140267613Y-65528544D01*
X140256549Y-65509381D01*
X140232533Y-65467784D01*
X140105871Y-65327112D01*
X140105870Y-65327111D01*
X139952734Y-65215851D01*
X139952729Y-65215848D01*
X139779807Y-65138857D01*
X139779802Y-65138855D01*
X139634001Y-65107865D01*
X139594646Y-65099500D01*
X139405354Y-65099500D01*
X139372897Y-65106398D01*
X139220197Y-65138855D01*
X139220192Y-65138857D01*
X139047270Y-65215848D01*
X139047265Y-65215851D01*
X138894129Y-65327111D01*
X138767466Y-65467785D01*
X138672821Y-65631715D01*
X138672818Y-65631722D01*
X138625000Y-65778893D01*
X138614326Y-65811744D01*
X138594540Y-66000000D01*
X133427352Y-66000000D01*
X133425023Y-65977500D01*
X133456546Y-65915145D01*
X133475842Y-65898425D01*
X133599635Y-65811744D01*
X133661401Y-65768495D01*
X133828495Y-65601401D01*
X133964035Y-65407830D01*
X134063903Y-65193663D01*
X134125063Y-64965408D01*
X134145659Y-64730000D01*
X134125063Y-64494592D01*
X134063903Y-64266337D01*
X134056285Y-64250000D01*
X147844540Y-64250000D01*
X147864326Y-64438256D01*
X147864327Y-64438259D01*
X147922818Y-64618277D01*
X147922821Y-64618284D01*
X148017467Y-64782216D01*
X148144129Y-64922888D01*
X148297265Y-65034148D01*
X148297270Y-65034151D01*
X148470192Y-65111142D01*
X148470197Y-65111144D01*
X148655354Y-65150500D01*
X148655355Y-65150500D01*
X148844644Y-65150500D01*
X148844646Y-65150500D01*
X149029803Y-65111144D01*
X149202730Y-65034151D01*
X149355871Y-64922888D01*
X149482533Y-64782216D01*
X149577179Y-64618284D01*
X149635674Y-64438256D01*
X149655460Y-64250000D01*
X149635674Y-64061744D01*
X149577179Y-63881716D01*
X149482533Y-63717784D01*
X149355871Y-63577112D01*
X149355870Y-63577111D01*
X149202734Y-63465851D01*
X149202729Y-63465848D01*
X149029807Y-63388857D01*
X149029802Y-63388855D01*
X148884001Y-63357865D01*
X148844646Y-63349500D01*
X148655354Y-63349500D01*
X148622897Y-63356398D01*
X148470197Y-63388855D01*
X148470192Y-63388857D01*
X148297270Y-63465848D01*
X148297265Y-63465851D01*
X148144129Y-63577111D01*
X148017466Y-63717785D01*
X147922821Y-63881715D01*
X147922818Y-63881722D01*
X147870040Y-64044158D01*
X147864326Y-64061744D01*
X147844540Y-64250000D01*
X134056285Y-64250000D01*
X133964035Y-64052171D01*
X133958425Y-64044158D01*
X133828494Y-63858597D01*
X133661402Y-63691506D01*
X133661396Y-63691501D01*
X133475842Y-63561575D01*
X133432217Y-63506998D01*
X133425023Y-63437500D01*
X133456546Y-63375145D01*
X133475842Y-63358425D01*
X133498026Y-63342891D01*
X133661401Y-63228495D01*
X133828495Y-63061401D01*
X133964035Y-62867830D01*
X134063903Y-62653663D01*
X134125063Y-62425408D01*
X134145659Y-62190000D01*
X134125063Y-61954592D01*
X134063903Y-61726337D01*
X133964035Y-61512171D01*
X133958425Y-61504158D01*
X133828494Y-61318597D01*
X133661402Y-61151506D01*
X133661396Y-61151501D01*
X133475842Y-61021575D01*
X133432217Y-60966998D01*
X133425023Y-60897500D01*
X133456546Y-60835145D01*
X133475842Y-60818425D01*
X133498026Y-60802891D01*
X133661401Y-60688495D01*
X133828495Y-60521401D01*
X133964035Y-60327830D01*
X134063903Y-60113663D01*
X134125063Y-59885408D01*
X134145659Y-59650000D01*
X134125063Y-59414592D01*
X134067564Y-59200000D01*
X147594540Y-59200000D01*
X147614326Y-59388256D01*
X147614327Y-59388259D01*
X147672818Y-59568277D01*
X147672821Y-59568284D01*
X147767467Y-59732216D01*
X147894129Y-59872888D01*
X148047265Y-59984148D01*
X148047270Y-59984151D01*
X148220192Y-60061142D01*
X148220197Y-60061144D01*
X148405354Y-60100500D01*
X148405355Y-60100500D01*
X148594644Y-60100500D01*
X148594646Y-60100500D01*
X148779803Y-60061144D01*
X148952730Y-59984151D01*
X149105871Y-59872888D01*
X149232533Y-59732216D01*
X149327179Y-59568284D01*
X149385674Y-59388256D01*
X149405460Y-59200000D01*
X149385674Y-59011744D01*
X149327179Y-58831716D01*
X149232533Y-58667784D01*
X149105871Y-58527112D01*
X149105870Y-58527111D01*
X148952734Y-58415851D01*
X148952729Y-58415848D01*
X148779807Y-58338857D01*
X148779802Y-58338855D01*
X148634001Y-58307865D01*
X148594646Y-58299500D01*
X148405354Y-58299500D01*
X148372897Y-58306398D01*
X148220197Y-58338855D01*
X148220192Y-58338857D01*
X148047270Y-58415848D01*
X148047265Y-58415851D01*
X147894129Y-58527111D01*
X147767466Y-58667785D01*
X147672821Y-58831715D01*
X147672818Y-58831722D01*
X147627184Y-58972171D01*
X147614326Y-59011744D01*
X147594540Y-59200000D01*
X134067564Y-59200000D01*
X134063903Y-59186337D01*
X133964035Y-58972171D01*
X133958425Y-58964158D01*
X133828494Y-58778597D01*
X133661402Y-58611506D01*
X133661396Y-58611501D01*
X133475842Y-58481575D01*
X133432217Y-58426998D01*
X133425023Y-58357500D01*
X133456546Y-58295145D01*
X133475842Y-58278425D01*
X133498026Y-58262891D01*
X133661401Y-58148495D01*
X133828495Y-57981401D01*
X133964035Y-57787830D01*
X134063903Y-57573663D01*
X134125063Y-57345408D01*
X134145659Y-57110000D01*
X134125063Y-56874592D01*
X134063903Y-56646337D01*
X133964035Y-56432171D01*
X133958425Y-56424158D01*
X133828494Y-56238597D01*
X133661402Y-56071506D01*
X133661395Y-56071501D01*
X133467834Y-55935967D01*
X133467830Y-55935965D01*
X133467828Y-55935964D01*
X133253663Y-55836097D01*
X133253659Y-55836096D01*
X133253655Y-55836094D01*
X133025413Y-55774938D01*
X133025403Y-55774936D01*
X132790001Y-55754341D01*
X132789999Y-55754341D01*
X132554596Y-55774936D01*
X132554586Y-55774938D01*
X132326344Y-55836094D01*
X132326335Y-55836098D01*
X132112171Y-55935964D01*
X132112169Y-55935965D01*
X131918597Y-56071505D01*
X131751505Y-56238597D01*
X131621575Y-56424158D01*
X131566998Y-56467783D01*
X131497500Y-56474977D01*
X131435145Y-56443454D01*
X131418425Y-56424158D01*
X131288494Y-56238597D01*
X131121402Y-56071506D01*
X131121395Y-56071501D01*
X130927834Y-55935967D01*
X130927830Y-55935965D01*
X130927828Y-55935964D01*
X130713663Y-55836097D01*
X130713659Y-55836096D01*
X130713655Y-55836094D01*
X130485413Y-55774938D01*
X130485403Y-55774936D01*
X130250001Y-55754341D01*
X130249999Y-55754341D01*
X130014596Y-55774936D01*
X130014586Y-55774938D01*
X129786344Y-55836094D01*
X129786335Y-55836098D01*
X129572171Y-55935964D01*
X129572169Y-55935965D01*
X129378597Y-56071505D01*
X129211505Y-56238597D01*
X129075965Y-56432169D01*
X129075964Y-56432171D01*
X128976098Y-56646335D01*
X128976094Y-56646344D01*
X128914938Y-56874586D01*
X128914936Y-56874596D01*
X128894341Y-57109999D01*
X118750000Y-57109999D01*
X118750000Y-52999995D01*
X181994592Y-52999995D01*
X181994592Y-53000004D01*
X182014196Y-53261620D01*
X182014197Y-53261625D01*
X182072576Y-53517402D01*
X182072578Y-53517411D01*
X182072580Y-53517416D01*
X182168432Y-53761643D01*
X182299614Y-53988857D01*
X182386077Y-54097278D01*
X182463198Y-54193985D01*
X182644753Y-54362441D01*
X182655521Y-54372433D01*
X182872296Y-54520228D01*
X182872301Y-54520230D01*
X182872302Y-54520231D01*
X182872303Y-54520232D01*
X182976938Y-54570621D01*
X183108673Y-54634061D01*
X183108674Y-54634061D01*
X183108677Y-54634063D01*
X183359385Y-54711396D01*
X183618818Y-54750500D01*
X183881182Y-54750500D01*
X184140615Y-54711396D01*
X184391323Y-54634063D01*
X184499490Y-54581972D01*
X184568428Y-54570621D01*
X184632563Y-54598343D01*
X184671529Y-54656338D01*
X184672954Y-54726193D01*
X184668717Y-54738995D01*
X184573058Y-54982729D01*
X184514693Y-55238449D01*
X184514692Y-55238454D01*
X184495093Y-55499995D01*
X184495093Y-55500004D01*
X184514692Y-55761545D01*
X184514693Y-55761550D01*
X184573058Y-56017270D01*
X184668883Y-56261426D01*
X184668882Y-56261426D01*
X184800027Y-56488573D01*
X184847874Y-56548571D01*
X185610689Y-55785756D01*
X185629668Y-55831574D01*
X185706274Y-55946224D01*
X185803776Y-56043726D01*
X185918426Y-56120332D01*
X185964242Y-56139309D01*
X185200830Y-56902720D01*
X185372546Y-57019793D01*
X185372550Y-57019795D01*
X185608854Y-57133594D01*
X185608858Y-57133595D01*
X185859494Y-57210907D01*
X185859500Y-57210909D01*
X186118848Y-57249999D01*
X186118857Y-57250000D01*
X186381143Y-57250000D01*
X186381151Y-57249999D01*
X186640499Y-57210909D01*
X186640505Y-57210907D01*
X186891143Y-57133595D01*
X187127445Y-57019798D01*
X187127447Y-57019797D01*
X187299168Y-56902720D01*
X186535757Y-56139309D01*
X186581574Y-56120332D01*
X186696224Y-56043726D01*
X186793726Y-55946224D01*
X186870332Y-55831574D01*
X186889309Y-55785756D01*
X187652125Y-56548572D01*
X187699971Y-56488573D01*
X187831116Y-56261426D01*
X187926941Y-56017270D01*
X187985306Y-55761550D01*
X187985307Y-55761545D01*
X188004907Y-55500004D01*
X188004907Y-55499995D01*
X187985307Y-55238454D01*
X187985306Y-55238449D01*
X187926941Y-54982729D01*
X187831116Y-54738573D01*
X187831117Y-54738573D01*
X187699972Y-54511426D01*
X187652124Y-54451427D01*
X186889309Y-55214242D01*
X186870332Y-55168426D01*
X186793726Y-55053776D01*
X186696224Y-54956274D01*
X186581574Y-54879668D01*
X186535756Y-54860690D01*
X187299168Y-54097278D01*
X187127454Y-53980206D01*
X187127445Y-53980201D01*
X186891142Y-53866404D01*
X186891144Y-53866404D01*
X186640505Y-53789092D01*
X186640499Y-53789090D01*
X186381151Y-53750000D01*
X186118848Y-53750000D01*
X185859500Y-53789090D01*
X185859494Y-53789092D01*
X185608858Y-53866404D01*
X185608849Y-53866407D01*
X185500904Y-53918391D01*
X185431963Y-53929743D01*
X185367829Y-53902021D01*
X185328863Y-53844025D01*
X185327438Y-53774170D01*
X185331672Y-53761377D01*
X185427420Y-53517416D01*
X185485802Y-53261630D01*
X185485808Y-53261550D01*
X185505408Y-53000004D01*
X185505408Y-52999995D01*
X194495093Y-52999995D01*
X194495093Y-53000004D01*
X194514692Y-53261545D01*
X194514693Y-53261550D01*
X194573058Y-53517270D01*
X194668883Y-53761426D01*
X194668882Y-53761426D01*
X194800027Y-53988573D01*
X194847874Y-54048571D01*
X195610689Y-53285756D01*
X195629668Y-53331574D01*
X195706274Y-53446224D01*
X195803776Y-53543726D01*
X195918426Y-53620332D01*
X195964242Y-53639309D01*
X195200830Y-54402720D01*
X195372546Y-54519793D01*
X195372550Y-54519795D01*
X195608854Y-54633594D01*
X195608858Y-54633595D01*
X195859494Y-54710907D01*
X195859500Y-54710909D01*
X196118848Y-54749999D01*
X196118857Y-54750000D01*
X196381143Y-54750000D01*
X196381151Y-54749999D01*
X196640499Y-54710909D01*
X196640505Y-54710907D01*
X196891143Y-54633595D01*
X197127445Y-54519798D01*
X197127447Y-54519797D01*
X197299168Y-54402720D01*
X196535757Y-53639309D01*
X196581574Y-53620332D01*
X196696224Y-53543726D01*
X196793726Y-53446224D01*
X196870332Y-53331574D01*
X196889309Y-53285756D01*
X197652125Y-54048572D01*
X197699971Y-53988573D01*
X197831116Y-53761426D01*
X197926941Y-53517270D01*
X197985306Y-53261550D01*
X197985307Y-53261545D01*
X198004907Y-53000004D01*
X198004907Y-52999995D01*
X197985307Y-52738454D01*
X197985306Y-52738449D01*
X197926941Y-52482729D01*
X197831116Y-52238573D01*
X197831117Y-52238573D01*
X197699972Y-52011426D01*
X197652124Y-51951427D01*
X196889309Y-52714242D01*
X196870332Y-52668426D01*
X196793726Y-52553776D01*
X196696224Y-52456274D01*
X196581574Y-52379668D01*
X196535757Y-52360690D01*
X197299168Y-51597278D01*
X197127454Y-51480206D01*
X197127445Y-51480201D01*
X196891142Y-51366404D01*
X196891144Y-51366404D01*
X196640505Y-51289092D01*
X196640499Y-51289090D01*
X196381151Y-51250000D01*
X196118848Y-51250000D01*
X195859500Y-51289090D01*
X195859494Y-51289092D01*
X195608858Y-51366404D01*
X195608854Y-51366405D01*
X195372547Y-51480205D01*
X195372539Y-51480210D01*
X195200830Y-51597277D01*
X195964243Y-52360690D01*
X195918426Y-52379668D01*
X195803776Y-52456274D01*
X195706274Y-52553776D01*
X195629668Y-52668426D01*
X195610690Y-52714242D01*
X194847874Y-51951427D01*
X194800028Y-52011425D01*
X194668883Y-52238573D01*
X194573058Y-52482729D01*
X194514693Y-52738449D01*
X194514692Y-52738454D01*
X194495093Y-52999995D01*
X185505408Y-52999995D01*
X185485803Y-52738379D01*
X185485802Y-52738374D01*
X185485802Y-52738370D01*
X185427420Y-52482584D01*
X185331568Y-52238357D01*
X185200386Y-52011143D01*
X185036805Y-51806019D01*
X185036804Y-51806018D01*
X185036801Y-51806014D01*
X184844479Y-51627567D01*
X184800052Y-51597277D01*
X184627704Y-51479772D01*
X184627700Y-51479770D01*
X184627697Y-51479768D01*
X184627696Y-51479767D01*
X184391325Y-51365938D01*
X184391327Y-51365938D01*
X184140623Y-51288606D01*
X184140619Y-51288605D01*
X184140615Y-51288604D01*
X184015823Y-51269794D01*
X183881187Y-51249500D01*
X183881182Y-51249500D01*
X183618818Y-51249500D01*
X183618812Y-51249500D01*
X183457247Y-51273853D01*
X183359385Y-51288604D01*
X183359382Y-51288605D01*
X183359376Y-51288606D01*
X183108673Y-51365938D01*
X182872303Y-51479767D01*
X182872302Y-51479768D01*
X182872296Y-51479771D01*
X182872296Y-51479772D01*
X182871654Y-51480210D01*
X182655520Y-51627567D01*
X182463198Y-51806014D01*
X182299614Y-52011143D01*
X182168432Y-52238356D01*
X182072582Y-52482578D01*
X182072576Y-52482597D01*
X182014197Y-52738374D01*
X182014196Y-52738379D01*
X181994592Y-52999995D01*
X118750000Y-52999995D01*
X118750000Y-51250000D01*
X150594540Y-51250000D01*
X150614326Y-51438256D01*
X150614327Y-51438259D01*
X150672818Y-51618277D01*
X150672821Y-51618284D01*
X150767467Y-51782216D01*
X150894129Y-51922888D01*
X151047265Y-52034148D01*
X151047270Y-52034151D01*
X151220192Y-52111142D01*
X151220197Y-52111144D01*
X151405354Y-52150500D01*
X151405355Y-52150500D01*
X151594644Y-52150500D01*
X151594646Y-52150500D01*
X151779803Y-52111144D01*
X151952730Y-52034151D01*
X152105871Y-51922888D01*
X152232533Y-51782216D01*
X152327179Y-51618284D01*
X152385674Y-51438256D01*
X152405460Y-51250000D01*
X152385674Y-51061744D01*
X152327179Y-50881716D01*
X152232533Y-50717784D01*
X152105871Y-50577112D01*
X152105870Y-50577111D01*
X151952734Y-50465851D01*
X151952729Y-50465848D01*
X151779807Y-50388857D01*
X151779802Y-50388855D01*
X151634001Y-50357865D01*
X151594646Y-50349500D01*
X151405354Y-50349500D01*
X151372897Y-50356398D01*
X151220197Y-50388855D01*
X151220192Y-50388857D01*
X151047270Y-50465848D01*
X151047265Y-50465851D01*
X150894129Y-50577111D01*
X150767466Y-50717785D01*
X150672821Y-50881715D01*
X150672818Y-50881722D01*
X150614327Y-51061740D01*
X150614326Y-51061744D01*
X150594540Y-51250000D01*
X118750000Y-51250000D01*
X118750000Y-49500000D01*
X139344540Y-49500000D01*
X139364326Y-49688256D01*
X139364327Y-49688259D01*
X139422818Y-49868277D01*
X139422821Y-49868284D01*
X139517467Y-50032216D01*
X139644129Y-50172888D01*
X139797265Y-50284148D01*
X139797270Y-50284151D01*
X139970192Y-50361142D01*
X139970197Y-50361144D01*
X140155354Y-50400500D01*
X140155355Y-50400500D01*
X140344644Y-50400500D01*
X140344646Y-50400500D01*
X140529803Y-50361144D01*
X140702730Y-50284151D01*
X140855871Y-50172888D01*
X140982533Y-50032216D01*
X141077179Y-49868284D01*
X141135674Y-49688256D01*
X141155460Y-49500000D01*
X141135674Y-49311744D01*
X141077179Y-49131716D01*
X140982533Y-48967784D01*
X140855871Y-48827112D01*
X140855870Y-48827111D01*
X140702734Y-48715851D01*
X140702729Y-48715848D01*
X140529807Y-48638857D01*
X140529802Y-48638855D01*
X140384001Y-48607865D01*
X140344646Y-48599500D01*
X140155354Y-48599500D01*
X140122897Y-48606398D01*
X139970197Y-48638855D01*
X139970192Y-48638857D01*
X139797270Y-48715848D01*
X139797265Y-48715851D01*
X139644129Y-48827111D01*
X139517466Y-48967785D01*
X139422821Y-49131715D01*
X139422818Y-49131722D01*
X139364327Y-49311740D01*
X139364326Y-49311744D01*
X139344540Y-49500000D01*
X118750000Y-49500000D01*
X118750000Y-48497059D01*
X146151602Y-48497059D01*
X146171388Y-48685315D01*
X146171389Y-48685318D01*
X146229880Y-48865336D01*
X146229883Y-48865343D01*
X146324529Y-49029275D01*
X146416767Y-49131715D01*
X146451191Y-49169947D01*
X146604327Y-49281207D01*
X146604332Y-49281210D01*
X146777254Y-49358201D01*
X146777259Y-49358203D01*
X146962416Y-49397559D01*
X146962417Y-49397559D01*
X147151706Y-49397559D01*
X147151708Y-49397559D01*
X147336865Y-49358203D01*
X147509792Y-49281210D01*
X147662933Y-49169947D01*
X147789595Y-49029275D01*
X147884241Y-48865343D01*
X147942736Y-48685315D01*
X147962522Y-48497059D01*
X147942736Y-48308803D01*
X147884241Y-48128775D01*
X147789595Y-47964843D01*
X147662933Y-47824171D01*
X147662932Y-47824170D01*
X147509796Y-47712910D01*
X147509791Y-47712907D01*
X147336869Y-47635916D01*
X147336864Y-47635914D01*
X147191063Y-47604924D01*
X147151708Y-47596559D01*
X146962416Y-47596559D01*
X146929959Y-47603457D01*
X146777259Y-47635914D01*
X146777254Y-47635916D01*
X146604332Y-47712907D01*
X146604327Y-47712910D01*
X146451191Y-47824170D01*
X146324528Y-47964844D01*
X146229883Y-48128774D01*
X146229880Y-48128781D01*
X146171389Y-48308799D01*
X146171388Y-48308803D01*
X146151602Y-48497059D01*
X118750000Y-48497059D01*
X118750000Y-46000000D01*
X139344540Y-46000000D01*
X139364326Y-46188256D01*
X139364327Y-46188259D01*
X139422818Y-46368277D01*
X139422821Y-46368284D01*
X139517467Y-46532216D01*
X139603322Y-46627567D01*
X139644129Y-46672888D01*
X139797265Y-46784148D01*
X139797270Y-46784151D01*
X139970192Y-46861142D01*
X139970197Y-46861144D01*
X140155354Y-46900500D01*
X140155355Y-46900500D01*
X140344644Y-46900500D01*
X140344646Y-46900500D01*
X140529803Y-46861144D01*
X140702730Y-46784151D01*
X140784145Y-46725000D01*
X148844540Y-46725000D01*
X148864326Y-46913256D01*
X148864327Y-46913259D01*
X148922818Y-47093277D01*
X148922821Y-47093284D01*
X149017467Y-47257216D01*
X149144129Y-47397888D01*
X149301441Y-47512182D01*
X149344107Y-47567512D01*
X149350086Y-47637125D01*
X149317480Y-47698920D01*
X149301441Y-47712818D01*
X149144129Y-47827111D01*
X149017466Y-47967785D01*
X148922821Y-48131715D01*
X148922818Y-48131722D01*
X148864327Y-48311740D01*
X148864326Y-48311744D01*
X148844540Y-48500000D01*
X148864326Y-48688256D01*
X148864327Y-48688259D01*
X148922818Y-48868277D01*
X148922821Y-48868284D01*
X149017467Y-49032216D01*
X149107063Y-49131722D01*
X149144129Y-49172888D01*
X149297265Y-49284148D01*
X149297270Y-49284151D01*
X149470192Y-49361142D01*
X149470197Y-49361144D01*
X149655354Y-49400500D01*
X149655355Y-49400500D01*
X149844644Y-49400500D01*
X149844646Y-49400500D01*
X150029803Y-49361144D01*
X150202730Y-49284151D01*
X150355871Y-49172888D01*
X150482533Y-49032216D01*
X150577179Y-48868284D01*
X150635674Y-48688256D01*
X150655460Y-48500000D01*
X150635674Y-48311744D01*
X150577179Y-48131716D01*
X150501130Y-47999995D01*
X179494592Y-47999995D01*
X179494592Y-48000004D01*
X179514196Y-48261620D01*
X179514197Y-48261625D01*
X179572576Y-48517402D01*
X179572578Y-48517411D01*
X179572580Y-48517416D01*
X179668432Y-48761643D01*
X179799614Y-48988857D01*
X179834192Y-49032216D01*
X179963198Y-49193985D01*
X180140185Y-49358203D01*
X180155521Y-49372433D01*
X180372296Y-49520228D01*
X180372301Y-49520230D01*
X180372302Y-49520231D01*
X180372303Y-49520232D01*
X180497843Y-49580688D01*
X180608673Y-49634061D01*
X180608674Y-49634061D01*
X180608677Y-49634063D01*
X180859385Y-49711396D01*
X181118818Y-49750500D01*
X181381182Y-49750500D01*
X181640615Y-49711396D01*
X181891323Y-49634063D01*
X182127704Y-49520228D01*
X182344479Y-49372433D01*
X182536805Y-49193981D01*
X182700386Y-48988857D01*
X182831568Y-48761643D01*
X182927420Y-48517416D01*
X182985802Y-48261630D01*
X182995537Y-48131722D01*
X183005408Y-48000004D01*
X183005408Y-47999995D01*
X184494592Y-47999995D01*
X184494592Y-48000004D01*
X184514196Y-48261620D01*
X184514197Y-48261625D01*
X184572576Y-48517402D01*
X184572578Y-48517411D01*
X184572580Y-48517416D01*
X184668432Y-48761643D01*
X184799614Y-48988857D01*
X184834192Y-49032216D01*
X184963198Y-49193985D01*
X185140185Y-49358203D01*
X185155521Y-49372433D01*
X185372296Y-49520228D01*
X185372301Y-49520230D01*
X185372302Y-49520231D01*
X185372303Y-49520232D01*
X185497843Y-49580688D01*
X185608673Y-49634061D01*
X185608674Y-49634061D01*
X185608677Y-49634063D01*
X185859385Y-49711396D01*
X186118818Y-49750500D01*
X186381182Y-49750500D01*
X186640615Y-49711396D01*
X186891323Y-49634063D01*
X187127704Y-49520228D01*
X187344479Y-49372433D01*
X187536805Y-49193981D01*
X187700386Y-48988857D01*
X187831568Y-48761643D01*
X187927420Y-48517416D01*
X187985802Y-48261630D01*
X187995537Y-48131722D01*
X188005408Y-48000004D01*
X188005408Y-47999995D01*
X187985803Y-47738379D01*
X187985802Y-47738374D01*
X187985802Y-47738370D01*
X187927420Y-47482584D01*
X187831568Y-47238357D01*
X187700386Y-47011143D01*
X187536805Y-46806019D01*
X187536804Y-46806018D01*
X187536801Y-46806014D01*
X187344479Y-46627567D01*
X187211266Y-46536744D01*
X187127704Y-46479772D01*
X187127700Y-46479770D01*
X187127697Y-46479768D01*
X187127696Y-46479767D01*
X186891325Y-46365938D01*
X186891327Y-46365938D01*
X186640623Y-46288606D01*
X186640619Y-46288605D01*
X186640615Y-46288604D01*
X186515823Y-46269794D01*
X186381187Y-46249500D01*
X186381182Y-46249500D01*
X186118818Y-46249500D01*
X186118812Y-46249500D01*
X185957247Y-46273853D01*
X185859385Y-46288604D01*
X185859382Y-46288605D01*
X185859376Y-46288606D01*
X185608673Y-46365938D01*
X185372303Y-46479767D01*
X185372302Y-46479768D01*
X185155520Y-46627567D01*
X184963198Y-46806014D01*
X184799614Y-47011143D01*
X184668432Y-47238356D01*
X184572582Y-47482578D01*
X184572576Y-47482597D01*
X184514197Y-47738374D01*
X184514196Y-47738379D01*
X184494592Y-47999995D01*
X183005408Y-47999995D01*
X182985803Y-47738379D01*
X182985802Y-47738374D01*
X182985802Y-47738370D01*
X182927420Y-47482584D01*
X182831568Y-47238357D01*
X182700386Y-47011143D01*
X182536805Y-46806019D01*
X182536804Y-46806018D01*
X182536801Y-46806014D01*
X182344479Y-46627567D01*
X182211266Y-46536744D01*
X182127704Y-46479772D01*
X182127700Y-46479770D01*
X182127697Y-46479768D01*
X182127696Y-46479767D01*
X181891325Y-46365938D01*
X181891327Y-46365938D01*
X181640623Y-46288606D01*
X181640619Y-46288605D01*
X181640615Y-46288604D01*
X181515823Y-46269794D01*
X181381187Y-46249500D01*
X181381182Y-46249500D01*
X181118818Y-46249500D01*
X181118812Y-46249500D01*
X180957247Y-46273853D01*
X180859385Y-46288604D01*
X180859382Y-46288605D01*
X180859376Y-46288606D01*
X180608673Y-46365938D01*
X180372303Y-46479767D01*
X180372302Y-46479768D01*
X180155520Y-46627567D01*
X179963198Y-46806014D01*
X179799614Y-47011143D01*
X179668432Y-47238356D01*
X179572582Y-47482578D01*
X179572576Y-47482597D01*
X179514197Y-47738374D01*
X179514196Y-47738379D01*
X179494592Y-47999995D01*
X150501130Y-47999995D01*
X150482533Y-47967784D01*
X150355871Y-47827112D01*
X150202730Y-47715849D01*
X150202729Y-47715848D01*
X150198558Y-47712818D01*
X150155892Y-47657489D01*
X150149913Y-47587875D01*
X150182518Y-47526080D01*
X150198558Y-47512182D01*
X150202730Y-47509151D01*
X150355871Y-47397888D01*
X150482533Y-47257216D01*
X150577179Y-47093284D01*
X150635674Y-46913256D01*
X150655460Y-46725000D01*
X150635674Y-46536744D01*
X150577179Y-46356716D01*
X150482533Y-46192784D01*
X150355871Y-46052112D01*
X150355870Y-46052111D01*
X150202734Y-45940851D01*
X150202729Y-45940848D01*
X150029807Y-45863857D01*
X150029802Y-45863855D01*
X149884001Y-45832865D01*
X149844646Y-45824500D01*
X149655354Y-45824500D01*
X149622897Y-45831398D01*
X149470197Y-45863855D01*
X149470192Y-45863857D01*
X149297270Y-45940848D01*
X149297265Y-45940851D01*
X149144129Y-46052111D01*
X149017466Y-46192785D01*
X148922821Y-46356715D01*
X148922818Y-46356722D01*
X148865798Y-46532214D01*
X148864326Y-46536744D01*
X148844540Y-46725000D01*
X140784145Y-46725000D01*
X140855871Y-46672888D01*
X140982533Y-46532216D01*
X141077179Y-46368284D01*
X141135674Y-46188256D01*
X141155460Y-46000000D01*
X141135674Y-45811744D01*
X141077179Y-45631716D01*
X141001133Y-45500000D01*
X153094540Y-45500000D01*
X153114326Y-45688256D01*
X153114327Y-45688259D01*
X153172818Y-45868277D01*
X153172821Y-45868284D01*
X153267467Y-46032216D01*
X153357063Y-46131722D01*
X153394129Y-46172888D01*
X153547265Y-46284148D01*
X153547270Y-46284151D01*
X153720192Y-46361142D01*
X153720197Y-46361144D01*
X153905354Y-46400500D01*
X153905355Y-46400500D01*
X154094644Y-46400500D01*
X154094646Y-46400500D01*
X154219761Y-46373906D01*
X154289426Y-46379222D01*
X154345160Y-46421359D01*
X154369265Y-46486939D01*
X154369540Y-46495196D01*
X154369540Y-46499997D01*
X154369540Y-46500000D01*
X154389326Y-46688256D01*
X154389327Y-46688259D01*
X154447818Y-46868277D01*
X154447821Y-46868284D01*
X154542467Y-47032216D01*
X154648971Y-47150500D01*
X154669129Y-47172888D01*
X154822265Y-47284148D01*
X154822270Y-47284151D01*
X154995192Y-47361142D01*
X154995197Y-47361144D01*
X155180354Y-47400500D01*
X155180355Y-47400500D01*
X155369644Y-47400500D01*
X155369646Y-47400500D01*
X155554803Y-47361144D01*
X155727730Y-47284151D01*
X155880871Y-47172888D01*
X156007533Y-47032216D01*
X156102179Y-46868284D01*
X156160674Y-46688256D01*
X156180460Y-46500000D01*
X156160674Y-46311744D01*
X156140612Y-46250000D01*
X169344540Y-46250000D01*
X169364326Y-46438256D01*
X169364327Y-46438259D01*
X169422818Y-46618277D01*
X169422821Y-46618284D01*
X169517467Y-46782216D01*
X169623971Y-46900500D01*
X169644129Y-46922888D01*
X169797265Y-47034148D01*
X169797270Y-47034151D01*
X169970192Y-47111142D01*
X169970197Y-47111144D01*
X170155354Y-47150500D01*
X170155355Y-47150500D01*
X170344644Y-47150500D01*
X170344646Y-47150500D01*
X170529803Y-47111144D01*
X170702730Y-47034151D01*
X170855871Y-46922888D01*
X170982533Y-46782216D01*
X171077179Y-46618284D01*
X171135674Y-46438256D01*
X171155460Y-46250000D01*
X171135674Y-46061744D01*
X171077179Y-45881716D01*
X170982533Y-45717784D01*
X170855871Y-45577112D01*
X170855870Y-45577111D01*
X170702734Y-45465851D01*
X170702729Y-45465848D01*
X170529807Y-45388857D01*
X170529802Y-45388855D01*
X170384001Y-45357865D01*
X170344646Y-45349500D01*
X170155354Y-45349500D01*
X170122897Y-45356398D01*
X169970197Y-45388855D01*
X169970192Y-45388857D01*
X169797270Y-45465848D01*
X169797265Y-45465851D01*
X169644129Y-45577111D01*
X169517466Y-45717785D01*
X169422821Y-45881715D01*
X169422818Y-45881722D01*
X169364327Y-46061740D01*
X169364326Y-46061744D01*
X169344540Y-46250000D01*
X156140612Y-46250000D01*
X156102179Y-46131716D01*
X156007533Y-45967784D01*
X155880871Y-45827112D01*
X155859719Y-45811744D01*
X155727734Y-45715851D01*
X155727729Y-45715848D01*
X155554807Y-45638857D01*
X155554802Y-45638855D01*
X155409001Y-45607865D01*
X155369646Y-45599500D01*
X155180354Y-45599500D01*
X155180352Y-45599500D01*
X155055240Y-45626093D01*
X154985573Y-45620777D01*
X154929840Y-45578639D01*
X154905735Y-45513059D01*
X154905460Y-45504803D01*
X154905460Y-45500002D01*
X154902074Y-45467784D01*
X154885674Y-45311744D01*
X154827179Y-45131716D01*
X154732533Y-44967784D01*
X154605871Y-44827112D01*
X154605870Y-44827111D01*
X154452734Y-44715851D01*
X154452729Y-44715848D01*
X154279807Y-44638857D01*
X154279802Y-44638855D01*
X154134001Y-44607865D01*
X154094646Y-44599500D01*
X153905354Y-44599500D01*
X153872897Y-44606398D01*
X153720197Y-44638855D01*
X153720192Y-44638857D01*
X153547270Y-44715848D01*
X153547265Y-44715851D01*
X153394129Y-44827111D01*
X153267466Y-44967785D01*
X153172821Y-45131715D01*
X153172818Y-45131722D01*
X153114327Y-45311740D01*
X153114326Y-45311744D01*
X153094540Y-45500000D01*
X141001133Y-45500000D01*
X140982533Y-45467784D01*
X140855871Y-45327112D01*
X140834719Y-45311744D01*
X140702734Y-45215851D01*
X140702729Y-45215848D01*
X140529807Y-45138857D01*
X140529802Y-45138855D01*
X140384001Y-45107865D01*
X140344646Y-45099500D01*
X140155354Y-45099500D01*
X140122897Y-45106398D01*
X139970197Y-45138855D01*
X139970192Y-45138857D01*
X139797270Y-45215848D01*
X139797265Y-45215851D01*
X139644129Y-45327111D01*
X139517466Y-45467785D01*
X139422821Y-45631715D01*
X139422818Y-45631722D01*
X139394855Y-45717785D01*
X139364326Y-45811744D01*
X139344540Y-46000000D01*
X118750000Y-46000000D01*
X118750000Y-42999995D01*
X181994592Y-42999995D01*
X181994592Y-43000004D01*
X182014196Y-43261620D01*
X182014197Y-43261625D01*
X182072576Y-43517402D01*
X182072578Y-43517411D01*
X182072580Y-43517416D01*
X182168432Y-43761643D01*
X182299614Y-43988857D01*
X182431736Y-44154533D01*
X182463198Y-44193985D01*
X182644753Y-44362441D01*
X182655521Y-44372433D01*
X182872296Y-44520228D01*
X182872301Y-44520230D01*
X182872302Y-44520231D01*
X182872303Y-44520232D01*
X182997843Y-44580688D01*
X183108673Y-44634061D01*
X183108674Y-44634061D01*
X183108677Y-44634063D01*
X183359385Y-44711396D01*
X183618818Y-44750500D01*
X183881182Y-44750500D01*
X184140615Y-44711396D01*
X184391323Y-44634063D01*
X184627704Y-44520228D01*
X184844479Y-44372433D01*
X185036805Y-44193981D01*
X185200386Y-43988857D01*
X185331568Y-43761643D01*
X185427420Y-43517416D01*
X185485802Y-43261630D01*
X185485808Y-43261550D01*
X185505408Y-43000004D01*
X185505408Y-42999995D01*
X194495093Y-42999995D01*
X194495093Y-43000004D01*
X194514692Y-43261545D01*
X194514693Y-43261550D01*
X194573058Y-43517270D01*
X194668883Y-43761426D01*
X194668882Y-43761426D01*
X194800027Y-43988573D01*
X194847874Y-44048571D01*
X195610689Y-43285756D01*
X195629668Y-43331574D01*
X195706274Y-43446224D01*
X195803776Y-43543726D01*
X195918426Y-43620332D01*
X195964242Y-43639309D01*
X195200830Y-44402720D01*
X195372546Y-44519793D01*
X195372550Y-44519795D01*
X195608854Y-44633594D01*
X195608858Y-44633595D01*
X195859494Y-44710907D01*
X195859500Y-44710909D01*
X196118848Y-44749999D01*
X196118857Y-44750000D01*
X196381143Y-44750000D01*
X196381151Y-44749999D01*
X196640499Y-44710909D01*
X196640505Y-44710907D01*
X196891143Y-44633595D01*
X197127445Y-44519798D01*
X197127447Y-44519797D01*
X197299168Y-44402720D01*
X196535757Y-43639309D01*
X196581574Y-43620332D01*
X196696224Y-43543726D01*
X196793726Y-43446224D01*
X196870332Y-43331574D01*
X196889309Y-43285756D01*
X197652125Y-44048572D01*
X197699971Y-43988573D01*
X197831116Y-43761426D01*
X197926941Y-43517270D01*
X197985306Y-43261550D01*
X197985307Y-43261545D01*
X198004907Y-43000004D01*
X198004907Y-42999995D01*
X197985307Y-42738454D01*
X197985306Y-42738449D01*
X197926941Y-42482729D01*
X197831116Y-42238573D01*
X197831117Y-42238573D01*
X197699972Y-42011426D01*
X197652124Y-41951427D01*
X196889309Y-42714242D01*
X196870332Y-42668426D01*
X196793726Y-42553776D01*
X196696224Y-42456274D01*
X196581574Y-42379668D01*
X196535757Y-42360690D01*
X197299168Y-41597278D01*
X197127454Y-41480206D01*
X197127445Y-41480201D01*
X196891142Y-41366404D01*
X196891144Y-41366404D01*
X196640505Y-41289092D01*
X196640499Y-41289090D01*
X196381151Y-41250000D01*
X196118848Y-41250000D01*
X195859500Y-41289090D01*
X195859494Y-41289092D01*
X195608858Y-41366404D01*
X195608854Y-41366405D01*
X195372547Y-41480205D01*
X195372539Y-41480210D01*
X195200830Y-41597277D01*
X195964243Y-42360690D01*
X195918426Y-42379668D01*
X195803776Y-42456274D01*
X195706274Y-42553776D01*
X195629668Y-42668426D01*
X195610690Y-42714242D01*
X194847874Y-41951427D01*
X194800028Y-42011425D01*
X194668883Y-42238573D01*
X194573058Y-42482729D01*
X194514693Y-42738449D01*
X194514692Y-42738454D01*
X194495093Y-42999995D01*
X185505408Y-42999995D01*
X185485803Y-42738379D01*
X185485802Y-42738374D01*
X185485802Y-42738370D01*
X185427420Y-42482584D01*
X185331942Y-42239312D01*
X185325774Y-42169716D01*
X185358212Y-42107833D01*
X185418957Y-42073310D01*
X185488723Y-42077109D01*
X185501160Y-42082285D01*
X185608677Y-42134063D01*
X185859385Y-42211396D01*
X186118818Y-42250500D01*
X186381182Y-42250500D01*
X186640615Y-42211396D01*
X186891323Y-42134063D01*
X187127704Y-42020228D01*
X187344479Y-41872433D01*
X187536805Y-41693981D01*
X187700386Y-41488857D01*
X187831568Y-41261643D01*
X187927420Y-41017416D01*
X187985802Y-40761630D01*
X188005408Y-40500000D01*
X187985802Y-40238370D01*
X187927420Y-39982584D01*
X187831568Y-39738357D01*
X187700386Y-39511143D01*
X187536805Y-39306019D01*
X187536804Y-39306018D01*
X187536801Y-39306014D01*
X187344479Y-39127567D01*
X187127704Y-38979772D01*
X187127700Y-38979770D01*
X187127697Y-38979768D01*
X187127696Y-38979767D01*
X186891325Y-38865938D01*
X186891327Y-38865938D01*
X186640623Y-38788606D01*
X186640619Y-38788605D01*
X186640615Y-38788604D01*
X186515823Y-38769794D01*
X186381187Y-38749500D01*
X186381182Y-38749500D01*
X186118818Y-38749500D01*
X186118812Y-38749500D01*
X185957247Y-38773853D01*
X185859385Y-38788604D01*
X185859382Y-38788605D01*
X185859376Y-38788606D01*
X185608673Y-38865938D01*
X185372303Y-38979767D01*
X185372302Y-38979768D01*
X185155520Y-39127567D01*
X184963198Y-39306014D01*
X184799614Y-39511143D01*
X184668432Y-39738356D01*
X184572582Y-39982578D01*
X184572576Y-39982597D01*
X184514197Y-40238374D01*
X184514196Y-40238379D01*
X184494592Y-40499995D01*
X184494592Y-40500004D01*
X184514196Y-40761620D01*
X184514197Y-40761625D01*
X184572576Y-41017402D01*
X184572582Y-41017421D01*
X184668056Y-41260686D01*
X184674225Y-41330283D01*
X184641787Y-41392166D01*
X184581042Y-41426689D01*
X184511275Y-41422890D01*
X184498827Y-41417708D01*
X184391325Y-41365938D01*
X184391327Y-41365938D01*
X184140623Y-41288606D01*
X184140619Y-41288605D01*
X184140615Y-41288604D01*
X184015823Y-41269794D01*
X183881187Y-41249500D01*
X183881182Y-41249500D01*
X183618818Y-41249500D01*
X183618812Y-41249500D01*
X183457247Y-41273853D01*
X183359385Y-41288604D01*
X183359382Y-41288605D01*
X183359376Y-41288606D01*
X183108673Y-41365938D01*
X182872303Y-41479767D01*
X182872302Y-41479768D01*
X182872296Y-41479771D01*
X182872296Y-41479772D01*
X182871654Y-41480210D01*
X182655520Y-41627567D01*
X182463198Y-41806014D01*
X182299614Y-42011143D01*
X182168432Y-42238356D01*
X182072582Y-42482578D01*
X182072576Y-42482597D01*
X182014197Y-42738374D01*
X182014196Y-42738379D01*
X181994592Y-42999995D01*
X118750000Y-42999995D01*
X118750000Y-37424000D01*
X118769685Y-37356961D01*
X118822489Y-37311206D01*
X118874000Y-37300000D01*
X198626000Y-37300000D01*
X198693039Y-37319685D01*
G37*
G04 #@! TD.AperFunction*
M02*
