G04 #@! TF.GenerationSoftware,KiCad,Pcbnew,7.0.5-7.0.5~ubuntu23.04.1*
G04 #@! TF.CreationDate,2023-06-22T20:58:36+02:00*
G04 #@! TF.ProjectId,olimex-ice40-pi-header,6f6c696d-6578-42d6-9963-6534302d7069,rev?*
G04 #@! TF.SameCoordinates,Original*
G04 #@! TF.FileFunction,Paste,Top*
G04 #@! TF.FilePolarity,Positive*
%FSLAX46Y46*%
G04 Gerber Fmt 4.6, Leading zero omitted, Abs format (unit mm)*
G04 Created by KiCad (PCBNEW 7.0.5-7.0.5~ubuntu23.04.1) date 2023-06-22 20:58:36*
%MOMM*%
%LPD*%
G01*
G04 APERTURE LIST*
%ADD10R,2.400000X0.740000*%
G04 APERTURE END LIST*
D10*
X134575000Y-85090000D03*
X138475000Y-85090000D03*
X134575000Y-86360000D03*
X138475000Y-86360000D03*
X134575000Y-87630000D03*
X138475000Y-87630000D03*
X134575000Y-88900000D03*
X138475000Y-88900000D03*
X134575000Y-90170000D03*
X138475000Y-90170000D03*
X134575000Y-91440000D03*
X138475000Y-91440000D03*
X134575000Y-92710000D03*
X138475000Y-92710000D03*
X134575000Y-93980000D03*
X138475000Y-93980000D03*
X134575000Y-95250000D03*
X138475000Y-95250000D03*
X134575000Y-96520000D03*
X138475000Y-96520000D03*
X134575000Y-97790000D03*
X138475000Y-97790000D03*
X134575000Y-99060000D03*
X138475000Y-99060000D03*
X134575000Y-100330000D03*
X138475000Y-100330000D03*
X134575000Y-101600000D03*
X138475000Y-101600000D03*
X134575000Y-102870000D03*
X138475000Y-102870000D03*
X134575000Y-104140000D03*
X138475000Y-104140000D03*
X134575000Y-105410000D03*
X138475000Y-105410000D03*
X134575000Y-106680000D03*
X138475000Y-106680000D03*
X134575000Y-107950000D03*
X138475000Y-107950000D03*
X134575000Y-109220000D03*
X138475000Y-109220000D03*
M02*
