G04 #@! TF.GenerationSoftware,KiCad,Pcbnew,7.0.5-7.0.5~ubuntu23.04.1*
G04 #@! TF.CreationDate,2023-06-22T20:58:36+02:00*
G04 #@! TF.ProjectId,olimex-ice40-pi-header,6f6c696d-6578-42d6-9963-6534302d7069,rev?*
G04 #@! TF.SameCoordinates,Original*
G04 #@! TF.FileFunction,Legend,Bot*
G04 #@! TF.FilePolarity,Positive*
%FSLAX46Y46*%
G04 Gerber Fmt 4.6, Leading zero omitted, Abs format (unit mm)*
G04 Created by KiCad (PCBNEW 7.0.5-7.0.5~ubuntu23.04.1) date 2023-06-22 20:58:36*
%MOMM*%
%LPD*%
G01*
G04 APERTURE LIST*
%ADD10R,1.700000X1.700000*%
%ADD11O,1.700000X1.700000*%
G04 APERTURE END LIST*
%LPC*%
D10*
X144780000Y-73660000D03*
D11*
X147320000Y-73660000D03*
X144780000Y-76200000D03*
X147320000Y-76200000D03*
X144780000Y-78740000D03*
X147320000Y-78740000D03*
X144780000Y-81280000D03*
X147320000Y-81280000D03*
X144780000Y-83820000D03*
X147320000Y-83820000D03*
X144780000Y-86360000D03*
X147320000Y-86360000D03*
X144780000Y-88900000D03*
X147320000Y-88900000D03*
X144780000Y-91440000D03*
X147320000Y-91440000D03*
X144780000Y-93980000D03*
X147320000Y-93980000D03*
X144780000Y-96520000D03*
X147320000Y-96520000D03*
X144780000Y-99060000D03*
X147320000Y-99060000D03*
X144780000Y-101600000D03*
X147320000Y-101600000D03*
X144780000Y-104140000D03*
X147320000Y-104140000D03*
X144780000Y-106680000D03*
X147320000Y-106680000D03*
X144780000Y-109220000D03*
X147320000Y-109220000D03*
X144780000Y-111760000D03*
X147320000Y-111760000D03*
X144780000Y-114300000D03*
X147320000Y-114300000D03*
X144780000Y-116840000D03*
X147320000Y-116840000D03*
X144780000Y-119380000D03*
X147320000Y-119380000D03*
X144780000Y-121920000D03*
X147320000Y-121920000D03*
%LPD*%
M02*
