G04 #@! TF.GenerationSoftware,KiCad,Pcbnew,7.0.5-7.0.5~ubuntu23.04.1*
G04 #@! TF.CreationDate,2023-06-22T20:58:36+02:00*
G04 #@! TF.ProjectId,olimex-ice40-pi-header,6f6c696d-6578-42d6-9963-6534302d7069,rev?*
G04 #@! TF.SameCoordinates,Original*
G04 #@! TF.FileFunction,Legend,Top*
G04 #@! TF.FilePolarity,Positive*
%FSLAX46Y46*%
G04 Gerber Fmt 4.6, Leading zero omitted, Abs format (unit mm)*
G04 Created by KiCad (PCBNEW 7.0.5-7.0.5~ubuntu23.04.1) date 2023-06-22 20:58:36*
%MOMM*%
%LPD*%
G01*
G04 APERTURE LIST*
%ADD10C,0.300000*%
%ADD11C,0.150000*%
%ADD12C,0.120000*%
%ADD13R,2.400000X0.740000*%
%ADD14R,1.700000X1.700000*%
%ADD15O,1.700000X1.700000*%
G04 APERTURE END LIST*
D10*
X133420225Y-83620828D02*
X132563082Y-83620828D01*
X132991653Y-83620828D02*
X132991653Y-82120828D01*
X132991653Y-82120828D02*
X132848796Y-82335114D01*
X132848796Y-82335114D02*
X132705939Y-82477971D01*
X132705939Y-82477971D02*
X132563082Y-82549400D01*
X133269510Y-118670828D02*
X133269510Y-117670828D01*
X133269510Y-117170828D02*
X133198082Y-117242257D01*
X133198082Y-117242257D02*
X133269510Y-117313685D01*
X133269510Y-117313685D02*
X133340939Y-117242257D01*
X133340939Y-117242257D02*
X133269510Y-117170828D01*
X133269510Y-117170828D02*
X133269510Y-117313685D01*
X134840939Y-118527971D02*
X134769511Y-118599400D01*
X134769511Y-118599400D02*
X134555225Y-118670828D01*
X134555225Y-118670828D02*
X134412368Y-118670828D01*
X134412368Y-118670828D02*
X134198082Y-118599400D01*
X134198082Y-118599400D02*
X134055225Y-118456542D01*
X134055225Y-118456542D02*
X133983796Y-118313685D01*
X133983796Y-118313685D02*
X133912368Y-118027971D01*
X133912368Y-118027971D02*
X133912368Y-117813685D01*
X133912368Y-117813685D02*
X133983796Y-117527971D01*
X133983796Y-117527971D02*
X134055225Y-117385114D01*
X134055225Y-117385114D02*
X134198082Y-117242257D01*
X134198082Y-117242257D02*
X134412368Y-117170828D01*
X134412368Y-117170828D02*
X134555225Y-117170828D01*
X134555225Y-117170828D02*
X134769511Y-117242257D01*
X134769511Y-117242257D02*
X134840939Y-117313685D01*
X135483796Y-117885114D02*
X135983796Y-117885114D01*
X136198082Y-118670828D02*
X135483796Y-118670828D01*
X135483796Y-118670828D02*
X135483796Y-117170828D01*
X135483796Y-117170828D02*
X136198082Y-117170828D01*
X137483797Y-117670828D02*
X137483797Y-118670828D01*
X137126654Y-117099400D02*
X136769511Y-118170828D01*
X136769511Y-118170828D02*
X137698082Y-118170828D01*
X138555225Y-117170828D02*
X138698082Y-117170828D01*
X138698082Y-117170828D02*
X138840939Y-117242257D01*
X138840939Y-117242257D02*
X138912368Y-117313685D01*
X138912368Y-117313685D02*
X138983796Y-117456542D01*
X138983796Y-117456542D02*
X139055225Y-117742257D01*
X139055225Y-117742257D02*
X139055225Y-118099400D01*
X139055225Y-118099400D02*
X138983796Y-118385114D01*
X138983796Y-118385114D02*
X138912368Y-118527971D01*
X138912368Y-118527971D02*
X138840939Y-118599400D01*
X138840939Y-118599400D02*
X138698082Y-118670828D01*
X138698082Y-118670828D02*
X138555225Y-118670828D01*
X138555225Y-118670828D02*
X138412368Y-118599400D01*
X138412368Y-118599400D02*
X138340939Y-118527971D01*
X138340939Y-118527971D02*
X138269510Y-118385114D01*
X138269510Y-118385114D02*
X138198082Y-118099400D01*
X138198082Y-118099400D02*
X138198082Y-117742257D01*
X138198082Y-117742257D02*
X138269510Y-117456542D01*
X138269510Y-117456542D02*
X138340939Y-117313685D01*
X138340939Y-117313685D02*
X138412368Y-117242257D01*
X138412368Y-117242257D02*
X138555225Y-117170828D01*
X133269510Y-121085828D02*
X133269510Y-119585828D01*
X133269510Y-119585828D02*
X133626653Y-119585828D01*
X133626653Y-119585828D02*
X133840939Y-119657257D01*
X133840939Y-119657257D02*
X133983796Y-119800114D01*
X133983796Y-119800114D02*
X134055225Y-119942971D01*
X134055225Y-119942971D02*
X134126653Y-120228685D01*
X134126653Y-120228685D02*
X134126653Y-120442971D01*
X134126653Y-120442971D02*
X134055225Y-120728685D01*
X134055225Y-120728685D02*
X133983796Y-120871542D01*
X133983796Y-120871542D02*
X133840939Y-121014400D01*
X133840939Y-121014400D02*
X133626653Y-121085828D01*
X133626653Y-121085828D02*
X133269510Y-121085828D01*
X135340939Y-121014400D02*
X135198082Y-121085828D01*
X135198082Y-121085828D02*
X134912368Y-121085828D01*
X134912368Y-121085828D02*
X134769510Y-121014400D01*
X134769510Y-121014400D02*
X134698082Y-120871542D01*
X134698082Y-120871542D02*
X134698082Y-120300114D01*
X134698082Y-120300114D02*
X134769510Y-120157257D01*
X134769510Y-120157257D02*
X134912368Y-120085828D01*
X134912368Y-120085828D02*
X135198082Y-120085828D01*
X135198082Y-120085828D02*
X135340939Y-120157257D01*
X135340939Y-120157257D02*
X135412368Y-120300114D01*
X135412368Y-120300114D02*
X135412368Y-120442971D01*
X135412368Y-120442971D02*
X134698082Y-120585828D01*
X135912367Y-120085828D02*
X136269510Y-121085828D01*
X136269510Y-121085828D02*
X136626653Y-120085828D01*
X133904510Y-77905828D02*
X133904510Y-76405828D01*
X133904510Y-76405828D02*
X134475939Y-76405828D01*
X134475939Y-76405828D02*
X134618796Y-76477257D01*
X134618796Y-76477257D02*
X134690225Y-76548685D01*
X134690225Y-76548685D02*
X134761653Y-76691542D01*
X134761653Y-76691542D02*
X134761653Y-76905828D01*
X134761653Y-76905828D02*
X134690225Y-77048685D01*
X134690225Y-77048685D02*
X134618796Y-77120114D01*
X134618796Y-77120114D02*
X134475939Y-77191542D01*
X134475939Y-77191542D02*
X133904510Y-77191542D01*
X135404510Y-77905828D02*
X135404510Y-76905828D01*
X135404510Y-76405828D02*
X135333082Y-76477257D01*
X135333082Y-76477257D02*
X135404510Y-76548685D01*
X135404510Y-76548685D02*
X135475939Y-76477257D01*
X135475939Y-76477257D02*
X135404510Y-76405828D01*
X135404510Y-76405828D02*
X135404510Y-76548685D01*
X137261653Y-77120114D02*
X137761653Y-77120114D01*
X137975939Y-77905828D02*
X137261653Y-77905828D01*
X137261653Y-77905828D02*
X137261653Y-76405828D01*
X137261653Y-76405828D02*
X137975939Y-76405828D01*
X138475939Y-76405828D02*
X139475939Y-77905828D01*
X139475939Y-76405828D02*
X138475939Y-77905828D01*
X139833082Y-76405828D02*
X140690225Y-76405828D01*
X140261653Y-77905828D02*
X140261653Y-76405828D01*
X142310225Y-74095828D02*
X141453082Y-74095828D01*
X141881653Y-74095828D02*
X141881653Y-72595828D01*
X141881653Y-72595828D02*
X141738796Y-72810114D01*
X141738796Y-72810114D02*
X141595939Y-72952971D01*
X141595939Y-72952971D02*
X141453082Y-73024400D01*
D11*
X133651666Y-110579819D02*
X133651666Y-111294104D01*
X133651666Y-111294104D02*
X133604047Y-111436961D01*
X133604047Y-111436961D02*
X133508809Y-111532200D01*
X133508809Y-111532200D02*
X133365952Y-111579819D01*
X133365952Y-111579819D02*
X133270714Y-111579819D01*
X134080238Y-110675057D02*
X134127857Y-110627438D01*
X134127857Y-110627438D02*
X134223095Y-110579819D01*
X134223095Y-110579819D02*
X134461190Y-110579819D01*
X134461190Y-110579819D02*
X134556428Y-110627438D01*
X134556428Y-110627438D02*
X134604047Y-110675057D01*
X134604047Y-110675057D02*
X134651666Y-110770295D01*
X134651666Y-110770295D02*
X134651666Y-110865533D01*
X134651666Y-110865533D02*
X134604047Y-111008390D01*
X134604047Y-111008390D02*
X134032619Y-111579819D01*
X134032619Y-111579819D02*
X134651666Y-111579819D01*
X141906666Y-122009819D02*
X141906666Y-122724104D01*
X141906666Y-122724104D02*
X141859047Y-122866961D01*
X141859047Y-122866961D02*
X141763809Y-122962200D01*
X141763809Y-122962200D02*
X141620952Y-123009819D01*
X141620952Y-123009819D02*
X141525714Y-123009819D01*
X142906666Y-123009819D02*
X142335238Y-123009819D01*
X142620952Y-123009819D02*
X142620952Y-122009819D01*
X142620952Y-122009819D02*
X142525714Y-122152676D01*
X142525714Y-122152676D02*
X142430476Y-122247914D01*
X142430476Y-122247914D02*
X142335238Y-122295533D01*
D12*
X133435000Y-84460000D02*
X134760000Y-84460000D01*
X134760000Y-84395000D02*
X134760000Y-84460000D01*
X134760000Y-84395000D02*
X138290000Y-84395000D01*
X134760000Y-109850000D02*
X134760000Y-109915000D01*
X134760000Y-109915000D02*
X138290000Y-109915000D01*
X138290000Y-84395000D02*
X138290000Y-84460000D01*
X138290000Y-109850000D02*
X138290000Y-109915000D01*
X143450000Y-72330000D02*
X144780000Y-72330000D01*
X143450000Y-73660000D02*
X143450000Y-72330000D01*
X143450000Y-74930000D02*
X143450000Y-123250000D01*
X143450000Y-74930000D02*
X146050000Y-74930000D01*
X143450000Y-123250000D02*
X148650000Y-123250000D01*
X146050000Y-72330000D02*
X148650000Y-72330000D01*
X146050000Y-74930000D02*
X146050000Y-72330000D01*
X148650000Y-72330000D02*
X148650000Y-123250000D01*
%LPC*%
D13*
X134575000Y-85090000D03*
X138475000Y-85090000D03*
X134575000Y-86360000D03*
X138475000Y-86360000D03*
X134575000Y-87630000D03*
X138475000Y-87630000D03*
X134575000Y-88900000D03*
X138475000Y-88900000D03*
X134575000Y-90170000D03*
X138475000Y-90170000D03*
X134575000Y-91440000D03*
X138475000Y-91440000D03*
X134575000Y-92710000D03*
X138475000Y-92710000D03*
X134575000Y-93980000D03*
X138475000Y-93980000D03*
X134575000Y-95250000D03*
X138475000Y-95250000D03*
X134575000Y-96520000D03*
X138475000Y-96520000D03*
X134575000Y-97790000D03*
X138475000Y-97790000D03*
X134575000Y-99060000D03*
X138475000Y-99060000D03*
X134575000Y-100330000D03*
X138475000Y-100330000D03*
X134575000Y-101600000D03*
X138475000Y-101600000D03*
X134575000Y-102870000D03*
X138475000Y-102870000D03*
X134575000Y-104140000D03*
X138475000Y-104140000D03*
X134575000Y-105410000D03*
X138475000Y-105410000D03*
X134575000Y-106680000D03*
X138475000Y-106680000D03*
X134575000Y-107950000D03*
X138475000Y-107950000D03*
X134575000Y-109220000D03*
X138475000Y-109220000D03*
D14*
X144780000Y-73660000D03*
D15*
X147320000Y-73660000D03*
X144780000Y-76200000D03*
X147320000Y-76200000D03*
X144780000Y-78740000D03*
X147320000Y-78740000D03*
X144780000Y-81280000D03*
X147320000Y-81280000D03*
X144780000Y-83820000D03*
X147320000Y-83820000D03*
X144780000Y-86360000D03*
X147320000Y-86360000D03*
X144780000Y-88900000D03*
X147320000Y-88900000D03*
X144780000Y-91440000D03*
X147320000Y-91440000D03*
X144780000Y-93980000D03*
X147320000Y-93980000D03*
X144780000Y-96520000D03*
X147320000Y-96520000D03*
X144780000Y-99060000D03*
X147320000Y-99060000D03*
X144780000Y-101600000D03*
X147320000Y-101600000D03*
X144780000Y-104140000D03*
X147320000Y-104140000D03*
X144780000Y-106680000D03*
X147320000Y-106680000D03*
X144780000Y-109220000D03*
X147320000Y-109220000D03*
X144780000Y-111760000D03*
X147320000Y-111760000D03*
X144780000Y-114300000D03*
X147320000Y-114300000D03*
X144780000Y-116840000D03*
X147320000Y-116840000D03*
X144780000Y-119380000D03*
X147320000Y-119380000D03*
X144780000Y-121920000D03*
X147320000Y-121920000D03*
%LPD*%
M02*
