M48
; DRILL file {KiCad 7.0.5-7.0.5~ubuntu23.04.1} date Thu 22 Jun 2023 20:58:55 CEST
; FORMAT={-:-/ absolute / metric / decimal}
; #@! TF.CreationDate,2023-06-22T20:58:55+02:00
; #@! TF.GenerationSoftware,Kicad,Pcbnew,7.0.5-7.0.5~ubuntu23.04.1
; #@! TF.FileFunction,Plated,1,2,PTH
FMAT,2
METRIC
; #@! TA.AperFunction,Plated,PTH,ViaDrill
T1C0.400
; #@! TA.AperFunction,Plated,PTH,ComponentDrill
T2C1.000
%
G90
G05
T1
X134.635Y-83.835
X136.525Y-90.17
X136.525Y-91.44
X136.525Y-92.71
X136.525Y-93.98
X136.525Y-95.25
X136.525Y-96.52
X136.525Y-97.79
X136.525Y-99.06
X136.525Y-100.33
X136.525Y-101.6
X136.525Y-102.87
X136.525Y-104.14
X136.525Y-105.41
X138.43Y-83.82
X140.335Y-92.164
X140.335Y-93.614
X140.335Y-95.063
X140.335Y-96.513
X140.335Y-99.784
X140.392Y-90.227
X141.059Y-112.24
X141.41Y-101.16
X141.605Y-97.962
X141.67Y-102.125
X146.05Y-105.41
X146.05Y-107.95
X146.05Y-113.03
X147.968Y-100.356
T2
X144.78Y-73.66
X144.78Y-76.2
X144.78Y-78.74
X144.78Y-81.28
X144.78Y-83.82
X144.78Y-86.36
X144.78Y-88.9
X144.78Y-91.44
X144.78Y-93.98
X144.78Y-96.52
X144.78Y-99.06
X144.78Y-101.6
X144.78Y-104.14
X144.78Y-106.68
X144.78Y-109.22
X144.78Y-111.76
X144.78Y-114.3
X144.78Y-116.84
X144.78Y-119.38
X144.78Y-121.92
X147.32Y-73.66
X147.32Y-76.2
X147.32Y-78.74
X147.32Y-81.28
X147.32Y-83.82
X147.32Y-86.36
X147.32Y-88.9
X147.32Y-91.44
X147.32Y-93.98
X147.32Y-96.52
X147.32Y-99.06
X147.32Y-101.6
X147.32Y-104.14
X147.32Y-106.68
X147.32Y-109.22
X147.32Y-111.76
X147.32Y-114.3
X147.32Y-116.84
X147.32Y-119.38
X147.32Y-121.92
T0
M30
