%TF.GenerationSoftware,KiCad,Pcbnew,7.0.5-7.0.5~ubuntu23.04.1*%
%TF.CreationDate,2023-06-22T20:58:57+02:00*%
%TF.ProjectId,olimex-ice40-pi-header,6f6c696d-6578-42d6-9963-6534302d7069,rev?*%
%TF.SameCoordinates,Original*%
%TF.FileFunction,Drillmap*%
%TF.FilePolarity,Positive*%
%FSLAX45Y45*%
G04 Gerber Fmt 4.5, Leading zero omitted, Abs format (unit mm)*
G04 Created by KiCad (PCBNEW 7.0.5-7.0.5~ubuntu23.04.1) date 2023-06-22 20:58:57*
%MOMM*%
%LPD*%
G01*
G04 APERTURE LIST*
%ADD10C,0.100000*%
%ADD11C,0.200000*%
G04 APERTURE END LIST*
D10*
X13081000Y-7048500D02*
X15049500Y-7048500D01*
X15049500Y-12509500D01*
X13081000Y-12509500D01*
X13081000Y-7048500D01*
D11*
X13336777Y-12825984D02*
X13336777Y-12625984D01*
X13336777Y-12625984D02*
X13384396Y-12625984D01*
X13384396Y-12625984D02*
X13412967Y-12635508D01*
X13412967Y-12635508D02*
X13432015Y-12654555D01*
X13432015Y-12654555D02*
X13441539Y-12673603D01*
X13441539Y-12673603D02*
X13451062Y-12711698D01*
X13451062Y-12711698D02*
X13451062Y-12740269D01*
X13451062Y-12740269D02*
X13441539Y-12778365D01*
X13441539Y-12778365D02*
X13432015Y-12797412D01*
X13432015Y-12797412D02*
X13412967Y-12816460D01*
X13412967Y-12816460D02*
X13384396Y-12825984D01*
X13384396Y-12825984D02*
X13336777Y-12825984D01*
X13536777Y-12825984D02*
X13536777Y-12692650D01*
X13536777Y-12730746D02*
X13546301Y-12711698D01*
X13546301Y-12711698D02*
X13555824Y-12702174D01*
X13555824Y-12702174D02*
X13574872Y-12692650D01*
X13574872Y-12692650D02*
X13593920Y-12692650D01*
X13660586Y-12825984D02*
X13660586Y-12692650D01*
X13660586Y-12625984D02*
X13651062Y-12635508D01*
X13651062Y-12635508D02*
X13660586Y-12645031D01*
X13660586Y-12645031D02*
X13670110Y-12635508D01*
X13670110Y-12635508D02*
X13660586Y-12625984D01*
X13660586Y-12625984D02*
X13660586Y-12645031D01*
X13784396Y-12825984D02*
X13765348Y-12816460D01*
X13765348Y-12816460D02*
X13755824Y-12797412D01*
X13755824Y-12797412D02*
X13755824Y-12625984D01*
X13889158Y-12825984D02*
X13870110Y-12816460D01*
X13870110Y-12816460D02*
X13860586Y-12797412D01*
X13860586Y-12797412D02*
X13860586Y-12625984D01*
X14117729Y-12825984D02*
X14117729Y-12625984D01*
X14117729Y-12625984D02*
X14184396Y-12768841D01*
X14184396Y-12768841D02*
X14251062Y-12625984D01*
X14251062Y-12625984D02*
X14251062Y-12825984D01*
X14432015Y-12825984D02*
X14432015Y-12721222D01*
X14432015Y-12721222D02*
X14422491Y-12702174D01*
X14422491Y-12702174D02*
X14403443Y-12692650D01*
X14403443Y-12692650D02*
X14365348Y-12692650D01*
X14365348Y-12692650D02*
X14346301Y-12702174D01*
X14432015Y-12816460D02*
X14412967Y-12825984D01*
X14412967Y-12825984D02*
X14365348Y-12825984D01*
X14365348Y-12825984D02*
X14346301Y-12816460D01*
X14346301Y-12816460D02*
X14336777Y-12797412D01*
X14336777Y-12797412D02*
X14336777Y-12778365D01*
X14336777Y-12778365D02*
X14346301Y-12759317D01*
X14346301Y-12759317D02*
X14365348Y-12749793D01*
X14365348Y-12749793D02*
X14412967Y-12749793D01*
X14412967Y-12749793D02*
X14432015Y-12740269D01*
X14527253Y-12692650D02*
X14527253Y-12892650D01*
X14527253Y-12702174D02*
X14546301Y-12692650D01*
X14546301Y-12692650D02*
X14584396Y-12692650D01*
X14584396Y-12692650D02*
X14603443Y-12702174D01*
X14603443Y-12702174D02*
X14612967Y-12711698D01*
X14612967Y-12711698D02*
X14622491Y-12730746D01*
X14622491Y-12730746D02*
X14622491Y-12787888D01*
X14622491Y-12787888D02*
X14612967Y-12806936D01*
X14612967Y-12806936D02*
X14603443Y-12816460D01*
X14603443Y-12816460D02*
X14584396Y-12825984D01*
X14584396Y-12825984D02*
X14546301Y-12825984D01*
X14546301Y-12825984D02*
X14527253Y-12816460D01*
X14708205Y-12806936D02*
X14717729Y-12816460D01*
X14717729Y-12816460D02*
X14708205Y-12825984D01*
X14708205Y-12825984D02*
X14698682Y-12816460D01*
X14698682Y-12816460D02*
X14708205Y-12806936D01*
X14708205Y-12806936D02*
X14708205Y-12825984D01*
X14708205Y-12702174D02*
X14717729Y-12711698D01*
X14717729Y-12711698D02*
X14708205Y-12721222D01*
X14708205Y-12721222D02*
X14698682Y-12711698D01*
X14698682Y-12711698D02*
X14708205Y-12702174D01*
X14708205Y-12702174D02*
X14708205Y-12721222D01*
M02*
