G04 #@! TF.GenerationSoftware,KiCad,Pcbnew,7.0.5-7.0.5~ubuntu23.04.1*
G04 #@! TF.CreationDate,2023-06-22T20:58:36+02:00*
G04 #@! TF.ProjectId,olimex-ice40-pi-header,6f6c696d-6578-42d6-9963-6534302d7069,rev?*
G04 #@! TF.SameCoordinates,Original*
G04 #@! TF.FileFunction,Copper,L1,Top*
G04 #@! TF.FilePolarity,Positive*
%FSLAX46Y46*%
G04 Gerber Fmt 4.6, Leading zero omitted, Abs format (unit mm)*
G04 Created by KiCad (PCBNEW 7.0.5-7.0.5~ubuntu23.04.1) date 2023-06-22 20:58:36*
%MOMM*%
%LPD*%
G01*
G04 APERTURE LIST*
G04 #@! TA.AperFunction,SMDPad,CuDef*
%ADD10R,2.400000X0.740000*%
G04 #@! TD*
G04 #@! TA.AperFunction,ComponentPad*
%ADD11R,1.700000X1.700000*%
G04 #@! TD*
G04 #@! TA.AperFunction,ComponentPad*
%ADD12O,1.700000X1.700000*%
G04 #@! TD*
G04 #@! TA.AperFunction,ViaPad*
%ADD13C,0.800000*%
G04 #@! TD*
G04 #@! TA.AperFunction,Conductor*
%ADD14C,0.250000*%
G04 #@! TD*
G04 APERTURE END LIST*
D10*
X134575000Y-85090000D03*
X138475000Y-85090000D03*
X134575000Y-86360000D03*
X138475000Y-86360000D03*
X134575000Y-87630000D03*
X138475000Y-87630000D03*
X134575000Y-88900000D03*
X138475000Y-88900000D03*
X134575000Y-90170000D03*
X138475000Y-90170000D03*
X134575000Y-91440000D03*
X138475000Y-91440000D03*
X134575000Y-92710000D03*
X138475000Y-92710000D03*
X134575000Y-93980000D03*
X138475000Y-93980000D03*
X134575000Y-95250000D03*
X138475000Y-95250000D03*
X134575000Y-96520000D03*
X138475000Y-96520000D03*
X134575000Y-97790000D03*
X138475000Y-97790000D03*
X134575000Y-99060000D03*
X138475000Y-99060000D03*
X134575000Y-100330000D03*
X138475000Y-100330000D03*
X134575000Y-101600000D03*
X138475000Y-101600000D03*
X134575000Y-102870000D03*
X138475000Y-102870000D03*
X134575000Y-104140000D03*
X138475000Y-104140000D03*
X134575000Y-105410000D03*
X138475000Y-105410000D03*
X134575000Y-106680000D03*
X138475000Y-106680000D03*
X134575000Y-107950000D03*
X138475000Y-107950000D03*
X134575000Y-109220000D03*
X138475000Y-109220000D03*
D11*
X144780000Y-73660000D03*
D12*
X147320000Y-73660000D03*
X144780000Y-76200000D03*
X147320000Y-76200000D03*
X144780000Y-78740000D03*
X147320000Y-78740000D03*
X144780000Y-81280000D03*
X147320000Y-81280000D03*
X144780000Y-83820000D03*
X147320000Y-83820000D03*
X144780000Y-86360000D03*
X147320000Y-86360000D03*
X144780000Y-88900000D03*
X147320000Y-88900000D03*
X144780000Y-91440000D03*
X147320000Y-91440000D03*
X144780000Y-93980000D03*
X147320000Y-93980000D03*
X144780000Y-96520000D03*
X147320000Y-96520000D03*
X144780000Y-99060000D03*
X147320000Y-99060000D03*
X144780000Y-101600000D03*
X147320000Y-101600000D03*
X144780000Y-104140000D03*
X147320000Y-104140000D03*
X144780000Y-106680000D03*
X147320000Y-106680000D03*
X144780000Y-109220000D03*
X147320000Y-109220000D03*
X144780000Y-111760000D03*
X147320000Y-111760000D03*
X144780000Y-114300000D03*
X147320000Y-114300000D03*
X144780000Y-116840000D03*
X147320000Y-116840000D03*
X144780000Y-119380000D03*
X147320000Y-119380000D03*
X144780000Y-121920000D03*
X147320000Y-121920000D03*
D13*
X136525000Y-90170000D03*
X134634799Y-83834799D03*
X138430000Y-83820000D03*
X140392299Y-90227299D03*
X136525000Y-91440000D03*
X140335000Y-92164500D03*
X136525000Y-92710000D03*
X136525000Y-93980000D03*
X140335000Y-93614000D03*
X140335000Y-95063500D03*
X136525000Y-95250000D03*
X136525000Y-96520000D03*
X140335000Y-96513000D03*
X141605000Y-97962500D03*
X136525000Y-97790000D03*
X147968237Y-100356474D03*
X136525000Y-99060000D03*
X136525000Y-100330000D03*
X140335000Y-99784500D03*
X146050000Y-105410000D03*
X141409503Y-101160497D03*
X136525000Y-101600000D03*
X141669893Y-102125485D03*
X146050000Y-107950000D03*
X136525000Y-102870000D03*
X146050000Y-113030000D03*
X136525000Y-104140000D03*
X141059030Y-112240026D03*
X136525000Y-105410000D03*
D14*
X132715000Y-88265000D02*
X133350000Y-88900000D01*
X143508604Y-78738604D02*
X139698604Y-82548604D01*
X134896396Y-82548604D02*
X132715000Y-84730000D01*
X133350000Y-88900000D02*
X134575000Y-88900000D01*
X132715000Y-84730000D02*
X132715000Y-88265000D01*
X143508604Y-77471396D02*
X143508604Y-78738604D01*
X139698604Y-82548604D02*
X134896396Y-82548604D01*
X144780000Y-76200000D02*
X143508604Y-77471396D01*
X135374598Y-83095000D02*
X139788604Y-83095000D01*
X134634799Y-83834799D02*
X135374598Y-83095000D01*
X136525000Y-90170000D02*
X134575000Y-90170000D01*
X139788604Y-83095000D02*
X144143604Y-78740000D01*
X144143604Y-78740000D02*
X144780000Y-78740000D01*
X138475000Y-86360000D02*
X138475000Y-85090000D01*
X136525000Y-88265000D02*
X136525000Y-85725000D01*
X137160000Y-88900000D02*
X136525000Y-88265000D01*
X137160000Y-85090000D02*
X138475000Y-85090000D01*
X138475000Y-83865000D02*
X138430000Y-83820000D01*
X138475000Y-88900000D02*
X137160000Y-88900000D01*
X136525000Y-85725000D02*
X137160000Y-85090000D01*
X138475000Y-85090000D02*
X138475000Y-83865000D01*
X142240000Y-81280000D02*
X140335000Y-83185000D01*
X144780000Y-81280000D02*
X142240000Y-81280000D01*
X139425000Y-90170000D02*
X138475000Y-90170000D01*
X140335000Y-83185000D02*
X140335000Y-89260000D01*
X140335000Y-89260000D02*
X139425000Y-90170000D01*
X146049302Y-82550698D02*
X141605698Y-82550698D01*
X140785000Y-83371396D02*
X140785000Y-84455000D01*
X147320000Y-81280000D02*
X146049302Y-82550698D01*
X141605698Y-82550698D02*
X140785000Y-83371396D01*
X136525000Y-91440000D02*
X134575000Y-91440000D01*
X140785000Y-89834598D02*
X140392299Y-90227299D01*
X140785000Y-84455000D02*
X140785000Y-89834598D01*
X141235000Y-90540000D02*
X140335000Y-91440000D01*
X140335000Y-91440000D02*
X138475000Y-91440000D01*
X141510000Y-85185000D02*
X141235000Y-85460000D01*
X145955000Y-85185000D02*
X141510000Y-85185000D01*
X141235000Y-85460000D02*
X141235000Y-90540000D01*
X147320000Y-83820000D02*
X145955000Y-85185000D01*
X141685000Y-86995000D02*
X141685000Y-90814500D01*
X142320000Y-86360000D02*
X141685000Y-86995000D01*
X144780000Y-86360000D02*
X142320000Y-86360000D01*
X136525000Y-92710000D02*
X134575000Y-92710000D01*
X141685000Y-90814500D02*
X140335000Y-92164500D01*
X142135000Y-91389805D02*
X140635305Y-92889500D01*
X138654500Y-92889500D02*
X138475000Y-92710000D01*
X145955000Y-87725000D02*
X142675000Y-87725000D01*
X147320000Y-86360000D02*
X145955000Y-87725000D01*
X142135000Y-88265000D02*
X142135000Y-91389805D01*
X140635305Y-92889500D02*
X138654500Y-92889500D01*
X142675000Y-87725000D02*
X142135000Y-88265000D01*
X144780000Y-88900000D02*
X143220000Y-88900000D01*
X136525000Y-93980000D02*
X134575000Y-93980000D01*
X143220000Y-88900000D02*
X142585000Y-89535000D01*
X142585000Y-89535000D02*
X142585000Y-91576201D01*
X140547201Y-93614000D02*
X140335000Y-93614000D01*
X142585000Y-91576201D02*
X140547201Y-93614000D01*
X141846298Y-92951299D02*
X141846298Y-93462702D01*
X138834000Y-94339000D02*
X138475000Y-93980000D01*
X144780000Y-91440000D02*
X143357597Y-91440000D01*
X140970000Y-94339000D02*
X138834000Y-94339000D01*
X143357597Y-91440000D02*
X141846298Y-92951299D01*
X141846298Y-93462702D02*
X140970000Y-94339000D01*
X142296298Y-93649098D02*
X140881896Y-95063500D01*
X136525000Y-95250000D02*
X134575000Y-95250000D01*
X142296298Y-93288702D02*
X142296298Y-93345000D01*
X140881896Y-95063500D02*
X140335000Y-95063500D01*
X142296298Y-93345000D02*
X142296298Y-93649098D01*
X147320000Y-91440000D02*
X146050000Y-92710000D01*
X142875000Y-92710000D02*
X142296298Y-93288702D01*
X146050000Y-92710000D02*
X142875000Y-92710000D01*
X146050000Y-95250000D02*
X141605000Y-95250000D01*
X147320000Y-93980000D02*
X146050000Y-95250000D01*
X141066500Y-95788500D02*
X139013500Y-95788500D01*
X141605000Y-95250000D02*
X141066500Y-95788500D01*
X139013500Y-95788500D02*
X138475000Y-95250000D01*
X144780000Y-96520000D02*
X140342000Y-96520000D01*
X140342000Y-96520000D02*
X140335000Y-96513000D01*
X136525000Y-96520000D02*
X134575000Y-96520000D01*
X144780000Y-99060000D02*
X142875000Y-97155000D01*
X142875000Y-97155000D02*
X142792000Y-97238000D01*
X140034695Y-97238000D02*
X139316695Y-96520000D01*
X142792000Y-97238000D02*
X140034695Y-97238000D01*
X139316695Y-96520000D02*
X138475000Y-96520000D01*
X136525000Y-97790000D02*
X134575000Y-97790000D01*
X142875000Y-98816701D02*
X142875000Y-98425000D01*
X144293299Y-100235000D02*
X142875000Y-98816701D01*
X142875000Y-98425000D02*
X142240000Y-97790000D01*
X141777500Y-97790000D02*
X141605000Y-97962500D01*
X142240000Y-97790000D02*
X141777500Y-97790000D01*
X146145000Y-100235000D02*
X144293299Y-100235000D01*
X147320000Y-99060000D02*
X146145000Y-100235000D01*
X141605000Y-99060000D02*
X140335000Y-97790000D01*
X140335000Y-97790000D02*
X138475000Y-97790000D01*
X142240000Y-99060000D02*
X141605000Y-99060000D01*
X144780000Y-101600000D02*
X142240000Y-99060000D01*
X147320000Y-101004711D02*
X147968237Y-100356474D01*
X136525000Y-99060000D02*
X134575000Y-99060000D01*
X147320000Y-101600000D02*
X147320000Y-101004711D01*
X141606405Y-99695698D02*
X141604302Y-99695698D01*
X144050000Y-102775000D02*
X145955000Y-102775000D01*
X143510000Y-102235000D02*
X144050000Y-102775000D01*
X145955000Y-102775000D02*
X147320000Y-104140000D01*
X143510000Y-102235000D02*
X143510000Y-101599293D01*
X138475000Y-99060000D02*
X140968604Y-99060000D01*
X143510000Y-101599293D02*
X141606405Y-99695698D01*
X141604302Y-99695698D02*
X140968604Y-99060000D01*
X141709808Y-100435497D02*
X142239302Y-100964991D01*
X142239302Y-100964991D02*
X142239302Y-101600698D01*
X143509302Y-105409302D02*
X144780000Y-106680000D01*
X140335000Y-99784500D02*
X140985997Y-100435497D01*
X143509302Y-102870698D02*
X143509302Y-105409302D01*
X142239302Y-101600698D02*
X143509302Y-102870698D01*
X136525000Y-100330000D02*
X134575000Y-100330000D01*
X140985997Y-100435497D02*
X141709808Y-100435497D01*
X141409503Y-101160497D02*
X140530497Y-101160497D01*
X147320000Y-106680000D02*
X146050000Y-105410000D01*
X139700000Y-100330000D02*
X138475000Y-100330000D01*
X140530497Y-101160497D02*
X139700000Y-100330000D01*
X142875000Y-107315000D02*
X142875000Y-103505000D01*
X136525000Y-101600000D02*
X134575000Y-101600000D01*
X142875000Y-103330592D02*
X141669893Y-102125485D01*
X142875000Y-103505000D02*
X142875000Y-103330592D01*
X144780000Y-109220000D02*
X142875000Y-107315000D01*
X142240000Y-104140000D02*
X140970000Y-102870000D01*
X140119103Y-101600000D02*
X138475000Y-101600000D01*
X142240000Y-109220000D02*
X142240000Y-104140000D01*
X144780000Y-111760000D02*
X142240000Y-109220000D01*
X140970000Y-102870000D02*
X140970000Y-102450897D01*
X140970000Y-102450897D02*
X140119103Y-101600000D01*
X146050000Y-110490000D02*
X146050000Y-107950000D01*
X136525000Y-102870000D02*
X134575000Y-102870000D01*
X147320000Y-111760000D02*
X146050000Y-110490000D01*
X139925000Y-102870000D02*
X138475000Y-102870000D01*
X142875000Y-112395000D02*
X142875000Y-111125000D01*
X141605000Y-109855000D02*
X141605000Y-104550000D01*
X141605000Y-104550000D02*
X139925000Y-102870000D01*
X144780000Y-114300000D02*
X142875000Y-112395000D01*
X142875000Y-111125000D02*
X141605000Y-109855000D01*
X146050000Y-115570000D02*
X146050000Y-113030000D01*
X144780000Y-116840000D02*
X146050000Y-115570000D01*
X136525000Y-104140000D02*
X134575000Y-104140000D01*
X146145000Y-118015000D02*
X144293299Y-118015000D01*
X143325000Y-113481396D02*
X142239302Y-112395698D01*
X143325000Y-117046701D02*
X143325000Y-113481396D01*
X147320000Y-116840000D02*
X146145000Y-118015000D01*
X142239302Y-112395698D02*
X142239302Y-111759302D01*
X140970000Y-104775000D02*
X140335000Y-104140000D01*
X144293299Y-118015000D02*
X143325000Y-117046701D01*
X140335000Y-104140000D02*
X138475000Y-104140000D01*
X140970000Y-110490000D02*
X140970000Y-104775000D01*
X142239302Y-111759302D02*
X140970000Y-110490000D01*
X143511396Y-119380000D02*
X142875000Y-118743604D01*
X142875000Y-114055996D02*
X141059030Y-112240026D01*
X142875000Y-118743604D02*
X142875000Y-114055996D01*
X144780000Y-119380000D02*
X143511396Y-119380000D01*
X136525000Y-105410000D02*
X134575000Y-105410000D01*
X139700000Y-111125000D02*
X140335000Y-110490000D01*
X139700000Y-105410000D02*
X138475000Y-105410000D01*
X142240000Y-118745000D02*
X142240000Y-114935000D01*
X140335000Y-110490000D02*
X140335000Y-106045000D01*
X140335000Y-106045000D02*
X139700000Y-105410000D01*
X139700000Y-112395000D02*
X139700000Y-111125000D01*
X147320000Y-119380000D02*
X146145000Y-120555000D01*
X144050000Y-120555000D02*
X142240000Y-118745000D01*
X146145000Y-120555000D02*
X144050000Y-120555000D01*
X142240000Y-114935000D02*
X139700000Y-112395000D01*
X146145000Y-123095000D02*
X144050000Y-123095000D01*
X139065000Y-110490000D02*
X139005000Y-110490000D01*
X141604302Y-115569302D02*
X139065000Y-113030000D01*
X136525000Y-109490000D02*
X136525000Y-107315000D01*
X138430000Y-109915000D02*
X136950000Y-109915000D01*
X136525000Y-107315000D02*
X135890000Y-106680000D01*
X139065000Y-113030000D02*
X139065000Y-110490000D01*
X136950000Y-109915000D02*
X136525000Y-109490000D01*
X143509302Y-122554302D02*
X143509302Y-120650698D01*
X143509302Y-120650698D02*
X141604302Y-118745698D01*
X135890000Y-106680000D02*
X134575000Y-106680000D01*
X147320000Y-121920000D02*
X146145000Y-123095000D01*
X144050000Y-123095000D02*
X143509302Y-122554302D01*
X139005000Y-110490000D02*
X138430000Y-109915000D01*
X141604302Y-118745698D02*
X141604302Y-115569302D01*
G04 #@! TA.AperFunction,Conductor*
G36*
X139652539Y-83740185D02*
G01*
X139698294Y-83792989D01*
X139709500Y-83844500D01*
X139709500Y-84096000D01*
X139689815Y-84163039D01*
X139637011Y-84208794D01*
X139585500Y-84220000D01*
X138725000Y-84220000D01*
X138725000Y-86486000D01*
X138705315Y-86553039D01*
X138652511Y-86598794D01*
X138601000Y-86610000D01*
X136775000Y-86610000D01*
X136775000Y-86777844D01*
X136781401Y-86837372D01*
X136781403Y-86837379D01*
X136823763Y-86950952D01*
X136828747Y-87020644D01*
X136823763Y-87037618D01*
X136780908Y-87152517D01*
X136774501Y-87212116D01*
X136774501Y-87212123D01*
X136774500Y-87212135D01*
X136774500Y-88047870D01*
X136774501Y-88047876D01*
X136780908Y-88107483D01*
X136823763Y-88222381D01*
X136828747Y-88292073D01*
X136823763Y-88309047D01*
X136781403Y-88422620D01*
X136781401Y-88422627D01*
X136775000Y-88482155D01*
X136775000Y-88650000D01*
X138601000Y-88650000D01*
X138668039Y-88669685D01*
X138713794Y-88722489D01*
X138725000Y-88774000D01*
X138725000Y-89026000D01*
X138705315Y-89093039D01*
X138652511Y-89138794D01*
X138601000Y-89150000D01*
X136775000Y-89150000D01*
X136774748Y-89150251D01*
X136755315Y-89216433D01*
X136702511Y-89262188D01*
X136633353Y-89272132D01*
X136625227Y-89270686D01*
X136619646Y-89269500D01*
X136430354Y-89269500D01*
X136430351Y-89269500D01*
X136425273Y-89270579D01*
X136355606Y-89265258D01*
X136299875Y-89223118D01*
X136275774Y-89157537D01*
X136275499Y-89149287D01*
X136275499Y-88482129D01*
X136275498Y-88482123D01*
X136274264Y-88470647D01*
X136269091Y-88422517D01*
X136268820Y-88421791D01*
X136226503Y-88308332D01*
X136221519Y-88238640D01*
X136226499Y-88221676D01*
X136269091Y-88107483D01*
X136275500Y-88047873D01*
X136275499Y-87212128D01*
X136269091Y-87152517D01*
X136266803Y-87146383D01*
X136226503Y-87038333D01*
X136221519Y-86968642D01*
X136226503Y-86951667D01*
X136269091Y-86837482D01*
X136269103Y-86837372D01*
X136275500Y-86777873D01*
X136275499Y-85942128D01*
X136269091Y-85882517D01*
X136261375Y-85861830D01*
X136226503Y-85768333D01*
X136221519Y-85698642D01*
X136226503Y-85681667D01*
X136269091Y-85567482D01*
X136269103Y-85567372D01*
X136275500Y-85507873D01*
X136275500Y-85340000D01*
X136775000Y-85340000D01*
X136775000Y-85507844D01*
X136781401Y-85567372D01*
X136781403Y-85567380D01*
X136824029Y-85681667D01*
X136829013Y-85751359D01*
X136824029Y-85768333D01*
X136781403Y-85882619D01*
X136781401Y-85882627D01*
X136775000Y-85942155D01*
X136775000Y-86110000D01*
X138225000Y-86110000D01*
X138225000Y-85340000D01*
X136775000Y-85340000D01*
X136275500Y-85340000D01*
X136275499Y-84840000D01*
X136775000Y-84840000D01*
X138225000Y-84840000D01*
X138225000Y-84220000D01*
X137227155Y-84220000D01*
X137167627Y-84226401D01*
X137167620Y-84226403D01*
X137032913Y-84276645D01*
X137032906Y-84276649D01*
X136917812Y-84362809D01*
X136917809Y-84362812D01*
X136831649Y-84477906D01*
X136831645Y-84477913D01*
X136781403Y-84612620D01*
X136781401Y-84612627D01*
X136775000Y-84672155D01*
X136775000Y-84840000D01*
X136275499Y-84840000D01*
X136275499Y-84672128D01*
X136269091Y-84612517D01*
X136249777Y-84560734D01*
X136218797Y-84477671D01*
X136218793Y-84477664D01*
X136132547Y-84362455D01*
X136132544Y-84362452D01*
X136017335Y-84276206D01*
X136017328Y-84276202D01*
X135882482Y-84225908D01*
X135882483Y-84225908D01*
X135822883Y-84219501D01*
X135822881Y-84219500D01*
X135822873Y-84219500D01*
X135822865Y-84219500D01*
X135627315Y-84219500D01*
X135560276Y-84199815D01*
X135514521Y-84147011D01*
X135504577Y-84077853D01*
X135509382Y-84057188D01*
X135520473Y-84023055D01*
X135538120Y-83855143D01*
X135564703Y-83790533D01*
X135573750Y-83780437D01*
X135597372Y-83756815D01*
X135658698Y-83723333D01*
X135685051Y-83720500D01*
X139585500Y-83720500D01*
X139652539Y-83740185D01*
G37*
G04 #@! TD.AperFunction*
G04 #@! TA.AperFunction,Conductor*
G36*
X143463048Y-83195883D02*
G01*
X143508803Y-83248687D01*
X143518747Y-83317845D01*
X143508389Y-83352607D01*
X143506569Y-83356508D01*
X143506567Y-83356513D01*
X143449364Y-83569999D01*
X143449364Y-83570000D01*
X144346314Y-83570000D01*
X144320507Y-83610156D01*
X144280000Y-83748111D01*
X144280000Y-83891889D01*
X144320507Y-84029844D01*
X144346314Y-84070000D01*
X143449364Y-84070000D01*
X143506567Y-84283486D01*
X143506571Y-84283497D01*
X143553015Y-84383096D01*
X143563507Y-84452173D01*
X143534987Y-84515957D01*
X143476510Y-84554196D01*
X143440633Y-84559500D01*
X141592743Y-84559500D01*
X141577122Y-84557775D01*
X141577095Y-84558061D01*
X141569333Y-84557326D01*
X141538394Y-84558299D01*
X141470769Y-84540729D01*
X141423379Y-84489388D01*
X141410500Y-84434360D01*
X141410500Y-83681848D01*
X141430185Y-83614809D01*
X141446819Y-83594167D01*
X141828470Y-83212517D01*
X141889793Y-83179032D01*
X141916151Y-83176198D01*
X143396009Y-83176198D01*
X143463048Y-83195883D01*
G37*
G04 #@! TD.AperFunction*
G04 #@! TA.AperFunction,Conductor*
G36*
X150437539Y-70505185D02*
G01*
X150483294Y-70557989D01*
X150494500Y-70609500D01*
X150494500Y-124970500D01*
X150474815Y-125037539D01*
X150422011Y-125083294D01*
X150370500Y-125094500D01*
X130934500Y-125094500D01*
X130867461Y-125074815D01*
X130821706Y-125022011D01*
X130810500Y-124970500D01*
X130810500Y-84710195D01*
X132084840Y-84710195D01*
X132089225Y-84756583D01*
X132089500Y-84762421D01*
X132089500Y-88182255D01*
X132087775Y-88197872D01*
X132088061Y-88197899D01*
X132087326Y-88205666D01*
X132089469Y-88273846D01*
X132089500Y-88275793D01*
X132089500Y-88304343D01*
X132089501Y-88304360D01*
X132090368Y-88311231D01*
X132090826Y-88317050D01*
X132092290Y-88363624D01*
X132092291Y-88363627D01*
X132097880Y-88382867D01*
X132101824Y-88401911D01*
X132104336Y-88421792D01*
X132113048Y-88443796D01*
X132121490Y-88465119D01*
X132123382Y-88470647D01*
X132136381Y-88515388D01*
X132146580Y-88532634D01*
X132155138Y-88550103D01*
X132162514Y-88568732D01*
X132189898Y-88606423D01*
X132193106Y-88611307D01*
X132216827Y-88651416D01*
X132216833Y-88651424D01*
X132230990Y-88665580D01*
X132243628Y-88680376D01*
X132255405Y-88696586D01*
X132255406Y-88696587D01*
X132291309Y-88726288D01*
X132295620Y-88730210D01*
X132591410Y-89026000D01*
X132842509Y-89277099D01*
X132875994Y-89338422D01*
X132878117Y-89351524D01*
X132880907Y-89377480D01*
X132923496Y-89491667D01*
X132928480Y-89561359D01*
X132923496Y-89578333D01*
X132880908Y-89692516D01*
X132874501Y-89752116D01*
X132874500Y-89752135D01*
X132874500Y-90587870D01*
X132874501Y-90587876D01*
X132880908Y-90647481D01*
X132880909Y-90647483D01*
X132923497Y-90761668D01*
X132928481Y-90831357D01*
X132923497Y-90848332D01*
X132880908Y-90962517D01*
X132874501Y-91022116D01*
X132874500Y-91022135D01*
X132874500Y-91857870D01*
X132874501Y-91857876D01*
X132880908Y-91917483D01*
X132923496Y-92031666D01*
X132928480Y-92101358D01*
X132923496Y-92118331D01*
X132880909Y-92232514D01*
X132880908Y-92232516D01*
X132874501Y-92292116D01*
X132874500Y-92292135D01*
X132874500Y-93127870D01*
X132874501Y-93127876D01*
X132880908Y-93187483D01*
X132923496Y-93301667D01*
X132928480Y-93371359D01*
X132923496Y-93388333D01*
X132880908Y-93502516D01*
X132874501Y-93562116D01*
X132874500Y-93562135D01*
X132874500Y-94397870D01*
X132874501Y-94397876D01*
X132880908Y-94457481D01*
X132880909Y-94457483D01*
X132923497Y-94571668D01*
X132928481Y-94641357D01*
X132923497Y-94658332D01*
X132880908Y-94772517D01*
X132874501Y-94832116D01*
X132874500Y-94832135D01*
X132874500Y-95667870D01*
X132874501Y-95667876D01*
X132880908Y-95727483D01*
X132923496Y-95841667D01*
X132928480Y-95911359D01*
X132923496Y-95928333D01*
X132880908Y-96042516D01*
X132874501Y-96102116D01*
X132874500Y-96102135D01*
X132874500Y-96937870D01*
X132874501Y-96937876D01*
X132880908Y-96997483D01*
X132923496Y-97111667D01*
X132928480Y-97181359D01*
X132923496Y-97198333D01*
X132880908Y-97312516D01*
X132874501Y-97372116D01*
X132874500Y-97372135D01*
X132874500Y-98207870D01*
X132874501Y-98207876D01*
X132880908Y-98267481D01*
X132880909Y-98267483D01*
X132923497Y-98381668D01*
X132928481Y-98451357D01*
X132923497Y-98468332D01*
X132880908Y-98582517D01*
X132874501Y-98642116D01*
X132874500Y-98642135D01*
X132874500Y-99477870D01*
X132874501Y-99477876D01*
X132880908Y-99537483D01*
X132923496Y-99651667D01*
X132928480Y-99721359D01*
X132923496Y-99738333D01*
X132880908Y-99852516D01*
X132874501Y-99912116D01*
X132874500Y-99912135D01*
X132874500Y-100747870D01*
X132874501Y-100747876D01*
X132880908Y-100807483D01*
X132923496Y-100921666D01*
X132928480Y-100991358D01*
X132923496Y-101008331D01*
X132880909Y-101122514D01*
X132880908Y-101122516D01*
X132874501Y-101182116D01*
X132874500Y-101182135D01*
X132874500Y-102017870D01*
X132874501Y-102017876D01*
X132880908Y-102077481D01*
X132880909Y-102077483D01*
X132923497Y-102191668D01*
X132928481Y-102261357D01*
X132923497Y-102278332D01*
X132880908Y-102392517D01*
X132874501Y-102452116D01*
X132874500Y-102452135D01*
X132874500Y-103287870D01*
X132874501Y-103287876D01*
X132880908Y-103347483D01*
X132923496Y-103461667D01*
X132928480Y-103531359D01*
X132923496Y-103548333D01*
X132880908Y-103662516D01*
X132874501Y-103722116D01*
X132874500Y-103722135D01*
X132874500Y-104557870D01*
X132874501Y-104557876D01*
X132880908Y-104617483D01*
X132923496Y-104731666D01*
X132928480Y-104801358D01*
X132923496Y-104818331D01*
X132880909Y-104932514D01*
X132880908Y-104932516D01*
X132874501Y-104992116D01*
X132874500Y-104992135D01*
X132874500Y-105827870D01*
X132874501Y-105827876D01*
X132880908Y-105887483D01*
X132923496Y-106001667D01*
X132928480Y-106071359D01*
X132923496Y-106088333D01*
X132880908Y-106202516D01*
X132874501Y-106262116D01*
X132874500Y-106262135D01*
X132874500Y-107097870D01*
X132874501Y-107097876D01*
X132880908Y-107157483D01*
X132923496Y-107271667D01*
X132928480Y-107341359D01*
X132923496Y-107358333D01*
X132880908Y-107472516D01*
X132874501Y-107532116D01*
X132874500Y-107532135D01*
X132874500Y-108367870D01*
X132874501Y-108367876D01*
X132880908Y-108427483D01*
X132923496Y-108541666D01*
X132928480Y-108611358D01*
X132923496Y-108628331D01*
X132880909Y-108742514D01*
X132880908Y-108742516D01*
X132874501Y-108802116D01*
X132874500Y-108802135D01*
X132874500Y-109637870D01*
X132874501Y-109637876D01*
X132880908Y-109697483D01*
X132931202Y-109832328D01*
X132931206Y-109832335D01*
X133017452Y-109947544D01*
X133017455Y-109947547D01*
X133132664Y-110033793D01*
X133132671Y-110033797D01*
X133267517Y-110084091D01*
X133267516Y-110084091D01*
X133274444Y-110084835D01*
X133327127Y-110090500D01*
X135822872Y-110090499D01*
X135882483Y-110084091D01*
X136017329Y-110033797D01*
X136017329Y-110033796D01*
X136017331Y-110033796D01*
X136026748Y-110026745D01*
X136092211Y-110002328D01*
X136160485Y-110017179D01*
X136188741Y-110038331D01*
X136449194Y-110298784D01*
X136459019Y-110311048D01*
X136459240Y-110310866D01*
X136464210Y-110316874D01*
X136513949Y-110363582D01*
X136515316Y-110364906D01*
X136535530Y-110385120D01*
X136541004Y-110389366D01*
X136545442Y-110393156D01*
X136579418Y-110425062D01*
X136596973Y-110434713D01*
X136613231Y-110445392D01*
X136629064Y-110457674D01*
X136651015Y-110467172D01*
X136671837Y-110476183D01*
X136677081Y-110478752D01*
X136717908Y-110501197D01*
X136737312Y-110506179D01*
X136755710Y-110512478D01*
X136774105Y-110520438D01*
X136820129Y-110527726D01*
X136825832Y-110528907D01*
X136870981Y-110540500D01*
X136891016Y-110540500D01*
X136910413Y-110542026D01*
X136930196Y-110545160D01*
X136976583Y-110540775D01*
X136982422Y-110540500D01*
X138119548Y-110540500D01*
X138186587Y-110560185D01*
X138207229Y-110576819D01*
X138403181Y-110772771D01*
X138436666Y-110834094D01*
X138439500Y-110860452D01*
X138439500Y-112947255D01*
X138437775Y-112962872D01*
X138438061Y-112962899D01*
X138437326Y-112970666D01*
X138439469Y-113038846D01*
X138439500Y-113040793D01*
X138439500Y-113069343D01*
X138439501Y-113069360D01*
X138440368Y-113076231D01*
X138440826Y-113082050D01*
X138442290Y-113128624D01*
X138442291Y-113128627D01*
X138447880Y-113147867D01*
X138451824Y-113166911D01*
X138454336Y-113186791D01*
X138471490Y-113230119D01*
X138473382Y-113235647D01*
X138486381Y-113280388D01*
X138496580Y-113297634D01*
X138505138Y-113315103D01*
X138512514Y-113333732D01*
X138539898Y-113371423D01*
X138543106Y-113376307D01*
X138566827Y-113416416D01*
X138566833Y-113416424D01*
X138580990Y-113430580D01*
X138593628Y-113445376D01*
X138605405Y-113461586D01*
X138605406Y-113461587D01*
X138641309Y-113491288D01*
X138645620Y-113495210D01*
X139875362Y-114724952D01*
X140942483Y-115792073D01*
X140975968Y-115853396D01*
X140978802Y-115879754D01*
X140978802Y-118662953D01*
X140977077Y-118678570D01*
X140977363Y-118678597D01*
X140976628Y-118686364D01*
X140978771Y-118754544D01*
X140978802Y-118756491D01*
X140978802Y-118785041D01*
X140978803Y-118785058D01*
X140979670Y-118791929D01*
X140980128Y-118797748D01*
X140981592Y-118844322D01*
X140981593Y-118844325D01*
X140987182Y-118863565D01*
X140991126Y-118882609D01*
X140993638Y-118902490D01*
X140999123Y-118916344D01*
X141010792Y-118945817D01*
X141012684Y-118951345D01*
X141025683Y-118996086D01*
X141035882Y-119013332D01*
X141044440Y-119030801D01*
X141051816Y-119049430D01*
X141079200Y-119087121D01*
X141082408Y-119092005D01*
X141106129Y-119132114D01*
X141106135Y-119132122D01*
X141120292Y-119146278D01*
X141132930Y-119161074D01*
X141144707Y-119177284D01*
X141144708Y-119177285D01*
X141180611Y-119206986D01*
X141184922Y-119210908D01*
X142031844Y-120057830D01*
X142847483Y-120873469D01*
X142880968Y-120934792D01*
X142883802Y-120961150D01*
X142883802Y-122471557D01*
X142882077Y-122487174D01*
X142882363Y-122487201D01*
X142881628Y-122494968D01*
X142883771Y-122563148D01*
X142883802Y-122565095D01*
X142883802Y-122593645D01*
X142883803Y-122593662D01*
X142884670Y-122600533D01*
X142885128Y-122606352D01*
X142886592Y-122652926D01*
X142886593Y-122652929D01*
X142892182Y-122672169D01*
X142896126Y-122691213D01*
X142898638Y-122711093D01*
X142915792Y-122754421D01*
X142917684Y-122759949D01*
X142930683Y-122804690D01*
X142940882Y-122821936D01*
X142949440Y-122839405D01*
X142956816Y-122858034D01*
X142984200Y-122895725D01*
X142987408Y-122900609D01*
X143011129Y-122940718D01*
X143011135Y-122940726D01*
X143025292Y-122954882D01*
X143037930Y-122969678D01*
X143049707Y-122985888D01*
X143049708Y-122985889D01*
X143085611Y-123015590D01*
X143089922Y-123019512D01*
X143539987Y-123469578D01*
X143549197Y-123478788D01*
X143559022Y-123491051D01*
X143559243Y-123490869D01*
X143564211Y-123496874D01*
X143613932Y-123543566D01*
X143615332Y-123544923D01*
X143635523Y-123565115D01*
X143635527Y-123565118D01*
X143635529Y-123565120D01*
X143641011Y-123569373D01*
X143645443Y-123573157D01*
X143679418Y-123605062D01*
X143696976Y-123614714D01*
X143713235Y-123625395D01*
X143729064Y-123637673D01*
X143771838Y-123656182D01*
X143777056Y-123658738D01*
X143817908Y-123681197D01*
X143837316Y-123686180D01*
X143855717Y-123692480D01*
X143874104Y-123700437D01*
X143917488Y-123707308D01*
X143920119Y-123707725D01*
X143925839Y-123708909D01*
X143970981Y-123720500D01*
X143991016Y-123720500D01*
X144010414Y-123722026D01*
X144030194Y-123725159D01*
X144030195Y-123725160D01*
X144030195Y-123725159D01*
X144030196Y-123725160D01*
X144076583Y-123720775D01*
X144082422Y-123720500D01*
X146062257Y-123720500D01*
X146077877Y-123722224D01*
X146077904Y-123721939D01*
X146085666Y-123722673D01*
X146085666Y-123722672D01*
X146085667Y-123722673D01*
X146088999Y-123722568D01*
X146153847Y-123720531D01*
X146155794Y-123720500D01*
X146184347Y-123720500D01*
X146184350Y-123720500D01*
X146191228Y-123719630D01*
X146197041Y-123719172D01*
X146243627Y-123717709D01*
X146262869Y-123712117D01*
X146281912Y-123708174D01*
X146301792Y-123705664D01*
X146345122Y-123688507D01*
X146350646Y-123686617D01*
X146354396Y-123685527D01*
X146395390Y-123673618D01*
X146412629Y-123663422D01*
X146430103Y-123654862D01*
X146448727Y-123647488D01*
X146448727Y-123647487D01*
X146448732Y-123647486D01*
X146486449Y-123620082D01*
X146491305Y-123616892D01*
X146531420Y-123593170D01*
X146545589Y-123578999D01*
X146560379Y-123566368D01*
X146576587Y-123554594D01*
X146606299Y-123518676D01*
X146610212Y-123514376D01*
X146864353Y-123260235D01*
X146925674Y-123226752D01*
X146984125Y-123228143D01*
X147018780Y-123237428D01*
X147084592Y-123255063D01*
X147272918Y-123271539D01*
X147319999Y-123275659D01*
X147320000Y-123275659D01*
X147320001Y-123275659D01*
X147359234Y-123272226D01*
X147555408Y-123255063D01*
X147783663Y-123193903D01*
X147997830Y-123094035D01*
X148191401Y-122958495D01*
X148358495Y-122791401D01*
X148494035Y-122597830D01*
X148593903Y-122383663D01*
X148655063Y-122155408D01*
X148675659Y-121920000D01*
X148655063Y-121684592D01*
X148593903Y-121456337D01*
X148494035Y-121242171D01*
X148452375Y-121182673D01*
X148358494Y-121048597D01*
X148191402Y-120881506D01*
X148191401Y-120881505D01*
X148069746Y-120796321D01*
X148005841Y-120751574D01*
X147962216Y-120696997D01*
X147955024Y-120627498D01*
X147986546Y-120565144D01*
X148005836Y-120548428D01*
X148191401Y-120418495D01*
X148358495Y-120251401D01*
X148494035Y-120057830D01*
X148593903Y-119843663D01*
X148655063Y-119615408D01*
X148675659Y-119380000D01*
X148655063Y-119144592D01*
X148593903Y-118916337D01*
X148494035Y-118702171D01*
X148477529Y-118678597D01*
X148358494Y-118508597D01*
X148191402Y-118341506D01*
X148191396Y-118341501D01*
X148005842Y-118211575D01*
X147962217Y-118156998D01*
X147955023Y-118087500D01*
X147986546Y-118025145D01*
X148005842Y-118008425D01*
X148028026Y-117992891D01*
X148191401Y-117878495D01*
X148358495Y-117711401D01*
X148494035Y-117517830D01*
X148593903Y-117303663D01*
X148655063Y-117075408D01*
X148675659Y-116840000D01*
X148655063Y-116604592D01*
X148593903Y-116376337D01*
X148494035Y-116162171D01*
X148358495Y-115968599D01*
X148358494Y-115968597D01*
X148191402Y-115801506D01*
X148191401Y-115801505D01*
X148005405Y-115671269D01*
X147961781Y-115616692D01*
X147954588Y-115547193D01*
X147986110Y-115484839D01*
X148005405Y-115468119D01*
X148191082Y-115338105D01*
X148358105Y-115171082D01*
X148493600Y-114977578D01*
X148593429Y-114763492D01*
X148593432Y-114763486D01*
X148650636Y-114550000D01*
X147753686Y-114550000D01*
X147779493Y-114509844D01*
X147820000Y-114371889D01*
X147820000Y-114228111D01*
X147779493Y-114090156D01*
X147753686Y-114050000D01*
X148650636Y-114050000D01*
X148650635Y-114049999D01*
X148593432Y-113836513D01*
X148593429Y-113836507D01*
X148493600Y-113622422D01*
X148493599Y-113622420D01*
X148358113Y-113428926D01*
X148358108Y-113428920D01*
X148191078Y-113261890D01*
X148005405Y-113131879D01*
X147961780Y-113077302D01*
X147954588Y-113007804D01*
X147986110Y-112945449D01*
X148005406Y-112928730D01*
X148191401Y-112798495D01*
X148358495Y-112631401D01*
X148494035Y-112437830D01*
X148593903Y-112223663D01*
X148655063Y-111995408D01*
X148675659Y-111760000D01*
X148655063Y-111524592D01*
X148593903Y-111296337D01*
X148494035Y-111082171D01*
X148476474Y-111057090D01*
X148358494Y-110888597D01*
X148191402Y-110721506D01*
X148191401Y-110721505D01*
X148005405Y-110591269D01*
X147961781Y-110536692D01*
X147954588Y-110467193D01*
X147986110Y-110404839D01*
X148005405Y-110388119D01*
X148191082Y-110258105D01*
X148358105Y-110091082D01*
X148493600Y-109897578D01*
X148593429Y-109683492D01*
X148593432Y-109683486D01*
X148650636Y-109470000D01*
X147753686Y-109470000D01*
X147779493Y-109429844D01*
X147820000Y-109291889D01*
X147820000Y-109148111D01*
X147779493Y-109010156D01*
X147753686Y-108970000D01*
X148650636Y-108970000D01*
X148650635Y-108969999D01*
X148593432Y-108756513D01*
X148593429Y-108756507D01*
X148493600Y-108542422D01*
X148493599Y-108542420D01*
X148358113Y-108348926D01*
X148358108Y-108348920D01*
X148191078Y-108181890D01*
X148005405Y-108051879D01*
X147961780Y-107997302D01*
X147954588Y-107927804D01*
X147986110Y-107865449D01*
X148005406Y-107848730D01*
X148191401Y-107718495D01*
X148358495Y-107551401D01*
X148494035Y-107357830D01*
X148593903Y-107143663D01*
X148655063Y-106915408D01*
X148675659Y-106680000D01*
X148655063Y-106444592D01*
X148593903Y-106216337D01*
X148494035Y-106002171D01*
X148358495Y-105808599D01*
X148358494Y-105808597D01*
X148191402Y-105641506D01*
X148191401Y-105641505D01*
X148069746Y-105556321D01*
X148005841Y-105511574D01*
X147962216Y-105456997D01*
X147955024Y-105387498D01*
X147986546Y-105325144D01*
X148005836Y-105308428D01*
X148191401Y-105178495D01*
X148358495Y-105011401D01*
X148494035Y-104817830D01*
X148593903Y-104603663D01*
X148655063Y-104375408D01*
X148675659Y-104140000D01*
X148655063Y-103904592D01*
X148593903Y-103676337D01*
X148494035Y-103462171D01*
X148358495Y-103268599D01*
X148358494Y-103268597D01*
X148191402Y-103101506D01*
X148191396Y-103101501D01*
X148005842Y-102971575D01*
X147962217Y-102916998D01*
X147955023Y-102847500D01*
X147986546Y-102785145D01*
X148005842Y-102768425D01*
X148028026Y-102752891D01*
X148191401Y-102638495D01*
X148358495Y-102471401D01*
X148494035Y-102277830D01*
X148593903Y-102063663D01*
X148655063Y-101835408D01*
X148675659Y-101600000D01*
X148655063Y-101364592D01*
X148593903Y-101136337D01*
X148588970Y-101125759D01*
X148578479Y-101056684D01*
X148606998Y-100992900D01*
X148609169Y-100990422D01*
X148700770Y-100888690D01*
X148795416Y-100724758D01*
X148853911Y-100544730D01*
X148873697Y-100356474D01*
X148853911Y-100168218D01*
X148795416Y-99988190D01*
X148700770Y-99824258D01*
X148604797Y-99717669D01*
X148592937Y-99704497D01*
X148562707Y-99641505D01*
X148571332Y-99572170D01*
X148572706Y-99569119D01*
X148593903Y-99523663D01*
X148655063Y-99295408D01*
X148675659Y-99060000D01*
X148655063Y-98824592D01*
X148593903Y-98596337D01*
X148494035Y-98382171D01*
X148488425Y-98374158D01*
X148358494Y-98188597D01*
X148191402Y-98021506D01*
X148191401Y-98021505D01*
X148005405Y-97891269D01*
X147961781Y-97836692D01*
X147954588Y-97767193D01*
X147986110Y-97704839D01*
X148005405Y-97688119D01*
X148191082Y-97558105D01*
X148358105Y-97391082D01*
X148493600Y-97197578D01*
X148593429Y-96983492D01*
X148593432Y-96983486D01*
X148650636Y-96770000D01*
X147753686Y-96770000D01*
X147779493Y-96729844D01*
X147820000Y-96591889D01*
X147820000Y-96448111D01*
X147779493Y-96310156D01*
X147753686Y-96270000D01*
X148650636Y-96270000D01*
X148650635Y-96269999D01*
X148593432Y-96056513D01*
X148593429Y-96056507D01*
X148493600Y-95842422D01*
X148493599Y-95842420D01*
X148358113Y-95648926D01*
X148358108Y-95648920D01*
X148191078Y-95481890D01*
X148005405Y-95351879D01*
X147961780Y-95297302D01*
X147954588Y-95227804D01*
X147986110Y-95165449D01*
X148005406Y-95148730D01*
X148191401Y-95018495D01*
X148358495Y-94851401D01*
X148494035Y-94657830D01*
X148593903Y-94443663D01*
X148655063Y-94215408D01*
X148675659Y-93980000D01*
X148655063Y-93744592D01*
X148593903Y-93516337D01*
X148494035Y-93302171D01*
X148358495Y-93108599D01*
X148358494Y-93108597D01*
X148191402Y-92941506D01*
X148191396Y-92941501D01*
X148005842Y-92811575D01*
X147962217Y-92756998D01*
X147955023Y-92687500D01*
X147986546Y-92625145D01*
X148005842Y-92608425D01*
X148028026Y-92592891D01*
X148191401Y-92478495D01*
X148358495Y-92311401D01*
X148494035Y-92117830D01*
X148593903Y-91903663D01*
X148655063Y-91675408D01*
X148675659Y-91440000D01*
X148655063Y-91204592D01*
X148593903Y-90976337D01*
X148494035Y-90762171D01*
X148493652Y-90761623D01*
X148358494Y-90568597D01*
X148191402Y-90401506D01*
X148191401Y-90401505D01*
X148005842Y-90271575D01*
X148005405Y-90271269D01*
X147961781Y-90216692D01*
X147954588Y-90147193D01*
X147986110Y-90084839D01*
X148005405Y-90068119D01*
X148191082Y-89938105D01*
X148358105Y-89771082D01*
X148493600Y-89577578D01*
X148593429Y-89363492D01*
X148593432Y-89363486D01*
X148650636Y-89150000D01*
X147753686Y-89150000D01*
X147779493Y-89109844D01*
X147820000Y-88971889D01*
X147820000Y-88828111D01*
X147779493Y-88690156D01*
X147753686Y-88650000D01*
X148650636Y-88650000D01*
X148650635Y-88649999D01*
X148593432Y-88436513D01*
X148593429Y-88436507D01*
X148493600Y-88222422D01*
X148493599Y-88222420D01*
X148358113Y-88028926D01*
X148358108Y-88028920D01*
X148191078Y-87861890D01*
X148005405Y-87731879D01*
X147961780Y-87677302D01*
X147954588Y-87607804D01*
X147986110Y-87545449D01*
X148005406Y-87528730D01*
X148191401Y-87398495D01*
X148358495Y-87231401D01*
X148494035Y-87037830D01*
X148593903Y-86823663D01*
X148655063Y-86595408D01*
X148675659Y-86360000D01*
X148655063Y-86124592D01*
X148593903Y-85896337D01*
X148494035Y-85682171D01*
X148413730Y-85567482D01*
X148358494Y-85488597D01*
X148191402Y-85321506D01*
X148191401Y-85321505D01*
X148069746Y-85236321D01*
X148005841Y-85191574D01*
X147962216Y-85136997D01*
X147955024Y-85067498D01*
X147986546Y-85005144D01*
X148005836Y-84988428D01*
X148191401Y-84858495D01*
X148358495Y-84691401D01*
X148494035Y-84497830D01*
X148593903Y-84283663D01*
X148655063Y-84055408D01*
X148675659Y-83820000D01*
X148675301Y-83815913D01*
X148668676Y-83740185D01*
X148655063Y-83584592D01*
X148593903Y-83356337D01*
X148494035Y-83142171D01*
X148358495Y-82948599D01*
X148358494Y-82948597D01*
X148191402Y-82781506D01*
X148191396Y-82781501D01*
X148005842Y-82651575D01*
X147962217Y-82596998D01*
X147955023Y-82527500D01*
X147986546Y-82465145D01*
X148005842Y-82448425D01*
X148028026Y-82432891D01*
X148191401Y-82318495D01*
X148358495Y-82151401D01*
X148494035Y-81957830D01*
X148593903Y-81743663D01*
X148655063Y-81515408D01*
X148675659Y-81280000D01*
X148655063Y-81044592D01*
X148593903Y-80816337D01*
X148494035Y-80602171D01*
X148493652Y-80601623D01*
X148358494Y-80408597D01*
X148191402Y-80241506D01*
X148191401Y-80241505D01*
X148005842Y-80111575D01*
X148005405Y-80111269D01*
X147961781Y-80056692D01*
X147954588Y-79987193D01*
X147986110Y-79924839D01*
X148005405Y-79908119D01*
X148191082Y-79778105D01*
X148358105Y-79611082D01*
X148493600Y-79417578D01*
X148593429Y-79203492D01*
X148593432Y-79203486D01*
X148650636Y-78990000D01*
X147753686Y-78990000D01*
X147779493Y-78949844D01*
X147820000Y-78811889D01*
X147820000Y-78668111D01*
X147779493Y-78530156D01*
X147753686Y-78490000D01*
X148650636Y-78490000D01*
X148650635Y-78489999D01*
X148593432Y-78276513D01*
X148593429Y-78276507D01*
X148493600Y-78062422D01*
X148493599Y-78062420D01*
X148358113Y-77868926D01*
X148358108Y-77868920D01*
X148191078Y-77701890D01*
X148005405Y-77571879D01*
X147961780Y-77517302D01*
X147954588Y-77447804D01*
X147986110Y-77385449D01*
X148005406Y-77368730D01*
X148109992Y-77295498D01*
X148191401Y-77238495D01*
X148358495Y-77071401D01*
X148494035Y-76877830D01*
X148593903Y-76663663D01*
X148655063Y-76435408D01*
X148675659Y-76200000D01*
X148655063Y-75964592D01*
X148593903Y-75736337D01*
X148494035Y-75522171D01*
X148488425Y-75514158D01*
X148358494Y-75328597D01*
X148191402Y-75161506D01*
X148191401Y-75161505D01*
X148068800Y-75075659D01*
X148005841Y-75031574D01*
X147962216Y-74976997D01*
X147955024Y-74907498D01*
X147986546Y-74845144D01*
X148005836Y-74828428D01*
X148191401Y-74698495D01*
X148358495Y-74531401D01*
X148494035Y-74337830D01*
X148593903Y-74123663D01*
X148655063Y-73895408D01*
X148675659Y-73660000D01*
X148655063Y-73424592D01*
X148593903Y-73196337D01*
X148494035Y-72982171D01*
X148358495Y-72788599D01*
X148358494Y-72788597D01*
X148191402Y-72621506D01*
X148191395Y-72621501D01*
X147997834Y-72485967D01*
X147997830Y-72485965D01*
X147997828Y-72485964D01*
X147783663Y-72386097D01*
X147783659Y-72386096D01*
X147783655Y-72386094D01*
X147555413Y-72324938D01*
X147555403Y-72324936D01*
X147320001Y-72304341D01*
X147319999Y-72304341D01*
X147084596Y-72324936D01*
X147084586Y-72324938D01*
X146856344Y-72386094D01*
X146856335Y-72386098D01*
X146642171Y-72485964D01*
X146642169Y-72485965D01*
X146448600Y-72621503D01*
X146326673Y-72743430D01*
X146265350Y-72776914D01*
X146195658Y-72771930D01*
X146139725Y-72730058D01*
X146122810Y-72699081D01*
X146073797Y-72567671D01*
X146073793Y-72567664D01*
X145987547Y-72452455D01*
X145987544Y-72452452D01*
X145872335Y-72366206D01*
X145872328Y-72366202D01*
X145737482Y-72315908D01*
X145737483Y-72315908D01*
X145677883Y-72309501D01*
X145677881Y-72309500D01*
X145677873Y-72309500D01*
X145677864Y-72309500D01*
X143882129Y-72309500D01*
X143882123Y-72309501D01*
X143822516Y-72315908D01*
X143687671Y-72366202D01*
X143687664Y-72366206D01*
X143572455Y-72452452D01*
X143572452Y-72452455D01*
X143486206Y-72567664D01*
X143486202Y-72567671D01*
X143435908Y-72702517D01*
X143429501Y-72762116D01*
X143429500Y-72762135D01*
X143429500Y-74557870D01*
X143429501Y-74557876D01*
X143435908Y-74617483D01*
X143486202Y-74752328D01*
X143486206Y-74752335D01*
X143572452Y-74867544D01*
X143572455Y-74867547D01*
X143687664Y-74953793D01*
X143687671Y-74953797D01*
X143819081Y-75002810D01*
X143875015Y-75044681D01*
X143899432Y-75110145D01*
X143884580Y-75178418D01*
X143863430Y-75206673D01*
X143741503Y-75328600D01*
X143605965Y-75522169D01*
X143605964Y-75522171D01*
X143506098Y-75736335D01*
X143506094Y-75736344D01*
X143444938Y-75964586D01*
X143444936Y-75964596D01*
X143424341Y-76199999D01*
X143424341Y-76200000D01*
X143444937Y-76435408D01*
X143471855Y-76535873D01*
X143470192Y-76605723D01*
X143439761Y-76655646D01*
X143124812Y-76970595D01*
X143112555Y-76980416D01*
X143112738Y-76980637D01*
X143106726Y-76985610D01*
X143060036Y-77035328D01*
X143058683Y-77036725D01*
X143038493Y-77056915D01*
X143038481Y-77056928D01*
X143034225Y-77062413D01*
X143030441Y-77066843D01*
X142998541Y-77100814D01*
X142998540Y-77100816D01*
X142988888Y-77118372D01*
X142978214Y-77134622D01*
X142965933Y-77150457D01*
X142965928Y-77150464D01*
X142947419Y-77193234D01*
X142944849Y-77198480D01*
X142922407Y-77239302D01*
X142917426Y-77258703D01*
X142911125Y-77277106D01*
X142903166Y-77295498D01*
X142903165Y-77295501D01*
X142895875Y-77341523D01*
X142894691Y-77347242D01*
X142883105Y-77392368D01*
X142883104Y-77392378D01*
X142883104Y-77412412D01*
X142881577Y-77431811D01*
X142878444Y-77451590D01*
X142878444Y-77451591D01*
X142882829Y-77497979D01*
X142883104Y-77503817D01*
X142883104Y-78428151D01*
X142863419Y-78495190D01*
X142846785Y-78515832D01*
X139475832Y-81886785D01*
X139414509Y-81920270D01*
X139388151Y-81923104D01*
X134979139Y-81923104D01*
X134963518Y-81921379D01*
X134963492Y-81921665D01*
X134955729Y-81920930D01*
X134887549Y-81923073D01*
X134885602Y-81923104D01*
X134857045Y-81923104D01*
X134850162Y-81923973D01*
X134844345Y-81924430D01*
X134797769Y-81925894D01*
X134778525Y-81931485D01*
X134759475Y-81935429D01*
X134739607Y-81937938D01*
X134696280Y-81955092D01*
X134690754Y-81956983D01*
X134646010Y-81969983D01*
X134646006Y-81969985D01*
X134628762Y-81980183D01*
X134611301Y-81988737D01*
X134592670Y-81996114D01*
X134592658Y-81996121D01*
X134554966Y-82023506D01*
X134550083Y-82026713D01*
X134509976Y-82050433D01*
X134495810Y-82064599D01*
X134481020Y-82077231D01*
X134464810Y-82089008D01*
X134464807Y-82089011D01*
X134435106Y-82124913D01*
X134431173Y-82129235D01*
X132331208Y-84229199D01*
X132318951Y-84239020D01*
X132319134Y-84239241D01*
X132313122Y-84244214D01*
X132266432Y-84293932D01*
X132265079Y-84295329D01*
X132244889Y-84315519D01*
X132244877Y-84315532D01*
X132240621Y-84321017D01*
X132236837Y-84325447D01*
X132204937Y-84359418D01*
X132204936Y-84359420D01*
X132195284Y-84376976D01*
X132184610Y-84393226D01*
X132172329Y-84409061D01*
X132172324Y-84409068D01*
X132153815Y-84451838D01*
X132151245Y-84457084D01*
X132128803Y-84497906D01*
X132123822Y-84517307D01*
X132117521Y-84535710D01*
X132109562Y-84554102D01*
X132109561Y-84554105D01*
X132102271Y-84600127D01*
X132101087Y-84605846D01*
X132089501Y-84650972D01*
X132089500Y-84650982D01*
X132089500Y-84671016D01*
X132087973Y-84690415D01*
X132084840Y-84710194D01*
X132084840Y-84710195D01*
X130810500Y-84710195D01*
X130810500Y-70609500D01*
X130830185Y-70542461D01*
X130882989Y-70496706D01*
X130934500Y-70485500D01*
X150370500Y-70485500D01*
X150437539Y-70505185D01*
G37*
G04 #@! TD.AperFunction*
M02*
