%TF.GenerationSoftware,KiCad,Pcbnew,7.0.5-7.0.5~ubuntu23.04.1*%
%TF.CreationDate,2023-06-22T20:58:57+02:00*%
%TF.ProjectId,olimex-ice40-pi-header,6f6c696d-6578-42d6-9963-6534302d7069,rev?*%
%TF.SameCoordinates,Original*%
%TF.FileFunction,Drillmap*%
%TF.FilePolarity,Positive*%
%FSLAX45Y45*%
G04 Gerber Fmt 4.5, Leading zero omitted, Abs format (unit mm)*
G04 Created by KiCad (PCBNEW 7.0.5-7.0.5~ubuntu23.04.1) date 2023-06-22 20:58:57*
%MOMM*%
%LPD*%
G01*
G04 APERTURE LIST*
%ADD10C,0.100000*%
%ADD11C,0.200000*%
%ADD12C,0.040000*%
G04 APERTURE END LIST*
D10*
X13081000Y-7048500D02*
X15049500Y-7048500D01*
X15049500Y-12509500D01*
X13081000Y-12509500D01*
X13081000Y-7048500D01*
D11*
D12*
X13443480Y-8363480D02*
X13483480Y-8403480D01*
X13483480Y-8363480D02*
X13443480Y-8403480D01*
X13632500Y-8997000D02*
X13672500Y-9037000D01*
X13672500Y-8997000D02*
X13632500Y-9037000D01*
X13632500Y-9124000D02*
X13672500Y-9164000D01*
X13672500Y-9124000D02*
X13632500Y-9164000D01*
X13632500Y-9251000D02*
X13672500Y-9291000D01*
X13672500Y-9251000D02*
X13632500Y-9291000D01*
X13632500Y-9378000D02*
X13672500Y-9418000D01*
X13672500Y-9378000D02*
X13632500Y-9418000D01*
X13632500Y-9505000D02*
X13672500Y-9545000D01*
X13672500Y-9505000D02*
X13632500Y-9545000D01*
X13632500Y-9632000D02*
X13672500Y-9672000D01*
X13672500Y-9632000D02*
X13632500Y-9672000D01*
X13632500Y-9759000D02*
X13672500Y-9799000D01*
X13672500Y-9759000D02*
X13632500Y-9799000D01*
X13632500Y-9886000D02*
X13672500Y-9926000D01*
X13672500Y-9886000D02*
X13632500Y-9926000D01*
X13632500Y-10013000D02*
X13672500Y-10053000D01*
X13672500Y-10013000D02*
X13632500Y-10053000D01*
X13632500Y-10140000D02*
X13672500Y-10180000D01*
X13672500Y-10140000D02*
X13632500Y-10180000D01*
X13632500Y-10267000D02*
X13672500Y-10307000D01*
X13672500Y-10267000D02*
X13632500Y-10307000D01*
X13632500Y-10394000D02*
X13672500Y-10434000D01*
X13672500Y-10394000D02*
X13632500Y-10434000D01*
X13632500Y-10521000D02*
X13672500Y-10561000D01*
X13672500Y-10521000D02*
X13632500Y-10561000D01*
X13823000Y-8362000D02*
X13863000Y-8402000D01*
X13863000Y-8362000D02*
X13823000Y-8402000D01*
X14013500Y-9196450D02*
X14053500Y-9236450D01*
X14053500Y-9196450D02*
X14013500Y-9236450D01*
X14013500Y-9341400D02*
X14053500Y-9381400D01*
X14053500Y-9341400D02*
X14013500Y-9381400D01*
X14013500Y-9486350D02*
X14053500Y-9526350D01*
X14053500Y-9486350D02*
X14013500Y-9526350D01*
X14013500Y-9631300D02*
X14053500Y-9671300D01*
X14053500Y-9631300D02*
X14013500Y-9671300D01*
X14013500Y-9958450D02*
X14053500Y-9998450D01*
X14053500Y-9958450D02*
X14013500Y-9998450D01*
X14019230Y-9002730D02*
X14059230Y-9042730D01*
X14059230Y-9002730D02*
X14019230Y-9042730D01*
X14085903Y-11204003D02*
X14125903Y-11244003D01*
X14125903Y-11204003D02*
X14085903Y-11244003D01*
X14120950Y-10096050D02*
X14160950Y-10136050D01*
X14160950Y-10096050D02*
X14120950Y-10136050D01*
X14140500Y-9776250D02*
X14180500Y-9816250D01*
X14180500Y-9776250D02*
X14140500Y-9816250D01*
X14146989Y-10192549D02*
X14186989Y-10232549D01*
X14186989Y-10192549D02*
X14146989Y-10232549D01*
X14585000Y-10521000D02*
X14625000Y-10561000D01*
X14625000Y-10521000D02*
X14585000Y-10561000D01*
X14585000Y-10775000D02*
X14625000Y-10815000D01*
X14625000Y-10775000D02*
X14585000Y-10815000D01*
X14585000Y-11283000D02*
X14625000Y-11323000D01*
X14625000Y-11283000D02*
X14585000Y-11323000D01*
X14776824Y-10015647D02*
X14816824Y-10055647D01*
X14816824Y-10015647D02*
X14776824Y-10055647D01*
D10*
X14528000Y-7366000D02*
G75*
G03*
X14528000Y-7366000I-50000J0D01*
G01*
X14528000Y-7620000D02*
G75*
G03*
X14528000Y-7620000I-50000J0D01*
G01*
X14528000Y-7874000D02*
G75*
G03*
X14528000Y-7874000I-50000J0D01*
G01*
X14528000Y-8128000D02*
G75*
G03*
X14528000Y-8128000I-50000J0D01*
G01*
X14528000Y-8382000D02*
G75*
G03*
X14528000Y-8382000I-50000J0D01*
G01*
X14528000Y-8636000D02*
G75*
G03*
X14528000Y-8636000I-50000J0D01*
G01*
X14528000Y-8890000D02*
G75*
G03*
X14528000Y-8890000I-50000J0D01*
G01*
X14528000Y-9144000D02*
G75*
G03*
X14528000Y-9144000I-50000J0D01*
G01*
X14528000Y-9398000D02*
G75*
G03*
X14528000Y-9398000I-50000J0D01*
G01*
X14528000Y-9652000D02*
G75*
G03*
X14528000Y-9652000I-50000J0D01*
G01*
X14528000Y-9906000D02*
G75*
G03*
X14528000Y-9906000I-50000J0D01*
G01*
X14528000Y-10160000D02*
G75*
G03*
X14528000Y-10160000I-50000J0D01*
G01*
X14528000Y-10414000D02*
G75*
G03*
X14528000Y-10414000I-50000J0D01*
G01*
X14528000Y-10668000D02*
G75*
G03*
X14528000Y-10668000I-50000J0D01*
G01*
X14528000Y-10922000D02*
G75*
G03*
X14528000Y-10922000I-50000J0D01*
G01*
X14528000Y-11176000D02*
G75*
G03*
X14528000Y-11176000I-50000J0D01*
G01*
X14528000Y-11430000D02*
G75*
G03*
X14528000Y-11430000I-50000J0D01*
G01*
X14528000Y-11684000D02*
G75*
G03*
X14528000Y-11684000I-50000J0D01*
G01*
X14528000Y-11938000D02*
G75*
G03*
X14528000Y-11938000I-50000J0D01*
G01*
X14528000Y-12192000D02*
G75*
G03*
X14528000Y-12192000I-50000J0D01*
G01*
X14782000Y-7366000D02*
G75*
G03*
X14782000Y-7366000I-50000J0D01*
G01*
X14782000Y-7620000D02*
G75*
G03*
X14782000Y-7620000I-50000J0D01*
G01*
X14782000Y-7874000D02*
G75*
G03*
X14782000Y-7874000I-50000J0D01*
G01*
X14782000Y-8128000D02*
G75*
G03*
X14782000Y-8128000I-50000J0D01*
G01*
X14782000Y-8382000D02*
G75*
G03*
X14782000Y-8382000I-50000J0D01*
G01*
X14782000Y-8636000D02*
G75*
G03*
X14782000Y-8636000I-50000J0D01*
G01*
X14782000Y-8890000D02*
G75*
G03*
X14782000Y-8890000I-50000J0D01*
G01*
X14782000Y-9144000D02*
G75*
G03*
X14782000Y-9144000I-50000J0D01*
G01*
X14782000Y-9398000D02*
G75*
G03*
X14782000Y-9398000I-50000J0D01*
G01*
X14782000Y-9652000D02*
G75*
G03*
X14782000Y-9652000I-50000J0D01*
G01*
X14782000Y-9906000D02*
G75*
G03*
X14782000Y-9906000I-50000J0D01*
G01*
X14782000Y-10160000D02*
G75*
G03*
X14782000Y-10160000I-50000J0D01*
G01*
X14782000Y-10414000D02*
G75*
G03*
X14782000Y-10414000I-50000J0D01*
G01*
X14782000Y-10668000D02*
G75*
G03*
X14782000Y-10668000I-50000J0D01*
G01*
X14782000Y-10922000D02*
G75*
G03*
X14782000Y-10922000I-50000J0D01*
G01*
X14782000Y-11176000D02*
G75*
G03*
X14782000Y-11176000I-50000J0D01*
G01*
X14782000Y-11430000D02*
G75*
G03*
X14782000Y-11430000I-50000J0D01*
G01*
X14782000Y-11684000D02*
G75*
G03*
X14782000Y-11684000I-50000J0D01*
G01*
X14782000Y-11938000D02*
G75*
G03*
X14782000Y-11938000I-50000J0D01*
G01*
X14782000Y-12192000D02*
G75*
G03*
X14782000Y-12192000I-50000J0D01*
G01*
D11*
X13336777Y-12825984D02*
X13336777Y-12625984D01*
X13336777Y-12625984D02*
X13384396Y-12625984D01*
X13384396Y-12625984D02*
X13412967Y-12635508D01*
X13412967Y-12635508D02*
X13432015Y-12654555D01*
X13432015Y-12654555D02*
X13441539Y-12673603D01*
X13441539Y-12673603D02*
X13451062Y-12711698D01*
X13451062Y-12711698D02*
X13451062Y-12740269D01*
X13451062Y-12740269D02*
X13441539Y-12778365D01*
X13441539Y-12778365D02*
X13432015Y-12797412D01*
X13432015Y-12797412D02*
X13412967Y-12816460D01*
X13412967Y-12816460D02*
X13384396Y-12825984D01*
X13384396Y-12825984D02*
X13336777Y-12825984D01*
X13536777Y-12825984D02*
X13536777Y-12692650D01*
X13536777Y-12730746D02*
X13546301Y-12711698D01*
X13546301Y-12711698D02*
X13555824Y-12702174D01*
X13555824Y-12702174D02*
X13574872Y-12692650D01*
X13574872Y-12692650D02*
X13593920Y-12692650D01*
X13660586Y-12825984D02*
X13660586Y-12692650D01*
X13660586Y-12625984D02*
X13651062Y-12635508D01*
X13651062Y-12635508D02*
X13660586Y-12645031D01*
X13660586Y-12645031D02*
X13670110Y-12635508D01*
X13670110Y-12635508D02*
X13660586Y-12625984D01*
X13660586Y-12625984D02*
X13660586Y-12645031D01*
X13784396Y-12825984D02*
X13765348Y-12816460D01*
X13765348Y-12816460D02*
X13755824Y-12797412D01*
X13755824Y-12797412D02*
X13755824Y-12625984D01*
X13889158Y-12825984D02*
X13870110Y-12816460D01*
X13870110Y-12816460D02*
X13860586Y-12797412D01*
X13860586Y-12797412D02*
X13860586Y-12625984D01*
X14117729Y-12825984D02*
X14117729Y-12625984D01*
X14117729Y-12625984D02*
X14184396Y-12768841D01*
X14184396Y-12768841D02*
X14251062Y-12625984D01*
X14251062Y-12625984D02*
X14251062Y-12825984D01*
X14432015Y-12825984D02*
X14432015Y-12721222D01*
X14432015Y-12721222D02*
X14422491Y-12702174D01*
X14422491Y-12702174D02*
X14403443Y-12692650D01*
X14403443Y-12692650D02*
X14365348Y-12692650D01*
X14365348Y-12692650D02*
X14346301Y-12702174D01*
X14432015Y-12816460D02*
X14412967Y-12825984D01*
X14412967Y-12825984D02*
X14365348Y-12825984D01*
X14365348Y-12825984D02*
X14346301Y-12816460D01*
X14346301Y-12816460D02*
X14336777Y-12797412D01*
X14336777Y-12797412D02*
X14336777Y-12778365D01*
X14336777Y-12778365D02*
X14346301Y-12759317D01*
X14346301Y-12759317D02*
X14365348Y-12749793D01*
X14365348Y-12749793D02*
X14412967Y-12749793D01*
X14412967Y-12749793D02*
X14432015Y-12740269D01*
X14527253Y-12692650D02*
X14527253Y-12892650D01*
X14527253Y-12702174D02*
X14546301Y-12692650D01*
X14546301Y-12692650D02*
X14584396Y-12692650D01*
X14584396Y-12692650D02*
X14603443Y-12702174D01*
X14603443Y-12702174D02*
X14612967Y-12711698D01*
X14612967Y-12711698D02*
X14622491Y-12730746D01*
X14622491Y-12730746D02*
X14622491Y-12787888D01*
X14622491Y-12787888D02*
X14612967Y-12806936D01*
X14612967Y-12806936D02*
X14603443Y-12816460D01*
X14603443Y-12816460D02*
X14584396Y-12825984D01*
X14584396Y-12825984D02*
X14546301Y-12825984D01*
X14546301Y-12825984D02*
X14527253Y-12816460D01*
X14708205Y-12806936D02*
X14717729Y-12816460D01*
X14717729Y-12816460D02*
X14708205Y-12825984D01*
X14708205Y-12825984D02*
X14698682Y-12816460D01*
X14698682Y-12816460D02*
X14708205Y-12806936D01*
X14708205Y-12806936D02*
X14708205Y-12825984D01*
X14708205Y-12702174D02*
X14717729Y-12711698D01*
X14717729Y-12711698D02*
X14708205Y-12721222D01*
X14708205Y-12721222D02*
X14698682Y-12711698D01*
X14698682Y-12711698D02*
X14708205Y-12702174D01*
X14708205Y-12702174D02*
X14708205Y-12721222D01*
D12*
X13036000Y-13134500D02*
X13076000Y-13174500D01*
X13076000Y-13134500D02*
X13036000Y-13174500D01*
D11*
X13374872Y-13045984D02*
X13393920Y-13045984D01*
X13393920Y-13045984D02*
X13412967Y-13055508D01*
X13412967Y-13055508D02*
X13422491Y-13065031D01*
X13422491Y-13065031D02*
X13432015Y-13084079D01*
X13432015Y-13084079D02*
X13441539Y-13122174D01*
X13441539Y-13122174D02*
X13441539Y-13169793D01*
X13441539Y-13169793D02*
X13432015Y-13207888D01*
X13432015Y-13207888D02*
X13422491Y-13226936D01*
X13422491Y-13226936D02*
X13412967Y-13236460D01*
X13412967Y-13236460D02*
X13393920Y-13245984D01*
X13393920Y-13245984D02*
X13374872Y-13245984D01*
X13374872Y-13245984D02*
X13355824Y-13236460D01*
X13355824Y-13236460D02*
X13346301Y-13226936D01*
X13346301Y-13226936D02*
X13336777Y-13207888D01*
X13336777Y-13207888D02*
X13327253Y-13169793D01*
X13327253Y-13169793D02*
X13327253Y-13122174D01*
X13327253Y-13122174D02*
X13336777Y-13084079D01*
X13336777Y-13084079D02*
X13346301Y-13065031D01*
X13346301Y-13065031D02*
X13355824Y-13055508D01*
X13355824Y-13055508D02*
X13374872Y-13045984D01*
X13527253Y-13226936D02*
X13536777Y-13236460D01*
X13536777Y-13236460D02*
X13527253Y-13245984D01*
X13527253Y-13245984D02*
X13517729Y-13236460D01*
X13517729Y-13236460D02*
X13527253Y-13226936D01*
X13527253Y-13226936D02*
X13527253Y-13245984D01*
X13708205Y-13112650D02*
X13708205Y-13245984D01*
X13660586Y-13036460D02*
X13612967Y-13179317D01*
X13612967Y-13179317D02*
X13736777Y-13179317D01*
X13851062Y-13045984D02*
X13870110Y-13045984D01*
X13870110Y-13045984D02*
X13889158Y-13055508D01*
X13889158Y-13055508D02*
X13898682Y-13065031D01*
X13898682Y-13065031D02*
X13908205Y-13084079D01*
X13908205Y-13084079D02*
X13917729Y-13122174D01*
X13917729Y-13122174D02*
X13917729Y-13169793D01*
X13917729Y-13169793D02*
X13908205Y-13207888D01*
X13908205Y-13207888D02*
X13898682Y-13226936D01*
X13898682Y-13226936D02*
X13889158Y-13236460D01*
X13889158Y-13236460D02*
X13870110Y-13245984D01*
X13870110Y-13245984D02*
X13851062Y-13245984D01*
X13851062Y-13245984D02*
X13832015Y-13236460D01*
X13832015Y-13236460D02*
X13822491Y-13226936D01*
X13822491Y-13226936D02*
X13812967Y-13207888D01*
X13812967Y-13207888D02*
X13803443Y-13169793D01*
X13803443Y-13169793D02*
X13803443Y-13122174D01*
X13803443Y-13122174D02*
X13812967Y-13084079D01*
X13812967Y-13084079D02*
X13822491Y-13065031D01*
X13822491Y-13065031D02*
X13832015Y-13055508D01*
X13832015Y-13055508D02*
X13851062Y-13045984D01*
X14041539Y-13045984D02*
X14060586Y-13045984D01*
X14060586Y-13045984D02*
X14079634Y-13055508D01*
X14079634Y-13055508D02*
X14089158Y-13065031D01*
X14089158Y-13065031D02*
X14098682Y-13084079D01*
X14098682Y-13084079D02*
X14108205Y-13122174D01*
X14108205Y-13122174D02*
X14108205Y-13169793D01*
X14108205Y-13169793D02*
X14098682Y-13207888D01*
X14098682Y-13207888D02*
X14089158Y-13226936D01*
X14089158Y-13226936D02*
X14079634Y-13236460D01*
X14079634Y-13236460D02*
X14060586Y-13245984D01*
X14060586Y-13245984D02*
X14041539Y-13245984D01*
X14041539Y-13245984D02*
X14022491Y-13236460D01*
X14022491Y-13236460D02*
X14012967Y-13226936D01*
X14012967Y-13226936D02*
X14003443Y-13207888D01*
X14003443Y-13207888D02*
X13993920Y-13169793D01*
X13993920Y-13169793D02*
X13993920Y-13122174D01*
X13993920Y-13122174D02*
X14003443Y-13084079D01*
X14003443Y-13084079D02*
X14012967Y-13065031D01*
X14012967Y-13065031D02*
X14022491Y-13055508D01*
X14022491Y-13055508D02*
X14041539Y-13045984D01*
X14193920Y-13245984D02*
X14193920Y-13112650D01*
X14193920Y-13131698D02*
X14203443Y-13122174D01*
X14203443Y-13122174D02*
X14222491Y-13112650D01*
X14222491Y-13112650D02*
X14251063Y-13112650D01*
X14251063Y-13112650D02*
X14270110Y-13122174D01*
X14270110Y-13122174D02*
X14279634Y-13141222D01*
X14279634Y-13141222D02*
X14279634Y-13245984D01*
X14279634Y-13141222D02*
X14289158Y-13122174D01*
X14289158Y-13122174D02*
X14308205Y-13112650D01*
X14308205Y-13112650D02*
X14336777Y-13112650D01*
X14336777Y-13112650D02*
X14355824Y-13122174D01*
X14355824Y-13122174D02*
X14365348Y-13141222D01*
X14365348Y-13141222D02*
X14365348Y-13245984D01*
X14460586Y-13245984D02*
X14460586Y-13112650D01*
X14460586Y-13131698D02*
X14470110Y-13122174D01*
X14470110Y-13122174D02*
X14489158Y-13112650D01*
X14489158Y-13112650D02*
X14517729Y-13112650D01*
X14517729Y-13112650D02*
X14536777Y-13122174D01*
X14536777Y-13122174D02*
X14546301Y-13141222D01*
X14546301Y-13141222D02*
X14546301Y-13245984D01*
X14546301Y-13141222D02*
X14555824Y-13122174D01*
X14555824Y-13122174D02*
X14574872Y-13112650D01*
X14574872Y-13112650D02*
X14603443Y-13112650D01*
X14603443Y-13112650D02*
X14622491Y-13122174D01*
X14622491Y-13122174D02*
X14632015Y-13141222D01*
X14632015Y-13141222D02*
X14632015Y-13245984D01*
X15022491Y-13036460D02*
X14851063Y-13293603D01*
X15279634Y-13045984D02*
X15298682Y-13045984D01*
X15298682Y-13045984D02*
X15317729Y-13055508D01*
X15317729Y-13055508D02*
X15327253Y-13065031D01*
X15327253Y-13065031D02*
X15336777Y-13084079D01*
X15336777Y-13084079D02*
X15346301Y-13122174D01*
X15346301Y-13122174D02*
X15346301Y-13169793D01*
X15346301Y-13169793D02*
X15336777Y-13207888D01*
X15336777Y-13207888D02*
X15327253Y-13226936D01*
X15327253Y-13226936D02*
X15317729Y-13236460D01*
X15317729Y-13236460D02*
X15298682Y-13245984D01*
X15298682Y-13245984D02*
X15279634Y-13245984D01*
X15279634Y-13245984D02*
X15260586Y-13236460D01*
X15260586Y-13236460D02*
X15251063Y-13226936D01*
X15251063Y-13226936D02*
X15241539Y-13207888D01*
X15241539Y-13207888D02*
X15232015Y-13169793D01*
X15232015Y-13169793D02*
X15232015Y-13122174D01*
X15232015Y-13122174D02*
X15241539Y-13084079D01*
X15241539Y-13084079D02*
X15251063Y-13065031D01*
X15251063Y-13065031D02*
X15260586Y-13055508D01*
X15260586Y-13055508D02*
X15279634Y-13045984D01*
X15432015Y-13226936D02*
X15441539Y-13236460D01*
X15441539Y-13236460D02*
X15432015Y-13245984D01*
X15432015Y-13245984D02*
X15422491Y-13236460D01*
X15422491Y-13236460D02*
X15432015Y-13226936D01*
X15432015Y-13226936D02*
X15432015Y-13245984D01*
X15565348Y-13045984D02*
X15584396Y-13045984D01*
X15584396Y-13045984D02*
X15603444Y-13055508D01*
X15603444Y-13055508D02*
X15612967Y-13065031D01*
X15612967Y-13065031D02*
X15622491Y-13084079D01*
X15622491Y-13084079D02*
X15632015Y-13122174D01*
X15632015Y-13122174D02*
X15632015Y-13169793D01*
X15632015Y-13169793D02*
X15622491Y-13207888D01*
X15622491Y-13207888D02*
X15612967Y-13226936D01*
X15612967Y-13226936D02*
X15603444Y-13236460D01*
X15603444Y-13236460D02*
X15584396Y-13245984D01*
X15584396Y-13245984D02*
X15565348Y-13245984D01*
X15565348Y-13245984D02*
X15546301Y-13236460D01*
X15546301Y-13236460D02*
X15536777Y-13226936D01*
X15536777Y-13226936D02*
X15527253Y-13207888D01*
X15527253Y-13207888D02*
X15517729Y-13169793D01*
X15517729Y-13169793D02*
X15517729Y-13122174D01*
X15517729Y-13122174D02*
X15527253Y-13084079D01*
X15527253Y-13084079D02*
X15536777Y-13065031D01*
X15536777Y-13065031D02*
X15546301Y-13055508D01*
X15546301Y-13055508D02*
X15565348Y-13045984D01*
X15822491Y-13245984D02*
X15708206Y-13245984D01*
X15765348Y-13245984D02*
X15765348Y-13045984D01*
X15765348Y-13045984D02*
X15746301Y-13074555D01*
X15746301Y-13074555D02*
X15727253Y-13093603D01*
X15727253Y-13093603D02*
X15708206Y-13103127D01*
X16003444Y-13045984D02*
X15908206Y-13045984D01*
X15908206Y-13045984D02*
X15898682Y-13141222D01*
X15898682Y-13141222D02*
X15908206Y-13131698D01*
X15908206Y-13131698D02*
X15927253Y-13122174D01*
X15927253Y-13122174D02*
X15974872Y-13122174D01*
X15974872Y-13122174D02*
X15993920Y-13131698D01*
X15993920Y-13131698D02*
X16003444Y-13141222D01*
X16003444Y-13141222D02*
X16012967Y-13160269D01*
X16012967Y-13160269D02*
X16012967Y-13207888D01*
X16012967Y-13207888D02*
X16003444Y-13226936D01*
X16003444Y-13226936D02*
X15993920Y-13236460D01*
X15993920Y-13236460D02*
X15974872Y-13245984D01*
X15974872Y-13245984D02*
X15927253Y-13245984D01*
X15927253Y-13245984D02*
X15908206Y-13236460D01*
X15908206Y-13236460D02*
X15898682Y-13226936D01*
X16079634Y-13045984D02*
X16212967Y-13045984D01*
X16212967Y-13045984D02*
X16127253Y-13245984D01*
X16279634Y-13045984D02*
X16279634Y-13084079D01*
X16355825Y-13045984D02*
X16355825Y-13084079D01*
X16651063Y-13322174D02*
X16641539Y-13312650D01*
X16641539Y-13312650D02*
X16622491Y-13284079D01*
X16622491Y-13284079D02*
X16612968Y-13265031D01*
X16612968Y-13265031D02*
X16603444Y-13236460D01*
X16603444Y-13236460D02*
X16593920Y-13188841D01*
X16593920Y-13188841D02*
X16593920Y-13150746D01*
X16593920Y-13150746D02*
X16603444Y-13103127D01*
X16603444Y-13103127D02*
X16612968Y-13074555D01*
X16612968Y-13074555D02*
X16622491Y-13055508D01*
X16622491Y-13055508D02*
X16641539Y-13026936D01*
X16641539Y-13026936D02*
X16651063Y-13017412D01*
X16717729Y-13065031D02*
X16727253Y-13055508D01*
X16727253Y-13055508D02*
X16746301Y-13045984D01*
X16746301Y-13045984D02*
X16793920Y-13045984D01*
X16793920Y-13045984D02*
X16812968Y-13055508D01*
X16812968Y-13055508D02*
X16822491Y-13065031D01*
X16822491Y-13065031D02*
X16832015Y-13084079D01*
X16832015Y-13084079D02*
X16832015Y-13103127D01*
X16832015Y-13103127D02*
X16822491Y-13131698D01*
X16822491Y-13131698D02*
X16708206Y-13245984D01*
X16708206Y-13245984D02*
X16832015Y-13245984D01*
X16927253Y-13245984D02*
X16965349Y-13245984D01*
X16965349Y-13245984D02*
X16984396Y-13236460D01*
X16984396Y-13236460D02*
X16993920Y-13226936D01*
X16993920Y-13226936D02*
X17012968Y-13198365D01*
X17012968Y-13198365D02*
X17022491Y-13160269D01*
X17022491Y-13160269D02*
X17022491Y-13084079D01*
X17022491Y-13084079D02*
X17012968Y-13065031D01*
X17012968Y-13065031D02*
X17003444Y-13055508D01*
X17003444Y-13055508D02*
X16984396Y-13045984D01*
X16984396Y-13045984D02*
X16946301Y-13045984D01*
X16946301Y-13045984D02*
X16927253Y-13055508D01*
X16927253Y-13055508D02*
X16917730Y-13065031D01*
X16917730Y-13065031D02*
X16908206Y-13084079D01*
X16908206Y-13084079D02*
X16908206Y-13131698D01*
X16908206Y-13131698D02*
X16917730Y-13150746D01*
X16917730Y-13150746D02*
X16927253Y-13160269D01*
X16927253Y-13160269D02*
X16946301Y-13169793D01*
X16946301Y-13169793D02*
X16984396Y-13169793D01*
X16984396Y-13169793D02*
X17003444Y-13160269D01*
X17003444Y-13160269D02*
X17012968Y-13150746D01*
X17012968Y-13150746D02*
X17022491Y-13131698D01*
X17260587Y-13245984D02*
X17260587Y-13045984D01*
X17346301Y-13245984D02*
X17346301Y-13141222D01*
X17346301Y-13141222D02*
X17336777Y-13122174D01*
X17336777Y-13122174D02*
X17317730Y-13112650D01*
X17317730Y-13112650D02*
X17289158Y-13112650D01*
X17289158Y-13112650D02*
X17270111Y-13122174D01*
X17270111Y-13122174D02*
X17260587Y-13131698D01*
X17470111Y-13245984D02*
X17451063Y-13236460D01*
X17451063Y-13236460D02*
X17441539Y-13226936D01*
X17441539Y-13226936D02*
X17432015Y-13207888D01*
X17432015Y-13207888D02*
X17432015Y-13150746D01*
X17432015Y-13150746D02*
X17441539Y-13131698D01*
X17441539Y-13131698D02*
X17451063Y-13122174D01*
X17451063Y-13122174D02*
X17470111Y-13112650D01*
X17470111Y-13112650D02*
X17498682Y-13112650D01*
X17498682Y-13112650D02*
X17517730Y-13122174D01*
X17517730Y-13122174D02*
X17527253Y-13131698D01*
X17527253Y-13131698D02*
X17536777Y-13150746D01*
X17536777Y-13150746D02*
X17536777Y-13207888D01*
X17536777Y-13207888D02*
X17527253Y-13226936D01*
X17527253Y-13226936D02*
X17517730Y-13236460D01*
X17517730Y-13236460D02*
X17498682Y-13245984D01*
X17498682Y-13245984D02*
X17470111Y-13245984D01*
X17651063Y-13245984D02*
X17632015Y-13236460D01*
X17632015Y-13236460D02*
X17622492Y-13217412D01*
X17622492Y-13217412D02*
X17622492Y-13045984D01*
X17803444Y-13236460D02*
X17784396Y-13245984D01*
X17784396Y-13245984D02*
X17746301Y-13245984D01*
X17746301Y-13245984D02*
X17727253Y-13236460D01*
X17727253Y-13236460D02*
X17717730Y-13217412D01*
X17717730Y-13217412D02*
X17717730Y-13141222D01*
X17717730Y-13141222D02*
X17727253Y-13122174D01*
X17727253Y-13122174D02*
X17746301Y-13112650D01*
X17746301Y-13112650D02*
X17784396Y-13112650D01*
X17784396Y-13112650D02*
X17803444Y-13122174D01*
X17803444Y-13122174D02*
X17812968Y-13141222D01*
X17812968Y-13141222D02*
X17812968Y-13160269D01*
X17812968Y-13160269D02*
X17717730Y-13179317D01*
X17889158Y-13236460D02*
X17908206Y-13245984D01*
X17908206Y-13245984D02*
X17946301Y-13245984D01*
X17946301Y-13245984D02*
X17965349Y-13236460D01*
X17965349Y-13236460D02*
X17974873Y-13217412D01*
X17974873Y-13217412D02*
X17974873Y-13207888D01*
X17974873Y-13207888D02*
X17965349Y-13188841D01*
X17965349Y-13188841D02*
X17946301Y-13179317D01*
X17946301Y-13179317D02*
X17917730Y-13179317D01*
X17917730Y-13179317D02*
X17898682Y-13169793D01*
X17898682Y-13169793D02*
X17889158Y-13150746D01*
X17889158Y-13150746D02*
X17889158Y-13141222D01*
X17889158Y-13141222D02*
X17898682Y-13122174D01*
X17898682Y-13122174D02*
X17917730Y-13112650D01*
X17917730Y-13112650D02*
X17946301Y-13112650D01*
X17946301Y-13112650D02*
X17965349Y-13122174D01*
X18041539Y-13322174D02*
X18051063Y-13312650D01*
X18051063Y-13312650D02*
X18070111Y-13284079D01*
X18070111Y-13284079D02*
X18079634Y-13265031D01*
X18079634Y-13265031D02*
X18089158Y-13236460D01*
X18089158Y-13236460D02*
X18098682Y-13188841D01*
X18098682Y-13188841D02*
X18098682Y-13150746D01*
X18098682Y-13150746D02*
X18089158Y-13103127D01*
X18089158Y-13103127D02*
X18079634Y-13074555D01*
X18079634Y-13074555D02*
X18070111Y-13055508D01*
X18070111Y-13055508D02*
X18051063Y-13026936D01*
X18051063Y-13026936D02*
X18041539Y-13017412D01*
D10*
X13076000Y-13418500D02*
G75*
G03*
X13076000Y-13418500I-50000J0D01*
G01*
D11*
X13441539Y-13509984D02*
X13327253Y-13509984D01*
X13384396Y-13509984D02*
X13384396Y-13309984D01*
X13384396Y-13309984D02*
X13365348Y-13338555D01*
X13365348Y-13338555D02*
X13346301Y-13357603D01*
X13346301Y-13357603D02*
X13327253Y-13367127D01*
X13527253Y-13490936D02*
X13536777Y-13500460D01*
X13536777Y-13500460D02*
X13527253Y-13509984D01*
X13527253Y-13509984D02*
X13517729Y-13500460D01*
X13517729Y-13500460D02*
X13527253Y-13490936D01*
X13527253Y-13490936D02*
X13527253Y-13509984D01*
X13660586Y-13309984D02*
X13679634Y-13309984D01*
X13679634Y-13309984D02*
X13698682Y-13319508D01*
X13698682Y-13319508D02*
X13708205Y-13329031D01*
X13708205Y-13329031D02*
X13717729Y-13348079D01*
X13717729Y-13348079D02*
X13727253Y-13386174D01*
X13727253Y-13386174D02*
X13727253Y-13433793D01*
X13727253Y-13433793D02*
X13717729Y-13471888D01*
X13717729Y-13471888D02*
X13708205Y-13490936D01*
X13708205Y-13490936D02*
X13698682Y-13500460D01*
X13698682Y-13500460D02*
X13679634Y-13509984D01*
X13679634Y-13509984D02*
X13660586Y-13509984D01*
X13660586Y-13509984D02*
X13641539Y-13500460D01*
X13641539Y-13500460D02*
X13632015Y-13490936D01*
X13632015Y-13490936D02*
X13622491Y-13471888D01*
X13622491Y-13471888D02*
X13612967Y-13433793D01*
X13612967Y-13433793D02*
X13612967Y-13386174D01*
X13612967Y-13386174D02*
X13622491Y-13348079D01*
X13622491Y-13348079D02*
X13632015Y-13329031D01*
X13632015Y-13329031D02*
X13641539Y-13319508D01*
X13641539Y-13319508D02*
X13660586Y-13309984D01*
X13851062Y-13309984D02*
X13870110Y-13309984D01*
X13870110Y-13309984D02*
X13889158Y-13319508D01*
X13889158Y-13319508D02*
X13898682Y-13329031D01*
X13898682Y-13329031D02*
X13908205Y-13348079D01*
X13908205Y-13348079D02*
X13917729Y-13386174D01*
X13917729Y-13386174D02*
X13917729Y-13433793D01*
X13917729Y-13433793D02*
X13908205Y-13471888D01*
X13908205Y-13471888D02*
X13898682Y-13490936D01*
X13898682Y-13490936D02*
X13889158Y-13500460D01*
X13889158Y-13500460D02*
X13870110Y-13509984D01*
X13870110Y-13509984D02*
X13851062Y-13509984D01*
X13851062Y-13509984D02*
X13832015Y-13500460D01*
X13832015Y-13500460D02*
X13822491Y-13490936D01*
X13822491Y-13490936D02*
X13812967Y-13471888D01*
X13812967Y-13471888D02*
X13803443Y-13433793D01*
X13803443Y-13433793D02*
X13803443Y-13386174D01*
X13803443Y-13386174D02*
X13812967Y-13348079D01*
X13812967Y-13348079D02*
X13822491Y-13329031D01*
X13822491Y-13329031D02*
X13832015Y-13319508D01*
X13832015Y-13319508D02*
X13851062Y-13309984D01*
X14041539Y-13309984D02*
X14060586Y-13309984D01*
X14060586Y-13309984D02*
X14079634Y-13319508D01*
X14079634Y-13319508D02*
X14089158Y-13329031D01*
X14089158Y-13329031D02*
X14098682Y-13348079D01*
X14098682Y-13348079D02*
X14108205Y-13386174D01*
X14108205Y-13386174D02*
X14108205Y-13433793D01*
X14108205Y-13433793D02*
X14098682Y-13471888D01*
X14098682Y-13471888D02*
X14089158Y-13490936D01*
X14089158Y-13490936D02*
X14079634Y-13500460D01*
X14079634Y-13500460D02*
X14060586Y-13509984D01*
X14060586Y-13509984D02*
X14041539Y-13509984D01*
X14041539Y-13509984D02*
X14022491Y-13500460D01*
X14022491Y-13500460D02*
X14012967Y-13490936D01*
X14012967Y-13490936D02*
X14003443Y-13471888D01*
X14003443Y-13471888D02*
X13993920Y-13433793D01*
X13993920Y-13433793D02*
X13993920Y-13386174D01*
X13993920Y-13386174D02*
X14003443Y-13348079D01*
X14003443Y-13348079D02*
X14012967Y-13329031D01*
X14012967Y-13329031D02*
X14022491Y-13319508D01*
X14022491Y-13319508D02*
X14041539Y-13309984D01*
X14193920Y-13509984D02*
X14193920Y-13376650D01*
X14193920Y-13395698D02*
X14203443Y-13386174D01*
X14203443Y-13386174D02*
X14222491Y-13376650D01*
X14222491Y-13376650D02*
X14251063Y-13376650D01*
X14251063Y-13376650D02*
X14270110Y-13386174D01*
X14270110Y-13386174D02*
X14279634Y-13405222D01*
X14279634Y-13405222D02*
X14279634Y-13509984D01*
X14279634Y-13405222D02*
X14289158Y-13386174D01*
X14289158Y-13386174D02*
X14308205Y-13376650D01*
X14308205Y-13376650D02*
X14336777Y-13376650D01*
X14336777Y-13376650D02*
X14355824Y-13386174D01*
X14355824Y-13386174D02*
X14365348Y-13405222D01*
X14365348Y-13405222D02*
X14365348Y-13509984D01*
X14460586Y-13509984D02*
X14460586Y-13376650D01*
X14460586Y-13395698D02*
X14470110Y-13386174D01*
X14470110Y-13386174D02*
X14489158Y-13376650D01*
X14489158Y-13376650D02*
X14517729Y-13376650D01*
X14517729Y-13376650D02*
X14536777Y-13386174D01*
X14536777Y-13386174D02*
X14546301Y-13405222D01*
X14546301Y-13405222D02*
X14546301Y-13509984D01*
X14546301Y-13405222D02*
X14555824Y-13386174D01*
X14555824Y-13386174D02*
X14574872Y-13376650D01*
X14574872Y-13376650D02*
X14603443Y-13376650D01*
X14603443Y-13376650D02*
X14622491Y-13386174D01*
X14622491Y-13386174D02*
X14632015Y-13405222D01*
X14632015Y-13405222D02*
X14632015Y-13509984D01*
X15022491Y-13300460D02*
X14851063Y-13557603D01*
X15279634Y-13309984D02*
X15298682Y-13309984D01*
X15298682Y-13309984D02*
X15317729Y-13319508D01*
X15317729Y-13319508D02*
X15327253Y-13329031D01*
X15327253Y-13329031D02*
X15336777Y-13348079D01*
X15336777Y-13348079D02*
X15346301Y-13386174D01*
X15346301Y-13386174D02*
X15346301Y-13433793D01*
X15346301Y-13433793D02*
X15336777Y-13471888D01*
X15336777Y-13471888D02*
X15327253Y-13490936D01*
X15327253Y-13490936D02*
X15317729Y-13500460D01*
X15317729Y-13500460D02*
X15298682Y-13509984D01*
X15298682Y-13509984D02*
X15279634Y-13509984D01*
X15279634Y-13509984D02*
X15260586Y-13500460D01*
X15260586Y-13500460D02*
X15251063Y-13490936D01*
X15251063Y-13490936D02*
X15241539Y-13471888D01*
X15241539Y-13471888D02*
X15232015Y-13433793D01*
X15232015Y-13433793D02*
X15232015Y-13386174D01*
X15232015Y-13386174D02*
X15241539Y-13348079D01*
X15241539Y-13348079D02*
X15251063Y-13329031D01*
X15251063Y-13329031D02*
X15260586Y-13319508D01*
X15260586Y-13319508D02*
X15279634Y-13309984D01*
X15432015Y-13490936D02*
X15441539Y-13500460D01*
X15441539Y-13500460D02*
X15432015Y-13509984D01*
X15432015Y-13509984D02*
X15422491Y-13500460D01*
X15422491Y-13500460D02*
X15432015Y-13490936D01*
X15432015Y-13490936D02*
X15432015Y-13509984D01*
X15565348Y-13309984D02*
X15584396Y-13309984D01*
X15584396Y-13309984D02*
X15603444Y-13319508D01*
X15603444Y-13319508D02*
X15612967Y-13329031D01*
X15612967Y-13329031D02*
X15622491Y-13348079D01*
X15622491Y-13348079D02*
X15632015Y-13386174D01*
X15632015Y-13386174D02*
X15632015Y-13433793D01*
X15632015Y-13433793D02*
X15622491Y-13471888D01*
X15622491Y-13471888D02*
X15612967Y-13490936D01*
X15612967Y-13490936D02*
X15603444Y-13500460D01*
X15603444Y-13500460D02*
X15584396Y-13509984D01*
X15584396Y-13509984D02*
X15565348Y-13509984D01*
X15565348Y-13509984D02*
X15546301Y-13500460D01*
X15546301Y-13500460D02*
X15536777Y-13490936D01*
X15536777Y-13490936D02*
X15527253Y-13471888D01*
X15527253Y-13471888D02*
X15517729Y-13433793D01*
X15517729Y-13433793D02*
X15517729Y-13386174D01*
X15517729Y-13386174D02*
X15527253Y-13348079D01*
X15527253Y-13348079D02*
X15536777Y-13329031D01*
X15536777Y-13329031D02*
X15546301Y-13319508D01*
X15546301Y-13319508D02*
X15565348Y-13309984D01*
X15698682Y-13309984D02*
X15822491Y-13309984D01*
X15822491Y-13309984D02*
X15755825Y-13386174D01*
X15755825Y-13386174D02*
X15784396Y-13386174D01*
X15784396Y-13386174D02*
X15803444Y-13395698D01*
X15803444Y-13395698D02*
X15812967Y-13405222D01*
X15812967Y-13405222D02*
X15822491Y-13424269D01*
X15822491Y-13424269D02*
X15822491Y-13471888D01*
X15822491Y-13471888D02*
X15812967Y-13490936D01*
X15812967Y-13490936D02*
X15803444Y-13500460D01*
X15803444Y-13500460D02*
X15784396Y-13509984D01*
X15784396Y-13509984D02*
X15727253Y-13509984D01*
X15727253Y-13509984D02*
X15708206Y-13500460D01*
X15708206Y-13500460D02*
X15698682Y-13490936D01*
X15917729Y-13509984D02*
X15955825Y-13509984D01*
X15955825Y-13509984D02*
X15974872Y-13500460D01*
X15974872Y-13500460D02*
X15984396Y-13490936D01*
X15984396Y-13490936D02*
X16003444Y-13462365D01*
X16003444Y-13462365D02*
X16012967Y-13424269D01*
X16012967Y-13424269D02*
X16012967Y-13348079D01*
X16012967Y-13348079D02*
X16003444Y-13329031D01*
X16003444Y-13329031D02*
X15993920Y-13319508D01*
X15993920Y-13319508D02*
X15974872Y-13309984D01*
X15974872Y-13309984D02*
X15936777Y-13309984D01*
X15936777Y-13309984D02*
X15917729Y-13319508D01*
X15917729Y-13319508D02*
X15908206Y-13329031D01*
X15908206Y-13329031D02*
X15898682Y-13348079D01*
X15898682Y-13348079D02*
X15898682Y-13395698D01*
X15898682Y-13395698D02*
X15908206Y-13414746D01*
X15908206Y-13414746D02*
X15917729Y-13424269D01*
X15917729Y-13424269D02*
X15936777Y-13433793D01*
X15936777Y-13433793D02*
X15974872Y-13433793D01*
X15974872Y-13433793D02*
X15993920Y-13424269D01*
X15993920Y-13424269D02*
X16003444Y-13414746D01*
X16003444Y-13414746D02*
X16012967Y-13395698D01*
X16184396Y-13376650D02*
X16184396Y-13509984D01*
X16136777Y-13300460D02*
X16089158Y-13443317D01*
X16089158Y-13443317D02*
X16212967Y-13443317D01*
X16279634Y-13309984D02*
X16279634Y-13348079D01*
X16355825Y-13309984D02*
X16355825Y-13348079D01*
X16651063Y-13586174D02*
X16641539Y-13576650D01*
X16641539Y-13576650D02*
X16622491Y-13548079D01*
X16622491Y-13548079D02*
X16612968Y-13529031D01*
X16612968Y-13529031D02*
X16603444Y-13500460D01*
X16603444Y-13500460D02*
X16593920Y-13452841D01*
X16593920Y-13452841D02*
X16593920Y-13414746D01*
X16593920Y-13414746D02*
X16603444Y-13367127D01*
X16603444Y-13367127D02*
X16612968Y-13338555D01*
X16612968Y-13338555D02*
X16622491Y-13319508D01*
X16622491Y-13319508D02*
X16641539Y-13290936D01*
X16641539Y-13290936D02*
X16651063Y-13281412D01*
X16812968Y-13376650D02*
X16812968Y-13509984D01*
X16765348Y-13300460D02*
X16717729Y-13443317D01*
X16717729Y-13443317D02*
X16841539Y-13443317D01*
X16955825Y-13309984D02*
X16974872Y-13309984D01*
X16974872Y-13309984D02*
X16993920Y-13319508D01*
X16993920Y-13319508D02*
X17003444Y-13329031D01*
X17003444Y-13329031D02*
X17012968Y-13348079D01*
X17012968Y-13348079D02*
X17022491Y-13386174D01*
X17022491Y-13386174D02*
X17022491Y-13433793D01*
X17022491Y-13433793D02*
X17012968Y-13471888D01*
X17012968Y-13471888D02*
X17003444Y-13490936D01*
X17003444Y-13490936D02*
X16993920Y-13500460D01*
X16993920Y-13500460D02*
X16974872Y-13509984D01*
X16974872Y-13509984D02*
X16955825Y-13509984D01*
X16955825Y-13509984D02*
X16936777Y-13500460D01*
X16936777Y-13500460D02*
X16927253Y-13490936D01*
X16927253Y-13490936D02*
X16917730Y-13471888D01*
X16917730Y-13471888D02*
X16908206Y-13433793D01*
X16908206Y-13433793D02*
X16908206Y-13386174D01*
X16908206Y-13386174D02*
X16917730Y-13348079D01*
X16917730Y-13348079D02*
X16927253Y-13329031D01*
X16927253Y-13329031D02*
X16936777Y-13319508D01*
X16936777Y-13319508D02*
X16955825Y-13309984D01*
X17260587Y-13509984D02*
X17260587Y-13309984D01*
X17346301Y-13509984D02*
X17346301Y-13405222D01*
X17346301Y-13405222D02*
X17336777Y-13386174D01*
X17336777Y-13386174D02*
X17317730Y-13376650D01*
X17317730Y-13376650D02*
X17289158Y-13376650D01*
X17289158Y-13376650D02*
X17270111Y-13386174D01*
X17270111Y-13386174D02*
X17260587Y-13395698D01*
X17470111Y-13509984D02*
X17451063Y-13500460D01*
X17451063Y-13500460D02*
X17441539Y-13490936D01*
X17441539Y-13490936D02*
X17432015Y-13471888D01*
X17432015Y-13471888D02*
X17432015Y-13414746D01*
X17432015Y-13414746D02*
X17441539Y-13395698D01*
X17441539Y-13395698D02*
X17451063Y-13386174D01*
X17451063Y-13386174D02*
X17470111Y-13376650D01*
X17470111Y-13376650D02*
X17498682Y-13376650D01*
X17498682Y-13376650D02*
X17517730Y-13386174D01*
X17517730Y-13386174D02*
X17527253Y-13395698D01*
X17527253Y-13395698D02*
X17536777Y-13414746D01*
X17536777Y-13414746D02*
X17536777Y-13471888D01*
X17536777Y-13471888D02*
X17527253Y-13490936D01*
X17527253Y-13490936D02*
X17517730Y-13500460D01*
X17517730Y-13500460D02*
X17498682Y-13509984D01*
X17498682Y-13509984D02*
X17470111Y-13509984D01*
X17651063Y-13509984D02*
X17632015Y-13500460D01*
X17632015Y-13500460D02*
X17622492Y-13481412D01*
X17622492Y-13481412D02*
X17622492Y-13309984D01*
X17803444Y-13500460D02*
X17784396Y-13509984D01*
X17784396Y-13509984D02*
X17746301Y-13509984D01*
X17746301Y-13509984D02*
X17727253Y-13500460D01*
X17727253Y-13500460D02*
X17717730Y-13481412D01*
X17717730Y-13481412D02*
X17717730Y-13405222D01*
X17717730Y-13405222D02*
X17727253Y-13386174D01*
X17727253Y-13386174D02*
X17746301Y-13376650D01*
X17746301Y-13376650D02*
X17784396Y-13376650D01*
X17784396Y-13376650D02*
X17803444Y-13386174D01*
X17803444Y-13386174D02*
X17812968Y-13405222D01*
X17812968Y-13405222D02*
X17812968Y-13424269D01*
X17812968Y-13424269D02*
X17717730Y-13443317D01*
X17889158Y-13500460D02*
X17908206Y-13509984D01*
X17908206Y-13509984D02*
X17946301Y-13509984D01*
X17946301Y-13509984D02*
X17965349Y-13500460D01*
X17965349Y-13500460D02*
X17974873Y-13481412D01*
X17974873Y-13481412D02*
X17974873Y-13471888D01*
X17974873Y-13471888D02*
X17965349Y-13452841D01*
X17965349Y-13452841D02*
X17946301Y-13443317D01*
X17946301Y-13443317D02*
X17917730Y-13443317D01*
X17917730Y-13443317D02*
X17898682Y-13433793D01*
X17898682Y-13433793D02*
X17889158Y-13414746D01*
X17889158Y-13414746D02*
X17889158Y-13405222D01*
X17889158Y-13405222D02*
X17898682Y-13386174D01*
X17898682Y-13386174D02*
X17917730Y-13376650D01*
X17917730Y-13376650D02*
X17946301Y-13376650D01*
X17946301Y-13376650D02*
X17965349Y-13386174D01*
X18041539Y-13586174D02*
X18051063Y-13576650D01*
X18051063Y-13576650D02*
X18070111Y-13548079D01*
X18070111Y-13548079D02*
X18079634Y-13529031D01*
X18079634Y-13529031D02*
X18089158Y-13500460D01*
X18089158Y-13500460D02*
X18098682Y-13452841D01*
X18098682Y-13452841D02*
X18098682Y-13414746D01*
X18098682Y-13414746D02*
X18089158Y-13367127D01*
X18089158Y-13367127D02*
X18079634Y-13338555D01*
X18079634Y-13338555D02*
X18070111Y-13319508D01*
X18070111Y-13319508D02*
X18051063Y-13290936D01*
X18051063Y-13290936D02*
X18041539Y-13281412D01*
M02*
